<svg width="76" height="55" viewBox="0 0 76 55" fill="none" xmlns="http://www.w3.org/2000/svg">
<path d="M35.7334 48.2377H3.48096C2.11643 48.2377 1 47.1189 1 45.7515V3.4862C1 2.11879 2.11643 1 3.48096 1H35.7334C37.098 1 38.2144 2.11879 38.2144 3.4862V45.7515C38.2144 47.1189 37.098 48.2377 35.7334 48.2377Z" stroke="#FAED00" stroke-width="2" stroke-miterlimit="10" stroke-linecap="round" stroke-linejoin="round"/>
<path d="M35.7334 48.2377H3.48096C2.11643 48.2377 1 47.1189 1 45.7515V3.4862C1 2.11879 2.11643 1 3.48096 1H35.7334C37.098 1 38.2144 2.11879 38.2144 3.4862V45.7515C38.2144 47.1189 37.098 48.2377 35.7334 48.2377Z" stroke="url(#paint0_linear)" stroke-width="2" stroke-miterlimit="10" stroke-linecap="round" stroke-linejoin="round"/>
<path d="M47.6523 44.8697C47.6523 46.5436 49.1002 47.9132 50.8697 47.9132H52.4784C54.248 47.9132 55.6958 46.5436 55.6958 44.8697C55.6958 43.1958 54.248 41.8262 52.4784 41.8262H50.8697H52.4784C54.248 41.8262 55.6958 40.4567 55.6958 38.7827C55.6958 37.1088 54.248 35.7393 52.4784 35.7393H50.8697C49.1002 35.7393 47.6523 37.1088 47.6523 38.7827" stroke="#FAED00" stroke-width="2" stroke-miterlimit="10" stroke-linecap="round" stroke-linejoin="round"/>
<path d="M47.6523 44.8697C47.6523 46.5436 49.1002 47.9132 50.8697 47.9132H52.4784C54.248 47.9132 55.6958 46.5436 55.6958 44.8697C55.6958 43.1958 54.248 41.8262 52.4784 41.8262H50.8697H52.4784C54.248 41.8262 55.6958 40.4567 55.6958 38.7827C55.6958 37.1088 54.248 35.7393 52.4784 35.7393H50.8697C49.1002 35.7393 47.6523 37.1088 47.6523 38.7827" stroke="url(#paint1_linear)" stroke-width="2" stroke-miterlimit="10" stroke-linecap="round" stroke-linejoin="round"/>
<path d="M73.3913 53.9997H39.6087C38.7239 53.9997 38 53.315 38 52.478V25.0867C38 24.2497 38.7239 23.5649 39.6087 23.5649H73.3913C74.2761 23.5649 75 24.2497 75 25.0867V52.478C75 53.315 74.2761 53.9997 73.3913 53.9997Z" stroke="#FAED00" stroke-width="2" stroke-miterlimit="10" stroke-linecap="round" stroke-linejoin="round"/>
<path d="M73.3913 53.9997H39.6087C38.7239 53.9997 38 53.315 38 52.478V25.0867C38 24.2497 38.7239 23.5649 39.6087 23.5649H73.3913C74.2761 23.5649 75 24.2497 75 25.0867V52.478C75 53.315 74.2761 53.9997 73.3913 53.9997Z" stroke="url(#paint2_linear)" stroke-width="2" stroke-miterlimit="10" stroke-linecap="round" stroke-linejoin="round"/>
<path d="M38 31.1738H75" stroke="#FAED00" stroke-width="2" stroke-miterlimit="10" stroke-linecap="round" stroke-linejoin="round"/>
<path d="M38 31.1738H75" stroke="url(#paint3_linear)" stroke-width="2" stroke-miterlimit="10" stroke-linecap="round" stroke-linejoin="round"/>
<path d="M68.5649 19V26.6087" stroke="#FAED00" stroke-width="2" stroke-miterlimit="10" stroke-linecap="round" stroke-linejoin="round"/>
<path d="M68.5649 19V26.6087" stroke="url(#paint4_linear)" stroke-width="2" stroke-miterlimit="10" stroke-linecap="round" stroke-linejoin="round"/>
<path d="M44.4348 19V26.6087" stroke="#FAED00" stroke-width="2" stroke-miterlimit="10" stroke-linecap="round" stroke-linejoin="round"/>
<path d="M44.4348 19V26.6087" stroke="url(#paint5_linear)" stroke-width="2" stroke-miterlimit="10" stroke-linecap="round" stroke-linejoin="round"/>
<path d="M63.7394 47.9132V35.7393L60.522 38.7827" stroke="#FAED00" stroke-width="2" stroke-miterlimit="10" stroke-linecap="round" stroke-linejoin="round"/>
<path d="M63.7394 47.9132V35.7393L60.522 38.7827" stroke="url(#paint6_linear)" stroke-width="2" stroke-miterlimit="10" stroke-linecap="round" stroke-linejoin="round"/>
<defs>
<linearGradient id="paint0_linear" x1="19.6072" y1="1" x2="19.6072" y2="48.2377" gradientUnits="userSpaceOnUse">
<stop stop-color="#00C86A"/>
<stop offset="1" stop-color="white" stop-opacity="0"/>
</linearGradient>
<linearGradient id="paint1_linear" x1="51.6741" y1="35.7393" x2="51.6741" y2="47.9132" gradientUnits="userSpaceOnUse">
<stop stop-color="#00C86A"/>
<stop offset="1" stop-color="white" stop-opacity="0"/>
</linearGradient>
<linearGradient id="paint2_linear" x1="56.5" y1="23.5649" x2="56.5" y2="53.9997" gradientUnits="userSpaceOnUse">
<stop stop-color="#00C86A"/>
<stop offset="1" stop-color="white" stop-opacity="0"/>
</linearGradient>
<linearGradient id="paint3_linear" x1="56.5" y1="31.1738" x2="56.5" y2="32.1738" gradientUnits="userSpaceOnUse">
<stop stop-color="#00C86A"/>
<stop offset="1" stop-color="white" stop-opacity="0"/>
</linearGradient>
<linearGradient id="paint4_linear" x1="69.0649" y1="19" x2="69.0649" y2="26.6087" gradientUnits="userSpaceOnUse">
<stop stop-color="#00C86A"/>
<stop offset="1" stop-color="white" stop-opacity="0"/>
</linearGradient>
<linearGradient id="paint5_linear" x1="44.9348" y1="19" x2="44.9348" y2="26.6087" gradientUnits="userSpaceOnUse">
<stop stop-color="#00C86A"/>
<stop offset="1" stop-color="white" stop-opacity="0"/>
</linearGradient>
<linearGradient id="paint6_linear" x1="62.1307" y1="35.7393" x2="62.1307" y2="47.9132" gradientUnits="userSpaceOnUse">
<stop stop-color="#00C86A"/>
<stop offset="1" stop-color="white" stop-opacity="0"/>
</linearGradient>
</defs>
</svg>
