<svg width="54" height="56" viewBox="0 0 54 56" fill="none" xmlns="http://www.w3.org/2000/svg">
<path d="M27.8717 0C12.5074 0 0 12.5074 0 27.8717C0 43.236 12.5074 55.7434 27.8717 55.7434V52.2594C14.4236 52.2594 3.48396 41.3198 3.48396 27.8717C3.48396 14.4236 14.4236 3.48396 27.8717 3.48396C37.9752 3.48396 47.1554 9.8422 50.709 19.2837L53.9665 18.0469C49.9077 7.26403 39.421 0 27.8717 0Z" fill="#FAED00"/>
<path d="M27.8717 0C12.5074 0 0 12.5074 0 27.8717C0 43.236 12.5074 55.7434 27.8717 55.7434V52.2594C14.4236 52.2594 3.48396 41.3198 3.48396 27.8717C3.48396 14.4236 14.4236 3.48396 27.8717 3.48396C37.9752 3.48396 47.1554 9.8422 50.709 19.2837L53.9665 18.0469C49.9077 7.26403 39.421 0 27.8717 0Z" fill="url(#paint0_linear)"/>
<path d="M23.8822 45.605C23.5686 45.936 23.377 46.3888 23.377 46.8417C23.377 47.0682 23.4292 47.2946 23.5163 47.5037C23.6034 47.7127 23.7254 47.9043 23.8822 48.0611C24.0564 48.2353 24.2479 48.3573 24.457 48.4444C24.666 48.5315 24.8925 48.5837 25.1189 48.5837C25.5893 48.5837 26.0248 48.3921 26.3558 48.0611C26.6693 47.7476 26.8609 47.3121 26.8609 46.8417C26.8609 46.6153 26.8087 46.3889 26.7216 46.1799C26.6345 45.9534 26.5126 45.7618 26.3558 45.605C25.7112 44.9604 24.5441 44.9604 23.8822 45.605Z" fill="#FAED00"/>
<path d="M23.8822 45.605C23.5686 45.936 23.377 46.3888 23.377 46.8417C23.377 47.0682 23.4292 47.2946 23.5163 47.5037C23.6034 47.7127 23.7254 47.9043 23.8822 48.0611C24.0564 48.2353 24.2479 48.3573 24.457 48.4444C24.666 48.5315 24.8925 48.5837 25.1189 48.5837C25.5893 48.5837 26.0248 48.3921 26.3558 48.0611C26.6693 47.7476 26.8609 47.3121 26.8609 46.8417C26.8609 46.6153 26.8087 46.3889 26.7216 46.1799C26.6345 45.9534 26.5126 45.7618 26.3558 45.605C25.7112 44.9604 24.5441 44.9604 23.8822 45.605Z" fill="url(#paint1_linear)"/>
<path d="M9.77162 23.29C10.4858 23.29 11.1652 22.8371 11.4265 22.1229C11.7401 21.2171 11.2523 20.2241 10.3465 19.9106C9.44068 19.5796 8.44772 20.0673 8.13416 20.9732C7.8206 21.879 8.29102 22.872 9.19685 23.2029C9.38847 23.2552 9.58001 23.29 9.77162 23.29Z" fill="#FAED00"/>
<path d="M9.77162 23.29C10.4858 23.29 11.1652 22.8371 11.4265 22.1229C11.7401 21.2171 11.2523 20.2241 10.3465 19.9106C9.44068 19.5796 8.44772 20.0673 8.13416 20.9732C7.8206 21.879 8.29102 22.872 9.19685 23.2029C9.38847 23.2552 9.58001 23.29 9.77162 23.29Z" fill="url(#paint2_linear)"/>
<path d="M13.482 42.2777C13.8827 42.2777 14.3008 42.121 14.6318 41.8249C15.346 41.1978 15.433 40.1003 14.7885 39.3686C14.1614 38.6544 13.0466 38.5848 12.3323 39.2119C11.6007 39.8564 11.531 40.9539 12.1755 41.6855C12.5239 42.0687 12.9942 42.2777 13.482 42.2777Z" fill="#FAED00"/>
<path d="M13.482 42.2777C13.8827 42.2777 14.3008 42.121 14.6318 41.8249C15.346 41.1978 15.433 40.1003 14.7885 39.3686C14.1614 38.6544 13.0466 38.5848 12.3323 39.2119C11.6007 39.8564 11.531 40.9539 12.1755 41.6855C12.5239 42.0687 12.9942 42.2777 13.482 42.2777Z" fill="url(#paint3_linear)"/>
<path d="M31.2153 10.7477C32.0515 10.7477 32.7831 10.1554 32.9399 9.30186C33.0967 8.34377 32.4696 7.45541 31.5115 7.28121C30.5709 7.12443 29.665 7.75154 29.4908 8.69221C29.334 9.6503 29.9611 10.5387 30.9192 10.7129H30.9018C31.0063 10.7303 31.1108 10.7477 31.2153 10.7477Z" fill="#FAED00"/>
<path d="M31.2153 10.7477C32.0515 10.7477 32.7831 10.1554 32.9399 9.30186C33.0967 8.34377 32.4696 7.45541 31.5115 7.28121C30.5709 7.12443 29.665 7.75154 29.4908 8.69221C29.334 9.6503 29.9611 10.5387 30.9192 10.7129H30.9018C31.0063 10.7303 31.1108 10.7477 31.2153 10.7477Z" fill="url(#paint4_linear)"/>
<path d="M13.0654 17.437C13.5706 17.437 14.0758 17.2279 14.4242 16.8098C15.0339 16.0608 14.9294 14.9634 14.1803 14.3537C13.4487 13.744 12.3512 13.8485 11.7241 14.5802C11.1144 15.3292 11.2189 16.4266 11.968 17.0363C12.2989 17.315 12.6822 17.437 13.0654 17.437Z" fill="#FAED00"/>
<path d="M13.0654 17.437C13.5706 17.437 14.0758 17.2279 14.4242 16.8098C15.0339 16.0608 14.9294 14.9634 14.1803 14.3537C13.4487 13.744 12.3512 13.8485 11.7241 14.5802C11.1144 15.3292 11.2189 16.4266 11.968 17.0363C12.2989 17.315 12.6822 17.437 13.0654 17.437Z" fill="url(#paint5_linear)"/>
<path d="M24.7881 10.7131C25.7462 10.5563 26.3733 9.65049 26.1991 8.6924C26.0424 7.75173 25.1366 7.12464 24.1785 7.29884C23.2378 7.45562 22.6107 8.3614 22.7849 9.31949C22.9243 10.1556 23.6559 10.7479 24.492 10.7479C24.5965 10.7479 24.701 10.7305 24.7881 10.7131Z" fill="#FAED00"/>
<path d="M24.7881 10.7131C25.7462 10.5563 26.3733 9.65049 26.1991 8.6924C26.0424 7.75173 25.1366 7.12464 24.1785 7.29884C23.2378 7.45562 22.6107 8.3614 22.7849 9.31949C22.9243 10.1556 23.6559 10.7479 24.492 10.7479C24.5965 10.7479 24.701 10.7305 24.7881 10.7131Z" fill="url(#paint6_linear)"/>
<path d="M9.99864 36.5292C10.2077 36.5292 10.4167 36.4943 10.6257 36.4072C11.5141 36.0588 11.9671 35.0485 11.6187 34.1601C11.2703 33.2543 10.26 32.8188 9.37155 33.1672C8.46572 33.4982 8.03022 34.5085 8.37861 35.4143C8.63991 36.1111 9.30185 36.5292 9.99864 36.5292Z" fill="#FAED00"/>
<path d="M9.99864 36.5292C10.2077 36.5292 10.4167 36.4943 10.6257 36.4072C11.5141 36.0588 11.9671 35.0485 11.6187 34.1601C11.2703 33.2543 10.26 32.8188 9.37155 33.1672C8.46572 33.4982 8.03022 34.5085 8.37861 35.4143C8.63991 36.1111 9.30185 36.5292 9.99864 36.5292Z" fill="url(#paint7_linear)"/>
<path d="M37.5213 13.0475C38.1136 13.0475 38.7059 12.7514 39.0195 12.194C39.5072 11.3578 39.2284 10.2952 38.3923 9.80747C37.5736 9.31971 36.4936 9.61582 36.0232 10.4346C35.5355 11.2707 35.8142 12.3333 36.6503 12.8211C36.9116 12.9778 37.2252 13.0475 37.5213 13.0475Z" fill="#FAED00"/>
<path d="M37.5213 13.0475C38.1136 13.0475 38.7059 12.7514 39.0195 12.194C39.5072 11.3578 39.2284 10.2952 38.3923 9.80747C37.5736 9.31971 36.4936 9.61582 36.0232 10.4346C35.5355 11.2707 35.8142 12.3333 36.6503 12.8211C36.9116 12.9778 37.2252 13.0475 37.5213 13.0475Z" fill="url(#paint8_linear)"/>
<path d="M19.0744 12.8384C19.8932 12.3506 20.1718 11.288 19.6841 10.4519C19.1963 9.61575 18.1337 9.33695 17.2976 9.8247C16.4789 10.3125 16.2002 11.3752 16.6879 12.2113C17.0015 12.7687 17.5937 13.0823 18.186 13.0823C18.4821 13.0823 18.7957 12.9952 19.0744 12.8384Z" fill="#FAED00"/>
<path d="M19.0744 12.8384C19.8932 12.3506 20.1718 11.288 19.6841 10.4519C19.1963 9.61575 18.1337 9.33695 17.2976 9.8247C16.4789 10.3125 16.2002 11.3752 16.6879 12.2113C17.0015 12.7687 17.5937 13.0823 18.186 13.0823C18.4821 13.0823 18.7957 12.9952 19.0744 12.8384Z" fill="url(#paint9_linear)"/>
<path d="M17.9068 46.2496C18.1681 46.3889 18.4642 46.4586 18.7429 46.4586C19.3526 46.4586 19.9449 46.1276 20.2758 45.5527C20.7288 44.6992 20.4151 43.654 19.5616 43.1837C18.7254 42.7307 17.6629 43.0444 17.2099 43.8979C16.7396 44.7341 17.0532 45.7966 17.9068 46.2496Z" fill="#FAED00"/>
<path d="M17.9068 46.2496C18.1681 46.3889 18.4642 46.4586 18.7429 46.4586C19.3526 46.4586 19.9449 46.1276 20.2758 45.5527C20.7288 44.6992 20.4151 43.654 19.5616 43.1837C18.7254 42.7307 17.6629 43.0444 17.2099 43.8979C16.7396 44.7341 17.0532 45.7966 17.9068 46.2496Z" fill="url(#paint10_linear)"/>
<path d="M6.96806 28.22C6.98548 29.1607 7.76938 29.9271 8.71005 29.9271C8.72746 29.9271 8.7275 29.9271 8.74492 29.9271C9.70301 29.9097 10.4694 29.1258 10.452 28.1503C10.4346 27.1922 9.6507 26.4257 8.69261 26.4432C7.7171 26.4606 6.95064 27.2445 6.96806 28.22Z" fill="#FAED00"/>
<path d="M6.96806 28.22C6.98548 29.1607 7.76938 29.9271 8.71005 29.9271C8.72746 29.9271 8.7275 29.9271 8.74492 29.9271C9.70301 29.9097 10.4694 29.1258 10.452 28.1503C10.4346 27.1922 9.6507 26.4257 8.69261 26.4432C7.7171 26.4606 6.95064 27.2445 6.96806 28.22Z" fill="url(#paint11_linear)"/>
<path d="M42.6775 17.4546C43.1479 17.4546 43.5834 17.263 43.9144 16.932C44.0712 16.7752 44.193 16.5836 44.2801 16.3745C44.3672 16.1655 44.4195 15.939 44.4195 15.7126C44.4195 15.2422 44.2279 14.7894 43.9144 14.4758C43.2524 13.8313 42.0852 13.8313 41.4407 14.4758C41.1271 14.7894 40.9355 15.2422 40.9355 15.7126C40.9355 15.939 40.9704 16.1655 41.0575 16.3745C41.1446 16.5836 41.2839 16.7752 41.4407 16.932C41.7717 17.263 42.2072 17.4546 42.6775 17.4546Z" fill="#FAED00"/>
<path d="M42.6775 17.4546C43.1479 17.4546 43.5834 17.263 43.9144 16.932C44.0712 16.7752 44.193 16.5836 44.2801 16.3745C44.3672 16.1655 44.4195 15.939 44.4195 15.7126C44.4195 15.2422 44.2279 14.7894 43.9144 14.4758C43.2524 13.8313 42.0852 13.8313 41.4407 14.4758C41.1271 14.7894 40.9355 15.2422 40.9355 15.7126C40.9355 15.939 40.9704 16.1655 41.0575 16.3745C41.1446 16.5836 41.2839 16.7752 41.4407 16.932C41.7717 17.263 42.2072 17.4546 42.6775 17.4546Z" fill="url(#paint12_linear)"/>
<path d="M33.0963 24.3877C34.0544 24.3877 34.8383 23.6038 34.8383 22.6457V21.6179C34.8383 19.301 32.957 17.4198 30.6402 17.4198H29.6124V15.6778C29.6124 14.7197 28.8285 13.9358 27.8704 13.9358C26.9123 13.9358 26.1284 14.7197 26.1284 15.6778V17.4198H25.118C22.8012 17.4198 20.9199 19.301 20.9199 21.6179C20.9199 22.7327 21.3729 23.8128 22.1393 24.5793L28.9679 31.5472C29.3163 31.8956 29.7692 32.0698 30.2047 32.0698C30.6402 32.0698 31.0756 31.913 31.424 31.5646C32.1034 30.8853 32.1208 29.7877 31.4589 29.1084L24.6129 22.1231C24.4736 21.9838 24.4039 21.8095 24.4039 21.6179C24.4039 21.2172 24.7348 20.9037 25.118 20.9037H30.6402C31.0409 20.9037 31.3544 21.2346 31.3544 21.6179V22.6457C31.3544 23.6212 32.1383 24.3877 33.0963 24.3877Z" fill="#FAED00"/>
<path d="M33.0963 24.3877C34.0544 24.3877 34.8383 23.6038 34.8383 22.6457V21.6179C34.8383 19.301 32.957 17.4198 30.6402 17.4198H29.6124V15.6778C29.6124 14.7197 28.8285 13.9358 27.8704 13.9358C26.9123 13.9358 26.1284 14.7197 26.1284 15.6778V17.4198H25.118C22.8012 17.4198 20.9199 19.301 20.9199 21.6179C20.9199 22.7327 21.3729 23.8128 22.1393 24.5793L28.9679 31.5472C29.3163 31.8956 29.7692 32.0698 30.2047 32.0698C30.6402 32.0698 31.0756 31.913 31.424 31.5646C32.1034 30.8853 32.1208 29.7877 31.4589 29.1084L24.6129 22.1231C24.4736 21.9838 24.4039 21.8095 24.4039 21.6179C24.4039 21.2172 24.7348 20.9037 25.118 20.9037H30.6402C31.0409 20.9037 31.3544 21.2346 31.3544 21.6179V22.6457C31.3544 23.6212 32.1383 24.3877 33.0963 24.3877Z" fill="url(#paint13_linear)"/>
<path d="M29.6122 40.0829V36.599C29.6122 35.6409 28.8284 34.857 27.8703 34.857C27.7483 34.857 27.6612 34.9092 27.5393 34.9266C27.3999 34.8918 27.278 34.8396 27.1387 34.8396H25.1005C24.6998 34.8396 24.3863 34.5085 24.3863 34.1253V33.0976C24.3863 32.1395 23.6024 31.3556 22.6443 31.3556C21.6862 31.3556 20.9023 32.1395 20.9023 33.0976V34.1253C20.9023 36.4421 22.7836 38.3235 25.1005 38.3235H26.1108V40.0829C26.1108 41.041 26.8947 41.8249 27.8528 41.8249C28.8109 41.8249 29.6122 41.041 29.6122 40.0829Z" fill="#FAED00"/>
<path d="M29.6122 40.0829V36.599C29.6122 35.6409 28.8284 34.857 27.8703 34.857C27.7483 34.857 27.6612 34.9092 27.5393 34.9266C27.3999 34.8918 27.278 34.8396 27.1387 34.8396H25.1005C24.6998 34.8396 24.3863 34.5085 24.3863 34.1253V33.0976C24.3863 32.1395 23.6024 31.3556 22.6443 31.3556C21.6862 31.3556 20.9023 32.1395 20.9023 33.0976V34.1253C20.9023 36.4421 22.7836 38.3235 25.1005 38.3235H26.1108V40.0829C26.1108 41.041 26.8947 41.8249 27.8528 41.8249C28.8109 41.8249 29.6122 41.041 29.6122 40.0829Z" fill="url(#paint14_linear)"/>
<path d="M45.3958 52.2593V30.3452L51.1268 36.0762L53.6005 33.6201L43.6538 23.6733L33.707 33.6201L36.1807 36.0762L41.9118 30.3452V52.2593H45.3958Z" fill="#FAED00"/>
<path d="M45.3958 52.2593V30.3452L51.1268 36.0762L53.6005 33.6201L43.6538 23.6733L33.707 33.6201L36.1807 36.0762L41.9118 30.3452V52.2593H45.3958Z" fill="url(#paint15_linear)"/>
<defs>
<linearGradient id="paint0_linear" x1="26.9833" y1="0" x2="26.9833" y2="55.7434" gradientUnits="userSpaceOnUse">
<stop stop-color="#00C86A"/>
<stop offset="1" stop-color="white" stop-opacity="0"/>
</linearGradient>
<linearGradient id="paint1_linear" x1="25.1189" y1="45.1216" x2="25.1189" y2="48.5837" gradientUnits="userSpaceOnUse">
<stop stop-color="#00C86A"/>
<stop offset="1" stop-color="white" stop-opacity="0"/>
</linearGradient>
<linearGradient id="paint2_linear" x1="9.77938" y1="19.8066" x2="9.77938" y2="23.29" gradientUnits="userSpaceOnUse">
<stop stop-color="#00C86A"/>
<stop offset="1" stop-color="white" stop-opacity="0"/>
</linearGradient>
<linearGradient id="paint3_linear" x1="13.4791" y1="38.7837" x2="13.4791" y2="42.2777" gradientUnits="userSpaceOnUse">
<stop stop-color="#00C86A"/>
<stop offset="1" stop-color="white" stop-opacity="0"/>
</linearGradient>
<linearGradient id="paint4_linear" x1="31.2153" y1="7.2572" x2="31.2153" y2="10.7477" gradientUnits="userSpaceOnUse">
<stop stop-color="#00C86A"/>
<stop offset="1" stop-color="white" stop-opacity="0"/>
</linearGradient>
<linearGradient id="paint5_linear" x1="13.0741" y1="13.9563" x2="13.0741" y2="17.437" gradientUnits="userSpaceOnUse">
<stop stop-color="#00C86A"/>
<stop offset="1" stop-color="white" stop-opacity="0"/>
</linearGradient>
<linearGradient id="paint6_linear" x1="24.492" y1="7.26978" x2="24.492" y2="10.7479" gradientUnits="userSpaceOnUse">
<stop stop-color="#00C86A"/>
<stop offset="1" stop-color="white" stop-opacity="0"/>
</linearGradient>
<linearGradient id="paint7_linear" x1="9.99757" y1="33.0474" x2="9.99757" y2="36.5292" gradientUnits="userSpaceOnUse">
<stop stop-color="#00C86A"/>
<stop offset="1" stop-color="white" stop-opacity="0"/>
</linearGradient>
<linearGradient id="paint8_linear" x1="37.5213" y1="9.57129" x2="37.5213" y2="13.0475" gradientUnits="userSpaceOnUse">
<stop stop-color="#00C86A"/>
<stop offset="1" stop-color="white" stop-opacity="0"/>
</linearGradient>
<linearGradient id="paint9_linear" x1="18.186" y1="9.58472" x2="18.186" y2="13.0823" gradientUnits="userSpaceOnUse">
<stop stop-color="#00C86A"/>
<stop offset="1" stop-color="white" stop-opacity="0"/>
</linearGradient>
<linearGradient id="paint10_linear" x1="18.737" y1="42.9767" x2="18.737" y2="46.4586" gradientUnits="userSpaceOnUse">
<stop stop-color="#00C86A"/>
<stop offset="1" stop-color="white" stop-opacity="0"/>
</linearGradient>
<linearGradient id="paint11_linear" x1="8.71005" y1="26.4429" x2="8.71005" y2="29.9271" gradientUnits="userSpaceOnUse">
<stop stop-color="#00C86A"/>
<stop offset="1" stop-color="white" stop-opacity="0"/>
</linearGradient>
<linearGradient id="paint12_linear" x1="42.6775" y1="13.9924" x2="42.6775" y2="17.4546" gradientUnits="userSpaceOnUse">
<stop stop-color="#00C86A"/>
<stop offset="1" stop-color="white" stop-opacity="0"/>
</linearGradient>
<linearGradient id="paint13_linear" x1="27.8791" y1="13.9358" x2="27.8791" y2="32.0698" gradientUnits="userSpaceOnUse">
<stop stop-color="#00C86A"/>
<stop offset="1" stop-color="white" stop-opacity="0"/>
</linearGradient>
<linearGradient id="paint14_linear" x1="25.2573" y1="31.3556" x2="25.2573" y2="41.8249" gradientUnits="userSpaceOnUse">
<stop stop-color="#00C86A"/>
<stop offset="1" stop-color="white" stop-opacity="0"/>
</linearGradient>
<linearGradient id="paint15_linear" x1="43.6538" y1="23.6733" x2="43.6538" y2="52.2593" gradientUnits="userSpaceOnUse">
<stop stop-color="#00C86A"/>
<stop offset="1" stop-color="white" stop-opacity="0"/>
</linearGradient>
</defs>
</svg>
