<svg width="46" height="63" viewBox="0 0 46 63" fill="none" xmlns="http://www.w3.org/2000/svg">
<path d="M40.6062 37.0047C40.0539 37.0047 39.6062 37.4525 39.6062 38.0047C39.6062 38.557 40.0539 39.0047 40.6062 39.0047V37.0047ZM44.0754 39.0047C44.6276 39.0047 45.0754 38.557 45.0754 38.0047C45.0754 37.4525 44.6276 37.0047 44.0754 37.0047V39.0047ZM40.6062 33.2464C40.0539 33.2464 39.6062 33.6942 39.6062 34.2464C39.6062 34.7987 40.0539 35.2464 40.6062 35.2464V33.2464ZM44.0754 35.2464C44.6276 35.2464 45.0754 34.7987 45.0754 34.2464C45.0754 33.6942 44.6276 33.2464 44.0754 33.2464V35.2464ZM35.6915 2H38.299V0H35.6915V2ZM37.8716 1.57258V10.5948H39.8716V1.57258H37.8716ZM41.0754 56.9526H30.5967V58.9526H41.0754V56.9526ZM33.8005 10.5948V1.57258H31.8005V10.5948H33.8005ZM33.373 2H35.6915V0H33.373V2ZM43.0754 27.2535V28.7536H45.0754V27.2535H43.0754ZM43.0754 28.7536V43.3531H45.0754V28.7536H43.0754ZM43.0754 43.3531V54.9526H45.0754V43.3531H43.0754ZM40.6062 39.0047H44.0754V37.0047H40.6062V39.0047ZM40.6062 35.2464H44.0754V33.2464H40.6062V35.2464ZM26.5967 27.2535V54.9526H28.5967V27.2535H26.5967ZM44.0754 27.7536H36.6915V29.7536H44.0754V27.7536ZM34.6915 29.7536V42.3531H36.6915V29.7536H34.6915ZM36.6915 44.3531H44.0754V42.3531H36.6915V44.3531ZM33.8005 1.57258C33.8005 1.80863 33.6091 2 33.373 2V0C32.5045 0 31.8005 0.704068 31.8005 1.57258H33.8005ZM31.0208 19.4934C32.8308 16.8789 33.8005 13.7747 33.8005 10.5948H31.8005C31.8005 13.3679 30.9548 16.075 29.3764 18.355L31.0208 19.4934ZM29.3764 18.355C27.5664 20.9694 26.5967 24.0737 26.5967 27.2535H28.5967C28.5967 24.4805 29.4423 21.7734 31.0208 19.4934L29.3764 18.355ZM34.6915 42.3531C34.6915 43.4576 35.5869 44.3531 36.6915 44.3531V42.3531V42.3531H34.6915ZM30.5967 56.9526C29.4921 56.9526 28.5967 56.0572 28.5967 54.9526H26.5967C26.5967 57.1617 28.3875 58.9526 30.5967 58.9526V56.9526ZM36.6915 27.7536C35.5869 27.7536 34.6915 28.649 34.6915 29.7536H36.6915H36.6915V27.7536ZM41.0754 58.9526C43.2845 58.9526 45.0754 57.1617 45.0754 54.9526H43.0754C43.0754 56.0572 42.1799 56.9526 41.0754 56.9526V58.9526ZM40.6513 19.4934C42.2297 21.7734 43.0754 24.4805 43.0754 27.2535H45.0754C45.0754 24.0737 44.1057 20.9694 42.2956 18.355L40.6513 19.4934ZM37.8716 10.5948C37.8716 13.7747 38.8413 16.8789 40.6513 19.4934L42.2956 18.355C40.7172 16.075 39.8716 13.3679 39.8716 10.5948H37.8716ZM38.299 2C38.0629 2 37.8716 1.80864 37.8716 1.57258H39.8716C39.8716 0.704065 39.1675 0 38.299 0V2Z" fill="#FAED00"/>
<path d="M40.6062 37.0047C40.0539 37.0047 39.6062 37.4525 39.6062 38.0047C39.6062 38.557 40.0539 39.0047 40.6062 39.0047V37.0047ZM44.0754 39.0047C44.6276 39.0047 45.0754 38.557 45.0754 38.0047C45.0754 37.4525 44.6276 37.0047 44.0754 37.0047V39.0047ZM40.6062 33.2464C40.0539 33.2464 39.6062 33.6942 39.6062 34.2464C39.6062 34.7987 40.0539 35.2464 40.6062 35.2464V33.2464ZM44.0754 35.2464C44.6276 35.2464 45.0754 34.7987 45.0754 34.2464C45.0754 33.6942 44.6276 33.2464 44.0754 33.2464V35.2464ZM35.6915 2H38.299V0H35.6915V2ZM37.8716 1.57258V10.5948H39.8716V1.57258H37.8716ZM41.0754 56.9526H30.5967V58.9526H41.0754V56.9526ZM33.8005 10.5948V1.57258H31.8005V10.5948H33.8005ZM33.373 2H35.6915V0H33.373V2ZM43.0754 27.2535V28.7536H45.0754V27.2535H43.0754ZM43.0754 28.7536V43.3531H45.0754V28.7536H43.0754ZM43.0754 43.3531V54.9526H45.0754V43.3531H43.0754ZM40.6062 39.0047H44.0754V37.0047H40.6062V39.0047ZM40.6062 35.2464H44.0754V33.2464H40.6062V35.2464ZM26.5967 27.2535V54.9526H28.5967V27.2535H26.5967ZM44.0754 27.7536H36.6915V29.7536H44.0754V27.7536ZM34.6915 29.7536V42.3531H36.6915V29.7536H34.6915ZM36.6915 44.3531H44.0754V42.3531H36.6915V44.3531ZM33.8005 1.57258C33.8005 1.80863 33.6091 2 33.373 2V0C32.5045 0 31.8005 0.704068 31.8005 1.57258H33.8005ZM31.0208 19.4934C32.8308 16.8789 33.8005 13.7747 33.8005 10.5948H31.8005C31.8005 13.3679 30.9548 16.075 29.3764 18.355L31.0208 19.4934ZM29.3764 18.355C27.5664 20.9694 26.5967 24.0737 26.5967 27.2535H28.5967C28.5967 24.4805 29.4423 21.7734 31.0208 19.4934L29.3764 18.355ZM34.6915 42.3531C34.6915 43.4576 35.5869 44.3531 36.6915 44.3531V42.3531V42.3531H34.6915ZM30.5967 56.9526C29.4921 56.9526 28.5967 56.0572 28.5967 54.9526H26.5967C26.5967 57.1617 28.3875 58.9526 30.5967 58.9526V56.9526ZM36.6915 27.7536C35.5869 27.7536 34.6915 28.649 34.6915 29.7536H36.6915H36.6915V27.7536ZM41.0754 58.9526C43.2845 58.9526 45.0754 57.1617 45.0754 54.9526H43.0754C43.0754 56.0572 42.1799 56.9526 41.0754 56.9526V58.9526ZM40.6513 19.4934C42.2297 21.7734 43.0754 24.4805 43.0754 27.2535H45.0754C45.0754 24.0737 44.1057 20.9694 42.2956 18.355L40.6513 19.4934ZM37.8716 10.5948C37.8716 13.7747 38.8413 16.8789 40.6513 19.4934L42.2956 18.355C40.7172 16.075 39.8716 13.3679 39.8716 10.5948H37.8716ZM38.299 2C38.0629 2 37.8716 1.80864 37.8716 1.57258H39.8716C39.8716 0.704065 39.1675 0 38.299 0V2Z" fill="url(#paint0_linear)"/>
<path d="M4.46904 37.0047C5.02132 37.0047 5.46904 37.4525 5.46904 38.0047C5.46904 38.557 5.02132 39.0047 4.46904 39.0047V37.0047ZM0.999844 39.0047C0.447559 39.0047 -0.000156403 38.557 -0.000156403 38.0047C-0.000156403 37.4525 0.447559 37.0047 0.999844 37.0047V39.0047ZM4.46904 33.2464C5.02132 33.2464 5.46904 33.6942 5.46904 34.2464C5.46904 34.7987 5.02132 35.2464 4.46904 35.2464V33.2464ZM0.999844 35.2464C0.447559 35.2464 -0.000156403 34.7987 -0.000156403 34.2464C-0.000156403 33.6942 0.447559 33.2464 0.999844 33.2464V35.2464ZM9.38373 2H6.77621V0H9.38373V2ZM7.20363 1.57258V10.5948H5.20363V1.57258H7.20363ZM3.99984 56.9526H14.4785V58.9526H3.99984V56.9526ZM11.2747 10.5948V1.57258H13.2747V10.5948H11.2747ZM11.7021 2H9.38373V0H11.7021V2ZM1.99984 27.2535V28.7536H-0.000156403V27.2535H1.99984ZM1.99984 28.7536V43.3531H-0.000156403V28.7536H1.99984ZM1.99984 43.3531V54.9526H-0.000156403V43.3531H1.99984ZM4.46904 39.0047H0.999844V37.0047H4.46904V39.0047ZM4.46904 35.2464H0.999844V33.2464H4.46904V35.2464ZM18.4785 27.2535V54.9526H16.4785V27.2535H18.4785ZM0.999844 27.7536H8.38373V29.7536H0.999844V27.7536ZM10.3837 29.7536V42.3531H8.38373V29.7536H10.3837ZM8.38373 44.3531H0.999844V42.3531H8.38373V44.3531ZM11.2747 1.57258C11.2747 1.80863 11.4661 2 11.7021 2V0C12.5707 0 13.2747 0.704068 13.2747 1.57258H11.2747ZM14.0544 19.4934C12.2444 16.8789 11.2747 13.7747 11.2747 10.5948H13.2747C13.2747 13.3679 14.1204 16.075 15.6988 18.355L14.0544 19.4934ZM15.6988 18.355C17.5088 20.9694 18.4785 24.0737 18.4785 27.2535H16.4785C16.4785 24.4805 15.6329 21.7734 14.0544 19.4934L15.6988 18.355ZM10.3837 42.3531C10.3837 43.4576 9.4883 44.3531 8.38373 44.3531V42.3531V42.3531H10.3837ZM14.4785 56.9526C15.5831 56.9526 16.4785 56.0572 16.4785 54.9526H18.4785C18.4785 57.1617 16.6877 58.9526 14.4785 58.9526V56.9526ZM8.38373 27.7536C9.4883 27.7536 10.3837 28.649 10.3837 29.7536H8.38373H8.38373V27.7536ZM3.99984 58.9526C1.7907 58.9526 -0.000156403 57.1617 -0.000156403 54.9526H1.99984C1.99984 56.0572 2.89527 56.9526 3.99984 56.9526V58.9526ZM4.42393 19.4934C2.84548 21.7734 1.99984 24.4805 1.99984 27.2535H-0.000156403C-0.000156403 24.0737 0.969538 20.9694 2.77955 18.355L4.42393 19.4934ZM7.20363 10.5948C7.20363 13.7747 6.23394 16.8789 4.42393 19.4934L2.77955 18.355C4.358 16.075 5.20363 13.3679 5.20363 10.5948H7.20363ZM6.77621 2C7.01227 2 7.20363 1.80864 7.20363 1.57258H5.20363C5.20363 0.704065 5.9077 0 6.77621 0V2Z" fill="#FAED00"/>
<path d="M4.46904 37.0047C5.02132 37.0047 5.46904 37.4525 5.46904 38.0047C5.46904 38.557 5.02132 39.0047 4.46904 39.0047V37.0047ZM0.999844 39.0047C0.447559 39.0047 -0.000156403 38.557 -0.000156403 38.0047C-0.000156403 37.4525 0.447559 37.0047 0.999844 37.0047V39.0047ZM4.46904 33.2464C5.02132 33.2464 5.46904 33.6942 5.46904 34.2464C5.46904 34.7987 5.02132 35.2464 4.46904 35.2464V33.2464ZM0.999844 35.2464C0.447559 35.2464 -0.000156403 34.7987 -0.000156403 34.2464C-0.000156403 33.6942 0.447559 33.2464 0.999844 33.2464V35.2464ZM9.38373 2H6.77621V0H9.38373V2ZM7.20363 1.57258V10.5948H5.20363V1.57258H7.20363ZM3.99984 56.9526H14.4785V58.9526H3.99984V56.9526ZM11.2747 10.5948V1.57258H13.2747V10.5948H11.2747ZM11.7021 2H9.38373V0H11.7021V2ZM1.99984 27.2535V28.7536H-0.000156403V27.2535H1.99984ZM1.99984 28.7536V43.3531H-0.000156403V28.7536H1.99984ZM1.99984 43.3531V54.9526H-0.000156403V43.3531H1.99984ZM4.46904 39.0047H0.999844V37.0047H4.46904V39.0047ZM4.46904 35.2464H0.999844V33.2464H4.46904V35.2464ZM18.4785 27.2535V54.9526H16.4785V27.2535H18.4785ZM0.999844 27.7536H8.38373V29.7536H0.999844V27.7536ZM10.3837 29.7536V42.3531H8.38373V29.7536H10.3837ZM8.38373 44.3531H0.999844V42.3531H8.38373V44.3531ZM11.2747 1.57258C11.2747 1.80863 11.4661 2 11.7021 2V0C12.5707 0 13.2747 0.704068 13.2747 1.57258H11.2747ZM14.0544 19.4934C12.2444 16.8789 11.2747 13.7747 11.2747 10.5948H13.2747C13.2747 13.3679 14.1204 16.075 15.6988 18.355L14.0544 19.4934ZM15.6988 18.355C17.5088 20.9694 18.4785 24.0737 18.4785 27.2535H16.4785C16.4785 24.4805 15.6329 21.7734 14.0544 19.4934L15.6988 18.355ZM10.3837 42.3531C10.3837 43.4576 9.4883 44.3531 8.38373 44.3531V42.3531V42.3531H10.3837ZM14.4785 56.9526C15.5831 56.9526 16.4785 56.0572 16.4785 54.9526H18.4785C18.4785 57.1617 16.6877 58.9526 14.4785 58.9526V56.9526ZM8.38373 27.7536C9.4883 27.7536 10.3837 28.649 10.3837 29.7536H8.38373H8.38373V27.7536ZM3.99984 58.9526C1.7907 58.9526 -0.000156403 57.1617 -0.000156403 54.9526H1.99984C1.99984 56.0572 2.89527 56.9526 3.99984 56.9526V58.9526ZM4.42393 19.4934C2.84548 21.7734 1.99984 24.4805 1.99984 27.2535H-0.000156403C-0.000156403 24.0737 0.969538 20.9694 2.77955 18.355L4.42393 19.4934ZM7.20363 10.5948C7.20363 13.7747 6.23394 16.8789 4.42393 19.4934L2.77955 18.355C4.358 16.075 5.20363 13.3679 5.20363 10.5948H7.20363ZM6.77621 2C7.01227 2 7.20363 1.80864 7.20363 1.57258H5.20363C5.20363 0.704065 5.9077 0 6.77621 0V2Z" fill="url(#paint1_linear)"/>
<path d="M22.3936 5.04736H25.0011C25.3174 5.04736 25.5737 5.30371 25.5737 5.61994V14.6422C25.5737 17.6186 26.4814 20.5243 28.1756 22.9715C29.8698 25.4188 30.7775 28.3244 30.7775 31.3009V32.8009V47.4004V59C30.7775 60.6568 29.4344 62 27.7775 62H17.2988C15.642 62 14.2988 60.6568 14.2988 59V47.4004V32.8009V31.3009C14.2988 28.3244 15.2065 25.4188 16.9007 22.9715C18.595 20.5243 19.5026 17.6186 19.5026 14.6422V5.61994C19.5026 5.30371 19.759 5.04736 20.0752 5.04736H22.3936Z" fill="white"/>
<path d="M20.0808 41.0521C19.5285 41.0521 19.0808 41.4998 19.0808 42.0521C19.0808 42.6044 19.5285 43.0521 20.0808 43.0521V41.0521ZM25.2846 43.0521C25.8369 43.0521 26.2846 42.6044 26.2846 42.0521C26.2846 41.4998 25.8369 41.0521 25.2846 41.0521V43.0521ZM18.0571 37.2938C17.5048 37.2938 17.0571 37.7415 17.0571 38.2938C17.0571 38.8461 17.5048 39.2938 18.0571 39.2938V37.2938ZM27.0192 39.2938C27.5715 39.2938 28.0192 38.8461 28.0192 38.2938C28.0192 37.7415 27.5715 37.2938 27.0192 37.2938V39.2938ZM16.9007 22.9715L16.0785 22.4023H16.0785L16.9007 22.9715ZM28.1756 22.9715L28.9978 22.4023L28.1756 22.9715ZM22.3936 6.04736H25.0011V4.04736H22.3936V6.04736ZM24.5737 5.61994V14.6422H26.5737V5.61994H24.5737ZM27.7775 61H17.2988V63H27.7775V61ZM20.5026 14.6422V5.61994H18.5026V14.6422H20.5026ZM20.0752 6.04736H22.3936V4.04736H20.0752V6.04736ZM15.2988 32.8009V31.3009H13.2988V32.8009H15.2988ZM29.7775 31.3009V32.8009H31.7775V31.3009H29.7775ZM14.2988 33.8009H30.7775V31.8009H14.2988V33.8009ZM15.2988 59V47.4004H13.2988V59H15.2988ZM15.2988 47.4004V32.8009H13.2988V47.4004H15.2988ZM29.7775 32.8009V47.4004H31.7775V32.8009H29.7775ZM29.7775 47.4004V59H31.7775V47.4004H29.7775ZM14.2988 48.4004H30.7775V46.4004H14.2988V48.4004ZM20.0808 43.0521H25.2846V41.0521H20.0808V43.0521ZM18.0571 39.2938H27.0192V37.2938H18.0571V39.2938ZM20.5026 5.61994C20.5026 5.856 20.3113 6.04736 20.0752 6.04736V4.04736C19.2067 4.04736 18.5026 4.75143 18.5026 5.61994H20.5026ZM17.7229 23.5407C19.5329 20.9263 20.5026 17.822 20.5026 14.6422H18.5026C18.5026 17.4152 17.657 20.1223 16.0785 22.4023L17.7229 23.5407ZM16.0785 22.4023C14.2685 25.0168 13.2988 28.121 13.2988 31.3009H15.2988C15.2988 28.5278 16.1445 25.8207 17.7229 23.5407L16.0785 22.4023ZM17.2988 61C16.1943 61 15.2988 60.1045 15.2988 59H13.2988C13.2988 61.2091 15.0897 63 17.2988 63V61ZM27.7775 63C29.9866 63 31.7775 61.2091 31.7775 59H29.7775C29.7775 60.1045 28.8821 61 27.7775 61V63ZM27.3534 23.5407C28.9319 25.8207 29.7775 28.5278 29.7775 31.3009H31.7775C31.7775 28.121 30.8078 25.0168 28.9978 22.4023L27.3534 23.5407ZM24.5737 14.6422C24.5737 17.822 25.5434 20.9263 27.3534 23.5407L28.9978 22.4023C27.4193 20.1223 26.5737 17.4152 26.5737 14.6422H24.5737ZM25.0011 6.04736C24.7651 6.04736 24.5737 5.856 24.5737 5.61994H26.5737C26.5737 4.75143 25.8696 4.04736 25.0011 4.04736V6.04736Z" fill="#FAED00"/>
<path d="M20.0808 41.0521C19.5285 41.0521 19.0808 41.4998 19.0808 42.0521C19.0808 42.6044 19.5285 43.0521 20.0808 43.0521V41.0521ZM25.2846 43.0521C25.8369 43.0521 26.2846 42.6044 26.2846 42.0521C26.2846 41.4998 25.8369 41.0521 25.2846 41.0521V43.0521ZM18.0571 37.2938C17.5048 37.2938 17.0571 37.7415 17.0571 38.2938C17.0571 38.8461 17.5048 39.2938 18.0571 39.2938V37.2938ZM27.0192 39.2938C27.5715 39.2938 28.0192 38.8461 28.0192 38.2938C28.0192 37.7415 27.5715 37.2938 27.0192 37.2938V39.2938ZM16.9007 22.9715L16.0785 22.4023H16.0785L16.9007 22.9715ZM28.1756 22.9715L28.9978 22.4023L28.1756 22.9715ZM22.3936 6.04736H25.0011V4.04736H22.3936V6.04736ZM24.5737 5.61994V14.6422H26.5737V5.61994H24.5737ZM27.7775 61H17.2988V63H27.7775V61ZM20.5026 14.6422V5.61994H18.5026V14.6422H20.5026ZM20.0752 6.04736H22.3936V4.04736H20.0752V6.04736ZM15.2988 32.8009V31.3009H13.2988V32.8009H15.2988ZM29.7775 31.3009V32.8009H31.7775V31.3009H29.7775ZM14.2988 33.8009H30.7775V31.8009H14.2988V33.8009ZM15.2988 59V47.4004H13.2988V59H15.2988ZM15.2988 47.4004V32.8009H13.2988V47.4004H15.2988ZM29.7775 32.8009V47.4004H31.7775V32.8009H29.7775ZM29.7775 47.4004V59H31.7775V47.4004H29.7775ZM14.2988 48.4004H30.7775V46.4004H14.2988V48.4004ZM20.0808 43.0521H25.2846V41.0521H20.0808V43.0521ZM18.0571 39.2938H27.0192V37.2938H18.0571V39.2938ZM20.5026 5.61994C20.5026 5.856 20.3113 6.04736 20.0752 6.04736V4.04736C19.2067 4.04736 18.5026 4.75143 18.5026 5.61994H20.5026ZM17.7229 23.5407C19.5329 20.9263 20.5026 17.822 20.5026 14.6422H18.5026C18.5026 17.4152 17.657 20.1223 16.0785 22.4023L17.7229 23.5407ZM16.0785 22.4023C14.2685 25.0168 13.2988 28.121 13.2988 31.3009H15.2988C15.2988 28.5278 16.1445 25.8207 17.7229 23.5407L16.0785 22.4023ZM17.2988 61C16.1943 61 15.2988 60.1045 15.2988 59H13.2988C13.2988 61.2091 15.0897 63 17.2988 63V61ZM27.7775 63C29.9866 63 31.7775 61.2091 31.7775 59H29.7775C29.7775 60.1045 28.8821 61 27.7775 61V63ZM27.3534 23.5407C28.9319 25.8207 29.7775 28.5278 29.7775 31.3009H31.7775C31.7775 28.121 30.8078 25.0168 28.9978 22.4023L27.3534 23.5407ZM24.5737 14.6422C24.5737 17.822 25.5434 20.9263 27.3534 23.5407L28.9978 22.4023C27.4193 20.1223 26.5737 17.4152 26.5737 14.6422H24.5737ZM25.0011 6.04736C24.7651 6.04736 24.5737 5.856 24.5737 5.61994H26.5737C26.5737 4.75143 25.8696 4.04736 25.0011 4.04736V6.04736Z" fill="url(#paint2_linear)"/>
<defs>
<linearGradient id="paint0_linear" x1="35.836" y1="1" x2="35.836" y2="57.9526" gradientUnits="userSpaceOnUse">
<stop stop-color="#00C86A"/>
<stop offset="1" stop-color="white" stop-opacity="0"/>
</linearGradient>
<linearGradient id="paint1_linear" x1="9.23918" y1="1" x2="9.23918" y2="57.9526" gradientUnits="userSpaceOnUse">
<stop stop-color="#00C86A"/>
<stop offset="1" stop-color="white" stop-opacity="0"/>
</linearGradient>
<linearGradient id="paint2_linear" x1="22.5382" y1="5.04736" x2="22.5382" y2="62" gradientUnits="userSpaceOnUse">
<stop stop-color="#00C86A"/>
<stop offset="1" stop-color="white" stop-opacity="0"/>
</linearGradient>
</defs>
</svg>
