<svg width="63" height="64" viewBox="0 0 63 64" fill="none" xmlns="http://www.w3.org/2000/svg">
<path d="M8.06095 17.8423C8.06095 17.8423 5.70726 20.0344 5.31497 25.7339C4.92269 31.4334 5.31497 35.3792 5.31497 35.3792" stroke="#FAED00" stroke-width="2" stroke-miterlimit="10" stroke-linecap="round" stroke-linejoin="round"/>
<path d="M8.06095 17.8423C8.06095 17.8423 5.70726 20.0344 5.31497 25.7339C4.92269 31.4334 5.31497 35.3792 5.31497 35.3792" stroke="url(#paint0_linear)" stroke-width="2" stroke-miterlimit="10" stroke-linecap="round" stroke-linejoin="round"/>
<path d="M11.1991 21.3496C11.1991 21.3496 9.23771 27.0491 9.63 31.8718" stroke="#FAED00" stroke-width="2" stroke-miterlimit="10" stroke-linecap="round" stroke-linejoin="round"/>
<path d="M11.1991 21.3496C11.1991 21.3496 9.23771 27.0491 9.63 31.8718" stroke="url(#paint1_linear)" stroke-width="2" stroke-miterlimit="10" stroke-linecap="round" stroke-linejoin="round"/>
<path d="M14.7291 23.5417C14.7291 23.5417 13.1599 25.2954 13.5522 29.6797" stroke="#FAED00" stroke-width="2" stroke-miterlimit="10" stroke-linecap="round" stroke-linejoin="round"/>
<path d="M14.7291 23.5417C14.7291 23.5417 13.1599 25.2954 13.5522 29.6797" stroke="url(#paint2_linear)" stroke-width="2" stroke-miterlimit="10" stroke-linecap="round" stroke-linejoin="round"/>
<path d="M8.8457 47.2171L14.7299 48.9708L11.5917 43.7097" stroke="#FAED00" stroke-width="2" stroke-miterlimit="10" stroke-linecap="round" stroke-linejoin="round"/>
<path d="M8.8457 47.2171L14.7299 48.9708L11.5917 43.7097" stroke="url(#paint3_linear)" stroke-width="2" stroke-miterlimit="10" stroke-linecap="round" stroke-linejoin="round"/>
<path d="M18.261 52.478L14.7305 48.9706L19.8301 42.3943" stroke="#FAED00" stroke-width="2" stroke-miterlimit="10" stroke-linecap="round" stroke-linejoin="round"/>
<path d="M18.261 52.478L14.7305 48.9706L19.8301 42.3943" stroke="url(#paint4_linear)" stroke-width="2" stroke-miterlimit="10" stroke-linecap="round" stroke-linejoin="round"/>
<path d="M31.5981 18.9384C31.5981 18.9384 31.5981 14.5541 32.7749 11.4852C33.9518 8.41621 34.9325 7.32015 34.9325 7.32015L33.3633 4.68961L41.0992 2.16429C42.7232 1.60749 44.461 2.50626 45.1318 4.25119L48.6624 5.56646C48.6624 5.56646 40.8167 7.75858 40.0322 9.07385C39.2476 10.3891 37.2862 15.2118 39.6399 18.7192C41.9936 22.2266 43.5627 21.7881 44.7396 21.3497C45.9164 20.9113 46.3087 20.0344 46.3087 20.0344C46.3087 20.0344 43.955 13.4581 48.2701 11.266C52.5852 9.07385 57.6849 11.7044 59.6463 16.0886C61.6077 20.4729 62 23.9803 62 28.8029C62 33.6256 61.6077 47.6552 61.6077 47.6552C61.6077 47.6552 55.3312 44.1478 52.9775 40.6404C50.6238 37.133 48.2701 32.7487 48.2701 32.7487L39.6399 34.9409C39.6399 34.9409 45.1318 39.3251 43.1704 42.3941C41.209 45.463 36.8939 42.8325 36.8939 42.8325L42.7781 57.7389C42.7781 57.7389 40.0322 63 32.5788 63H30.4212C22.9678 63 20.2219 57.7389 20.2219 57.7389L26.1061 42.8325C26.1061 42.8325 21.791 45.463 19.8296 42.3941C17.8682 39.3251 23.3601 34.9409 23.3601 34.9409L14.7299 32.7487C14.7299 32.7487 12.3762 37.133 10.0225 40.6404C7.66881 44.1478 1.39228 47.6552 1.39228 47.6552C1.39228 47.6552 1 33.6256 1 28.8029C1 23.9803 1.39228 20.4729 3.3537 16.0886C5.31511 11.7044 10.4148 9.07385 14.7299 11.266C19.045 13.4581 16.6913 20.0344 16.6913 20.0344C16.6913 20.0344 17.0836 20.9113 18.2605 21.3497C19.4373 21.7881 21.0064 22.2266 23.3601 18.7192C25.7138 15.2118 23.7524 10.3891 22.9678 9.07385C22.1833 7.75858 14.3376 5.56646 14.3376 5.56646L17.8682 4.25119C18.539 2.50626 20.2768 1.60749 21.9008 2.16429L29.6367 4.68961L28.0675 7.32015C28.0675 7.32015 29.0482 8.41621 30.2251 11.4852C31.4019 14.5541 31.4019 18.9384 31.4019 18.9384H31.5981Z" stroke="#FAED00" stroke-width="2" stroke-miterlimit="10" stroke-linecap="round" stroke-linejoin="round"/>
<path d="M31.5981 18.9384C31.5981 18.9384 31.5981 14.5541 32.7749 11.4852C33.9518 8.41621 34.9325 7.32015 34.9325 7.32015L33.3633 4.68961L41.0992 2.16429C42.7232 1.60749 44.461 2.50626 45.1318 4.25119L48.6624 5.56646C48.6624 5.56646 40.8167 7.75858 40.0322 9.07385C39.2476 10.3891 37.2862 15.2118 39.6399 18.7192C41.9936 22.2266 43.5627 21.7881 44.7396 21.3497C45.9164 20.9113 46.3087 20.0344 46.3087 20.0344C46.3087 20.0344 43.955 13.4581 48.2701 11.266C52.5852 9.07385 57.6849 11.7044 59.6463 16.0886C61.6077 20.4729 62 23.9803 62 28.8029C62 33.6256 61.6077 47.6552 61.6077 47.6552C61.6077 47.6552 55.3312 44.1478 52.9775 40.6404C50.6238 37.133 48.2701 32.7487 48.2701 32.7487L39.6399 34.9409C39.6399 34.9409 45.1318 39.3251 43.1704 42.3941C41.209 45.463 36.8939 42.8325 36.8939 42.8325L42.7781 57.7389C42.7781 57.7389 40.0322 63 32.5788 63H30.4212C22.9678 63 20.2219 57.7389 20.2219 57.7389L26.1061 42.8325C26.1061 42.8325 21.791 45.463 19.8296 42.3941C17.8682 39.3251 23.3601 34.9409 23.3601 34.9409L14.7299 32.7487C14.7299 32.7487 12.3762 37.133 10.0225 40.6404C7.66881 44.1478 1.39228 47.6552 1.39228 47.6552C1.39228 47.6552 1 33.6256 1 28.8029C1 23.9803 1.39228 20.4729 3.3537 16.0886C5.31511 11.7044 10.4148 9.07385 14.7299 11.266C19.045 13.4581 16.6913 20.0344 16.6913 20.0344C16.6913 20.0344 17.0836 20.9113 18.2605 21.3497C19.4373 21.7881 21.0064 22.2266 23.3601 18.7192C25.7138 15.2118 23.7524 10.3891 22.9678 9.07385C22.1833 7.75858 14.3376 5.56646 14.3376 5.56646L17.8682 4.25119C18.539 2.50626 20.2768 1.60749 21.9008 2.16429L29.6367 4.68961L28.0675 7.32015C28.0675 7.32015 29.0482 8.41621 30.2251 11.4852C31.4019 14.5541 31.4019 18.9384 31.4019 18.9384H31.5981Z" stroke="url(#paint5_linear)" stroke-width="2" stroke-miterlimit="10" stroke-linecap="round" stroke-linejoin="round"/>
<path d="M54.9385 17.8423C54.9385 17.8423 57.2922 20.0344 57.6845 25.7339C58.0767 31.4334 57.6845 35.3792 57.6845 35.3792" stroke="#FAED00" stroke-width="2" stroke-miterlimit="10" stroke-linecap="round" stroke-linejoin="round"/>
<path d="M54.9385 17.8423C54.9385 17.8423 57.2922 20.0344 57.6845 25.7339C58.0767 31.4334 57.6845 35.3792 57.6845 35.3792" stroke="url(#paint6_linear)" stroke-width="2" stroke-miterlimit="10" stroke-linecap="round" stroke-linejoin="round"/>
<path d="M51.8008 21.3496C51.8008 21.3496 53.7622 27.0491 53.3699 31.8718" stroke="#FAED00" stroke-width="2" stroke-miterlimit="10" stroke-linecap="round" stroke-linejoin="round"/>
<path d="M51.8008 21.3496C51.8008 21.3496 53.7622 27.0491 53.3699 31.8718" stroke="url(#paint7_linear)" stroke-width="2" stroke-miterlimit="10" stroke-linecap="round" stroke-linejoin="round"/>
<path d="M48.2695 23.5417C48.2695 23.5417 49.8387 25.2954 49.4464 29.6797" stroke="#FAED00" stroke-width="2" stroke-miterlimit="10" stroke-linecap="round" stroke-linejoin="round"/>
<path d="M48.2695 23.5417C48.2695 23.5417 49.8387 25.2954 49.4464 29.6797" stroke="url(#paint8_linear)" stroke-width="2" stroke-miterlimit="10" stroke-linecap="round" stroke-linejoin="round"/>
<path d="M54.1538 47.2171L48.2695 48.9708L51.4078 43.7097" stroke="#FAED00" stroke-width="2" stroke-miterlimit="10" stroke-linecap="round" stroke-linejoin="round"/>
<path d="M54.1538 47.2171L48.2695 48.9708L51.4078 43.7097" stroke="url(#paint9_linear)" stroke-width="2" stroke-miterlimit="10" stroke-linecap="round" stroke-linejoin="round"/>
<path d="M44.7391 52.478L48.2696 48.9706L43.1699 42.3943" stroke="#FAED00" stroke-width="2" stroke-miterlimit="10" stroke-linecap="round" stroke-linejoin="round"/>
<path d="M44.7391 52.478L48.2696 48.9706L43.1699 42.3943" stroke="url(#paint10_linear)" stroke-width="2" stroke-miterlimit="10" stroke-linecap="round" stroke-linejoin="round"/>
<path d="M31.5977 45.0247V59.9311" stroke="#FAED00" stroke-width="2" stroke-miterlimit="10" stroke-linecap="round" stroke-linejoin="round"/>
<path d="M31.5977 45.0247V59.9311" stroke="url(#paint11_linear)" stroke-width="2" stroke-miterlimit="10" stroke-linecap="round" stroke-linejoin="round"/>
<path d="M33.9512 44.5859L36.3049 56.8618" stroke="#FAED00" stroke-width="2" stroke-miterlimit="10" stroke-linecap="round" stroke-linejoin="round"/>
<path d="M33.9512 44.5859L36.3049 56.8618" stroke="url(#paint12_linear)" stroke-width="2" stroke-miterlimit="10" stroke-linecap="round" stroke-linejoin="round"/>
<path d="M28.8527 44.5859L26.499 56.8618" stroke="#FAED00" stroke-width="2" stroke-miterlimit="10" stroke-linecap="round" stroke-linejoin="round"/>
<path d="M28.8527 44.5859L26.499 56.8618" stroke="url(#paint13_linear)" stroke-width="2" stroke-miterlimit="10" stroke-linecap="round" stroke-linejoin="round"/>
<defs>
<linearGradient id="paint0_linear" x1="6.60079" y1="17.8423" x2="6.60079" y2="35.3792" gradientUnits="userSpaceOnUse">
<stop stop-color="#00C86A"/>
<stop offset="1" stop-color="white" stop-opacity="0"/>
</linearGradient>
<linearGradient id="paint1_linear" x1="10.3886" y1="21.3496" x2="10.3886" y2="31.8718" gradientUnits="userSpaceOnUse">
<stop stop-color="#00C86A"/>
<stop offset="1" stop-color="white" stop-opacity="0"/>
</linearGradient>
<linearGradient id="paint2_linear" x1="14.1092" y1="23.5417" x2="14.1092" y2="29.6797" gradientUnits="userSpaceOnUse">
<stop stop-color="#00C86A"/>
<stop offset="1" stop-color="white" stop-opacity="0"/>
</linearGradient>
<linearGradient id="paint3_linear" x1="11.7878" y1="43.7097" x2="11.7878" y2="48.9708" gradientUnits="userSpaceOnUse">
<stop stop-color="#00C86A"/>
<stop offset="1" stop-color="white" stop-opacity="0"/>
</linearGradient>
<linearGradient id="paint4_linear" x1="17.2803" y1="42.3943" x2="17.2803" y2="52.478" gradientUnits="userSpaceOnUse">
<stop stop-color="#00C86A"/>
<stop offset="1" stop-color="white" stop-opacity="0"/>
</linearGradient>
<linearGradient id="paint5_linear" x1="31.5" y1="2" x2="31.5" y2="63" gradientUnits="userSpaceOnUse">
<stop stop-color="#00C86A"/>
<stop offset="1" stop-color="white" stop-opacity="0"/>
</linearGradient>
<linearGradient id="paint6_linear" x1="56.3986" y1="17.8423" x2="56.3986" y2="35.3792" gradientUnits="userSpaceOnUse">
<stop stop-color="#00C86A"/>
<stop offset="1" stop-color="white" stop-opacity="0"/>
</linearGradient>
<linearGradient id="paint7_linear" x1="52.6113" y1="21.3496" x2="52.6113" y2="31.8718" gradientUnits="userSpaceOnUse">
<stop stop-color="#00C86A"/>
<stop offset="1" stop-color="white" stop-opacity="0"/>
</linearGradient>
<linearGradient id="paint8_linear" x1="48.8894" y1="23.5417" x2="48.8894" y2="29.6797" gradientUnits="userSpaceOnUse">
<stop stop-color="#00C86A"/>
<stop offset="1" stop-color="white" stop-opacity="0"/>
</linearGradient>
<linearGradient id="paint9_linear" x1="51.2117" y1="43.7097" x2="51.2117" y2="48.9708" gradientUnits="userSpaceOnUse">
<stop stop-color="#00C86A"/>
<stop offset="1" stop-color="white" stop-opacity="0"/>
</linearGradient>
<linearGradient id="paint10_linear" x1="45.7198" y1="42.3943" x2="45.7198" y2="52.478" gradientUnits="userSpaceOnUse">
<stop stop-color="#00C86A"/>
<stop offset="1" stop-color="white" stop-opacity="0"/>
</linearGradient>
<linearGradient id="paint11_linear" x1="32.0977" y1="45.0247" x2="32.0977" y2="59.9311" gradientUnits="userSpaceOnUse">
<stop stop-color="#00C86A"/>
<stop offset="1" stop-color="white" stop-opacity="0"/>
</linearGradient>
<linearGradient id="paint12_linear" x1="35.128" y1="44.5859" x2="35.128" y2="56.8618" gradientUnits="userSpaceOnUse">
<stop stop-color="#00C86A"/>
<stop offset="1" stop-color="white" stop-opacity="0"/>
</linearGradient>
<linearGradient id="paint13_linear" x1="27.6759" y1="44.5859" x2="27.6759" y2="56.8618" gradientUnits="userSpaceOnUse">
<stop stop-color="#00C86A"/>
<stop offset="1" stop-color="white" stop-opacity="0"/>
</linearGradient>
</defs>
</svg>
