<svg width="45" height="60" viewBox="0 0 45 60" fill="none" xmlns="http://www.w3.org/2000/svg">
<path d="M38.2144 5.97217H43.1763V58.1823H13.4048H1V45.7513V5.97217H5.96192" stroke="#FAED00" stroke-width="2" stroke-miterlimit="10" stroke-linecap="round" stroke-linejoin="round"/>
<path d="M38.2144 5.97217H43.1763V58.1823H13.4048H1V45.7513V5.97217H5.96192" stroke="url(#paint0_linear)" stroke-width="2" stroke-miterlimit="10" stroke-linecap="round" stroke-linejoin="round"/>
<path d="M33.2525 10.9448H10.9238V5.97241C10.9238 3.23758 13.1567 1 15.8857 1H28.2905C31.0196 1 33.2525 3.23758 33.2525 5.97241V10.9448Z" stroke="#FAED00" stroke-width="2" stroke-miterlimit="10" stroke-linecap="round" stroke-linejoin="round"/>
<path d="M33.2525 10.9448H10.9238V5.97241C10.9238 3.23758 13.1567 1 15.8857 1H28.2905C31.0196 1 33.2525 3.23758 33.2525 5.97241V10.9448Z" stroke="url(#paint1_linear)" stroke-width="2" stroke-miterlimit="10" stroke-linecap="round" stroke-linejoin="round"/>
<path d="M10.9238 23.3755H33.2525" stroke="#FAED00" stroke-width="2" stroke-miterlimit="10" stroke-linecap="round" stroke-linejoin="round"/>
<path d="M10.9238 23.3755H33.2525" stroke="url(#paint2_linear)" stroke-width="2" stroke-miterlimit="10" stroke-linecap="round" stroke-linejoin="round"/>
<path d="M10.9238 35.8066H33.2525" stroke="#FAED00" stroke-width="2" stroke-miterlimit="10" stroke-linecap="round" stroke-linejoin="round"/>
<path d="M10.9238 35.8066H33.2525" stroke="url(#paint3_linear)" stroke-width="2" stroke-miterlimit="10" stroke-linecap="round" stroke-linejoin="round"/>
<defs>
<linearGradient id="paint0_linear" x1="22.0882" y1="5.97217" x2="22.0882" y2="58.1823" gradientUnits="userSpaceOnUse">
<stop stop-color="#00C86A"/>
<stop offset="1" stop-color="white" stop-opacity="0"/>
</linearGradient>
<linearGradient id="paint1_linear" x1="22.0881" y1="1" x2="22.0881" y2="10.9448" gradientUnits="userSpaceOnUse">
<stop stop-color="#00C86A"/>
<stop offset="1" stop-color="white" stop-opacity="0"/>
</linearGradient>
<linearGradient id="paint2_linear" x1="22.0881" y1="23.3755" x2="22.0881" y2="24.3755" gradientUnits="userSpaceOnUse">
<stop stop-color="#00C86A"/>
<stop offset="1" stop-color="white" stop-opacity="0"/>
</linearGradient>
<linearGradient id="paint3_linear" x1="22.0881" y1="35.8066" x2="22.0881" y2="36.8066" gradientUnits="userSpaceOnUse">
<stop stop-color="#00C86A"/>
<stop offset="1" stop-color="white" stop-opacity="0"/>
</linearGradient>
</defs>
</svg>
