<svg width="56" height="56" viewBox="0 0 56 56" fill="none" xmlns="http://www.w3.org/2000/svg">
<path d="M55.7259 52.242H3.46652V9.31961L10.957 16.8101C10.626 17.4895 10.4344 18.256 10.4344 19.0573C10.4344 21.9315 12.7861 24.2832 15.6604 24.2832C16.8798 24.2832 17.9772 23.8477 18.883 23.1509L31.5647 31.6518C31.4427 32.0873 31.3731 32.5402 31.3731 33.0106C31.3731 35.8848 33.7248 38.2365 36.599 38.2365C37.6094 38.2365 38.5326 37.9404 39.334 37.4352L47.7651 44.3857L43.4798 48.6709H55.7259V36.4074L50.2213 41.912L41.494 34.7177C41.6856 34.1776 41.8075 33.6202 41.8075 33.0106C41.8075 30.1363 39.4559 27.7846 36.5816 27.7846C35.4319 27.7846 34.3867 28.1678 33.5331 28.7949L20.7644 20.2244C20.8515 19.8586 20.9038 19.4754 20.9038 19.0747C20.9038 16.2004 18.5521 13.8488 15.6778 13.8488C14.8765 13.8488 14.1274 14.0404 13.448 14.3713L3.48396 4.40721V0H0V55.7434H55.7434V52.242H55.7259ZM38.3236 32.9931C38.3236 33.9512 37.5397 34.7351 36.5816 34.7351C35.6235 34.7351 34.8396 33.9512 34.8396 32.9931C34.8396 32.035 35.6235 31.2511 36.5816 31.2511C37.5397 31.2511 38.3236 32.035 38.3236 32.9931ZM17.4024 19.0573C17.4024 20.0154 16.6185 20.7993 15.6604 20.7993C14.7023 20.7993 13.9184 20.0154 13.9184 19.0573C13.9184 18.0992 14.7023 17.3153 15.6604 17.3153C16.6185 17.3153 17.4024 18.0992 17.4024 19.0573Z" fill="#FAED00"/>
<path d="M55.7259 52.242H3.46652V9.31961L10.957 16.8101C10.626 17.4895 10.4344 18.256 10.4344 19.0573C10.4344 21.9315 12.7861 24.2832 15.6604 24.2832C16.8798 24.2832 17.9772 23.8477 18.883 23.1509L31.5647 31.6518C31.4427 32.0873 31.3731 32.5402 31.3731 33.0106C31.3731 35.8848 33.7248 38.2365 36.599 38.2365C37.6094 38.2365 38.5326 37.9404 39.334 37.4352L47.7651 44.3857L43.4798 48.6709H55.7259V36.4074L50.2213 41.912L41.494 34.7177C41.6856 34.1776 41.8075 33.6202 41.8075 33.0106C41.8075 30.1363 39.4559 27.7846 36.5816 27.7846C35.4319 27.7846 34.3867 28.1678 33.5331 28.7949L20.7644 20.2244C20.8515 19.8586 20.9038 19.4754 20.9038 19.0747C20.9038 16.2004 18.5521 13.8488 15.6778 13.8488C14.8765 13.8488 14.1274 14.0404 13.448 14.3713L3.48396 4.40721V0H0V55.7434H55.7434V52.242H55.7259ZM38.3236 32.9931C38.3236 33.9512 37.5397 34.7351 36.5816 34.7351C35.6235 34.7351 34.8396 33.9512 34.8396 32.9931C34.8396 32.035 35.6235 31.2511 36.5816 31.2511C37.5397 31.2511 38.3236 32.035 38.3236 32.9931ZM17.4024 19.0573C17.4024 20.0154 16.6185 20.7993 15.6604 20.7993C14.7023 20.7993 13.9184 20.0154 13.9184 19.0573C13.9184 18.0992 14.7023 17.3153 15.6604 17.3153C16.6185 17.3153 17.4024 18.0992 17.4024 19.0573Z" fill="url(#paint0_linear)"/>
<defs>
<linearGradient id="paint0_linear" x1="27.8717" y1="0" x2="27.8717" y2="55.7434" gradientUnits="userSpaceOnUse">
<stop stop-color="#00C86A"/>
<stop offset="1" stop-color="white" stop-opacity="0"/>
</linearGradient>
</defs>
</svg>
