<svg width="95" height="30" viewBox="0 0 95 30" fill="none" xmlns="http://www.w3.org/2000/svg">
<path d="M0 6L0 24L24.6969 24L24.6969 30L43 15L24.6969 0L24.6969 6L0 6ZM30.1576 12L33.8073 15L30.1576 18L5.46077 18V12L30.1576 12Z" fill="#FAED00"/>
<path d="M0 6L0 24L24.6969 24L24.6969 30L43 15L24.6969 0L24.6969 6L0 6ZM30.1576 12L33.8073 15L30.1576 18L5.46077 18V12L30.1576 12Z" fill="url(#paint0_linear)"/>
<path d="M95 24V6L70.3031 6L70.3031 0L52 15L70.3031 30V24L95 24ZM64.8424 18L61.1927 15L64.8424 12L89.5392 12V18L64.8424 18Z" fill="#FAED00"/>
<path d="M95 24V6L70.3031 6L70.3031 0L52 15L70.3031 30V24L95 24ZM64.8424 18L61.1927 15L64.8424 12L89.5392 12V18L64.8424 18Z" fill="url(#paint1_linear)"/>
<defs>
<linearGradient id="paint0_linear" x1="43" y1="15" x2="0" y2="15" gradientUnits="userSpaceOnUse">
<stop stop-color="#00C86A"/>
<stop offset="1" stop-color="white" stop-opacity="0"/>
</linearGradient>
<linearGradient id="paint1_linear" x1="52" y1="15" x2="95" y2="15" gradientUnits="userSpaceOnUse">
<stop stop-color="#00C86A"/>
<stop offset="1" stop-color="white" stop-opacity="0"/>
</linearGradient>
</defs>
</svg>
