<svg width="49" height="56" viewBox="0 0 49 56" fill="none" xmlns="http://www.w3.org/2000/svg">
<path d="M26.3906 10.557C23.7428 9.99952 21.0427 10.6441 18.9872 12.3164C16.9316 13.9887 15.7471 16.4796 15.7471 19.1274H19.231C19.231 17.5247 19.9452 16.0267 21.182 15.0163C22.4363 13.9885 24.0389 13.6228 25.6764 13.9537C27.7145 14.3718 29.3868 16.1139 29.7352 18.1868C29.8919 19.1275 29.8223 20.0506 29.5087 20.9042C28.9687 21.8449 28.3068 22.7158 27.5403 23.4823L27.2616 23.7611C24.3699 26.6528 22.7672 30.5025 22.7672 34.5962H26.2512C26.2512 31.4258 27.488 28.4645 29.7178 26.2173L29.979 25.9386C31.0068 24.9108 31.8952 23.7437 32.592 22.472L32.6965 22.2456C33.254 20.7823 33.4108 19.1622 33.1495 17.5944C32.5746 14.1105 29.8397 11.2712 26.3906 10.557Z" fill="#FAED00"/>
<path d="M26.3906 10.557C23.7428 9.99952 21.0427 10.6441 18.9872 12.3164C16.9316 13.9887 15.7471 16.4796 15.7471 19.1274H19.231C19.231 17.5247 19.9452 16.0267 21.182 15.0163C22.4363 13.9885 24.0389 13.6228 25.6764 13.9537C27.7145 14.3718 29.3868 16.1139 29.7352 18.1868C29.8919 19.1275 29.8223 20.0506 29.5087 20.9042C28.9687 21.8449 28.3068 22.7158 27.5403 23.4823L27.2616 23.7611C24.3699 26.6528 22.7672 30.5025 22.7672 34.5962H26.2512C26.2512 31.4258 27.488 28.4645 29.7178 26.2173L29.979 25.9386C31.0068 24.9108 31.8952 23.7437 32.592 22.472L32.6965 22.2456C33.254 20.7823 33.4108 19.1622 33.1495 17.5944C32.5746 14.1105 29.8397 11.2712 26.3906 10.557Z" fill="url(#paint0_linear)"/>
<path d="M25.7464 37.5927C25.1018 36.9307 23.9347 36.9307 23.2902 37.5927C23.116 37.7494 22.994 37.941 22.9069 38.15C22.8198 38.3765 22.7676 38.5855 22.7676 38.812C22.7676 39.2823 22.9592 39.7177 23.2902 40.0487C23.447 40.2229 23.6386 40.345 23.8476 40.4321C24.0566 40.5192 24.2831 40.5714 24.5096 40.5714C24.9799 40.5714 25.4154 40.3797 25.7464 40.0487C26.0774 39.7177 26.2515 39.2823 26.2515 38.812C26.2515 38.5855 26.2167 38.3765 26.1296 38.15C26.0425 37.941 25.9032 37.7494 25.7464 37.5927Z" fill="#FAED00"/>
<path d="M25.7464 37.5927C25.1018 36.9307 23.9347 36.9307 23.2902 37.5927C23.116 37.7494 22.994 37.941 22.9069 38.15C22.8198 38.3765 22.7676 38.5855 22.7676 38.812C22.7676 39.2823 22.9592 39.7177 23.2902 40.0487C23.447 40.2229 23.6386 40.345 23.8476 40.4321C24.0566 40.5192 24.2831 40.5714 24.5096 40.5714C24.9799 40.5714 25.4154 40.3797 25.7464 40.0487C26.0774 39.7177 26.2515 39.2823 26.2515 38.812C26.2515 38.5855 26.2167 38.3765 26.1296 38.15C26.0425 37.941 25.9032 37.7494 25.7464 37.5927Z" fill="url(#paint1_linear)"/>
<path d="M45.0128 26.1297V20.6078C45.0128 9.23263 35.7629 0 24.4052 0C13.0475 0 3.79753 9.25005 3.79753 20.6078V26.1297C1.68973 26.2516 0 28.0111 0 30.1538L1.91619 36.5121L6.18404 38.9681L9.84221 46.7026C10.6087 48.7407 13.1345 50.7963 15.3817 52.6254C15.8694 53.026 16.3398 53.4091 16.7404 53.7575C18.2037 55.0117 20.0851 55.7085 22.0361 55.7259H26.4433C26.4781 55.7259 26.513 55.7259 26.5478 55.7259C28.5336 55.7259 30.415 55.0466 31.8782 53.8272L32.7144 53.1304C35.1184 51.1271 37.8358 48.8626 38.5849 46.8419L42.4172 39.0378L47.4167 36.5295L48.7406 30.5195L48.7755 30.1887C48.8103 29.1086 48.4096 28.0982 47.6606 27.3143C46.9464 26.5827 46.0231 26.1645 45.0128 26.1297ZM44.3682 34.1602L39.8043 36.4423L35.3971 45.4484C34.8919 46.7723 32.2441 48.9846 30.4847 50.4479L29.6311 51.162C28.7775 51.8762 27.6975 52.2246 26.4781 52.242H22.0709C20.956 52.2246 19.876 51.8241 19.0224 51.0924C18.587 50.7266 18.0992 50.3259 17.594 49.9078C15.9914 48.6013 13.5526 46.6329 13.0649 45.3438L8.88411 36.4946L4.86014 34.1602L3.55365 29.9622C3.62333 29.7532 3.83238 29.5962 4.07625 29.5962L7.33375 29.5788V20.5903C7.33375 11.1488 15.0159 3.46652 24.4574 3.46652C33.899 3.46652 41.5811 11.1488 41.5811 20.5903V29.5788H44.8734C45.0302 29.5788 45.1522 29.6486 45.2044 29.7183C45.2567 29.7705 45.3089 29.8403 45.3263 29.9622L44.3682 34.1602Z" fill="#FAED00"/>
<path d="M45.0128 26.1297V20.6078C45.0128 9.23263 35.7629 0 24.4052 0C13.0475 0 3.79753 9.25005 3.79753 20.6078V26.1297C1.68973 26.2516 0 28.0111 0 30.1538L1.91619 36.5121L6.18404 38.9681L9.84221 46.7026C10.6087 48.7407 13.1345 50.7963 15.3817 52.6254C15.8694 53.026 16.3398 53.4091 16.7404 53.7575C18.2037 55.0117 20.0851 55.7085 22.0361 55.7259H26.4433C26.4781 55.7259 26.513 55.7259 26.5478 55.7259C28.5336 55.7259 30.415 55.0466 31.8782 53.8272L32.7144 53.1304C35.1184 51.1271 37.8358 48.8626 38.5849 46.8419L42.4172 39.0378L47.4167 36.5295L48.7406 30.5195L48.7755 30.1887C48.8103 29.1086 48.4096 28.0982 47.6606 27.3143C46.9464 26.5827 46.0231 26.1645 45.0128 26.1297ZM44.3682 34.1602L39.8043 36.4423L35.3971 45.4484C34.8919 46.7723 32.2441 48.9846 30.4847 50.4479L29.6311 51.162C28.7775 51.8762 27.6975 52.2246 26.4781 52.242H22.0709C20.956 52.2246 19.876 51.8241 19.0224 51.0924C18.587 50.7266 18.0992 50.3259 17.594 49.9078C15.9914 48.6013 13.5526 46.6329 13.0649 45.3438L8.88411 36.4946L4.86014 34.1602L3.55365 29.9622C3.62333 29.7532 3.83238 29.5962 4.07625 29.5962L7.33375 29.5788V20.5903C7.33375 11.1488 15.0159 3.46652 24.4574 3.46652C33.899 3.46652 41.5811 11.1488 41.5811 20.5903V29.5788H44.8734C45.0302 29.5788 45.1522 29.6486 45.2044 29.7183C45.2567 29.7705 45.3089 29.8403 45.3263 29.9622L44.3682 34.1602Z" fill="url(#paint2_linear)"/>
<defs>
<linearGradient id="paint0_linear" x1="24.5098" y1="10.3608" x2="24.5098" y2="34.5962" gradientUnits="userSpaceOnUse">
<stop stop-color="#00C86A"/>
<stop offset="1" stop-color="white" stop-opacity="0"/>
</linearGradient>
<linearGradient id="paint1_linear" x1="24.5096" y1="37.0962" x2="24.5096" y2="40.5714" gradientUnits="userSpaceOnUse">
<stop stop-color="#00C86A"/>
<stop offset="1" stop-color="white" stop-opacity="0"/>
</linearGradient>
<linearGradient id="paint2_linear" x1="24.3888" y1="0" x2="24.3888" y2="55.7259" gradientUnits="userSpaceOnUse">
<stop stop-color="#00C86A"/>
<stop offset="1" stop-color="white" stop-opacity="0"/>
</linearGradient>
</defs>
</svg>
