<svg width="45" height="60" viewBox="0 0 45 60" fill="none" xmlns="http://www.w3.org/2000/svg">
<path d="M40.6953 58.1826H3.48096C2.11643 58.1826 1 57.0638 1 55.6964V3.4862C1 2.11879 2.11643 1 3.48096 1H40.6953C42.0599 1 43.1763 2.11879 43.1763 3.4862V55.6964C43.1763 57.0638 42.0599 58.1826 40.6953 58.1826Z" stroke="#FAED00" stroke-width="2" stroke-miterlimit="10" stroke-linecap="round" stroke-linejoin="round"/>
<path d="M40.6953 58.1826H3.48096C2.11643 58.1826 1 57.0638 1 55.6964V3.4862C1 2.11879 2.11643 1 3.48096 1H40.6953C42.0599 1 43.1763 2.11879 43.1763 3.4862V55.6964C43.1763 57.0638 42.0599 58.1826 40.6953 58.1826Z" stroke="url(#paint0_linear)" stroke-width="2" stroke-miterlimit="10" stroke-linecap="round" stroke-linejoin="round"/>
<path d="M35.7329 8.4585H8.44238V18.4034H35.7329V8.4585Z" stroke="#FAED00" stroke-width="2" stroke-miterlimit="10" stroke-linecap="round" stroke-linejoin="round"/>
<path d="M35.7329 8.4585H8.44238V18.4034H35.7329V8.4585Z" stroke="url(#paint1_linear)" stroke-width="2" stroke-miterlimit="10" stroke-linecap="round" stroke-linejoin="round"/>
<path d="M13.4043 25.8618V35.8066" stroke="#FAED00" stroke-width="2" stroke-miterlimit="10" stroke-linecap="round" stroke-linejoin="round"/>
<path d="M13.4043 25.8618V35.8066" stroke="url(#paint2_linear)" stroke-width="2" stroke-miterlimit="10" stroke-linecap="round" stroke-linejoin="round"/>
<path d="M18.3662 30.8345H8.44238" stroke="#FAED00" stroke-width="2" stroke-miterlimit="10" stroke-linecap="round" stroke-linejoin="round"/>
<path d="M18.3662 30.8345H8.44238" stroke="url(#paint3_linear)" stroke-width="2" stroke-miterlimit="10" stroke-linecap="round" stroke-linejoin="round"/>
<path d="M28.291 48.2378H35.7339" stroke="#FAED00" stroke-width="2" stroke-miterlimit="10" stroke-linecap="round" stroke-linejoin="round"/>
<path d="M28.291 48.2378H35.7339" stroke="url(#paint4_linear)" stroke-width="2" stroke-miterlimit="10" stroke-linecap="round" stroke-linejoin="round"/>
<path d="M33.2525 30.8345L10.9238 48.2379" stroke="#FAED00" stroke-width="2" stroke-miterlimit="10" stroke-linecap="round" stroke-linejoin="round"/>
<path d="M33.2525 30.8345L10.9238 48.2379" stroke="url(#paint5_linear)" stroke-width="2" stroke-miterlimit="10" stroke-linecap="round" stroke-linejoin="round"/>
<defs>
<linearGradient id="paint0_linear" x1="22.0882" y1="1" x2="22.0882" y2="58.1826" gradientUnits="userSpaceOnUse">
<stop stop-color="#00C86A"/>
<stop offset="1" stop-color="white" stop-opacity="0"/>
</linearGradient>
<linearGradient id="paint1_linear" x1="22.0877" y1="8.4585" x2="22.0877" y2="18.4034" gradientUnits="userSpaceOnUse">
<stop stop-color="#00C86A"/>
<stop offset="1" stop-color="white" stop-opacity="0"/>
</linearGradient>
<linearGradient id="paint2_linear" x1="13.9043" y1="25.8618" x2="13.9043" y2="35.8066" gradientUnits="userSpaceOnUse">
<stop stop-color="#00C86A"/>
<stop offset="1" stop-color="white" stop-opacity="0"/>
</linearGradient>
<linearGradient id="paint3_linear" x1="13.4043" y1="30.8345" x2="13.4043" y2="31.8345" gradientUnits="userSpaceOnUse">
<stop stop-color="#00C86A"/>
<stop offset="1" stop-color="white" stop-opacity="0"/>
</linearGradient>
<linearGradient id="paint4_linear" x1="32.0125" y1="48.2378" x2="32.0125" y2="49.2378" gradientUnits="userSpaceOnUse">
<stop stop-color="#00C86A"/>
<stop offset="1" stop-color="white" stop-opacity="0"/>
</linearGradient>
<linearGradient id="paint5_linear" x1="22.0881" y1="30.8345" x2="22.0881" y2="48.2379" gradientUnits="userSpaceOnUse">
<stop stop-color="#00C86A"/>
<stop offset="1" stop-color="white" stop-opacity="0"/>
</linearGradient>
</defs>
</svg>
