<svg width="47" height="62" viewBox="0 0 47 62" fill="none" xmlns="http://www.w3.org/2000/svg">
<path d="M34.2525 9.45862H11.9238V6.97242C11.9238 4.23759 14.1567 2 16.8857 2H29.2905C32.0196 2 34.2525 4.23759 34.2525 6.97242V9.45862Z" stroke="#FAED00" stroke-width="4" stroke-miterlimit="10" stroke-linecap="round" stroke-linejoin="round"/>
<path d="M34.2525 9.45862H11.9238V6.97242C11.9238 4.23759 14.1567 2 16.8857 2H29.2905C32.0196 2 34.2525 4.23759 34.2525 6.97242V9.45862Z" stroke="url(#paint0_linear)" stroke-width="4" stroke-miterlimit="10" stroke-linecap="round" stroke-linejoin="round"/>
<path d="M39.2144 6.97241H44.1763V59.1826H2V6.97241H6.96192" stroke="#FAED00" stroke-width="4" stroke-miterlimit="10" stroke-linecap="round" stroke-linejoin="round"/>
<path d="M39.2144 6.97241H44.1763V59.1826H2V6.97241H6.96192" stroke="url(#paint1_linear)" stroke-width="4" stroke-miterlimit="10" stroke-linecap="round" stroke-linejoin="round"/>
<path d="M6.96191 24.3757L11.9238 29.3481L19.3667 21.8895" stroke="#FAED00" stroke-width="4" stroke-miterlimit="10" stroke-linecap="round" stroke-linejoin="round"/>
<path d="M6.96191 24.3757L11.9238 29.3481L19.3667 21.8895" stroke="url(#paint2_linear)" stroke-width="4" stroke-miterlimit="10" stroke-linecap="round" stroke-linejoin="round"/>
<path d="M26.8096 26.8621H36.7334" stroke="#FAED00" stroke-width="4" stroke-miterlimit="10" stroke-linecap="round" stroke-linejoin="round"/>
<path d="M26.8096 26.8621H36.7334" stroke="url(#paint3_linear)" stroke-width="4" stroke-miterlimit="10" stroke-linecap="round" stroke-linejoin="round"/>
<path d="M6.96191 39.293L11.9238 44.2654L19.3667 36.8068" stroke="#FAED00" stroke-width="4" stroke-miterlimit="10" stroke-linecap="round" stroke-linejoin="round"/>
<path d="M6.96191 39.293L11.9238 44.2654L19.3667 36.8068" stroke="url(#paint4_linear)" stroke-width="4" stroke-miterlimit="10" stroke-linecap="round" stroke-linejoin="round"/>
<path d="M26.8096 41.7792H36.7334" stroke="#FAED00" stroke-width="4" stroke-miterlimit="10" stroke-linecap="round" stroke-linejoin="round"/>
<path d="M26.8096 41.7792H36.7334" stroke="url(#paint5_linear)" stroke-width="4" stroke-miterlimit="10" stroke-linecap="round" stroke-linejoin="round"/>
<defs>
<linearGradient id="paint0_linear" x1="23.0881" y1="2" x2="23.0881" y2="9.45862" gradientUnits="userSpaceOnUse">
<stop stop-color="#00C86A"/>
<stop offset="1" stop-color="white" stop-opacity="0"/>
</linearGradient>
<linearGradient id="paint1_linear" x1="23.0882" y1="6.97241" x2="23.0882" y2="59.1826" gradientUnits="userSpaceOnUse">
<stop stop-color="#00C86A"/>
<stop offset="1" stop-color="white" stop-opacity="0"/>
</linearGradient>
<linearGradient id="paint2_linear" x1="13.1643" y1="21.8895" x2="13.1643" y2="29.3481" gradientUnits="userSpaceOnUse">
<stop stop-color="#00C86A"/>
<stop offset="1" stop-color="white" stop-opacity="0"/>
</linearGradient>
<linearGradient id="paint3_linear" x1="31.7715" y1="26.8621" x2="31.7715" y2="27.8621" gradientUnits="userSpaceOnUse">
<stop stop-color="#00C86A"/>
<stop offset="1" stop-color="white" stop-opacity="0"/>
</linearGradient>
<linearGradient id="paint4_linear" x1="13.1643" y1="36.8068" x2="13.1643" y2="44.2654" gradientUnits="userSpaceOnUse">
<stop stop-color="#00C86A"/>
<stop offset="1" stop-color="white" stop-opacity="0"/>
</linearGradient>
<linearGradient id="paint5_linear" x1="31.7715" y1="41.7792" x2="31.7715" y2="42.7792" gradientUnits="userSpaceOnUse">
<stop stop-color="#00C86A"/>
<stop offset="1" stop-color="white" stop-opacity="0"/>
</linearGradient>
</defs>
</svg>
