<svg width="55" height="55" viewBox="0 0 55 55" fill="none" xmlns="http://www.w3.org/2000/svg">
<path d="M24 55H55V45H24V55ZM27.4444 48.3333H51.5556V51.6667H27.4444V48.3333Z" fill="#FAED00"/>
<path d="M24 55H55V45H24V55ZM27.4444 48.3333H51.5556V51.6667H27.4444V48.3333Z" fill="url(#paint0_linear)"/>
<path d="M0 15.3V18.7H33.8109V23.8H30.2012V34H51V23.8H47.6481V10.2H51V0H30.2012V10.2H33.8109V15.3H0ZM47.5622 30.6H33.6391V27.2H35.5298H37.2487H44.2103H45.9292H47.5622V30.6ZM37.2487 10.2H44.2103V23.8H37.2487V10.2ZM33.6391 6.8V3.4H47.5622V6.8H45.9292H44.2103H37.2487H35.5298H33.6391Z" fill="#FAED00"/>
<path d="M0 15.3V18.7H33.8109V23.8H30.2012V34H51V23.8H47.6481V10.2H51V0H30.2012V10.2H33.8109V15.3H0ZM47.5622 30.6H33.6391V27.2H35.5298H37.2487H44.2103H45.9292H47.5622V30.6ZM37.2487 10.2H44.2103V23.8H37.2487V10.2ZM33.6391 6.8V3.4H47.5622V6.8H45.9292H44.2103H37.2487H35.5298H33.6391Z" fill="url(#paint1_linear)"/>
<defs>
<linearGradient id="paint0_linear" x1="39.5" y1="45" x2="39.5" y2="55" gradientUnits="userSpaceOnUse">
<stop stop-color="#00C86A"/>
<stop offset="1" stop-color="white" stop-opacity="0"/>
</linearGradient>
<linearGradient id="paint1_linear" x1="25.5" y1="0" x2="25.5" y2="34" gradientUnits="userSpaceOnUse">
<stop stop-color="#00C86A"/>
<stop offset="1" stop-color="white" stop-opacity="0"/>
</linearGradient>
</defs>
</svg>
