<svg width="56" height="56" viewBox="0 0 56 56" fill="none" xmlns="http://www.w3.org/2000/svg">
<path d="M29.4228 10.5216C29.475 10.5216 29.5273 10.5216 29.5796 10.5216C30.468 10.5216 31.2344 9.84223 31.3215 8.9364C31.4086 7.97831 30.6944 7.12476 29.7363 7.05508C28.7783 6.96798 27.9247 7.66476 27.855 8.62285C27.7679 9.59836 28.4647 10.4345 29.4228 10.5216Z" fill="#FAED00"/>
<path d="M29.4228 10.5216C29.475 10.5216 29.5273 10.5216 29.5796 10.5216C30.468 10.5216 31.2344 9.84223 31.3215 8.9364C31.4086 7.97831 30.6944 7.12476 29.7363 7.05508C28.7783 6.96798 27.9247 7.66476 27.855 8.62285C27.7679 9.59836 28.4647 10.4345 29.4228 10.5216Z" fill="url(#paint0_linear)"/>
<path d="M41.9823 16.6533C42.4003 16.6533 42.8358 16.4965 43.1668 16.2004C43.881 15.5385 43.9158 14.441 43.2713 13.7268C42.6268 13.03 41.5119 12.9777 40.8151 13.6223C40.1009 14.2842 40.0486 15.3817 40.7106 16.0959C41.0416 16.4617 41.5119 16.6533 41.9823 16.6533Z" fill="#FAED00"/>
<path d="M41.9823 16.6533C42.4003 16.6533 42.8358 16.4965 43.1668 16.2004C43.881 15.5385 43.9158 14.441 43.2713 13.7268C42.6268 13.03 41.5119 12.9777 40.8151 13.6223C40.1009 14.2842 40.0486 15.3817 40.7106 16.0959C41.0416 16.4617 41.5119 16.6533 41.9823 16.6533Z" fill="url(#paint1_linear)"/>
<path d="M40.7456 39.5954C40.101 40.3096 40.1533 41.407 40.8675 42.069C41.1985 42.3651 41.6166 42.5219 42.0346 42.5219C42.505 42.5219 42.9753 42.3303 43.3237 41.947C43.9682 41.2328 43.916 40.1354 43.2192 39.4908C42.505 38.8463 41.3901 38.8811 40.7456 39.5954Z" fill="#FAED00"/>
<path d="M40.7456 39.5954C40.101 40.3096 40.1533 41.407 40.8675 42.069C41.1985 42.3651 41.6166 42.5219 42.0346 42.5219C42.505 42.5219 42.9753 42.3303 43.3237 41.947C43.9682 41.2328 43.916 40.1354 43.2192 39.4908C42.505 38.8463 41.3901 38.8811 40.7456 39.5954Z" fill="url(#paint2_linear)"/>
<path d="M35.5886 12.2462C35.8324 12.3681 36.0937 12.4204 36.355 12.4204C36.9996 12.4204 37.6093 12.072 37.9228 11.4623C38.3409 10.5914 37.9925 9.54617 37.1389 9.1281C36.268 8.6926 35.2228 9.05839 34.8047 9.91196C34.3692 10.7829 34.7176 11.8281 35.5886 12.2462Z" fill="#FAED00"/>
<path d="M35.5886 12.2462C35.8324 12.3681 36.0937 12.4204 36.355 12.4204C36.9996 12.4204 37.6093 12.072 37.9228 11.4623C38.3409 10.5914 37.9925 9.54617 37.1389 9.1281C36.268 8.6926 35.2228 9.05839 34.8047 9.91196C34.3692 10.7829 34.7176 11.8281 35.5886 12.2462Z" fill="url(#paint3_linear)"/>
<path d="M10.7485 31.1119C10.5743 30.1539 9.6685 29.5442 8.72783 29.7184C7.76974 29.8926 7.14265 30.7984 7.33427 31.7565C7.49104 32.5926 8.20525 33.1675 9.0414 33.1675C9.14592 33.1675 9.25042 33.1675 9.35494 33.1326C10.2956 32.9585 10.9227 32.0526 10.7485 31.1119Z" fill="#FAED00"/>
<path d="M10.7485 31.1119C10.5743 30.1539 9.6685 29.5442 8.72783 29.7184C7.76974 29.8926 7.14265 30.7984 7.33427 31.7565C7.49104 32.5926 8.20525 33.1675 9.0414 33.1675C9.14592 33.1675 9.25042 33.1675 9.35494 33.1326C10.2956 32.9585 10.9227 32.0526 10.7485 31.1119Z" fill="url(#paint4_linear)"/>
<path d="M35.6409 43.4625C34.7873 43.898 34.4389 44.9432 34.8744 45.7968C35.1706 46.4064 35.7803 46.7723 36.4248 46.7723C36.6861 46.7723 36.9474 46.7026 37.2087 46.5807C38.0623 46.1452 38.4107 45.1 37.9752 44.2464C37.5571 43.3754 36.5119 43.027 35.6409 43.4625Z" fill="#FAED00"/>
<path d="M35.6409 43.4625C34.7873 43.898 34.4389 44.9432 34.8744 45.7968C35.1706 46.4064 35.7803 46.7723 36.4248 46.7723C36.6861 46.7723 36.9474 46.7026 37.2087 46.5807C38.0623 46.1452 38.4107 45.1 37.9752 44.2464C37.5571 43.3754 36.5119 43.027 35.6409 43.4625Z" fill="url(#paint5_linear)"/>
<path d="M23.1167 44.6297C22.1935 44.3684 21.2353 44.9084 20.974 45.8317C20.7127 46.7723 21.2528 47.7304 22.176 47.9917C22.3328 48.0265 22.4896 48.0613 22.6464 48.0613C23.4128 48.0613 24.1096 47.5562 24.3187 46.7897C24.58 45.8665 24.04 44.891 23.1167 44.6297Z" fill="#FAED00"/>
<path d="M23.1167 44.6297C22.1935 44.3684 21.2353 44.9084 20.974 45.8317C20.7127 46.7723 21.2528 47.7304 22.176 47.9917C22.3328 48.0265 22.4896 48.0613 22.6464 48.0613C23.4128 48.0613 24.1096 47.5562 24.3187 46.7897C24.58 45.8665 24.04 44.891 23.1167 44.6297Z" fill="url(#paint6_linear)"/>
<path d="M22.5764 11.1836C22.7332 11.1836 22.89 11.1662 23.0642 11.1313C23.9874 10.8526 24.51 9.89455 24.2487 8.9713C23.9874 8.04805 23.0119 7.50804 22.0887 7.76933C21.1654 8.04805 20.6428 9.00612 20.9041 9.92937C21.1132 10.6958 21.81 11.1836 22.5764 11.1836Z" fill="#FAED00"/>
<path d="M22.5764 11.1836C22.7332 11.1836 22.89 11.1662 23.0642 11.1313C23.9874 10.8526 24.51 9.89455 24.2487 8.9713C23.9874 8.04805 23.0119 7.50804 22.0887 7.76933C21.1654 8.04805 20.6428 9.00612 20.9041 9.92937C21.1132 10.6958 21.81 11.1836 22.5764 11.1836Z" fill="url(#paint7_linear)"/>
<path d="M29.4921 45.2217C28.534 45.3088 27.8372 46.1624 27.9243 47.1031C28.0114 48.0089 28.7605 48.6883 29.6489 48.6883C29.7012 48.6883 29.7534 48.6883 29.8231 48.6883C30.7812 48.6012 31.478 47.7476 31.3909 46.7895C31.3038 45.8314 30.4502 45.1172 29.4921 45.2217Z" fill="#FAED00"/>
<path d="M29.4921 45.2217C28.534 45.3088 27.8372 46.1624 27.9243 47.1031C28.0114 48.0089 28.7605 48.6883 29.6489 48.6883C29.7012 48.6883 29.7534 48.6883 29.8231 48.6883C30.7812 48.6012 31.478 47.7476 31.3909 46.7895C31.3038 45.8314 30.4502 45.1172 29.4921 45.2217Z" fill="url(#paint8_linear)"/>
<path d="M45.291 27.8023C45.291 27.8197 45.291 27.8545 45.291 27.8719C45.291 28.83 46.0749 29.6139 47.033 29.6139C47.9911 29.6139 48.775 28.83 48.775 27.8719C48.775 27.8545 48.775 27.8371 48.775 27.8371C48.775 27.8197 48.775 27.8022 48.775 27.7848C48.775 26.8267 47.9911 26.0428 47.033 26.0428C46.0575 26.0603 45.291 26.8442 45.291 27.8023Z" fill="#FAED00"/>
<path d="M45.291 27.8023C45.291 27.8197 45.291 27.8545 45.291 27.8719C45.291 28.83 46.0749 29.6139 47.033 29.6139C47.9911 29.6139 48.775 28.83 48.775 27.8719C48.775 27.8545 48.775 27.8371 48.775 27.8371C48.775 27.8197 48.775 27.8022 48.775 27.7848C48.775 26.8267 47.9911 26.0428 47.033 26.0428C46.0575 26.0603 45.291 26.8442 45.291 27.8023Z" fill="url(#paint9_linear)"/>
<path d="M46.3719 33.1674C45.4834 32.819 44.4731 33.2719 44.1247 34.1603C43.7763 35.0661 44.2118 36.0765 45.1176 36.4075C45.3267 36.4946 45.5357 36.5294 45.7447 36.5294C46.4415 36.5294 47.1035 36.1113 47.3648 35.4145C47.7132 34.5261 47.2777 33.5158 46.3719 33.1674Z" fill="#FAED00"/>
<path d="M46.3719 33.1674C45.4834 32.819 44.4731 33.2719 44.1247 34.1603C43.7763 35.0661 44.2118 36.0765 45.1176 36.4075C45.3267 36.4946 45.5357 36.5294 45.7447 36.5294C46.4415 36.5294 47.1035 36.1113 47.3648 35.4145C47.7132 34.5261 47.2777 33.5158 46.3719 33.1674Z" fill="url(#paint10_linear)"/>
<path d="M45.7096 22.6283C45.9361 22.6283 46.1451 22.5761 46.3541 22.5064C47.2425 22.158 47.6954 21.1477 47.347 20.2418C46.9812 19.3534 45.9709 18.9005 45.0825 19.2489C44.1767 19.6147 43.7412 20.625 44.0895 21.5135C44.3683 22.2102 45.0128 22.6283 45.7096 22.6283Z" fill="#FAED00"/>
<path d="M45.7096 22.6283C45.9361 22.6283 46.1451 22.5761 46.3541 22.5064C47.2425 22.158 47.6954 21.1477 47.347 20.2418C46.9812 19.3534 45.9709 18.9005 45.0825 19.2489C44.1767 19.6147 43.7412 20.625 44.0895 21.5135C44.3683 22.2102 45.0128 22.6283 45.7096 22.6283Z" fill="url(#paint11_linear)"/>
<path d="M10.6784 36.4945C9.85965 37.017 9.59834 38.0797 10.1209 38.8984C10.1209 38.9158 10.1209 38.9158 10.1209 38.9158C10.4519 39.4384 11.0094 39.7346 11.6016 39.7346C11.9152 39.7346 12.2287 39.6475 12.5074 39.4558C13.3262 38.9507 13.5875 37.8706 13.0649 37.0693C12.5597 36.2506 11.4971 35.9893 10.6784 36.4945Z" fill="#FAED00"/>
<path d="M10.6784 36.4945C9.85965 37.017 9.59834 38.0797 10.1209 38.8984C10.1209 38.9158 10.1209 38.9158 10.1209 38.9158C10.4519 39.4384 11.0094 39.7346 11.6016 39.7346C11.9152 39.7346 12.2287 39.6475 12.5074 39.4558C13.3262 38.9507 13.5875 37.8706 13.0649 37.0693C12.5597 36.2506 11.4971 35.9893 10.6784 36.4945Z" fill="url(#paint12_linear)"/>
<path d="M8.70976 26.0948C8.81428 26.1122 8.91879 26.1296 9.0233 26.1296C9.85945 26.1296 10.5737 25.5374 10.7305 24.7013C10.9047 23.7606 10.2775 22.8547 9.33687 22.6806C8.39621 22.5064 7.49037 23.1334 7.31617 24.0741C7.14197 25.0148 7.76909 25.9206 8.70976 26.0948Z" fill="#FAED00"/>
<path d="M8.70976 26.0948C8.81428 26.1122 8.91879 26.1296 9.0233 26.1296C9.85945 26.1296 10.5737 25.5374 10.7305 24.7013C10.9047 23.7606 10.2775 22.8547 9.33687 22.6806C8.39621 22.5064 7.49037 23.1334 7.31617 24.0741C7.14197 25.0148 7.76909 25.9206 8.70976 26.0948Z" fill="url(#paint13_linear)"/>
<path d="M10.6441 19.3011C10.9228 19.4753 11.2364 19.5624 11.55 19.5624C12.1422 19.5624 12.6997 19.2663 13.0306 18.7437C13.5358 17.925 13.2919 16.8449 12.4732 16.3398C11.6545 15.8346 10.5744 16.0785 10.0693 16.9146C9.5641 17.7159 9.8254 18.796 10.6441 19.3011Z" fill="#FAED00"/>
<path d="M10.6441 19.3011C10.9228 19.4753 11.2364 19.5624 11.55 19.5624C12.1422 19.5624 12.6997 19.2663 13.0306 18.7437C13.5358 17.925 13.2919 16.8449 12.4732 16.3398C11.6545 15.8346 10.5744 16.0785 10.0693 16.9146C9.5641 17.7159 9.8254 18.796 10.6441 19.3011Z" fill="url(#paint14_linear)"/>
<path d="M14.9639 42.1384C14.3716 42.8875 14.5284 43.985 15.2949 44.5598C15.2949 44.5772 15.2949 44.5772 15.2949 44.5772C15.6084 44.8037 15.9742 44.9256 16.3401 44.9256C16.8801 44.9256 17.4026 44.6817 17.7336 44.2288C18.3085 43.4624 18.1691 42.3649 17.3852 41.7901C16.6188 41.2152 15.5387 41.3545 14.9639 42.1384Z" fill="#FAED00"/>
<path d="M14.9639 42.1384C14.3716 42.8875 14.5284 43.985 15.2949 44.5598C15.2949 44.5772 15.2949 44.5772 15.2949 44.5772C15.6084 44.8037 15.9742 44.9256 16.3401 44.9256C16.8801 44.9256 17.4026 44.6817 17.7336 44.2288C18.3085 43.4624 18.1691 42.3649 17.3852 41.7901C16.6188 41.2152 15.5387 41.3545 14.9639 42.1384Z" fill="url(#paint15_linear)"/>
<path d="M16.2875 14.3541C16.6533 14.3541 17.0191 14.2321 17.3327 14.0057V13.9883C18.0992 13.4134 18.2559 12.316 17.6637 11.5495C17.0888 10.783 15.9914 10.6437 15.2249 11.2185C14.4584 11.7934 14.3191 12.8909 14.8939 13.6573C15.2423 14.1102 15.7649 14.3541 16.2875 14.3541Z" fill="#FAED00"/>
<path d="M16.2875 14.3541C16.6533 14.3541 17.0191 14.2321 17.3327 14.0057V13.9883C18.0992 13.4134 18.2559 12.316 17.6637 11.5495C17.0888 10.783 15.9914 10.6437 15.2249 11.2185C14.4584 11.7934 14.3191 12.8909 14.8939 13.6573C15.2423 14.1102 15.7649 14.3541 16.2875 14.3541Z" fill="url(#paint16_linear)"/>
<path d="M20.9043 21.6355C20.9043 22.7504 21.3572 23.8304 22.1411 24.6143L31.1472 33.6203C31.2865 33.7597 31.3562 33.9339 31.3562 34.1255C31.3562 34.5262 31.0252 34.8397 30.642 34.8397H25.1199C24.7192 34.8397 24.4057 34.5088 24.4057 34.1255V33.0977C24.4057 32.1396 23.6218 31.3557 22.6637 31.3557C21.7056 31.3557 20.9217 32.1396 20.9217 33.0977V34.1255C20.9217 36.4424 22.8031 38.3237 25.1199 38.3237H26.1302V40.0831C26.1302 41.0412 26.9141 41.8251 27.8722 41.8251C28.8303 41.8251 29.6142 41.0412 29.6142 40.0831V38.3237H30.642C32.9588 38.3237 34.8401 36.4424 34.8401 34.1255C34.8401 33.0107 34.3872 31.9306 33.6033 31.1467L24.5973 22.1407C24.4579 22.0013 24.3883 21.8271 24.3883 21.6355C24.3883 21.2349 24.7192 20.9213 25.1025 20.9213H30.6246C31.0252 20.9213 31.3388 21.2523 31.3388 21.6355V22.6633C31.3388 23.6214 32.1227 24.4053 33.0808 24.4053C34.0388 24.4053 34.8227 23.6214 34.8227 22.6633V21.6355C34.8227 19.3187 32.9414 17.4373 30.6246 17.4373H29.6142V15.6953C29.6142 14.7373 28.8303 13.9534 27.8722 13.9534C26.9141 13.9534 26.1302 14.7373 26.1302 15.6953V17.4373H25.1025C22.7856 17.4199 20.9043 19.3187 20.9043 21.6355Z" fill="#FAED00"/>
<path d="M20.9043 21.6355C20.9043 22.7504 21.3572 23.8304 22.1411 24.6143L31.1472 33.6203C31.2865 33.7597 31.3562 33.9339 31.3562 34.1255C31.3562 34.5262 31.0252 34.8397 30.642 34.8397H25.1199C24.7192 34.8397 24.4057 34.5088 24.4057 34.1255V33.0977C24.4057 32.1396 23.6218 31.3557 22.6637 31.3557C21.7056 31.3557 20.9217 32.1396 20.9217 33.0977V34.1255C20.9217 36.4424 22.8031 38.3237 25.1199 38.3237H26.1302V40.0831C26.1302 41.0412 26.9141 41.8251 27.8722 41.8251C28.8303 41.8251 29.6142 41.0412 29.6142 40.0831V38.3237H30.642C32.9588 38.3237 34.8401 36.4424 34.8401 34.1255C34.8401 33.0107 34.3872 31.9306 33.6033 31.1467L24.5973 22.1407C24.4579 22.0013 24.3883 21.8271 24.3883 21.6355C24.3883 21.2349 24.7192 20.9213 25.1025 20.9213H30.6246C31.0252 20.9213 31.3388 21.2523 31.3388 21.6355V22.6633C31.3388 23.6214 32.1227 24.4053 33.0808 24.4053C34.0388 24.4053 34.8227 23.6214 34.8227 22.6633V21.6355C34.8227 19.3187 32.9414 17.4373 30.6246 17.4373H29.6142V15.6953C29.6142 14.7373 28.8303 13.9534 27.8722 13.9534C26.9141 13.9534 26.1302 14.7373 26.1302 15.6953V17.4373H25.1025C22.7856 17.4199 20.9043 19.3187 20.9043 21.6355Z" fill="url(#paint17_linear)"/>
<path d="M27.8717 55.7434C43.236 55.7434 55.7434 43.236 55.7434 27.8717C55.7434 12.5074 43.236 0 27.8717 0C12.5074 0 0 12.5074 0 27.8717C0 43.2534 12.5074 55.7434 27.8717 55.7434ZM27.8717 3.48396C41.3198 3.48396 52.2594 14.4236 52.2594 27.8717C52.2594 41.3198 41.3198 52.2595 27.8717 52.2595C14.4236 52.2595 3.48396 41.3198 3.48396 27.8717C3.48396 14.4236 14.4236 3.48396 27.8717 3.48396Z" fill="#FAED00"/>
<path d="M27.8717 55.7434C43.236 55.7434 55.7434 43.236 55.7434 27.8717C55.7434 12.5074 43.236 0 27.8717 0C12.5074 0 0 12.5074 0 27.8717C0 43.2534 12.5074 55.7434 27.8717 55.7434ZM27.8717 3.48396C41.3198 3.48396 52.2594 14.4236 52.2594 27.8717C52.2594 41.3198 41.3198 52.2595 27.8717 52.2595C14.4236 52.2595 3.48396 41.3198 3.48396 27.8717C3.48396 14.4236 14.4236 3.48396 27.8717 3.48396Z" fill="url(#paint18_linear)"/>
<defs>
<linearGradient id="paint0_linear" x1="29.5882" y1="7.04773" x2="29.5882" y2="10.5216" gradientUnits="userSpaceOnUse">
<stop stop-color="#00C86A"/>
<stop offset="1" stop-color="white" stop-opacity="0"/>
</linearGradient>
<linearGradient id="paint1_linear" x1="41.9875" y1="13.1698" x2="41.9875" y2="16.6533" gradientUnits="userSpaceOnUse">
<stop stop-color="#00C86A"/>
<stop offset="1" stop-color="white" stop-opacity="0"/>
</linearGradient>
<linearGradient id="paint2_linear" x1="42.0355" y1="39.0322" x2="42.0355" y2="42.5219" gradientUnits="userSpaceOnUse">
<stop stop-color="#00C86A"/>
<stop offset="1" stop-color="white" stop-opacity="0"/>
</linearGradient>
<linearGradient id="paint3_linear" x1="36.3584" y1="8.94373" x2="36.3584" y2="12.4204" gradientUnits="userSpaceOnUse">
<stop stop-color="#00C86A"/>
<stop offset="1" stop-color="white" stop-opacity="0"/>
</linearGradient>
<linearGradient id="paint4_linear" x1="9.0387" y1="29.6887" x2="9.0387" y2="33.1675" gradientUnits="userSpaceOnUse">
<stop stop-color="#00C86A"/>
<stop offset="1" stop-color="white" stop-opacity="0"/>
</linearGradient>
<linearGradient id="paint5_linear" x1="36.4248" y1="43.275" x2="36.4248" y2="46.7723" gradientUnits="userSpaceOnUse">
<stop stop-color="#00C86A"/>
<stop offset="1" stop-color="white" stop-opacity="0"/>
</linearGradient>
<linearGradient id="paint6_linear" x1="22.6464" y1="44.5638" x2="22.6464" y2="48.0613" gradientUnits="userSpaceOnUse">
<stop stop-color="#00C86A"/>
<stop offset="1" stop-color="white" stop-opacity="0"/>
</linearGradient>
<linearGradient id="paint7_linear" x1="22.5764" y1="7.70349" x2="22.5764" y2="11.1836" gradientUnits="userSpaceOnUse">
<stop stop-color="#00C86A"/>
<stop offset="1" stop-color="white" stop-opacity="0"/>
</linearGradient>
<linearGradient id="paint8_linear" x1="29.6576" y1="45.2115" x2="29.6576" y2="48.6883" gradientUnits="userSpaceOnUse">
<stop stop-color="#00C86A"/>
<stop offset="1" stop-color="white" stop-opacity="0"/>
</linearGradient>
<linearGradient id="paint9_linear" x1="47.033" y1="26.0428" x2="47.033" y2="29.6139" gradientUnits="userSpaceOnUse">
<stop stop-color="#00C86A"/>
<stop offset="1" stop-color="white" stop-opacity="0"/>
</linearGradient>
<linearGradient id="paint10_linear" x1="45.7448" y1="33.0497" x2="45.7448" y2="36.5294" gradientUnits="userSpaceOnUse">
<stop stop-color="#00C86A"/>
<stop offset="1" stop-color="white" stop-opacity="0"/>
</linearGradient>
<linearGradient id="paint11_linear" x1="45.7172" y1="19.1312" x2="45.7172" y2="22.6283" gradientUnits="userSpaceOnUse">
<stop stop-color="#00C86A"/>
<stop offset="1" stop-color="white" stop-opacity="0"/>
</linearGradient>
<linearGradient id="paint12_linear" x1="11.5929" y1="36.2367" x2="11.5929" y2="39.7346" gradientUnits="userSpaceOnUse">
<stop stop-color="#00C86A"/>
<stop offset="1" stop-color="white" stop-opacity="0"/>
</linearGradient>
<linearGradient id="paint13_linear" x1="9.02332" y1="22.6515" x2="9.02332" y2="26.1296" gradientUnits="userSpaceOnUse">
<stop stop-color="#00C86A"/>
<stop offset="1" stop-color="white" stop-opacity="0"/>
</linearGradient>
<linearGradient id="paint14_linear" x1="11.5524" y1="16.0779" x2="11.5524" y2="19.5624" gradientUnits="userSpaceOnUse">
<stop stop-color="#00C86A"/>
<stop offset="1" stop-color="white" stop-opacity="0"/>
</linearGradient>
<linearGradient id="paint15_linear" x1="16.3444" y1="41.4384" x2="16.3444" y2="44.9256" gradientUnits="userSpaceOnUse">
<stop stop-color="#00C86A"/>
<stop offset="1" stop-color="white" stop-opacity="0"/>
</linearGradient>
<linearGradient id="paint16_linear" x1="16.2825" y1="10.8656" x2="16.2825" y2="14.3541" gradientUnits="userSpaceOnUse">
<stop stop-color="#00C86A"/>
<stop offset="1" stop-color="white" stop-opacity="0"/>
</linearGradient>
<linearGradient id="paint17_linear" x1="27.8722" y1="13.9534" x2="27.8722" y2="41.8251" gradientUnits="userSpaceOnUse">
<stop stop-color="#00C86A"/>
<stop offset="1" stop-color="white" stop-opacity="0"/>
</linearGradient>
<linearGradient id="paint18_linear" x1="27.8717" y1="0" x2="27.8717" y2="55.7434" gradientUnits="userSpaceOnUse">
<stop stop-color="#00C86A"/>
<stop offset="1" stop-color="white" stop-opacity="0"/>
</linearGradient>
</defs>
</svg>
