<svg width="56" height="56" viewBox="0 0 56 56" fill="none" xmlns="http://www.w3.org/2000/svg">
<path d="M44.629 55.2448L55.5511 44.3226L44.629 33.4004L42.1553 35.8565L50.6214 44.3226L42.1553 52.7886L44.629 55.2448Z" fill="#FAED00"/>
<path d="M44.629 55.2448L55.5511 44.3226L44.629 33.4004L42.1553 35.8565L50.6214 44.3226L42.1553 52.7886L44.629 55.2448Z" fill="url(#paint0_linear)"/>
<path d="M10.9221 33.4004L0 44.3226L10.9221 55.2448L13.3784 52.7886L4.92973 44.3226L13.3784 35.8565L10.9221 33.4004Z" fill="#FAED00"/>
<path d="M10.9221 33.4004L0 44.3226L10.9221 55.2448L13.3784 52.7886L4.92973 44.3226L13.3784 35.8565L10.9221 33.4004Z" fill="url(#paint1_linear)"/>
<path d="M32.9409 33.1044C32.9409 30.0037 34.1429 27.0946 36.3204 24.9171L36.6688 24.5687C38.1495 23.088 39.4037 21.4157 40.4663 19.4821L40.7275 18.9247C41.616 16.5904 41.8599 14.0471 41.4418 11.5387C40.5011 5.96434 36.1636 1.45259 30.6415 0.302884C26.4608 -0.568107 22.1755 0.459653 18.918 3.12488C15.6431 5.79011 13.7617 9.72703 13.7617 13.9426V15.6846H24.2136V13.9426C24.2136 12.88 24.6839 11.9045 25.5027 11.2426C26.3388 10.5632 27.4015 10.3193 28.4989 10.5457C29.788 10.8245 30.9028 11.9742 31.1119 13.2981C31.199 13.8555 31.1815 14.3955 31.0421 14.9007C30.537 15.7368 29.9448 16.5033 29.2654 17.1827L28.917 17.5311C24.7536 21.6944 22.4542 27.234 22.4542 33.1218V34.8638H32.9061V33.1044H32.9409ZM26.0601 31.3624C26.4608 27.0597 28.3247 23.0705 31.408 19.9872L31.7564 19.6388C32.6971 18.6982 33.5158 17.6356 34.1778 16.4685L34.3171 16.1549C34.6829 15.0574 34.77 13.9078 34.561 12.7232C34.1081 10.0057 31.8957 7.70629 29.2131 7.14885C27.053 6.69594 24.9626 7.20109 23.3077 8.54242C22.1406 9.50051 21.3219 10.7897 20.9561 12.2181H17.4025C17.8206 9.72705 19.1271 7.46241 21.1129 5.84237C23.5691 3.85651 26.7744 3.07258 29.9273 3.73453C34.0558 4.5881 37.2959 7.96758 37.9927 12.1483C38.3063 14.0297 38.132 15.9633 37.5049 17.5833L37.3482 17.9143C36.4946 19.4472 35.4319 20.8583 34.1951 22.1125L33.8468 22.4608C31.4255 24.8996 29.9273 28.0178 29.5441 31.3799H26.0601V31.3624Z" fill="#FAED00"/>
<path d="M32.9409 33.1044C32.9409 30.0037 34.1429 27.0946 36.3204 24.9171L36.6688 24.5687C38.1495 23.088 39.4037 21.4157 40.4663 19.4821L40.7275 18.9247C41.616 16.5904 41.8599 14.0471 41.4418 11.5387C40.5011 5.96434 36.1636 1.45259 30.6415 0.302884C26.4608 -0.568107 22.1755 0.459653 18.918 3.12488C15.6431 5.79011 13.7617 9.72703 13.7617 13.9426V15.6846H24.2136V13.9426C24.2136 12.88 24.6839 11.9045 25.5027 11.2426C26.3388 10.5632 27.4015 10.3193 28.4989 10.5457C29.788 10.8245 30.9028 11.9742 31.1119 13.2981C31.199 13.8555 31.1815 14.3955 31.0421 14.9007C30.537 15.7368 29.9448 16.5033 29.2654 17.1827L28.917 17.5311C24.7536 21.6944 22.4542 27.234 22.4542 33.1218V34.8638H32.9061V33.1044H32.9409ZM26.0601 31.3624C26.4608 27.0597 28.3247 23.0705 31.408 19.9872L31.7564 19.6388C32.6971 18.6982 33.5158 17.6356 34.1778 16.4685L34.3171 16.1549C34.6829 15.0574 34.77 13.9078 34.561 12.7232C34.1081 10.0057 31.8957 7.70629 29.2131 7.14885C27.053 6.69594 24.9626 7.20109 23.3077 8.54242C22.1406 9.50051 21.3219 10.7897 20.9561 12.2181H17.4025C17.8206 9.72705 19.1271 7.46241 21.1129 5.84237C23.5691 3.85651 26.7744 3.07258 29.9273 3.73453C34.0558 4.5881 37.2959 7.96758 37.9927 12.1483C38.3063 14.0297 38.132 15.9633 37.5049 17.5833L37.3482 17.9143C36.4946 19.4472 35.4319 20.8583 34.1951 22.1125L33.8468 22.4608C31.4255 24.8996 29.9273 28.0178 29.5441 31.3799H26.0601V31.3624Z" fill="url(#paint2_linear)"/>
<path d="M22.4893 43.556C22.4893 46.4303 24.8409 48.782 27.7152 48.782C30.5895 48.782 32.9411 46.4303 32.9411 43.556C32.9411 40.6818 30.5895 38.3301 27.7152 38.3301C24.8409 38.3301 22.4893 40.6818 22.4893 43.556ZM29.4572 43.556C29.4572 44.5141 28.6733 45.298 27.7152 45.298C26.7571 45.298 25.9732 44.5141 25.9732 43.556C25.9732 42.5979 26.7571 41.814 27.7152 41.814C28.6733 41.814 29.4572 42.5979 29.4572 43.556Z" fill="#FAED00"/>
<path d="M22.4893 43.556C22.4893 46.4303 24.8409 48.782 27.7152 48.782C30.5895 48.782 32.9411 46.4303 32.9411 43.556C32.9411 40.6818 30.5895 38.3301 27.7152 38.3301C24.8409 38.3301 22.4893 40.6818 22.4893 43.556ZM29.4572 43.556C29.4572 44.5141 28.6733 45.298 27.7152 45.298C26.7571 45.298 25.9732 44.5141 25.9732 43.556C25.9732 42.5979 26.7571 41.814 27.7152 41.814C28.6733 41.814 29.4572 42.5979 29.4572 43.556Z" fill="url(#paint3_linear)"/>
<defs>
<linearGradient id="paint0_linear" x1="48.8532" y1="33.4004" x2="48.8532" y2="55.2448" gradientUnits="userSpaceOnUse">
<stop stop-color="#00C86A"/>
<stop offset="1" stop-color="white" stop-opacity="0"/>
</linearGradient>
<linearGradient id="paint1_linear" x1="6.6892" y1="33.4004" x2="6.6892" y2="55.2448" gradientUnits="userSpaceOnUse">
<stop stop-color="#00C86A"/>
<stop offset="1" stop-color="white" stop-opacity="0"/>
</linearGradient>
<linearGradient id="paint2_linear" x1="27.7011" y1="0" x2="27.7011" y2="34.8638" gradientUnits="userSpaceOnUse">
<stop stop-color="#00C86A"/>
<stop offset="1" stop-color="white" stop-opacity="0"/>
</linearGradient>
<linearGradient id="paint3_linear" x1="27.7152" y1="38.3301" x2="27.7152" y2="48.782" gradientUnits="userSpaceOnUse">
<stop stop-color="#00C86A"/>
<stop offset="1" stop-color="white" stop-opacity="0"/>
</linearGradient>
</defs>
</svg>
