<svg width="56" height="56" viewBox="0 0 56 56" fill="none" xmlns="http://www.w3.org/2000/svg">
<path d="M38.5675 50.2867L54.7156 40.3922C55.3427 40.009 55.7434 39.347 55.7956 38.6154C55.8479 37.8837 55.5343 37.1521 54.9769 36.6818C53.653 35.5669 52.1549 34.9224 50.6568 34.7308C50.4304 28.6861 48.009 23.0421 43.7063 18.7394L38.8985 13.9315H39.6823V10.4476H37.6442C37.7487 10.2385 37.8707 10.0295 38.0275 9.8727L42.574 5.32616L44.5425 3.58418C45.1347 3.06159 45.3089 2.19057 44.9431 1.49378C44.5773 0.77957 43.7934 0.41372 43.0095 0.587918L41.0585 1.02341C40.1875 1.21503 39.2991 1.14536 38.4803 0.814384L37.9403 0.587918C36.0416 -0.195973 33.9338 -0.178553 32.035 0.587918C30.9724 1.02341 29.8053 1.02341 28.7601 0.587918C26.8614 -0.195973 24.7535 -0.195973 22.8548 0.587918L22.3322 0.796947C21.4961 1.12792 20.6076 1.21501 19.7192 1.00598L17.925 0.587918C17.1585 0.41372 16.3746 0.779536 15.9914 1.45891C15.6256 2.1557 15.7649 3.00929 16.3398 3.54931L22.7677 9.8727C22.9419 10.0469 23.0464 10.2385 23.1509 10.4476H21.1651V13.9315H21.8967L17.0888 18.7394C12.9603 22.8679 10.5564 28.2506 10.1732 34.034C9.40669 34.4346 8.69247 34.9224 8.04794 35.5669L0 45.3394V55.8958H9.54607L38.5675 50.2867ZM25.2762 7.41656L22.2974 4.43773C22.7677 4.35063 23.238 4.19387 23.6909 4.01968L24.1961 3.81065C25.2587 3.37515 26.4259 3.37515 27.4711 3.81065C29.3698 4.59454 31.4776 4.59454 33.3764 3.81065C34.439 3.37515 35.6061 3.37515 36.6513 3.81065L37.1913 4.03711C37.6268 4.21131 38.0797 4.35065 38.55 4.45517L35.5713 7.41656C34.7525 8.23529 34.1951 9.31532 33.9861 10.465H26.8439C26.6523 9.2979 26.1123 8.25271 25.2762 7.41656ZM19.6147 21.213L25.2762 15.5516C25.7465 15.0812 26.1123 14.5413 26.391 13.949H34.4912C34.77 14.5238 35.1357 15.0812 35.5886 15.5516L41.2675 21.2304C44.9954 24.9583 47.0857 29.8881 47.2077 35.1314C46.7722 35.2882 46.3541 35.4799 45.936 35.7237L36.3551 40.096H32.9234C33.5157 39.0857 33.8467 37.9011 33.8467 36.6121V33.1281H13.8139C13.8139 33.1281 13.8139 33.1281 13.7965 33.1281C14.3539 28.6164 16.3572 24.4531 19.6147 21.213ZM3.53622 52.3944V46.5588L10.6783 37.8838C11.4971 37.065 12.6468 36.5773 13.8139 36.5773H30.3627C30.3627 38.9638 28.3246 40.0613 26.4433 40.0613H19.0747V43.5452H37.1042L47.5387 38.7722C48.9497 37.9535 50.2387 38.058 51.2317 38.4412L37.2958 46.9769L9.28479 52.3944H3.53622Z" fill="#FAED00"/>
<path d="M38.5675 50.2867L54.7156 40.3922C55.3427 40.009 55.7434 39.347 55.7956 38.6154C55.8479 37.8837 55.5343 37.1521 54.9769 36.6818C53.653 35.5669 52.1549 34.9224 50.6568 34.7308C50.4304 28.6861 48.009 23.0421 43.7063 18.7394L38.8985 13.9315H39.6823V10.4476H37.6442C37.7487 10.2385 37.8707 10.0295 38.0275 9.8727L42.574 5.32616L44.5425 3.58418C45.1347 3.06159 45.3089 2.19057 44.9431 1.49378C44.5773 0.77957 43.7934 0.41372 43.0095 0.587918L41.0585 1.02341C40.1875 1.21503 39.2991 1.14536 38.4803 0.814384L37.9403 0.587918C36.0416 -0.195973 33.9338 -0.178553 32.035 0.587918C30.9724 1.02341 29.8053 1.02341 28.7601 0.587918C26.8614 -0.195973 24.7535 -0.195973 22.8548 0.587918L22.3322 0.796947C21.4961 1.12792 20.6076 1.21501 19.7192 1.00598L17.925 0.587918C17.1585 0.41372 16.3746 0.779536 15.9914 1.45891C15.6256 2.1557 15.7649 3.00929 16.3398 3.54931L22.7677 9.8727C22.9419 10.0469 23.0464 10.2385 23.1509 10.4476H21.1651V13.9315H21.8967L17.0888 18.7394C12.9603 22.8679 10.5564 28.2506 10.1732 34.034C9.40669 34.4346 8.69247 34.9224 8.04794 35.5669L0 45.3394V55.8958H9.54607L38.5675 50.2867ZM25.2762 7.41656L22.2974 4.43773C22.7677 4.35063 23.238 4.19387 23.6909 4.01968L24.1961 3.81065C25.2587 3.37515 26.4259 3.37515 27.4711 3.81065C29.3698 4.59454 31.4776 4.59454 33.3764 3.81065C34.439 3.37515 35.6061 3.37515 36.6513 3.81065L37.1913 4.03711C37.6268 4.21131 38.0797 4.35065 38.55 4.45517L35.5713 7.41656C34.7525 8.23529 34.1951 9.31532 33.9861 10.465H26.8439C26.6523 9.2979 26.1123 8.25271 25.2762 7.41656ZM19.6147 21.213L25.2762 15.5516C25.7465 15.0812 26.1123 14.5413 26.391 13.949H34.4912C34.77 14.5238 35.1357 15.0812 35.5886 15.5516L41.2675 21.2304C44.9954 24.9583 47.0857 29.8881 47.2077 35.1314C46.7722 35.2882 46.3541 35.4799 45.936 35.7237L36.3551 40.096H32.9234C33.5157 39.0857 33.8467 37.9011 33.8467 36.6121V33.1281H13.8139C13.8139 33.1281 13.8139 33.1281 13.7965 33.1281C14.3539 28.6164 16.3572 24.4531 19.6147 21.213ZM3.53622 52.3944V46.5588L10.6783 37.8838C11.4971 37.065 12.6468 36.5773 13.8139 36.5773H30.3627C30.3627 38.9638 28.3246 40.0613 26.4433 40.0613H19.0747V43.5452H37.1042L47.5387 38.7722C48.9497 37.9535 50.2387 38.058 51.2317 38.4412L37.2958 46.9769L9.28479 52.3944H3.53622Z" fill="url(#paint0_linear)"/>
<defs>
<linearGradient id="paint0_linear" x1="27.9006" y1="0" x2="27.9006" y2="55.8958" gradientUnits="userSpaceOnUse">
<stop stop-color="#00C86A"/>
<stop offset="1" stop-color="white" stop-opacity="0"/>
</linearGradient>
</defs>
</svg>
