<svg width="56" height="56" viewBox="0 0 56 56" fill="none" xmlns="http://www.w3.org/2000/svg">
<path d="M35.9022 27.3317L36.1112 27.6627L44.4205 22.2799C51.5104 17.6811 55.7434 10.0164 55.7434 1.75942V0.0174368H46.5805V0H9.02345V0.0174368H0V1.75942C0 9.99899 4.23301 17.6636 11.3229 22.2799L19.6322 27.6627L19.7714 27.4536L23.8128 37.7836L23.8826 37.9577C24.0045 38.1842 24.0567 38.4455 24.0567 38.7068C24.0567 39.3339 23.6909 39.9262 23.0812 40.2397L18.0121 42.8701V45.3089H10.4519V55.7608H45.2915V45.3089H37.6094V42.8701L32.5227 40.2397C31.9305 39.9262 31.5472 39.3513 31.5472 38.7242C31.5472 38.4629 31.617 38.219 31.7215 37.9752L35.9022 27.3317ZM52.1898 3.5014C51.6498 9.89447 48.1135 15.7126 42.5217 19.3534L37.8358 22.3844L45.2219 3.5014H52.1898ZM13.2217 19.3534C7.62992 15.7301 4.09362 9.89447 3.5536 3.5014H10.3822L17.7333 22.2799L13.2217 19.3534ZM41.8075 48.7755V52.2594H13.9358V48.7755H18.0121H37.6094H41.8075ZM30.9376 43.3056L34.1254 44.9605V45.2915H21.4961V44.9605L24.6838 43.3056C26.4607 42.3998 27.5581 40.623 27.5581 38.672C27.5581 37.8881 27.384 37.1216 27.0356 36.4248L14.1449 3.48396H41.494L28.6033 36.4422C28.2549 37.139 28.0807 37.9229 28.0807 38.7068C28.0807 40.6404 29.1782 42.4172 30.9376 43.3056Z" fill="#FAED00"/>
<path d="M35.9022 27.3317L36.1112 27.6627L44.4205 22.2799C51.5104 17.6811 55.7434 10.0164 55.7434 1.75942V0.0174368H46.5805V0H9.02345V0.0174368H0V1.75942C0 9.99899 4.23301 17.6636 11.3229 22.2799L19.6322 27.6627L19.7714 27.4536L23.8128 37.7836L23.8826 37.9577C24.0045 38.1842 24.0567 38.4455 24.0567 38.7068C24.0567 39.3339 23.6909 39.9262 23.0812 40.2397L18.0121 42.8701V45.3089H10.4519V55.7608H45.2915V45.3089H37.6094V42.8701L32.5227 40.2397C31.9305 39.9262 31.5472 39.3513 31.5472 38.7242C31.5472 38.4629 31.617 38.219 31.7215 37.9752L35.9022 27.3317ZM52.1898 3.5014C51.6498 9.89447 48.1135 15.7126 42.5217 19.3534L37.8358 22.3844L45.2219 3.5014H52.1898ZM13.2217 19.3534C7.62992 15.7301 4.09362 9.89447 3.5536 3.5014H10.3822L17.7333 22.2799L13.2217 19.3534ZM41.8075 48.7755V52.2594H13.9358V48.7755H18.0121H37.6094H41.8075ZM30.9376 43.3056L34.1254 44.9605V45.2915H21.4961V44.9605L24.6838 43.3056C26.4607 42.3998 27.5581 40.623 27.5581 38.672C27.5581 37.8881 27.384 37.1216 27.0356 36.4248L14.1449 3.48396H41.494L28.6033 36.4422C28.2549 37.139 28.0807 37.9229 28.0807 38.7068C28.0807 40.6404 29.1782 42.4172 30.9376 43.3056Z" fill="url(#paint0_linear)"/>
<defs>
<linearGradient id="paint0_linear" x1="27.8717" y1="0" x2="27.8717" y2="55.7608" gradientUnits="userSpaceOnUse">
<stop stop-color="#00C86A"/>
<stop offset="1" stop-color="white" stop-opacity="0"/>
</linearGradient>
</defs>
</svg>
