<svg width="50" height="60" viewBox="0 0 50 60" fill="none" xmlns="http://www.w3.org/2000/svg">
<path d="M35.7334 48.2377H3.48096C2.11643 48.2377 1 47.1189 1 45.7515V3.4862C1 2.11879 2.11643 1 3.48096 1H35.7334C37.098 1 38.2144 2.11879 38.2144 3.4862V45.7515C38.2144 47.1189 37.098 48.2377 35.7334 48.2377Z" stroke="#FAED00" stroke-width="2" stroke-miterlimit="10" stroke-linecap="round" stroke-linejoin="round"/>
<path d="M35.7334 48.2377H3.48096C2.11643 48.2377 1 47.1189 1 45.7515V3.4862C1 2.11879 2.11643 1 3.48096 1H35.7334C37.098 1 38.2144 2.11879 38.2144 3.4862V45.7515C38.2144 47.1189 37.098 48.2377 35.7334 48.2377Z" stroke="url(#paint0_linear)" stroke-width="2" stroke-miterlimit="10" stroke-linecap="round" stroke-linejoin="round"/>
<path d="M43.1763 10.9448H45.6573C47.0218 10.9448 48.1382 12.0636 48.1382 13.431V55.6964C48.1382 57.0638 47.0218 58.1826 45.6573 58.1826H13.4048C12.0403 58.1826 10.9238 57.0638 10.9238 55.6964V53.2102" stroke="#FAED00" stroke-width="2" stroke-miterlimit="10" stroke-linecap="round" stroke-linejoin="round"/>
<path d="M43.1763 10.9448H45.6573C47.0218 10.9448 48.1382 12.0636 48.1382 13.431V55.6964C48.1382 57.0638 47.0218 58.1826 45.6573 58.1826H13.4048C12.0403 58.1826 10.9238 57.0638 10.9238 55.6964V53.2102" stroke="url(#paint1_linear)" stroke-width="2" stroke-miterlimit="10" stroke-linecap="round" stroke-linejoin="round"/>
<defs>
<linearGradient id="paint0_linear" x1="19.6072" y1="1" x2="19.6072" y2="48.2377" gradientUnits="userSpaceOnUse">
<stop stop-color="#00C86A"/>
<stop offset="1" stop-color="white" stop-opacity="0"/>
</linearGradient>
<linearGradient id="paint1_linear" x1="29.531" y1="10.9448" x2="29.531" y2="58.1826" gradientUnits="userSpaceOnUse">
<stop stop-color="#00C86A"/>
<stop offset="1" stop-color="white" stop-opacity="0"/>
</linearGradient>
</defs>
</svg>
