<svg width="56" height="62" viewBox="0 0 56 62" fill="none" xmlns="http://www.w3.org/2000/svg">
<path d="M50.5175 0.434082H5.22594C2.35168 0.434082 0 3.00852 0 6.15505V55.7368C0 58.8833 2.35168 61.4578 5.22594 61.4578H50.5175C53.3917 61.4578 55.7434 58.8833 55.7434 55.7368V6.15505C55.7434 3.00852 53.3917 0.434082 50.5175 0.434082ZM52.2594 55.7368C52.2594 56.7856 51.4756 57.6438 50.5175 57.6438H5.22594C4.26785 57.6438 3.48396 56.7856 3.48396 55.7368V6.15505C3.48396 5.10621 4.26785 4.24806 5.22594 4.24806H50.5175C51.4756 4.24806 52.2594 5.10621 52.2594 6.15505V55.7368Z" fill="url(#paint0_linear)" fill-opacity="0.8"/>
<path d="M22.5929 38.8597L13.3779 28.7528L10.9043 31.4606L22.5929 44.2373L44.7335 20.0189L42.2599 17.311L22.5929 38.8597Z" fill="url(#paint1_linear)" fill-opacity="0.8"/>
<defs>
<linearGradient id="paint0_linear" x1="27.8717" y1="0.434082" x2="27.8717" y2="61.4578" gradientUnits="userSpaceOnUse">
<stop stop-color="#0066FF"/>
<stop offset="0.0666667" stop-color="#0167FE"/>
<stop offset="0.133333" stop-color="#026AFC"/>
<stop offset="0.2" stop-color="#0570F9"/>
<stop offset="0.266667" stop-color="#0A78F4"/>
<stop offset="0.333333" stop-color="#0F83EE"/>
<stop offset="0.4" stop-color="#168FE6"/>
<stop offset="0.466667" stop-color="#1D9DDE"/>
<stop offset="0.533333" stop-color="#25ACD5"/>
<stop offset="0.6" stop-color="#2CBACD"/>
<stop offset="0.666667" stop-color="#33C6C5"/>
<stop offset="0.733333" stop-color="#38D1BF"/>
<stop offset="0.8" stop-color="#3DD9BA"/>
<stop offset="0.866667" stop-color="#40DFB7"/>
<stop offset="0.933333" stop-color="#41E2B5"/>
<stop offset="1" stop-color="#42E3B4"/>
</linearGradient>
<linearGradient id="paint1_linear" x1="27.8189" y1="17.311" x2="27.8189" y2="44.2373" gradientUnits="userSpaceOnUse">
<stop stop-color="#0066FF"/>
<stop offset="0.0666667" stop-color="#0167FE"/>
<stop offset="0.133333" stop-color="#026AFC"/>
<stop offset="0.2" stop-color="#0570F9"/>
<stop offset="0.266667" stop-color="#0A78F4"/>
<stop offset="0.333333" stop-color="#0F83EE"/>
<stop offset="0.4" stop-color="#168FE6"/>
<stop offset="0.466667" stop-color="#1D9DDE"/>
<stop offset="0.533333" stop-color="#25ACD5"/>
<stop offset="0.6" stop-color="#2CBACD"/>
<stop offset="0.666667" stop-color="#33C6C5"/>
<stop offset="0.733333" stop-color="#38D1BF"/>
<stop offset="0.8" stop-color="#3DD9BA"/>
<stop offset="0.866667" stop-color="#40DFB7"/>
<stop offset="0.933333" stop-color="#41E2B5"/>
<stop offset="1" stop-color="#42E3B4"/>
</linearGradient>
</defs>
</svg>
