<svg width="619" height="1004" viewBox="0 0 619 1004" fill="none" xmlns="http://www.w3.org/2000/svg">
  <path
      d="M439.014 14H441.31V6.244H445.076V14H447.358V4.2H439.014V14ZM449.295 10.206C449.295 12.908 450.513 14.196 453.355 14.196C456.099 14.196 457.429 12.95 457.429 10.22C457.429 7.476 456.197 6.244 453.397 6.244C450.709 6.244 449.295 7.532 449.295 10.206ZM451.591 10.206C451.591 8.708 452.039 8.022 453.355 8.022C454.699 8.022 455.133 8.666 455.133 10.206V10.276C455.133 11.788 454.629 12.418 453.383 12.418C452.081 12.418 451.591 11.69 451.591 10.262V10.206ZM458.269 15.82H460.341V14H465.129V15.82H467.187V12.124H466.067V6.44H459.893L459.879 7.224C459.865 9.338 459.683 11.088 459.165 12.124H458.269V15.82ZM463.827 12.124H461.335C461.657 11.298 461.839 10.01 461.881 8.792L461.895 8.316H463.827V12.124ZM474.893 6.692C474.417 6.468 473.731 6.244 472.429 6.244C469.559 6.244 468.285 7.504 468.285 10.122C468.285 13.02 469.531 14.196 472.499 14.196C473.759 14.196 474.585 13.902 475.033 13.664V11.69C474.585 12.04 473.745 12.306 472.905 12.306C471.225 12.306 470.595 11.648 470.595 10.136C470.595 8.638 471.281 8.12 472.681 8.12C473.703 8.12 474.375 8.414 474.893 8.778V6.692ZM483.942 10.766V9.856C483.942 7.658 483.004 6.244 480.218 6.244C477.684 6.244 476.242 7.49 476.242 10.094C476.242 12.88 477.362 14.196 480.344 14.196C481.898 14.196 483.046 13.818 483.424 13.51V11.606C482.864 12.068 481.758 12.446 480.666 12.446C479.224 12.446 478.538 11.942 478.496 10.766H483.942ZM480.176 7.91C481.324 7.91 481.73 8.484 481.716 9.492H478.482C478.538 8.442 479.07 7.91 480.176 7.91ZM485.617 14H487.843V8.386H491.217V6.44H485.617V14ZM492.753 14H494.867V9.898C494.867 9.38 494.825 8.96 494.797 8.456C495.021 8.932 495.217 9.422 495.399 9.786L496.617 12.544H498.003L499.249 9.786C499.431 9.408 499.599 8.904 499.823 8.414C499.781 8.946 499.739 9.352 499.739 9.884V14H501.867V6.44H498.997L497.331 10.192L495.637 6.44H492.753V14ZM511.286 10.766V9.856C511.286 7.658 510.348 6.244 507.562 6.244C505.028 6.244 503.586 7.49 503.586 10.094C503.586 12.88 504.706 14.196 507.688 14.196C509.242 14.196 510.39 13.818 510.768 13.51V11.606C510.208 12.068 509.102 12.446 508.01 12.446C506.568 12.446 505.882 11.942 505.84 10.766H511.286ZM507.52 7.91C508.668 7.91 509.074 8.484 509.06 9.492H505.826C505.882 8.442 506.414 7.91 507.52 7.91ZM512.96 14H515.186V11.144H518.112V14H520.352V6.44H518.112V9.254H515.186V6.44H512.96V14ZM524.212 14H526.452V8.386H528.902V6.44H521.762V8.386H524.212V14Z"
      fill="#7C7C7C"/>
  <g filter="url(#filter0_d)">
    <rect x="39" y="39" width="231" height="70" rx="5" fill="white"/>
  </g>
  <path
      d="M105.088 80.2178H107.384V76.1578H108.21L111.024 80.2178H113.754L110.072 75.0518L113.432 70.4178H110.758L108.168 74.3098H107.384V70.4178H105.088V80.2178ZM114.954 82.7378H117.194V79.2658C117.544 79.7838 118.216 80.4138 119.616 80.4138C122.01 80.4138 122.99 79.0838 122.99 76.3118C122.99 73.5678 122.052 72.4618 119.784 72.4618C118.37 72.4618 117.572 72.9798 117.138 73.7638L117.068 72.6578H114.954V82.7378ZM117.194 76.7038V76.1018C117.194 74.9398 117.698 74.2538 118.93 74.2538C120.134 74.2538 120.652 74.8418 120.652 76.3258C120.652 77.9218 120.232 78.6218 118.944 78.6218C117.698 78.6218 117.194 77.8798 117.194 76.7038ZM126.067 81.0578C125.717 81.0578 125.353 80.9318 125.115 80.8058L125.101 82.7518C125.367 82.8638 125.885 82.9338 126.305 82.9338C127.565 82.9338 128.251 82.3598 129.063 80.0218L131.625 72.6578H129.329L127.929 77.5438L126.151 72.6578H123.631L126.893 80.2458C126.711 80.8758 126.473 81.0578 126.067 81.0578ZM132.878 80.2178H135.104V74.6038H137.876V80.2178H140.102V72.6578H132.878V80.2178ZM142.244 80.2178H144.47V77.3618H147.396V80.2178H149.636V72.6578H147.396V75.4718H144.47V72.6578H142.244V80.2178ZM159.04 76.9838V76.0738C159.04 73.8758 158.102 72.4618 155.316 72.4618C152.782 72.4618 151.34 73.7078 151.34 76.3118C151.34 79.0978 152.46 80.4138 155.442 80.4138C156.996 80.4138 158.144 80.0358 158.522 79.7278V77.8238C157.962 78.2858 156.856 78.6638 155.764 78.6638C154.322 78.6638 153.636 78.1598 153.594 76.9838H159.04ZM155.274 74.1278C156.422 74.1278 156.828 74.7018 156.814 75.7098H153.58C153.636 74.6598 154.168 74.1278 155.274 74.1278ZM160.714 80.2178H162.828L165.236 76.6198C165.53 76.1858 165.754 75.7938 165.978 75.4018H166.006C165.978 75.8498 165.95 76.4238 165.95 77.0818V80.2178H168.176V72.6578H166.062L163.682 76.2418C163.388 76.6758 163.178 76.9978 162.912 77.4458H162.87C162.912 77.0398 162.94 76.5638 162.94 75.9758V72.6578H160.714V80.2178ZM164.438 71.6078C165.768 71.6078 166.958 70.9498 166.958 69.2278H165.39C165.39 70.0678 164.998 70.4318 164.438 70.4318C163.878 70.4318 163.514 70.0678 163.514 69.2278H161.918C161.918 70.9498 163.108 71.6078 164.438 71.6078ZM170.298 80.2178H180.938V72.6578H178.712V78.3418H176.738V72.6578H174.498V78.3418H172.524V72.6578H170.298V80.2178ZM183.082 80.2178H185.196L187.604 76.6198C187.898 76.1858 188.122 75.7938 188.346 75.4018H188.374C188.346 75.8498 188.318 76.4238 188.318 77.0818V80.2178H190.544V72.6578H188.43L186.05 76.2418C185.756 76.6758 185.546 76.9978 185.28 77.4458H185.238C185.28 77.0398 185.308 76.5638 185.308 75.9758V72.6578H183.082V80.2178ZM192.666 80.2178H194.78L197.188 76.6198C197.482 76.1858 197.706 75.7938 197.93 75.4018H197.958C197.93 75.8498 197.902 76.4238 197.902 77.0818V80.2178H200.128V72.6578H198.014L195.634 76.2418C195.34 76.6758 195.13 76.9978 194.864 77.4458H194.822C194.864 77.0398 194.892 76.5638 194.892 75.9758V72.6578H192.666V80.2178ZM196.39 71.6078C197.72 71.6078 198.91 70.9498 198.91 69.2278H197.342C197.342 70.0678 196.95 70.4318 196.39 70.4318C195.83 70.4318 195.466 70.0678 195.466 69.2278H193.87C193.87 70.9498 195.06 71.6078 196.39 71.6078Z"
      fill="black"/>
  <g filter="url(#filter1_d)">
    <rect x="368" y="39" width="231" height="70" rx="5" fill="white"/>
  </g>
  <path
      d="M434.088 80.2178H436.384V76.1578H437.21L440.024 80.2178H442.754L439.072 75.0518L442.432 70.4178H439.758L437.168 74.3098H436.384V70.4178H434.088V80.2178ZM443.954 82.7378H446.194V79.2658C446.544 79.7838 447.216 80.4138 448.616 80.4138C451.01 80.4138 451.99 79.0838 451.99 76.3118C451.99 73.5678 451.052 72.4618 448.784 72.4618C447.37 72.4618 446.572 72.9798 446.138 73.7638L446.068 72.6578H443.954V82.7378ZM446.194 76.7038V76.1018C446.194 74.9398 446.698 74.2538 447.93 74.2538C449.134 74.2538 449.652 74.8418 449.652 76.3258C449.652 77.9218 449.232 78.6218 447.944 78.6218C446.698 78.6218 446.194 77.8798 446.194 76.7038ZM455.067 81.0578C454.717 81.0578 454.353 80.9318 454.115 80.8058L454.101 82.7518C454.367 82.8638 454.885 82.9338 455.305 82.9338C456.565 82.9338 457.251 82.3598 458.063 80.0218L460.625 72.6578H458.329L456.929 77.5438L455.151 72.6578H452.631L455.893 80.2458C455.711 80.8758 455.473 81.0578 455.067 81.0578ZM461.878 80.2178H464.104V74.6038H466.876V80.2178H469.102V72.6578H461.878V80.2178ZM471.244 80.2178H473.47V77.3618H476.396V80.2178H478.636V72.6578H476.396V75.4718H473.47V72.6578H471.244V80.2178ZM488.04 76.9838V76.0738C488.04 73.8758 487.102 72.4618 484.316 72.4618C481.782 72.4618 480.34 73.7078 480.34 76.3118C480.34 79.0978 481.46 80.4138 484.442 80.4138C485.996 80.4138 487.144 80.0358 487.522 79.7278V77.8238C486.962 78.2858 485.856 78.6638 484.764 78.6638C483.322 78.6638 482.636 78.1598 482.594 76.9838H488.04ZM484.274 74.1278C485.422 74.1278 485.828 74.7018 485.814 75.7098H482.58C482.636 74.6598 483.168 74.1278 484.274 74.1278ZM489.714 80.2178H491.828L494.236 76.6198C494.53 76.1858 494.754 75.7938 494.978 75.4018H495.006C494.978 75.8498 494.95 76.4238 494.95 77.0818V80.2178H497.176V72.6578H495.062L492.682 76.2418C492.388 76.6758 492.178 76.9978 491.912 77.4458H491.87C491.912 77.0398 491.94 76.5638 491.94 75.9758V72.6578H489.714V80.2178ZM493.438 71.6078C494.768 71.6078 495.958 70.9498 495.958 69.2278H494.39C494.39 70.0678 493.998 70.4318 493.438 70.4318C492.878 70.4318 492.514 70.0678 492.514 69.2278H490.918C490.918 70.9498 492.108 71.6078 493.438 71.6078ZM499.298 80.2178H509.938V72.6578H507.712V78.3418H505.738V72.6578H503.498V78.3418H501.524V72.6578H499.298V80.2178ZM512.082 80.2178H514.196L516.604 76.6198C516.898 76.1858 517.122 75.7938 517.346 75.4018H517.374C517.346 75.8498 517.318 76.4238 517.318 77.0818V80.2178H519.544V72.6578H517.43L515.05 76.2418C514.756 76.6758 514.546 76.9978 514.28 77.4458H514.238C514.28 77.0398 514.308 76.5638 514.308 75.9758V72.6578H512.082V80.2178ZM521.666 80.2178H523.78L526.188 76.6198C526.482 76.1858 526.706 75.7938 526.93 75.4018H526.958C526.93 75.8498 526.902 76.4238 526.902 77.0818V80.2178H529.128V72.6578H527.014L524.634 76.2418C524.34 76.6758 524.13 76.9978 523.864 77.4458H523.822C523.864 77.0398 523.892 76.5638 523.892 75.9758V72.6578H521.666V80.2178ZM525.39 71.6078C526.72 71.6078 527.91 70.9498 527.91 69.2278H526.342C526.342 70.0678 525.95 70.4318 525.39 70.4318C524.83 70.4318 524.466 70.0678 524.466 69.2278H522.87C522.87 70.9498 524.06 71.6078 525.39 71.6078Z"
      fill="black"/>
  <g filter="url(#filter2_d)">
    <rect x="40" y="164" width="231" height="70" rx="5" fill="white"/>
  </g>
  <path
      d="M110.212 196.498H112.508V195.406H112.732C115.812 195.406 117.282 194.258 117.282 191.276C117.282 188.196 116.022 187.146 112.746 187.146H112.508V186.138H110.212V187.146H109.988C106.796 187.146 105.438 188.266 105.438 191.276C105.438 194.244 106.712 195.406 109.974 195.406H110.212V196.498ZM110.282 193.586H110.044C108.504 193.586 107.86 193.11 107.86 191.248C107.86 189.484 108.392 188.952 110.044 188.952H110.282V193.586ZM112.438 193.586V188.952H112.662C114.314 188.952 114.86 189.386 114.86 191.262C114.86 192.956 114.328 193.586 112.676 193.586H112.438ZM118.983 196.218H121.097L123.505 192.62C123.799 192.186 124.023 191.794 124.247 191.402H124.275C124.247 191.85 124.219 192.424 124.219 193.082V196.218H126.445V188.658H124.331L121.951 192.242C121.657 192.676 121.447 192.998 121.181 193.446H121.139C121.181 193.04 121.209 192.564 121.209 191.976V188.658H118.983V196.218ZM128.567 196.218H130.793V193.362H133.719V196.218H135.959V188.658H133.719V191.472H130.793V188.658H128.567V196.218ZM142.689 196.218H144.705V191.304C144.705 189.19 143.823 188.462 141.233 188.462C140.015 188.462 138.867 188.7 138.223 189.008V191.15C138.783 190.702 139.833 190.282 140.841 190.282C142.059 190.282 142.451 190.604 142.451 191.402V191.766H140.911C138.573 191.766 137.537 192.396 137.537 194.048C137.537 195.406 138.265 196.414 140.057 196.414C141.485 196.414 142.297 195.7 142.605 195.126L142.689 196.218ZM139.805 193.81C139.805 193.18 140.141 192.956 141.219 192.956H142.451V193.362C142.451 194.132 142.003 194.706 140.897 194.706C140.057 194.706 139.805 194.314 139.805 193.81ZM146.737 196.218H148.963V193.362H151.889V196.218H154.129V188.658H151.889V191.472H148.963V188.658H146.737V196.218ZM162.441 188.91C161.965 188.686 161.279 188.462 159.977 188.462C157.107 188.462 155.833 189.722 155.833 192.34C155.833 195.238 157.079 196.414 160.047 196.414C161.307 196.414 162.133 196.12 162.581 195.882V193.908C162.133 194.258 161.293 194.524 160.453 194.524C158.773 194.524 158.143 193.866 158.143 192.354C158.143 190.856 158.829 190.338 160.229 190.338C161.251 190.338 161.923 190.632 162.441 190.996V188.91ZM163.79 192.424C163.79 195.126 165.008 196.414 167.85 196.414C170.594 196.414 171.924 195.168 171.924 192.438C171.924 189.694 170.692 188.462 167.892 188.462C165.204 188.462 163.79 189.75 163.79 192.424ZM166.086 192.424C166.086 190.926 166.534 190.24 167.85 190.24C169.194 190.24 169.628 190.884 169.628 192.424V192.494C169.628 194.006 169.124 194.636 167.878 194.636C166.576 194.636 166.086 193.908 166.086 192.48V192.424ZM173.643 196.218C174.637 196.26 175.869 196.316 176.905 196.316C179.803 196.316 180.769 195.56 180.769 193.936C180.769 192.746 180.139 192.298 179.117 192.214C179.803 192.032 180.419 191.542 180.419 190.506C180.419 189.232 179.733 188.56 177.031 188.56C176.009 188.56 174.651 188.616 173.643 188.644V196.218ZM175.869 194.594V192.984H177.283C178.151 192.984 178.459 193.138 178.459 193.768C178.459 194.412 178.109 194.65 177.017 194.65C176.611 194.65 176.331 194.636 175.869 194.594ZM175.869 191.724V190.254C176.121 190.226 176.471 190.212 176.947 190.212C177.969 190.212 178.221 190.394 178.221 190.94C178.221 191.556 177.857 191.724 177.045 191.724H175.869ZM184.701 190.814V188.658H182.475V196.218C183.385 196.274 184.127 196.33 185.135 196.33C188.131 196.33 189.111 195.266 189.111 193.474C189.111 191.654 188.327 190.772 185.779 190.772C185.331 190.772 185.149 190.786 184.701 190.814ZM184.673 194.594V192.438C184.981 192.424 185.191 192.396 185.429 192.396C186.549 192.396 186.787 192.802 186.787 193.474C186.787 194.202 186.521 194.622 185.401 194.622C185.093 194.622 184.911 194.608 184.673 194.594ZM189.923 196.218H192.149V188.658H189.923V196.218ZM201.582 192.984V192.074C201.582 189.876 200.644 188.462 197.858 188.462C195.324 188.462 193.882 189.708 193.882 192.312C193.882 195.098 195.002 196.414 197.984 196.414C199.538 196.414 200.686 196.036 201.064 195.728V193.824C200.504 194.286 199.398 194.664 198.306 194.664C196.864 194.664 196.178 194.16 196.136 192.984H201.582ZM197.816 190.128C198.964 190.128 199.37 190.702 199.356 191.71H196.122C196.178 190.66 196.71 190.128 197.816 190.128ZM113.815 214.218H115.929L118.337 210.62C118.631 210.186 118.855 209.794 119.079 209.402H119.107C119.079 209.85 119.051 210.424 119.051 211.082V214.218H121.277V206.658H119.163L116.783 210.242C116.489 210.676 116.279 210.998 116.013 211.446H115.971C116.013 211.04 116.041 210.564 116.041 209.976V206.658H113.815V214.218ZM123.399 214.218H125.625V211.362H128.551V214.218H130.791V206.658H128.551V209.472H125.625V206.658H123.399V214.218ZM139.103 206.91C138.627 206.686 137.941 206.462 136.639 206.462C133.769 206.462 132.495 207.722 132.495 210.34C132.495 213.238 133.741 214.414 136.709 214.414C137.969 214.414 138.795 214.12 139.243 213.882V211.908C138.795 212.258 137.955 212.524 137.115 212.524C135.435 212.524 134.805 211.866 134.805 210.354C134.805 208.856 135.491 208.338 136.891 208.338C137.913 208.338 138.585 208.632 139.103 208.996V206.91ZM142.881 214.218H145.121V208.604H147.571V206.658H140.431V208.604H142.881V214.218ZM148.993 214.218H151.107L153.515 210.62C153.809 210.186 154.033 209.794 154.257 209.402H154.285C154.257 209.85 154.229 210.424 154.229 211.082V214.218H156.455V206.658H154.341L151.961 210.242C151.667 210.676 151.457 210.998 151.191 211.446H151.149C151.191 211.04 151.219 210.564 151.219 209.976V206.658H148.993V214.218ZM160.327 214.218H162.567V208.604H165.017V206.658H157.877V208.604H160.327V214.218ZM168.417 215.058C168.067 215.058 167.703 214.932 167.465 214.806L167.451 216.752C167.717 216.864 168.235 216.934 168.655 216.934C169.915 216.934 170.601 216.36 171.413 214.022L173.975 206.658H171.679L170.279 211.544L168.501 206.658H165.981L169.243 214.246C169.061 214.876 168.823 215.058 168.417 215.058ZM177.389 214.218H179.629V208.604H182.079V206.658H174.939V208.604H177.389V214.218ZM185.727 208.814V206.658H183.501V214.218C184.411 214.274 185.153 214.33 186.161 214.33C189.157 214.33 190.137 213.266 190.137 211.474C190.137 209.654 189.353 208.772 186.805 208.772C186.357 208.772 186.175 208.786 185.727 208.814ZM185.699 212.594V210.438C186.007 210.424 186.217 210.396 186.455 210.396C187.575 210.396 187.813 210.802 187.813 211.474C187.813 212.202 187.547 212.622 186.427 212.622C186.119 212.622 185.937 212.608 185.699 212.594ZM190.949 214.218H193.175V206.658H190.949V214.218Z"
      fill="black"/>
  <g filter="url(#filter3_d)">
    <rect x="40" y="289" width="231" height="70" rx="5" fill="white"/>
  </g>
  <path
      d="M138.156 325.318C138.156 328.888 139.864 330.414 143.028 330.414C146.178 330.414 147.844 329 147.844 325.318C147.844 321.776 146.528 320.222 143.028 320.222C139.724 320.222 138.156 321.762 138.156 325.318ZM140.592 325.332C140.592 323.05 141.362 322.21 142.972 322.21C144.596 322.21 145.422 322.924 145.422 325.332C145.422 327.726 144.596 328.426 143.07 328.426C141.544 328.426 140.592 327.768 140.592 325.332ZM149.832 330.218H152.128V322.462H155.894V330.218H158.176V320.418H149.832V330.218ZM160.728 330.218H163.024V326.158H163.85L166.664 330.218H169.394L165.712 325.052L169.072 320.418H166.398L163.808 324.31H163.024V320.418H160.728V330.218Z"
      fill="black"/>
  <g filter="url(#filter4_d)">
    <rect x="40" y="414" width="231" height="70" rx="5" fill="white"/>
  </g>
  <path
      d="M120.642 455.218H122.938V451.158H123.764L126.578 455.218H129.308L125.626 450.052L128.986 445.418H126.312L123.722 449.31H122.938V445.418H120.642V455.218ZM130.508 457.738H132.748V454.266C133.098 454.784 133.77 455.414 135.17 455.414C137.564 455.414 138.544 454.084 138.544 451.312C138.544 448.568 137.606 447.462 135.338 447.462C133.924 447.462 133.126 447.98 132.692 448.764L132.622 447.658H130.508V457.738ZM132.748 451.704V451.102C132.748 449.94 133.252 449.254 134.484 449.254C135.688 449.254 136.206 449.842 136.206 451.326C136.206 452.922 135.786 453.622 134.498 453.622C133.252 453.622 132.748 452.88 132.748 451.704ZM141.62 456.058C141.27 456.058 140.906 455.932 140.668 455.806L140.654 457.752C140.92 457.864 141.438 457.934 141.858 457.934C143.118 457.934 143.804 457.36 144.616 455.022L147.178 447.658H144.882L143.482 452.544L141.704 447.658H139.184L142.446 455.246C142.264 455.876 142.026 456.058 141.62 456.058ZM148.432 455.218H150.658V449.604H153.43V455.218H155.656V447.658H148.432V455.218ZM157.797 455.218H160.023V452.362H162.949V455.218H165.189V447.658H162.949V450.472H160.023V447.658H157.797V455.218ZM169.525 449.814V447.658H167.299V455.218C168.209 455.274 168.951 455.33 169.959 455.33C172.955 455.33 173.935 454.266 173.935 452.474C173.935 450.654 173.151 449.772 170.603 449.772C170.155 449.772 169.973 449.786 169.525 449.814ZM169.497 453.594V451.438C169.805 451.424 170.015 451.396 170.253 451.396C171.373 451.396 171.611 451.802 171.611 452.474C171.611 453.202 171.345 453.622 170.225 453.622C169.917 453.622 169.735 453.608 169.497 453.594ZM174.747 455.218H176.973V447.658H174.747V455.218ZM179.112 455.218H181.226L183.634 451.62C183.928 451.186 184.152 450.794 184.376 450.402H184.404C184.376 450.85 184.348 451.424 184.348 452.082V455.218H186.574V447.658H184.46L182.08 451.242C181.786 451.676 181.576 451.998 181.31 452.446H181.268C181.31 452.04 181.338 451.564 181.338 450.976V447.658H179.112V455.218ZM182.836 446.608C184.166 446.608 185.356 445.95 185.356 444.228H183.788C183.788 445.068 183.396 445.432 182.836 445.432C182.276 445.432 181.912 445.068 181.912 444.228H180.316C180.316 445.95 181.506 446.608 182.836 446.608Z"
      fill="black"/>
  <g filter="url(#filter5_d)">
    <rect x="40" y="539" width="231" height="70" rx="5" fill="white"/>
  </g>
  <path
      d="M128.771 570.67C128.309 570.516 127.427 570.236 126.111 570.236C122.611 570.236 121.141 571.874 121.141 575.402C121.141 578.832 122.583 580.4 126.097 580.4C127.413 580.4 128.379 580.106 128.883 579.868V577.586C128.393 577.936 127.497 578.328 126.279 578.328C124.459 578.328 123.577 577.6 123.577 575.276C123.577 573.064 124.403 572.308 126.167 572.308C127.441 572.308 128.197 572.672 128.771 573.008V570.67ZM130.679 582.738H132.919V579.266C133.269 579.784 133.941 580.414 135.341 580.414C137.735 580.414 138.715 579.084 138.715 576.312C138.715 573.568 137.777 572.462 135.509 572.462C134.095 572.462 133.297 572.98 132.863 573.764L132.793 572.658H130.679V582.738ZM132.919 576.704V576.102C132.919 574.94 133.423 574.254 134.655 574.254C135.859 574.254 136.377 574.842 136.377 576.326C136.377 577.922 135.957 578.622 134.669 578.622C133.423 578.622 132.919 577.88 132.919 576.704ZM147.735 576.984V576.074C147.735 573.876 146.797 572.462 144.011 572.462C141.477 572.462 140.035 573.708 140.035 576.312C140.035 579.098 141.155 580.414 144.137 580.414C145.691 580.414 146.839 580.036 147.217 579.728V577.824C146.657 578.286 145.551 578.664 144.459 578.664C143.017 578.664 142.331 578.16 142.289 576.984H147.735ZM143.969 574.128C145.117 574.128 145.523 574.702 145.509 575.71H142.275C142.331 574.66 142.863 574.128 143.969 574.128ZM148.531 582.038H150.603V580.218H155.391V582.038H157.449V578.342H156.329V572.658H150.155L150.141 573.442C150.127 575.556 149.945 577.306 149.427 578.342H148.531V582.038ZM154.089 578.342H151.597C151.919 577.516 152.101 576.228 152.143 575.01L152.157 574.534H154.089V578.342ZM158.953 580.218H161.179V577.362H164.105V580.218H166.345V572.658H164.105V575.472H161.179V572.658H158.953V580.218ZM168.455 580.218H170.569L172.977 576.62C173.271 576.186 173.495 575.794 173.719 575.402H173.747C173.719 575.85 173.691 576.424 173.691 577.082V580.218H175.917V572.658H173.803L171.423 576.242C171.129 576.676 170.919 576.998 170.653 577.446H170.611C170.653 577.04 170.681 576.564 170.681 575.976V572.658H168.455V580.218ZM178.039 580.218H180.153L182.561 576.62C182.855 576.186 183.079 575.794 183.303 575.402H183.331C183.303 575.85 183.275 576.424 183.275 577.082V580.218H185.501V572.658H183.387L181.007 576.242C180.713 576.676 180.503 576.998 180.237 577.446H180.195C180.237 577.04 180.265 576.564 180.265 575.976V572.658H178.039V580.218ZM181.763 571.608C183.093 571.608 184.283 570.95 184.283 569.228H182.715C182.715 570.068 182.323 570.432 181.763 570.432C181.203 570.432 180.839 570.068 180.839 569.228H179.243C179.243 570.95 180.433 571.608 181.763 571.608Z"
      fill="black"/>
  <g filter="url(#filter6_d)">
    <rect x="40" y="664" width="231" height="70" rx="5" fill="white"/>
  </g>
  <path
      d="M128.497 705.218H130.723V699.688C130.723 699.114 130.695 698.47 130.653 697.84C130.933 698.484 131.199 699.184 131.409 699.702L132.907 703.258H134.797L136.281 699.674C136.491 699.17 136.757 698.498 137.009 697.854C136.981 698.47 136.939 699.128 136.939 699.702V705.218H139.179V695.418H136.057L133.915 700.626L131.759 695.418H128.497V705.218ZM146.141 705.218H148.157V700.304C148.157 698.19 147.275 697.462 144.685 697.462C143.467 697.462 142.319 697.7 141.675 698.008V700.15C142.235 699.702 143.285 699.282 144.293 699.282C145.511 699.282 145.903 699.604 145.903 700.402V700.766H144.363C142.025 700.766 140.989 701.396 140.989 703.048C140.989 704.406 141.717 705.414 143.509 705.414C144.937 705.414 145.749 704.7 146.057 704.126L146.141 705.218ZM143.257 702.81C143.257 702.18 143.593 701.956 144.671 701.956H145.903V702.362C145.903 703.132 145.455 703.706 144.349 703.706C143.509 703.706 143.257 703.314 143.257 702.81ZM149.503 705.288C149.713 705.358 150.007 705.4 150.329 705.4C152.107 705.4 152.891 704.112 153.045 700.01L153.059 699.618H155.075V705.218H157.315V697.658H151.015L150.987 698.82C150.903 702.684 150.539 703.09 149.825 703.09C149.727 703.09 149.629 703.076 149.503 703.048V705.288ZM161.671 699.814V697.658H159.445V705.218C160.355 705.274 161.097 705.33 162.105 705.33C165.101 705.33 166.081 704.266 166.081 702.474C166.081 700.654 165.297 699.772 162.749 699.772C162.301 699.772 162.119 699.786 161.671 699.814ZM161.643 703.594V701.438C161.951 701.424 162.161 701.396 162.399 701.396C163.519 701.396 163.757 701.802 163.757 702.474C163.757 703.202 163.491 703.622 162.371 703.622C162.063 703.622 161.881 703.608 161.643 703.594ZM166.893 705.218H169.119V697.658H166.893V705.218ZM171.257 705.218H173.371L175.779 701.62C176.073 701.186 176.297 700.794 176.521 700.402H176.549C176.521 700.85 176.493 701.424 176.493 702.082V705.218H178.719V697.658H176.605L174.225 701.242C173.931 701.676 173.721 701.998 173.455 702.446H173.413C173.455 702.04 173.483 701.564 173.483 700.976V697.658H171.257V705.218ZM174.981 696.608C176.311 696.608 177.501 695.95 177.501 694.228H175.933C175.933 695.068 175.541 695.432 174.981 695.432C174.421 695.432 174.057 695.068 174.057 694.228H172.461C172.461 695.95 173.651 696.608 174.981 696.608Z"
      fill="black"/>
  <g filter="url(#filter7_d)">
    <rect x="40" y="789" width="231" height="70" rx="5" fill="white"/>
  </g>
  <path
      d="M129.255 830.218H131.481V824.688C131.481 824.114 131.453 823.47 131.411 822.84C131.691 823.484 131.957 824.184 132.167 824.702L133.665 828.258H135.555L137.039 824.674C137.249 824.17 137.515 823.498 137.767 822.854C137.739 823.47 137.697 824.128 137.697 824.702V830.218H139.937V820.418H136.815L134.673 825.626L132.517 820.418H129.255V830.218ZM142.28 830.218H144.394L146.802 826.62C147.096 826.186 147.32 825.794 147.544 825.402H147.572C147.544 825.85 147.516 826.424 147.516 827.082V830.218H149.742V822.658H147.628L145.248 826.242C144.954 826.676 144.744 826.998 144.478 827.446H144.436C144.478 827.04 144.506 826.564 144.506 825.976V822.658H142.28V830.218ZM156.918 830.218H159.634L156.904 826.242L159.284 822.658H156.708L154.986 825.514H154.09V822.658H151.864V830.218H154.09V827.306H155.056L156.918 830.218ZM160.873 832.738H163.113V829.266C163.463 829.784 164.135 830.414 165.535 830.414C167.929 830.414 168.909 829.084 168.909 826.312C168.909 823.568 167.971 822.462 165.703 822.462C164.289 822.462 163.491 822.98 163.057 823.764L162.987 822.658H160.873V832.738ZM163.113 826.704V826.102C163.113 824.94 163.617 824.254 164.849 824.254C166.053 824.254 166.571 824.842 166.571 826.326C166.571 827.922 166.151 828.622 164.863 828.622C163.617 828.622 163.113 827.88 163.113 826.704ZM170.229 826.424C170.229 829.126 171.447 830.414 174.289 830.414C177.033 830.414 178.363 829.168 178.363 826.438C178.363 823.694 177.131 822.462 174.331 822.462C171.643 822.462 170.229 823.75 170.229 826.424ZM172.525 826.424C172.525 824.926 172.973 824.24 174.289 824.24C175.633 824.24 176.067 824.884 176.067 826.424V826.494C176.067 828.006 175.563 828.636 174.317 828.636C173.015 828.636 172.525 827.908 172.525 826.48V826.424Z"
      fill="black"/>
  <g filter="url(#filter8_d)">
    <rect x="40" y="914" width="231" height="70" rx="5" fill="white"/>
  </g>
  <path
      d="M99.1568 946.218H101.453V943.432C101.817 943.46 102.097 943.474 102.461 943.474C105.429 943.474 106.731 942.312 106.731 939.778C106.731 937.286 105.583 936.348 102.489 936.348C101.047 936.348 100.375 936.39 99.1568 936.446V946.218ZM101.453 941.542V938.28C101.817 938.238 102.069 938.238 102.447 938.238C103.959 938.238 104.365 938.77 104.365 939.89C104.365 941.024 103.889 941.584 102.461 941.584C102.069 941.584 101.831 941.57 101.453 941.542ZM115.51 942.984V942.074C115.51 939.876 114.572 938.462 111.786 938.462C109.252 938.462 107.81 939.708 107.81 942.312C107.81 945.098 108.93 946.414 111.912 946.414C113.466 946.414 114.614 946.036 114.992 945.728V943.824C114.432 944.286 113.326 944.664 112.234 944.664C110.792 944.664 110.106 944.16 110.064 942.984H115.51ZM111.744 940.128C112.892 940.128 113.298 940.702 113.284 941.71H110.05C110.106 940.66 110.638 940.128 111.744 940.128ZM117.185 946.218H119.411V940.604H122.785V938.658H117.185V946.218ZM124.322 946.218H126.436L128.844 942.62C129.138 942.186 129.362 941.794 129.586 941.402H129.614C129.586 941.85 129.558 942.424 129.558 943.082V946.218H131.784V938.658H129.67L127.29 942.242C126.996 942.676 126.786 942.998 126.52 943.446H126.478C126.52 943.04 126.548 942.564 126.548 941.976V938.658H124.322V946.218ZM133.5 942.424C133.5 945.126 134.718 946.414 137.56 946.414C140.304 946.414 141.634 945.168 141.634 942.438C141.634 939.694 140.402 938.462 137.602 938.462C134.914 938.462 133.5 939.75 133.5 942.424ZM135.796 942.424C135.796 940.926 136.244 940.24 137.56 940.24C138.904 940.24 139.338 940.884 139.338 942.424V942.494C139.338 944.006 138.834 944.636 137.588 944.636C136.286 944.636 135.796 943.908 135.796 942.48V942.424ZM143.353 946.218H145.579V943.362H148.505V946.218H150.745V938.658H148.505V941.472H145.579V938.658H143.353V946.218ZM157.475 946.218H159.491V941.304C159.491 939.19 158.609 938.462 156.019 938.462C154.801 938.462 153.653 938.7 153.009 939.008V941.15C153.569 940.702 154.619 940.282 155.627 940.282C156.845 940.282 157.237 940.604 157.237 941.402V941.766H155.697C153.359 941.766 152.323 942.396 152.323 944.048C152.323 945.406 153.051 946.414 154.843 946.414C156.271 946.414 157.083 945.7 157.391 945.126L157.475 946.218ZM154.591 943.81C154.591 943.18 154.927 942.956 156.005 942.956H157.237V943.362C157.237 944.132 156.789 944.706 155.683 944.706C154.843 944.706 154.591 944.314 154.591 943.81ZM160.837 946.288C161.047 946.358 161.341 946.4 161.663 946.4C163.441 946.4 164.225 945.112 164.379 941.01L164.393 940.618H166.409V946.218H168.649V938.658H162.349L162.321 939.82C162.237 943.684 161.873 944.09 161.159 944.09C161.061 944.09 160.963 944.076 160.837 944.048V946.288ZM170.779 946.218C171.647 946.274 172.543 946.33 173.635 946.33C176.729 946.33 177.709 945.378 177.709 943.474C177.709 941.598 176.897 940.772 174.293 940.772C173.789 940.772 173.467 940.786 173.005 940.814V938.658H170.779V946.218ZM172.977 944.58V942.438C173.313 942.424 173.551 942.396 173.775 942.396C175.063 942.396 175.385 942.732 175.385 943.474C175.385 944.272 175.049 944.622 173.845 944.622C173.453 944.622 173.229 944.608 172.977 944.58ZM179.283 946.218H181.509V943.362H184.435V946.218H186.675V938.658H184.435V941.472H181.509V938.658H179.283V946.218ZM191.011 940.814V938.658H188.785V946.218C189.695 946.274 190.437 946.33 191.445 946.33C194.441 946.33 195.421 945.266 195.421 943.474C195.421 941.654 194.637 940.772 192.089 940.772C191.641 940.772 191.459 940.786 191.011 940.814ZM190.983 944.594V942.438C191.291 942.424 191.501 942.396 191.739 942.396C192.859 942.396 193.097 942.802 193.097 943.474C193.097 944.202 192.831 944.622 191.711 944.622C191.403 944.622 191.221 944.608 190.983 944.594ZM196.233 946.218H198.459V938.658H196.233V946.218ZM200.597 946.218H202.711L205.119 942.62C205.413 942.186 205.637 941.794 205.861 941.402H205.889C205.861 941.85 205.833 942.424 205.833 943.082V946.218H208.059V938.658H205.945L203.565 942.242C203.271 942.676 203.061 942.998 202.795 943.446H202.753C202.795 943.04 202.823 942.564 202.823 941.976V938.658H200.597V946.218ZM204.321 937.608C205.651 937.608 206.841 936.95 206.841 935.228H205.273C205.273 936.068 204.881 936.432 204.321 936.432C203.761 936.432 203.397 936.068 203.397 935.228H201.801C201.801 936.95 202.991 937.608 204.321 937.608ZM115.845 964.218H118.071V958.604H121.445V956.658H115.845V964.218ZM122.508 960.424C122.508 963.126 123.726 964.414 126.568 964.414C129.312 964.414 130.642 963.168 130.642 960.438C130.642 957.694 129.41 956.462 126.61 956.462C123.922 956.462 122.508 957.75 122.508 960.424ZM124.804 960.424C124.804 958.926 125.252 958.24 126.568 958.24C127.912 958.24 128.346 958.884 128.346 960.424V960.494C128.346 962.006 127.842 962.636 126.596 962.636C125.294 962.636 124.804 961.908 124.804 960.48V960.424ZM138.563 956.91C138.087 956.686 137.401 956.462 136.099 956.462C133.229 956.462 131.955 957.722 131.955 960.34C131.955 963.238 133.201 964.414 136.169 964.414C137.429 964.414 138.255 964.12 138.703 963.882V961.908C138.255 962.258 137.415 962.524 136.575 962.524C134.895 962.524 134.265 961.866 134.265 960.354C134.265 958.856 134.951 958.338 136.351 958.338C137.373 958.338 138.045 958.632 138.563 958.996V956.91ZM146.52 956.91C146.044 956.686 145.358 956.462 144.056 956.462C141.186 956.462 139.912 957.722 139.912 960.34C139.912 963.238 141.158 964.414 144.126 964.414C145.386 964.414 146.212 964.12 146.66 963.882V961.908C146.212 962.258 145.372 962.524 144.532 962.524C142.852 962.524 142.222 961.866 142.222 960.354C142.222 958.856 142.908 958.338 144.308 958.338C145.33 958.338 146.002 958.632 146.52 958.996V956.91ZM155.569 960.984V960.074C155.569 957.876 154.631 956.462 151.845 956.462C149.311 956.462 147.869 957.708 147.869 960.312C147.869 963.098 148.989 964.414 151.971 964.414C153.525 964.414 154.673 964.036 155.051 963.728V961.824C154.491 962.286 153.385 962.664 152.293 962.664C150.851 962.664 150.165 962.16 150.123 960.984H155.569ZM151.803 958.128C152.951 958.128 153.357 958.702 153.343 959.71H150.109C150.165 958.66 150.697 958.128 151.803 958.128ZM162.298 964.218H165.014L162.284 960.242L164.664 956.658H162.088L160.366 959.514H159.47V956.658H157.244V964.218H159.47V961.306H160.436L162.298 964.218ZM167.976 964.218H170.216V958.604H172.666V956.658H165.526V958.604H167.976V964.218ZM173.681 960.424C173.681 963.126 174.899 964.414 177.741 964.414C180.485 964.414 181.815 963.168 181.815 960.438C181.815 957.694 180.583 956.462 177.783 956.462C175.095 956.462 173.681 957.75 173.681 960.424ZM175.977 960.424C175.977 958.926 176.425 958.24 177.741 958.24C179.085 958.24 179.519 958.884 179.519 960.424V960.494C179.519 962.006 179.015 962.636 177.769 962.636C176.467 962.636 175.977 961.908 175.977 960.48V960.424ZM183.521 966.738H185.761V963.266C186.111 963.784 186.783 964.414 188.183 964.414C190.577 964.414 191.557 963.084 191.557 960.312C191.557 957.568 190.619 956.462 188.351 956.462C186.937 956.462 186.139 956.98 185.705 957.764L185.635 956.658H183.521V966.738ZM185.761 960.704V960.102C185.761 958.94 186.265 958.254 187.497 958.254C188.701 958.254 189.219 958.842 189.219 960.326C189.219 961.922 188.799 962.622 187.511 962.622C186.265 962.622 185.761 961.88 185.761 960.704Z"
      fill="black"/>
  <path
      d="M119.547 4.452C119.085 4.298 118.203 4.018 116.887 4.018C113.387 4.018 111.917 5.656 111.917 9.184C111.917 12.614 113.359 14.182 116.873 14.182C118.189 14.182 119.155 13.888 119.659 13.65V11.368C119.169 11.718 118.273 12.11 117.055 12.11C115.235 12.11 114.353 11.382 114.353 9.058C114.353 6.846 115.179 6.09 116.943 6.09C118.217 6.09 118.973 6.454 119.547 6.79V4.452ZM128.653 10.766V9.856C128.653 7.658 127.715 6.244 124.929 6.244C122.395 6.244 120.953 7.49 120.953 10.094C120.953 12.88 122.073 14.196 125.055 14.196C126.609 14.196 127.757 13.818 128.135 13.51V11.606C127.575 12.068 126.469 12.446 125.377 12.446C123.935 12.446 123.249 11.942 123.207 10.766H128.653ZM124.887 7.91C126.035 7.91 126.441 8.484 126.427 9.492H123.193C123.249 8.442 123.781 7.91 124.887 7.91ZM130.328 14H132.554V8.386H135.928V6.44H130.328V14ZM137.464 14H139.578V9.898C139.578 9.38 139.536 8.96 139.508 8.456C139.732 8.932 139.928 9.422 140.11 9.786L141.328 12.544H142.714L143.96 9.786C144.142 9.408 144.31 8.904 144.534 8.414C144.492 8.946 144.45 9.352 144.45 9.884V14H146.578V6.44H143.708L142.042 10.192L140.348 6.44H137.464V14ZM155.997 10.766V9.856C155.997 7.658 155.059 6.244 152.273 6.244C149.739 6.244 148.297 7.49 148.297 10.094C148.297 12.88 149.417 14.196 152.399 14.196C153.953 14.196 155.101 13.818 155.479 13.51V11.606C154.919 12.068 153.813 12.446 152.721 12.446C151.279 12.446 150.593 11.942 150.551 10.766H155.997ZM152.231 7.91C153.379 7.91 153.785 8.484 153.771 9.492H150.537C150.593 8.442 151.125 7.91 152.231 7.91ZM157.671 14H159.897V11.144H162.823V14H165.063V6.44H162.823V9.254H159.897V6.44H157.671V14ZM168.923 14H171.163V8.386H173.613V6.44H166.473V8.386H168.923V14ZM177.261 8.596V6.44H175.035V14C175.945 14.056 176.687 14.112 177.695 14.112C180.691 14.112 181.671 13.048 181.671 11.256C181.671 9.436 180.887 8.554 178.339 8.554C177.891 8.554 177.709 8.568 177.261 8.596ZM177.233 12.376V10.22C177.541 10.206 177.751 10.178 177.989 10.178C179.109 10.178 179.347 10.584 179.347 11.256C179.347 11.984 179.081 12.404 177.961 12.404C177.653 12.404 177.471 12.39 177.233 12.376ZM182.483 14H184.709V6.44H182.483V14Z"
      fill="#7C7C7C"/>
  <path
      d="M4.452 130.058C4.298 130.52 4.018 131.402 4.018 132.718C4.018 136.218 5.656 137.688 9.184 137.688C12.614 137.688 14.182 136.246 14.182 132.732C14.182 131.416 13.888 130.45 13.65 129.946L11.368 129.946C11.718 130.436 12.11 131.332 12.11 132.55C12.11 134.37 11.382 135.252 9.058 135.252C6.846 135.252 6.09 134.426 6.09 132.662C6.09 131.388 6.454 130.632 6.79 130.058L4.452 130.058ZM14 127.898L14 125.616L4.2 125.616L4.2 127.898L14 127.898ZM13.986 123.045C14.056 121.645 14.098 120.567 14.098 119.769C14.098 116.241 13.216 115.289 11.116 115.289C9.744 115.289 8.96 115.961 8.876 117.431C8.61 116.255 7.896 115.639 6.678 115.639C4.858 115.639 4.13 116.451 4.13 119.461C4.13 120.455 4.158 121.617 4.214 123.045L13.986 123.045ZM12.152 120.749L9.828 120.749L9.828 119.349C9.828 118.033 10.08 117.641 10.99 117.641C11.872 117.641 12.194 117.977 12.194 119.475C12.194 119.923 12.18 120.315 12.152 120.749ZM8.246 120.749L6.062 120.749C6.034 120.231 6.02 119.839 6.02 119.391C6.02 118.173 6.272 117.893 7.126 117.893C7.868 117.893 8.246 118.215 8.246 119.237L8.246 120.749Z"
      fill="#7C7C7C"/>
  <path d="M153 124L153 149" stroke="black" stroke-width="2" stroke-linecap="round"/>
  <path d="M331.5 74.4999L306.5 74.5" stroke="black" stroke-width="2" stroke-linecap="round"/>
  <path d="M153 249L153 274" stroke="black" stroke-width="2" stroke-linecap="round"/>
  <path d="M153 374L153 399" stroke="black" stroke-width="2" stroke-linecap="round"/>
  <path d="M153 499L153 524" stroke="black" stroke-width="2" stroke-linecap="round"/>
  <path d="M153 624L153 649" stroke="black" stroke-width="2" stroke-linecap="round"/>
  <path d="M153 749L153 774" stroke="black" stroke-width="2" stroke-linecap="round"/>
  <path d="M153 874L153 899" stroke="black" stroke-width="2" stroke-linecap="round"/>
  <rect x="29" y="27" width="255" height="217" rx="7" stroke="#A5A5A5" stroke-width="2" stroke-linecap="round"
        stroke-dasharray="10 10"/>
  <defs>
    <filter id="filter0_d" x="19" y="19" width="271" height="110" filterUnits="userSpaceOnUse"
            color-interpolation-filters="sRGB">
      <feFlood flood-opacity="0" result="BackgroundImageFix"/>
      <feColorMatrix in="SourceAlpha" type="matrix" values="0 0 0 0 0 0 0 0 0 0 0 0 0 0 0 0 0 0 127 0"/>
      <feOffset/>
      <feGaussianBlur stdDeviation="10"/>
      <feColorMatrix type="matrix" values="0 0 0 0 0 0 0 0 0 0 0 0 0 0 0 0 0 0 0.15 0"/>
      <feBlend mode="normal" in2="BackgroundImageFix" result="effect1_dropShadow"/>
      <feBlend mode="normal" in="SourceGraphic" in2="effect1_dropShadow" result="shape"/>
    </filter>
    <filter id="filter1_d" x="348" y="19" width="271" height="110" filterUnits="userSpaceOnUse"
            color-interpolation-filters="sRGB">
      <feFlood flood-opacity="0" result="BackgroundImageFix"/>
      <feColorMatrix in="SourceAlpha" type="matrix" values="0 0 0 0 0 0 0 0 0 0 0 0 0 0 0 0 0 0 127 0"/>
      <feOffset/>
      <feGaussianBlur stdDeviation="10"/>
      <feColorMatrix type="matrix" values="0 0 0 0 0 0 0 0 0 0 0 0 0 0 0 0 0 0 0.15 0"/>
      <feBlend mode="normal" in2="BackgroundImageFix" result="effect1_dropShadow"/>
      <feBlend mode="normal" in="SourceGraphic" in2="effect1_dropShadow" result="shape"/>
    </filter>
    <filter id="filter2_d" x="20" y="144" width="271" height="110" filterUnits="userSpaceOnUse"
            color-interpolation-filters="sRGB">
      <feFlood flood-opacity="0" result="BackgroundImageFix"/>
      <feColorMatrix in="SourceAlpha" type="matrix" values="0 0 0 0 0 0 0 0 0 0 0 0 0 0 0 0 0 0 127 0"/>
      <feOffset/>
      <feGaussianBlur stdDeviation="10"/>
      <feColorMatrix type="matrix" values="0 0 0 0 0 0 0 0 0 0 0 0 0 0 0 0 0 0 0.15 0"/>
      <feBlend mode="normal" in2="BackgroundImageFix" result="effect1_dropShadow"/>
      <feBlend mode="normal" in="SourceGraphic" in2="effect1_dropShadow" result="shape"/>
    </filter>
    <filter id="filter3_d" x="20" y="269" width="271" height="110" filterUnits="userSpaceOnUse"
            color-interpolation-filters="sRGB">
      <feFlood flood-opacity="0" result="BackgroundImageFix"/>
      <feColorMatrix in="SourceAlpha" type="matrix" values="0 0 0 0 0 0 0 0 0 0 0 0 0 0 0 0 0 0 127 0"/>
      <feOffset/>
      <feGaussianBlur stdDeviation="10"/>
      <feColorMatrix type="matrix" values="0 0 0 0 0 0 0 0 0 0 0 0 0 0 0 0 0 0 0.15 0"/>
      <feBlend mode="normal" in2="BackgroundImageFix" result="effect1_dropShadow"/>
      <feBlend mode="normal" in="SourceGraphic" in2="effect1_dropShadow" result="shape"/>
    </filter>
    <filter id="filter4_d" x="20" y="394" width="271" height="110" filterUnits="userSpaceOnUse"
            color-interpolation-filters="sRGB">
      <feFlood flood-opacity="0" result="BackgroundImageFix"/>
      <feColorMatrix in="SourceAlpha" type="matrix" values="0 0 0 0 0 0 0 0 0 0 0 0 0 0 0 0 0 0 127 0"/>
      <feOffset/>
      <feGaussianBlur stdDeviation="10"/>
      <feColorMatrix type="matrix" values="0 0 0 0 0 0 0 0 0 0 0 0 0 0 0 0 0 0 0.15 0"/>
      <feBlend mode="normal" in2="BackgroundImageFix" result="effect1_dropShadow"/>
      <feBlend mode="normal" in="SourceGraphic" in2="effect1_dropShadow" result="shape"/>
    </filter>
    <filter id="filter5_d" x="20" y="519" width="271" height="110" filterUnits="userSpaceOnUse"
            color-interpolation-filters="sRGB">
      <feFlood flood-opacity="0" result="BackgroundImageFix"/>
      <feColorMatrix in="SourceAlpha" type="matrix" values="0 0 0 0 0 0 0 0 0 0 0 0 0 0 0 0 0 0 127 0"/>
      <feOffset/>
      <feGaussianBlur stdDeviation="10"/>
      <feColorMatrix type="matrix" values="0 0 0 0 0 0 0 0 0 0 0 0 0 0 0 0 0 0 0.15 0"/>
      <feBlend mode="normal" in2="BackgroundImageFix" result="effect1_dropShadow"/>
      <feBlend mode="normal" in="SourceGraphic" in2="effect1_dropShadow" result="shape"/>
    </filter>
    <filter id="filter6_d" x="20" y="644" width="271" height="110" filterUnits="userSpaceOnUse"
            color-interpolation-filters="sRGB">
      <feFlood flood-opacity="0" result="BackgroundImageFix"/>
      <feColorMatrix in="SourceAlpha" type="matrix" values="0 0 0 0 0 0 0 0 0 0 0 0 0 0 0 0 0 0 127 0"/>
      <feOffset/>
      <feGaussianBlur stdDeviation="10"/>
      <feColorMatrix type="matrix" values="0 0 0 0 0 0 0 0 0 0 0 0 0 0 0 0 0 0 0.15 0"/>
      <feBlend mode="normal" in2="BackgroundImageFix" result="effect1_dropShadow"/>
      <feBlend mode="normal" in="SourceGraphic" in2="effect1_dropShadow" result="shape"/>
    </filter>
    <filter id="filter7_d" x="20" y="769" width="271" height="110" filterUnits="userSpaceOnUse"
            color-interpolation-filters="sRGB">
      <feFlood flood-opacity="0" result="BackgroundImageFix"/>
      <feColorMatrix in="SourceAlpha" type="matrix" values="0 0 0 0 0 0 0 0 0 0 0 0 0 0 0 0 0 0 127 0"/>
      <feOffset/>
      <feGaussianBlur stdDeviation="10"/>
      <feColorMatrix type="matrix" values="0 0 0 0 0 0 0 0 0 0 0 0 0 0 0 0 0 0 0.15 0"/>
      <feBlend mode="normal" in2="BackgroundImageFix" result="effect1_dropShadow"/>
      <feBlend mode="normal" in="SourceGraphic" in2="effect1_dropShadow" result="shape"/>
    </filter>
    <filter id="filter8_d" x="20" y="894" width="271" height="110" filterUnits="userSpaceOnUse"
            color-interpolation-filters="sRGB">
      <feFlood flood-opacity="0" result="BackgroundImageFix"/>
      <feColorMatrix in="SourceAlpha" type="matrix" values="0 0 0 0 0 0 0 0 0 0 0 0 0 0 0 0 0 0 127 0"/>
      <feOffset/>
      <feGaussianBlur stdDeviation="10"/>
      <feColorMatrix type="matrix" values="0 0 0 0 0 0 0 0 0 0 0 0 0 0 0 0 0 0 0.15 0"/>
      <feBlend mode="normal" in2="BackgroundImageFix" result="effect1_dropShadow"/>
      <feBlend mode="normal" in="SourceGraphic" in2="effect1_dropShadow" result="shape"/>
    </filter>
  </defs>
</svg>
