<svg width="50" height="57" viewBox="0 0 50 57" fill="none" xmlns="http://www.w3.org/2000/svg">
<path d="M35.7334 48.2377H3.48096C2.11643 48.2377 1 47.1189 1 45.7515V3.4862C1 2.11879 2.11643 1 3.48096 1H35.7334C37.098 1 38.2144 2.11879 38.2144 3.4862V45.7515C38.2144 47.1189 37.098 48.2377 35.7334 48.2377Z" stroke="#FAED00" stroke-width="2" stroke-miterlimit="10" stroke-linecap="round" stroke-linejoin="round"/>
<path d="M35.7334 48.2377H3.48096C2.11643 48.2377 1 47.1189 1 45.7515V3.4862C1 2.11879 2.11643 1 3.48096 1H35.7334C37.098 1 38.2144 2.11879 38.2144 3.4862V45.7515C38.2144 47.1189 37.098 48.2377 35.7334 48.2377Z" stroke="url(#paint0_linear)" stroke-width="2" stroke-miterlimit="10" stroke-linecap="round" stroke-linejoin="round"/>
<path d="M46.262 40.7476V31.5615" stroke="#FAED00" stroke-width="2" stroke-miterlimit="10" stroke-linecap="round" stroke-linejoin="round"/>
<path d="M46.262 40.7476V31.5615" stroke="url(#paint1_linear)" stroke-width="2" stroke-miterlimit="10" stroke-linecap="round" stroke-linejoin="round"/>
<path d="M47.5717 31.5615H44.9526L43.6431 28.9369L44.9526 25H47.5717L48.8812 28.9369L47.5717 31.5615Z" stroke="#FAED00" stroke-width="2" stroke-miterlimit="10" stroke-linecap="round" stroke-linejoin="round"/>
<path d="M47.5717 31.5615H44.9526L43.6431 28.9369L44.9526 25H47.5717L48.8812 28.9369L47.5717 31.5615Z" stroke="url(#paint2_linear)" stroke-width="2" stroke-miterlimit="10" stroke-linecap="round" stroke-linejoin="round"/>
<path d="M27.9286 37.585V52.5584C27.9286 54.002 29.1072 55.1831 30.5477 55.1831C31.9882 55.1831 33.1668 54.002 33.1668 52.5584V37.585C35.4716 36.5614 37.0954 34.2518 37.0954 31.5616C37.0954 28.8713 35.4716 26.5617 33.1668 25.5381V30.2493C33.1668 31.6928 31.9882 32.8739 30.5477 32.8739C29.1072 32.8739 27.9286 31.6928 27.9286 30.2493V25.5381C25.6238 26.5617 24 28.8713 24 31.5616C24 34.2518 25.6238 36.5614 27.9286 37.585Z" stroke="#FAED00" stroke-width="2" stroke-miterlimit="10" stroke-linecap="round" stroke-linejoin="round"/>
<path d="M27.9286 37.585V52.5584C27.9286 54.002 29.1072 55.1831 30.5477 55.1831C31.9882 55.1831 33.1668 54.002 33.1668 52.5584V37.585C35.4716 36.5614 37.0954 34.2518 37.0954 31.5616C37.0954 28.8713 35.4716 26.5617 33.1668 25.5381V30.2493C33.1668 31.6928 31.9882 32.8739 30.5477 32.8739C29.1072 32.8739 27.9286 31.6928 27.9286 30.2493V25.5381C25.6238 26.5617 24 28.8713 24 31.5616C24 34.2518 25.6238 36.5614 27.9286 37.585Z" stroke="url(#paint3_linear)" stroke-width="2" stroke-miterlimit="10" stroke-linecap="round" stroke-linejoin="round"/>
<path d="M46.2619 55.1834C44.8214 55.1834 43.6428 54.0023 43.6428 52.5588V40.748H48.881V52.5588C48.881 54.0023 47.7024 55.1834 46.2619 55.1834Z" stroke="#FAED00" stroke-width="2" stroke-miterlimit="10" stroke-linecap="round" stroke-linejoin="round"/>
<path d="M46.2619 55.1834C44.8214 55.1834 43.6428 54.0023 43.6428 52.5588V40.748H48.881V52.5588C48.881 54.0023 47.7024 55.1834 46.2619 55.1834Z" stroke="url(#paint4_linear)" stroke-width="2" stroke-miterlimit="10" stroke-linecap="round" stroke-linejoin="round"/>
<defs>
<linearGradient id="paint0_linear" x1="19.6072" y1="1" x2="19.6072" y2="48.2377" gradientUnits="userSpaceOnUse">
<stop stop-color="#00C86A"/>
<stop offset="1" stop-color="white" stop-opacity="0"/>
</linearGradient>
<linearGradient id="paint1_linear" x1="46.762" y1="31.5615" x2="46.762" y2="40.7476" gradientUnits="userSpaceOnUse">
<stop stop-color="#00C86A"/>
<stop offset="1" stop-color="white" stop-opacity="0"/>
</linearGradient>
<linearGradient id="paint2_linear" x1="46.2621" y1="25" x2="46.2621" y2="31.5615" gradientUnits="userSpaceOnUse">
<stop stop-color="#00C86A"/>
<stop offset="1" stop-color="white" stop-opacity="0"/>
</linearGradient>
<linearGradient id="paint3_linear" x1="30.5477" y1="25.5381" x2="30.5477" y2="55.1831" gradientUnits="userSpaceOnUse">
<stop stop-color="#00C86A"/>
<stop offset="1" stop-color="white" stop-opacity="0"/>
</linearGradient>
<linearGradient id="paint4_linear" x1="46.2619" y1="40.748" x2="46.2619" y2="55.1834" gradientUnits="userSpaceOnUse">
<stop stop-color="#00C86A"/>
<stop offset="1" stop-color="white" stop-opacity="0"/>
</linearGradient>
</defs>
</svg>
