<svg width="56" height="64" viewBox="0 0 56 64" fill="none" xmlns="http://www.w3.org/2000/svg">
<path d="M35.7334 48.2377H3.48096C2.11643 48.2377 1 47.1189 1 45.7515V3.4862C1 2.11879 2.11643 1 3.48096 1H35.7334C37.098 1 38.2144 2.11879 38.2144 3.4862V45.7515C38.2144 47.1189 37.098 48.2377 35.7334 48.2377Z" stroke="#FAED00" stroke-width="2" stroke-miterlimit="10" stroke-linecap="round" stroke-linejoin="round"/>
<path d="M35.7334 48.2377H3.48096C2.11643 48.2377 1 47.1189 1 45.7515V3.4862C1 2.11879 2.11643 1 3.48096 1H35.7334C37.098 1 38.2144 2.11879 38.2144 3.4862V45.7515C38.2144 47.1189 37.098 48.2377 35.7334 48.2377Z" stroke="url(#paint0_linear)" stroke-width="2" stroke-miterlimit="10" stroke-linecap="round" stroke-linejoin="round"/>
<path d="M55.5 48C55.5 56.5294 48.3341 63.5 39.5 63.5C30.6657 63.5 23.5 56.5392 23.5 48C23.5 39.4705 30.6659 32.5 39.5 32.5C48.3341 32.5 55.5 39.4705 55.5 48ZM54.4375 48C54.4375 39.9895 47.7228 33.5 39.5 33.5C31.2772 33.5 24.5625 39.9895 24.5625 48C24.5625 56.0105 31.2772 62.5 39.5 62.5C47.7228 62.5 54.4375 56.0105 54.4375 48Z" fill="url(#paint1_linear)" fill-opacity="0.8"/>
<path d="M55.5 48C55.5 56.5294 48.3341 63.5 39.5 63.5C30.6657 63.5 23.5 56.5392 23.5 48C23.5 39.4705 30.6659 32.5 39.5 32.5C48.3341 32.5 55.5 39.4705 55.5 48ZM54.4375 48C54.4375 39.9895 47.7228 33.5 39.5 33.5C31.2772 33.5 24.5625 39.9895 24.5625 48C24.5625 56.0105 31.2772 62.5 39.5 62.5C47.7228 62.5 54.4375 56.0105 54.4375 48Z" stroke="#FAED00"/>
<path d="M55.5 48C55.5 56.5294 48.3341 63.5 39.5 63.5C30.6657 63.5 23.5 56.5392 23.5 48C23.5 39.4705 30.6659 32.5 39.5 32.5C48.3341 32.5 55.5 39.4705 55.5 48ZM54.4375 48C54.4375 39.9895 47.7228 33.5 39.5 33.5C31.2772 33.5 24.5625 39.9895 24.5625 48C24.5625 56.0105 31.2772 62.5 39.5 62.5C47.7228 62.5 54.4375 56.0105 54.4375 48Z" stroke="url(#paint2_linear)"/>
<path d="M41.0398 36.5022L41.0398 36.5023L41.0488 36.5029C41.3146 36.5223 41.5225 36.7629 41.498 37.0409C41.4722 37.3033 41.2494 37.5 40.995 37.5H40.9949H40.9947H40.9945H40.9943H40.9942H40.994H40.9938H40.9936H40.9935H40.9933H40.9931H40.9929H40.9927H40.9926H40.9924H40.9922H40.992H40.9919H40.9917H40.9915H40.9913H40.9912H40.991H40.9908H40.9906H40.9905H40.9903H40.9901H40.9899H40.9898H40.9896H40.9894H40.9892H40.9891H40.9889H40.9887H40.9885H40.9884H40.9882H40.988H40.9878H40.9876H40.9875H40.9873H40.9871H40.9869H40.9868H40.9866H40.9864H40.9862H40.9861H40.9859H40.9857H40.9855H40.9854H40.9852H40.985H40.9848H40.9847H40.9845H40.9843H40.9841H40.984H40.9838H40.9836H40.9834H40.9832H40.9831H40.9829H40.9827H40.9825H40.9824H40.9822H40.982H40.9818H40.9817H40.9815H40.9813H40.9811H40.981H40.9808H40.9806H40.9804H40.9803H40.9801H40.9799H40.9797H40.9796H40.9794H40.9792H40.979H40.9789H40.9787H40.9785H40.9783H40.9781H40.978H40.9778H40.9776H40.9774H40.9773H40.9771H40.9769H40.9767H40.9766H40.9764H40.9762H40.976H40.9759H40.9757H40.9755H40.9753H40.9752H40.975H40.9748H40.9746H40.9745H40.9743H40.9741H40.9739H40.9737H40.9736H40.9734H40.9732H40.973H40.9729H40.9727H40.9725H40.9723H40.9722H40.972H40.9718H40.9716H40.9715H40.9713H40.9711H40.9709H40.9708H40.9706H40.9704H40.9702H40.9701H40.9699H40.9697H40.9695H40.9694H40.9692H40.969H40.9688H40.9686H40.9685H40.9683H40.9681H40.9679H40.9678H40.9676H40.9674H40.9672H40.9671H40.9669H40.9667H40.9665H40.9664H40.9662H40.966H40.9658H40.9657H40.9655H40.9653H40.9651H40.965H40.9648H40.9646H40.9644H40.9643H40.9641H40.9639H40.9637H40.9635H40.9634H40.9632H40.963H40.9628H40.9627H40.9625H40.9623H40.9621H40.962H40.9618H40.9616H40.9614H40.9613H40.9611H40.9609H40.9607H40.9606H40.9604H40.9602H40.96H40.9599H40.9597H40.9595H40.9593H40.9591H40.959H40.9588H40.9586H40.9584H40.9583H40.9581H40.9579H40.9577H40.9576H40.9574H40.9572H40.957H40.9569H40.9567H40.9565H40.9563H40.9562H40.956H40.9558H40.9556H40.9555H40.9553H40.9551H40.9549H40.9548H40.9546H40.9544H40.9542H40.954H40.9539H40.9537H40.9535H40.9533H40.9532H40.953H40.9528H40.9526H40.9525H40.9523H40.9521H40.9519H40.9518H40.9516H40.9514H40.9512H40.9511H40.9509H40.9507H40.9505H40.9504H40.9502H40.95H40.9498H40.9496H40.9495H40.9493H40.9491H40.9489H40.9488H40.9486H40.9484H40.9482H40.9481H40.9479H40.9477H40.9475H40.9474H40.9472H40.947H40.9468H40.9467H40.9465H40.9463H40.9461H40.946H40.9458H40.9456H40.9454H40.9453H40.9451H40.9449H40.9447H40.9445H40.9444H40.9442H40.944H40.9438H40.9437H40.9435H40.9433H40.9431H40.943H40.9428H40.9426H40.9424H40.9423H40.9421H40.9419H40.9417H40.9416H40.9414H40.9412H40.941H40.9409H40.9407H40.9405H40.9403H40.9401H40.94H40.9398H40.9396H40.9394H40.9393H40.9391H40.9389H40.9387H40.9386H40.9384H40.9382H40.938H40.9379H40.9377H40.9375H40.9373H40.9372H40.937H40.9368H40.9366H40.9365H40.9363H40.9361H40.9359H40.9358H40.9356H40.9354H40.9352H40.935H40.9349H40.9347H40.9345H40.9343H40.9342H40.934H40.9338H40.9336H40.9335H40.9333H40.9331H40.9329H40.9328H40.9326H40.9324H40.9322H40.9321H40.9319H40.9317H40.9315H40.9315C40.6698 37.4664 40.4769 37.2361 40.5023 36.9512L40.5023 36.9512L40.5029 36.943C40.5219 36.681 40.7573 36.4764 41.0398 36.5022Z" fill="url(#paint3_linear)" fill-opacity="0.8"/>
<path d="M41.0398 36.5022L41.0398 36.5023L41.0488 36.5029C41.3146 36.5223 41.5225 36.7629 41.498 37.0409C41.4722 37.3033 41.2494 37.5 40.995 37.5H40.9949H40.9947H40.9945H40.9943H40.9942H40.994H40.9938H40.9936H40.9935H40.9933H40.9931H40.9929H40.9927H40.9926H40.9924H40.9922H40.992H40.9919H40.9917H40.9915H40.9913H40.9912H40.991H40.9908H40.9906H40.9905H40.9903H40.9901H40.9899H40.9898H40.9896H40.9894H40.9892H40.9891H40.9889H40.9887H40.9885H40.9884H40.9882H40.988H40.9878H40.9876H40.9875H40.9873H40.9871H40.9869H40.9868H40.9866H40.9864H40.9862H40.9861H40.9859H40.9857H40.9855H40.9854H40.9852H40.985H40.9848H40.9847H40.9845H40.9843H40.9841H40.984H40.9838H40.9836H40.9834H40.9832H40.9831H40.9829H40.9827H40.9825H40.9824H40.9822H40.982H40.9818H40.9817H40.9815H40.9813H40.9811H40.981H40.9808H40.9806H40.9804H40.9803H40.9801H40.9799H40.9797H40.9796H40.9794H40.9792H40.979H40.9789H40.9787H40.9785H40.9783H40.9781H40.978H40.9778H40.9776H40.9774H40.9773H40.9771H40.9769H40.9767H40.9766H40.9764H40.9762H40.976H40.9759H40.9757H40.9755H40.9753H40.9752H40.975H40.9748H40.9746H40.9745H40.9743H40.9741H40.9739H40.9737H40.9736H40.9734H40.9732H40.973H40.9729H40.9727H40.9725H40.9723H40.9722H40.972H40.9718H40.9716H40.9715H40.9713H40.9711H40.9709H40.9708H40.9706H40.9704H40.9702H40.9701H40.9699H40.9697H40.9695H40.9694H40.9692H40.969H40.9688H40.9686H40.9685H40.9683H40.9681H40.9679H40.9678H40.9676H40.9674H40.9672H40.9671H40.9669H40.9667H40.9665H40.9664H40.9662H40.966H40.9658H40.9657H40.9655H40.9653H40.9651H40.965H40.9648H40.9646H40.9644H40.9643H40.9641H40.9639H40.9637H40.9635H40.9634H40.9632H40.963H40.9628H40.9627H40.9625H40.9623H40.9621H40.962H40.9618H40.9616H40.9614H40.9613H40.9611H40.9609H40.9607H40.9606H40.9604H40.9602H40.96H40.9599H40.9597H40.9595H40.9593H40.9591H40.959H40.9588H40.9586H40.9584H40.9583H40.9581H40.9579H40.9577H40.9576H40.9574H40.9572H40.957H40.9569H40.9567H40.9565H40.9563H40.9562H40.956H40.9558H40.9556H40.9555H40.9553H40.9551H40.9549H40.9548H40.9546H40.9544H40.9542H40.954H40.9539H40.9537H40.9535H40.9533H40.9532H40.953H40.9528H40.9526H40.9525H40.9523H40.9521H40.9519H40.9518H40.9516H40.9514H40.9512H40.9511H40.9509H40.9507H40.9505H40.9504H40.9502H40.95H40.9498H40.9496H40.9495H40.9493H40.9491H40.9489H40.9488H40.9486H40.9484H40.9482H40.9481H40.9479H40.9477H40.9475H40.9474H40.9472H40.947H40.9468H40.9467H40.9465H40.9463H40.9461H40.946H40.9458H40.9456H40.9454H40.9453H40.9451H40.9449H40.9447H40.9445H40.9444H40.9442H40.944H40.9438H40.9437H40.9435H40.9433H40.9431H40.943H40.9428H40.9426H40.9424H40.9423H40.9421H40.9419H40.9417H40.9416H40.9414H40.9412H40.941H40.9409H40.9407H40.9405H40.9403H40.9401H40.94H40.9398H40.9396H40.9394H40.9393H40.9391H40.9389H40.9387H40.9386H40.9384H40.9382H40.938H40.9379H40.9377H40.9375H40.9373H40.9372H40.937H40.9368H40.9366H40.9365H40.9363H40.9361H40.9359H40.9358H40.9356H40.9354H40.9352H40.935H40.9349H40.9347H40.9345H40.9343H40.9342H40.934H40.9338H40.9336H40.9335H40.9333H40.9331H40.9329H40.9328H40.9326H40.9324H40.9322H40.9321H40.9319H40.9317H40.9315H40.9315C40.6698 37.4664 40.4769 37.2361 40.5023 36.9512L40.5023 36.9512L40.5029 36.943C40.5219 36.681 40.7573 36.4764 41.0398 36.5022Z" stroke="#FAED00"/>
<path d="M41.0398 36.5022L41.0398 36.5023L41.0488 36.5029C41.3146 36.5223 41.5225 36.7629 41.498 37.0409C41.4722 37.3033 41.2494 37.5 40.995 37.5H40.9949H40.9947H40.9945H40.9943H40.9942H40.994H40.9938H40.9936H40.9935H40.9933H40.9931H40.9929H40.9927H40.9926H40.9924H40.9922H40.992H40.9919H40.9917H40.9915H40.9913H40.9912H40.991H40.9908H40.9906H40.9905H40.9903H40.9901H40.9899H40.9898H40.9896H40.9894H40.9892H40.9891H40.9889H40.9887H40.9885H40.9884H40.9882H40.988H40.9878H40.9876H40.9875H40.9873H40.9871H40.9869H40.9868H40.9866H40.9864H40.9862H40.9861H40.9859H40.9857H40.9855H40.9854H40.9852H40.985H40.9848H40.9847H40.9845H40.9843H40.9841H40.984H40.9838H40.9836H40.9834H40.9832H40.9831H40.9829H40.9827H40.9825H40.9824H40.9822H40.982H40.9818H40.9817H40.9815H40.9813H40.9811H40.981H40.9808H40.9806H40.9804H40.9803H40.9801H40.9799H40.9797H40.9796H40.9794H40.9792H40.979H40.9789H40.9787H40.9785H40.9783H40.9781H40.978H40.9778H40.9776H40.9774H40.9773H40.9771H40.9769H40.9767H40.9766H40.9764H40.9762H40.976H40.9759H40.9757H40.9755H40.9753H40.9752H40.975H40.9748H40.9746H40.9745H40.9743H40.9741H40.9739H40.9737H40.9736H40.9734H40.9732H40.973H40.9729H40.9727H40.9725H40.9723H40.9722H40.972H40.9718H40.9716H40.9715H40.9713H40.9711H40.9709H40.9708H40.9706H40.9704H40.9702H40.9701H40.9699H40.9697H40.9695H40.9694H40.9692H40.969H40.9688H40.9686H40.9685H40.9683H40.9681H40.9679H40.9678H40.9676H40.9674H40.9672H40.9671H40.9669H40.9667H40.9665H40.9664H40.9662H40.966H40.9658H40.9657H40.9655H40.9653H40.9651H40.965H40.9648H40.9646H40.9644H40.9643H40.9641H40.9639H40.9637H40.9635H40.9634H40.9632H40.963H40.9628H40.9627H40.9625H40.9623H40.9621H40.962H40.9618H40.9616H40.9614H40.9613H40.9611H40.9609H40.9607H40.9606H40.9604H40.9602H40.96H40.9599H40.9597H40.9595H40.9593H40.9591H40.959H40.9588H40.9586H40.9584H40.9583H40.9581H40.9579H40.9577H40.9576H40.9574H40.9572H40.957H40.9569H40.9567H40.9565H40.9563H40.9562H40.956H40.9558H40.9556H40.9555H40.9553H40.9551H40.9549H40.9548H40.9546H40.9544H40.9542H40.954H40.9539H40.9537H40.9535H40.9533H40.9532H40.953H40.9528H40.9526H40.9525H40.9523H40.9521H40.9519H40.9518H40.9516H40.9514H40.9512H40.9511H40.9509H40.9507H40.9505H40.9504H40.9502H40.95H40.9498H40.9496H40.9495H40.9493H40.9491H40.9489H40.9488H40.9486H40.9484H40.9482H40.9481H40.9479H40.9477H40.9475H40.9474H40.9472H40.947H40.9468H40.9467H40.9465H40.9463H40.9461H40.946H40.9458H40.9456H40.9454H40.9453H40.9451H40.9449H40.9447H40.9445H40.9444H40.9442H40.944H40.9438H40.9437H40.9435H40.9433H40.9431H40.943H40.9428H40.9426H40.9424H40.9423H40.9421H40.9419H40.9417H40.9416H40.9414H40.9412H40.941H40.9409H40.9407H40.9405H40.9403H40.9401H40.94H40.9398H40.9396H40.9394H40.9393H40.9391H40.9389H40.9387H40.9386H40.9384H40.9382H40.938H40.9379H40.9377H40.9375H40.9373H40.9372H40.937H40.9368H40.9366H40.9365H40.9363H40.9361H40.9359H40.9358H40.9356H40.9354H40.9352H40.935H40.9349H40.9347H40.9345H40.9343H40.9342H40.934H40.9338H40.9336H40.9335H40.9333H40.9331H40.9329H40.9328H40.9326H40.9324H40.9322H40.9321H40.9319H40.9317H40.9315H40.9315C40.6698 37.4664 40.4769 37.2361 40.5023 36.9512L40.5023 36.9512L40.5029 36.943C40.5219 36.681 40.7573 36.4764 41.0398 36.5022Z" stroke="url(#paint4_linear)"/>
<path d="M47.638 40.3446L47.638 40.3445L47.6339 40.3401C47.4455 40.1367 47.4555 39.8227 47.6669 39.6266C47.86 39.4481 48.1818 39.4585 48.3676 39.657C48.5547 39.8668 48.5418 40.1801 48.3401 40.3703C48.2448 40.4541 48.1161 40.5 47.997 40.5C47.8598 40.5 47.7276 40.4436 47.638 40.3446Z" fill="url(#paint5_linear)" fill-opacity="0.8"/>
<path d="M47.638 40.3446L47.638 40.3445L47.6339 40.3401C47.4455 40.1367 47.4555 39.8227 47.6669 39.6266C47.86 39.4481 48.1818 39.4585 48.3676 39.657C48.5547 39.8668 48.5418 40.1801 48.3401 40.3703C48.2448 40.4541 48.1161 40.5 47.997 40.5C47.8598 40.5 47.7276 40.4436 47.638 40.3446Z" stroke="#FAED00"/>
<path d="M47.638 40.3446L47.638 40.3445L47.6339 40.3401C47.4455 40.1367 47.4555 39.8227 47.6669 39.6266C47.86 39.4481 48.1818 39.4585 48.3676 39.657C48.5547 39.8668 48.5418 40.1801 48.3401 40.3703C48.2448 40.4541 48.1161 40.5 47.997 40.5C47.8598 40.5 47.7276 40.4436 47.638 40.3446Z" stroke="url(#paint6_linear)"/>
<path d="M47.6652 56.3703C47.4562 56.174 47.4468 55.8603 47.6297 55.6582C47.8066 55.4627 48.1289 55.4417 48.3432 55.6324C48.539 55.8153 48.5554 56.1286 48.3699 56.3345C48.2674 56.4465 48.1331 56.5 47.9995 56.5C47.8848 56.5 47.7642 56.4573 47.6652 56.3703Z" fill="url(#paint7_linear)" fill-opacity="0.8"/>
<path d="M47.6652 56.3703C47.4562 56.174 47.4468 55.8603 47.6297 55.6582C47.8066 55.4627 48.1289 55.4417 48.3432 55.6324C48.539 55.8153 48.5554 56.1286 48.3699 56.3345C48.2674 56.4465 48.1331 56.5 47.9995 56.5C47.8848 56.5 47.7642 56.4573 47.6652 56.3703Z" stroke="#FAED00"/>
<path d="M47.6652 56.3703C47.4562 56.174 47.4468 55.8603 47.6297 55.6582C47.8066 55.4627 48.1289 55.4417 48.3432 55.6324C48.539 55.8153 48.5554 56.1286 48.3699 56.3345C48.2674 56.4465 48.1331 56.5 47.9995 56.5C47.8848 56.5 47.7642 56.4573 47.6652 56.3703Z" stroke="url(#paint8_linear)"/>
<path d="M44.7818 38.4527L44.7818 38.4527L44.7745 38.4492C44.5318 38.3325 44.4266 38.0377 44.555 37.7803L44.5551 37.7803L44.5569 37.7766C44.6759 37.5332 44.9749 37.4282 45.2244 37.5531L45.2281 37.555C45.4608 37.6691 45.5719 37.965 45.4505 38.2266C45.3578 38.4018 45.1842 38.5 44.9981 38.5C44.9152 38.5 44.8435 38.4836 44.7818 38.4527Z" fill="url(#paint9_linear)" fill-opacity="0.8"/>
<path d="M44.7818 38.4527L44.7818 38.4527L44.7745 38.4492C44.5318 38.3325 44.4266 38.0377 44.555 37.7803L44.5551 37.7803L44.5569 37.7766C44.6759 37.5332 44.9749 37.4282 45.2244 37.5531L45.2281 37.555C45.4608 37.6691 45.5719 37.965 45.4505 38.2266C45.3578 38.4018 45.1842 38.5 44.9981 38.5C44.9152 38.5 44.8435 38.4836 44.7818 38.4527Z" stroke="#FAED00"/>
<path d="M44.7818 38.4527L44.7818 38.4527L44.7745 38.4492C44.5318 38.3325 44.4266 38.0377 44.555 37.7803L44.5551 37.7803L44.5569 37.7766C44.6759 37.5332 44.9749 37.4282 45.2244 37.5531L45.2281 37.555C45.4608 37.6691 45.5719 37.965 45.4505 38.2266C45.3578 38.4018 45.1842 38.5 44.9981 38.5C44.9152 38.5 44.8435 38.4836 44.7818 38.4527Z" stroke="url(#paint10_linear)"/>
<path d="M28.4914 49.9077L28.4914 49.9077L28.4917 49.9093C28.5412 50.1766 28.3622 50.4381 28.0908 50.4883L28.0567 50.4947L28.0417 50.4997C28.0401 50.4997 28.0383 50.4998 28.0363 50.4998C28.0273 50.5 28.0175 50.5 28.0016 50.5C27.7561 50.5 27.5561 50.3358 27.5112 50.0966L27.5113 50.0966L27.5101 50.0907C27.4557 49.8186 27.6302 49.56 27.9106 49.509L27.9106 49.509L27.9122 49.5087C28.1846 49.4583 28.4413 49.6327 28.4914 49.9077Z" fill="url(#paint11_linear)" fill-opacity="0.8"/>
<path d="M28.4914 49.9077L28.4914 49.9077L28.4917 49.9093C28.5412 50.1766 28.3622 50.4381 28.0908 50.4883L28.0567 50.4947L28.0417 50.4997C28.0401 50.4997 28.0383 50.4998 28.0363 50.4998C28.0273 50.5 28.0175 50.5 28.0016 50.5C27.7561 50.5 27.5561 50.3358 27.5112 50.0966L27.5113 50.0966L27.5101 50.0907C27.4557 49.8186 27.6302 49.56 27.9106 49.509L27.9106 49.509L27.9122 49.5087C28.1846 49.4583 28.4413 49.6327 28.4914 49.9077Z" stroke="#FAED00"/>
<path d="M28.4914 49.9077L28.4914 49.9077L28.4917 49.9093C28.5412 50.1766 28.3622 50.4381 28.0908 50.4883L28.0567 50.4947L28.0417 50.4997C28.0401 50.4997 28.0383 50.4998 28.0363 50.4998C28.0273 50.5 28.0175 50.5 28.0016 50.5C27.7561 50.5 27.5561 50.3358 27.5112 50.0966L27.5113 50.0966L27.5101 50.0907C27.4557 49.8186 27.6302 49.56 27.9106 49.509L27.9106 49.509L27.9122 49.5087C28.1846 49.4583 28.4413 49.6327 28.4914 49.9077Z" stroke="url(#paint12_linear)"/>
<path d="M44.5574 58.2226L44.5574 58.2226L44.5529 58.2138C44.4321 57.9785 44.5251 57.6812 44.7734 57.5541C45.0318 57.4268 45.3259 57.5331 45.4416 57.7729L45.4415 57.773L45.4471 57.7838C45.567 58.0175 45.4763 58.3121 45.232 58.4408C45.1345 58.4849 45.059 58.5 45 58.5C44.8162 58.5 44.6421 58.3961 44.5574 58.2226Z" fill="url(#paint13_linear)" fill-opacity="0.8"/>
<path d="M44.5574 58.2226L44.5574 58.2226L44.5529 58.2138C44.4321 57.9785 44.5251 57.6812 44.7734 57.5541C45.0318 57.4268 45.3259 57.5331 45.4416 57.7729L45.4415 57.773L45.4471 57.7838C45.567 58.0175 45.4763 58.3121 45.232 58.4408C45.1345 58.4849 45.059 58.5 45 58.5C44.8162 58.5 44.6421 58.3961 44.5574 58.2226Z" stroke="#FAED00"/>
<path d="M44.5574 58.2226L44.5574 58.2226L44.5529 58.2138C44.4321 57.9785 44.5251 57.6812 44.7734 57.5541C45.0318 57.4268 45.3259 57.5331 45.4416 57.7729L45.4415 57.773L45.4471 57.7838C45.567 58.0175 45.4763 58.3121 45.232 58.4408C45.1345 58.4849 45.059 58.5 45 58.5C44.8162 58.5 44.6421 58.3961 44.5574 58.2226Z" stroke="url(#paint14_linear)"/>
<path d="M37.4834 59.0765L37.4833 59.0764L37.4808 59.0825C37.4503 59.1567 37.3634 59.2616 37.1795 59.353C36.9998 59.4423 36.7614 59.5 36.5 59.5C36.4098 59.5 36.3134 59.487 36.1772 59.467C35.868 59.4073 35.6699 59.2792 35.5744 59.166C35.49 59.0658 35.488 58.9909 35.5173 58.9199C35.5587 58.8246 35.6857 58.6911 35.9416 58.5959C36.1897 58.5035 36.5034 58.4709 36.8137 58.5291C37.1257 58.5876 37.3273 58.7183 37.4247 58.8345C37.5125 58.9393 37.5102 59.0137 37.4834 59.0765Z" fill="url(#paint15_linear)" fill-opacity="0.8"/>
<path d="M37.4834 59.0765L37.4833 59.0764L37.4808 59.0825C37.4503 59.1567 37.3634 59.2616 37.1795 59.353C36.9998 59.4423 36.7614 59.5 36.5 59.5C36.4098 59.5 36.3134 59.487 36.1772 59.467C35.868 59.4073 35.6699 59.2792 35.5744 59.166C35.49 59.0658 35.488 58.9909 35.5173 58.9199C35.5587 58.8246 35.6857 58.6911 35.9416 58.5959C36.1897 58.5035 36.5034 58.4709 36.8137 58.5291C37.1257 58.5876 37.3273 58.7183 37.4247 58.8345C37.5125 58.9393 37.5102 59.0137 37.4834 59.0765Z" stroke="#FAED00"/>
<path d="M37.4834 59.0765L37.4833 59.0764L37.4808 59.0825C37.4503 59.1567 37.3634 59.2616 37.1795 59.353C36.9998 59.4423 36.7614 59.5 36.5 59.5C36.4098 59.5 36.3134 59.487 36.1772 59.467C35.868 59.4073 35.6699 59.2792 35.5744 59.166C35.49 59.0658 35.488 58.9909 35.5173 58.9199C35.5587 58.8246 35.6857 58.6911 35.9416 58.5959C36.1897 58.5035 36.5034 58.4709 36.8137 58.5291C37.1257 58.5876 37.3273 58.7183 37.4247 58.8345C37.5125 58.9393 37.5102 59.0137 37.4834 59.0765Z" stroke="url(#paint16_linear)"/>
<path d="M35.521 37.1476L35.521 37.1476L35.5197 37.143C35.4443 36.8764 35.5928 36.6008 35.8599 36.5178C36.1261 36.4449 36.4063 36.6036 36.4803 36.8648C36.5542 37.1258 36.4133 37.3955 36.1567 37.4846C36.0949 37.4957 36.0454 37.5 36 37.5C35.7693 37.5 35.5778 37.3559 35.521 37.1476Z" fill="url(#paint17_linear)" fill-opacity="0.8"/>
<path d="M35.521 37.1476L35.521 37.1476L35.5197 37.143C35.4443 36.8764 35.5928 36.6008 35.8599 36.5178C36.1261 36.4449 36.4063 36.6036 36.4803 36.8648C36.5542 37.1258 36.4133 37.3955 36.1567 37.4846C36.0949 37.4957 36.0454 37.5 36 37.5C35.7693 37.5 35.5778 37.3559 35.521 37.1476Z" stroke="#FAED00"/>
<path d="M35.521 37.1476L35.521 37.1476L35.5197 37.143C35.4443 36.8764 35.5928 36.6008 35.8599 36.5178C36.1261 36.4449 36.4063 36.6036 36.4803 36.8648C36.5542 37.1258 36.4133 37.3955 36.1567 37.4846C36.0949 37.4957 36.0454 37.5 36 37.5C35.7693 37.5 35.5778 37.3559 35.521 37.1476Z" stroke="url(#paint18_linear)"/>
<path d="M40.9502 58.5038L40.9503 58.5039L40.9592 58.5029C41.2248 58.4739 41.4725 58.6736 41.4978 58.9529C41.5229 59.229 41.3282 59.4663 41.0684 59.5H41.0682H41.068H41.0678H41.0676H41.0674H41.0672H41.067H41.0668H41.0666H41.0663H41.0661H41.0659H41.0657H41.0655H41.0653H41.0651H41.0649H41.0647H41.0645H41.0643H41.0641H41.0639H41.0637H41.0634H41.0632H41.063H41.0628H41.0626H41.0624H41.0622H41.062H41.0618H41.0616H41.0614H41.0612H41.061H41.0608H41.0606H41.0604H41.0602H41.06H41.0598H41.0596H41.0594H41.0592H41.0589H41.0587H41.0585H41.0583H41.0581H41.0579H41.0577H41.0575H41.0573H41.0571H41.0569H41.0567H41.0565H41.0563H41.0561H41.0559H41.0557H41.0555H41.0553H41.0551H41.0549H41.0547H41.0545H41.0543H41.0541H41.0539H41.0537H41.0535H41.0533H41.0531H41.0529H41.0527H41.0525H41.0523H41.0521H41.0519H41.0517H41.0516H41.0514H41.0512H41.051H41.0508H41.0506H41.0504H41.0502H41.05H41.0498H41.0496H41.0494H41.0492H41.049H41.0488H41.0486H41.0484H41.0482H41.048H41.0478H41.0476H41.0474H41.0472H41.0471H41.0469H41.0467H41.0465H41.0463H41.0461H41.0459H41.0457H41.0455H41.0453H41.0451H41.0449H41.0447H41.0445H41.0443H41.0442H41.044H41.0438H41.0436H41.0434H41.0432H41.043H41.0428H41.0426H41.0424H41.0422H41.042H41.0419H41.0417H41.0415H41.0413H41.0411H41.0409H41.0407H41.0405H41.0403H41.0401H41.0399H41.0398H41.0396H41.0394H41.0392H41.039H41.0388H41.0386H41.0384H41.0382H41.0381H41.0379H41.0377H41.0375H41.0373H41.0371H41.0369H41.0367H41.0366H41.0364H41.0362H41.036H41.0358H41.0356H41.0354H41.0352H41.0351H41.0349H41.0347H41.0345H41.0343H41.0341H41.0339H41.0337H41.0336H41.0334H41.0332H41.033H41.0328H41.0326H41.0324H41.0323H41.0321H41.0319H41.0317H41.0315H41.0313H41.0311H41.031H41.0308H41.0306H41.0304H41.0302H41.03H41.0299H41.0297H41.0295H41.0293H41.0291H41.0289H41.0287H41.0286H41.0284H41.0282H41.028H41.0278H41.0276H41.0275H41.0273H41.0271H41.0269H41.0267H41.0265H41.0264H41.0262H41.026H41.0258H41.0256H41.0255H41.0253H41.0251H41.0249H41.0247H41.0245H41.0244H41.0242H41.024H41.0238H41.0236H41.0234H41.0233H41.0231H41.0229H41.0227H41.0225H41.0224H41.0222H41.022H41.0218H41.0216H41.0215H41.0213H41.0211H41.0209H41.0207H41.0206H41.0204H41.0202H41.02H41.0198H41.0197H41.0195H41.0193H41.0191H41.0189H41.0187H41.0186H41.0184H41.0182H41.018H41.0179H41.0177H41.0175H41.0173H41.0171H41.017H41.0168H41.0166H41.0164H41.0162H41.0161H41.0159H41.0157H41.0155H41.0153H41.0152H41.015H41.0148H41.0146H41.0144H41.0143H41.0141H41.0139H41.0137H41.0136H41.0134H41.0132H41.013H41.0128H41.0127H41.0125H41.0123H41.0121H41.012H41.0118H41.0116H41.0114H41.0112H41.0111H41.0109H41.0107H41.0105H41.0104H41.0102H41.01H41.0098H41.0096H41.0095H41.0093H41.0091H41.0089H41.0088H41.0086H41.0084H41.0082H41.008H41.0079H41.0077H41.0075H41.0073H41.0072H41.007H41.0068H41.0066H41.0065H41.0063H41.0061H41.0059H41.0057H41.0056H41.0054H41.0052H41.005H41.0049H41.0047H41.0045H41.0043H41.0042H41.004H41.0038H41.0036H41.0035H41.0033H41.0031H41.0029H41.0027H41.0026H41.0024H41.0022H41.002H41.0019H41.0017H41.0015H41.0013H41.0012H41.001H41.0008H41.0006H41.0005H41.0003H41.0001H40.9999H40.9998H40.9996H40.9994H40.9992H40.999H40.9989H40.9987H40.9985H40.9983H40.9982H40.998H40.9978H40.9976H40.9975H40.9973H40.9971H40.9969H40.9968H40.9966H40.9964H40.9962H40.9961H40.9959H40.9957H40.9955H40.9954H40.9952H40.995C40.7465 59.5 40.5282 59.3093 40.502 59.0412C40.4777 58.7729 40.6782 58.5286 40.9502 58.5038Z" fill="url(#paint19_linear)" fill-opacity="0.8"/>
<path d="M40.9502 58.5038L40.9503 58.5039L40.9592 58.5029C41.2248 58.4739 41.4725 58.6736 41.4978 58.9529C41.5229 59.229 41.3282 59.4663 41.0684 59.5H41.0682H41.068H41.0678H41.0676H41.0674H41.0672H41.067H41.0668H41.0666H41.0663H41.0661H41.0659H41.0657H41.0655H41.0653H41.0651H41.0649H41.0647H41.0645H41.0643H41.0641H41.0639H41.0637H41.0634H41.0632H41.063H41.0628H41.0626H41.0624H41.0622H41.062H41.0618H41.0616H41.0614H41.0612H41.061H41.0608H41.0606H41.0604H41.0602H41.06H41.0598H41.0596H41.0594H41.0592H41.0589H41.0587H41.0585H41.0583H41.0581H41.0579H41.0577H41.0575H41.0573H41.0571H41.0569H41.0567H41.0565H41.0563H41.0561H41.0559H41.0557H41.0555H41.0553H41.0551H41.0549H41.0547H41.0545H41.0543H41.0541H41.0539H41.0537H41.0535H41.0533H41.0531H41.0529H41.0527H41.0525H41.0523H41.0521H41.0519H41.0517H41.0516H41.0514H41.0512H41.051H41.0508H41.0506H41.0504H41.0502H41.05H41.0498H41.0496H41.0494H41.0492H41.049H41.0488H41.0486H41.0484H41.0482H41.048H41.0478H41.0476H41.0474H41.0472H41.0471H41.0469H41.0467H41.0465H41.0463H41.0461H41.0459H41.0457H41.0455H41.0453H41.0451H41.0449H41.0447H41.0445H41.0443H41.0442H41.044H41.0438H41.0436H41.0434H41.0432H41.043H41.0428H41.0426H41.0424H41.0422H41.042H41.0419H41.0417H41.0415H41.0413H41.0411H41.0409H41.0407H41.0405H41.0403H41.0401H41.0399H41.0398H41.0396H41.0394H41.0392H41.039H41.0388H41.0386H41.0384H41.0382H41.0381H41.0379H41.0377H41.0375H41.0373H41.0371H41.0369H41.0367H41.0366H41.0364H41.0362H41.036H41.0358H41.0356H41.0354H41.0352H41.0351H41.0349H41.0347H41.0345H41.0343H41.0341H41.0339H41.0337H41.0336H41.0334H41.0332H41.033H41.0328H41.0326H41.0324H41.0323H41.0321H41.0319H41.0317H41.0315H41.0313H41.0311H41.031H41.0308H41.0306H41.0304H41.0302H41.03H41.0299H41.0297H41.0295H41.0293H41.0291H41.0289H41.0287H41.0286H41.0284H41.0282H41.028H41.0278H41.0276H41.0275H41.0273H41.0271H41.0269H41.0267H41.0265H41.0264H41.0262H41.026H41.0258H41.0256H41.0255H41.0253H41.0251H41.0249H41.0247H41.0245H41.0244H41.0242H41.024H41.0238H41.0236H41.0234H41.0233H41.0231H41.0229H41.0227H41.0225H41.0224H41.0222H41.022H41.0218H41.0216H41.0215H41.0213H41.0211H41.0209H41.0207H41.0206H41.0204H41.0202H41.02H41.0198H41.0197H41.0195H41.0193H41.0191H41.0189H41.0187H41.0186H41.0184H41.0182H41.018H41.0179H41.0177H41.0175H41.0173H41.0171H41.017H41.0168H41.0166H41.0164H41.0162H41.0161H41.0159H41.0157H41.0155H41.0153H41.0152H41.015H41.0148H41.0146H41.0144H41.0143H41.0141H41.0139H41.0137H41.0136H41.0134H41.0132H41.013H41.0128H41.0127H41.0125H41.0123H41.0121H41.012H41.0118H41.0116H41.0114H41.0112H41.0111H41.0109H41.0107H41.0105H41.0104H41.0102H41.01H41.0098H41.0096H41.0095H41.0093H41.0091H41.0089H41.0088H41.0086H41.0084H41.0082H41.008H41.0079H41.0077H41.0075H41.0073H41.0072H41.007H41.0068H41.0066H41.0065H41.0063H41.0061H41.0059H41.0057H41.0056H41.0054H41.0052H41.005H41.0049H41.0047H41.0045H41.0043H41.0042H41.004H41.0038H41.0036H41.0035H41.0033H41.0031H41.0029H41.0027H41.0026H41.0024H41.0022H41.002H41.0019H41.0017H41.0015H41.0013H41.0012H41.001H41.0008H41.0006H41.0005H41.0003H41.0001H40.9999H40.9998H40.9996H40.9994H40.9992H40.999H40.9989H40.9987H40.9985H40.9983H40.9982H40.998H40.9978H40.9976H40.9975H40.9973H40.9971H40.9969H40.9968H40.9966H40.9964H40.9962H40.9961H40.9959H40.9957H40.9955H40.9954H40.9952H40.995C40.7465 59.5 40.5282 59.3093 40.502 59.0412C40.4777 58.7729 40.6782 58.5286 40.9502 58.5038Z" stroke="#FAED00"/>
<path d="M40.9502 58.5038L40.9503 58.5039L40.9592 58.5029C41.2248 58.4739 41.4725 58.6736 41.4978 58.9529C41.5229 59.229 41.3282 59.4663 41.0684 59.5H41.0682H41.068H41.0678H41.0676H41.0674H41.0672H41.067H41.0668H41.0666H41.0663H41.0661H41.0659H41.0657H41.0655H41.0653H41.0651H41.0649H41.0647H41.0645H41.0643H41.0641H41.0639H41.0637H41.0634H41.0632H41.063H41.0628H41.0626H41.0624H41.0622H41.062H41.0618H41.0616H41.0614H41.0612H41.061H41.0608H41.0606H41.0604H41.0602H41.06H41.0598H41.0596H41.0594H41.0592H41.0589H41.0587H41.0585H41.0583H41.0581H41.0579H41.0577H41.0575H41.0573H41.0571H41.0569H41.0567H41.0565H41.0563H41.0561H41.0559H41.0557H41.0555H41.0553H41.0551H41.0549H41.0547H41.0545H41.0543H41.0541H41.0539H41.0537H41.0535H41.0533H41.0531H41.0529H41.0527H41.0525H41.0523H41.0521H41.0519H41.0517H41.0516H41.0514H41.0512H41.051H41.0508H41.0506H41.0504H41.0502H41.05H41.0498H41.0496H41.0494H41.0492H41.049H41.0488H41.0486H41.0484H41.0482H41.048H41.0478H41.0476H41.0474H41.0472H41.0471H41.0469H41.0467H41.0465H41.0463H41.0461H41.0459H41.0457H41.0455H41.0453H41.0451H41.0449H41.0447H41.0445H41.0443H41.0442H41.044H41.0438H41.0436H41.0434H41.0432H41.043H41.0428H41.0426H41.0424H41.0422H41.042H41.0419H41.0417H41.0415H41.0413H41.0411H41.0409H41.0407H41.0405H41.0403H41.0401H41.0399H41.0398H41.0396H41.0394H41.0392H41.039H41.0388H41.0386H41.0384H41.0382H41.0381H41.0379H41.0377H41.0375H41.0373H41.0371H41.0369H41.0367H41.0366H41.0364H41.0362H41.036H41.0358H41.0356H41.0354H41.0352H41.0351H41.0349H41.0347H41.0345H41.0343H41.0341H41.0339H41.0337H41.0336H41.0334H41.0332H41.033H41.0328H41.0326H41.0324H41.0323H41.0321H41.0319H41.0317H41.0315H41.0313H41.0311H41.031H41.0308H41.0306H41.0304H41.0302H41.03H41.0299H41.0297H41.0295H41.0293H41.0291H41.0289H41.0287H41.0286H41.0284H41.0282H41.028H41.0278H41.0276H41.0275H41.0273H41.0271H41.0269H41.0267H41.0265H41.0264H41.0262H41.026H41.0258H41.0256H41.0255H41.0253H41.0251H41.0249H41.0247H41.0245H41.0244H41.0242H41.024H41.0238H41.0236H41.0234H41.0233H41.0231H41.0229H41.0227H41.0225H41.0224H41.0222H41.022H41.0218H41.0216H41.0215H41.0213H41.0211H41.0209H41.0207H41.0206H41.0204H41.0202H41.02H41.0198H41.0197H41.0195H41.0193H41.0191H41.0189H41.0187H41.0186H41.0184H41.0182H41.018H41.0179H41.0177H41.0175H41.0173H41.0171H41.017H41.0168H41.0166H41.0164H41.0162H41.0161H41.0159H41.0157H41.0155H41.0153H41.0152H41.015H41.0148H41.0146H41.0144H41.0143H41.0141H41.0139H41.0137H41.0136H41.0134H41.0132H41.013H41.0128H41.0127H41.0125H41.0123H41.0121H41.012H41.0118H41.0116H41.0114H41.0112H41.0111H41.0109H41.0107H41.0105H41.0104H41.0102H41.01H41.0098H41.0096H41.0095H41.0093H41.0091H41.0089H41.0088H41.0086H41.0084H41.0082H41.008H41.0079H41.0077H41.0075H41.0073H41.0072H41.007H41.0068H41.0066H41.0065H41.0063H41.0061H41.0059H41.0057H41.0056H41.0054H41.0052H41.005H41.0049H41.0047H41.0045H41.0043H41.0042H41.004H41.0038H41.0036H41.0035H41.0033H41.0031H41.0029H41.0027H41.0026H41.0024H41.0022H41.002H41.0019H41.0017H41.0015H41.0013H41.0012H41.001H41.0008H41.0006H41.0005H41.0003H41.0001H40.9999H40.9998H40.9996H40.9994H40.9992H40.999H40.9989H40.9987H40.9985H40.9983H40.9982H40.998H40.9978H40.9976H40.9975H40.9973H40.9971H40.9969H40.9968H40.9966H40.9964H40.9962H40.9961H40.9959H40.9957H40.9955H40.9954H40.9952H40.995C40.7465 59.5 40.5282 59.3093 40.502 59.0412C40.4777 58.7729 40.6782 58.5286 40.9502 58.5038Z" stroke="url(#paint20_linear)"/>
<path d="M50.5 48.0244V48.0243V48.0243V48.0242V48.0242V48.0241V48.024V48.024V48.0239V48.0239V48.0238V48.0237V48.0237V48.0236V48.0236V48.0235V48.0234V48.0234V48.0233V48.0233V48.0232V48.0231V48.0231V48.023V48.023V48.0229V48.0228V48.0228V48.0227V48.0226V48.0226V48.0225V48.0224V48.0224V48.0223V48.0223V48.0222V48.0221V48.0221V48.022V48.0219V48.0219V48.0218V48.0217V48.0217V48.0216V48.0215V48.0215V48.0214V48.0213V48.0213V48.0212V48.0211V48.0211V48.021V48.0209V48.0209V48.0208V48.0207V48.0207V48.0206V48.0205V48.0204V48.0204V48.0203V48.0202V48.0202V48.0201V48.02V48.02V48.0199V48.0198V48.0197V48.0197V48.0196V48.0195V48.0195V48.0194V48.0193V48.0192V48.0192V48.0191V48.019V48.019V48.0189V48.0188V48.0187V48.0187V48.0186V48.0185V48.0184V48.0184V48.0183V48.0182V48.0181V48.0181V48.018V48.0179V48.0178V48.0178V48.0177V48.0176V48.0175V48.0175V48.0174V48.0173V48.0172V48.0172V48.0171V48.017V48.0169V48.0169V48.0168V48.0167V48.0166V48.0166V48.0165V48.0164V48.0163V48.0162V48.0162V48.0161V48.016V48.0159V48.0159V48.0158V48.0157V48.0156V48.0155V48.0155V48.0154V48.0153V48.0152V48.0152V48.0151V48.015V48.0149V48.0148V48.0148V48.0147V48.0146V48.0145V48.0144V48.0144V48.0143V48.0142V48.0141V48.014V48.014V48.0139V48.0138V48.0137V48.0136V48.0135V48.0135V48.0134V48.0133V48.0132V48.0131V48.0131V48.013V48.0129V48.0128V48.0127V48.0127V48.0126V48.0125V48.0124V48.0123V48.0122V48.0122V48.0121V48.012V48.0119V48.0118V48.0117V48.0117V48.0116V48.0115V48.0114V48.0113V48.0112V48.0112V48.0111V48.011V48.0109V48.0108V48.0107V48.0107V48.0106V48.0105V48.0104V48.0103V48.0102V48.0102V48.0101V48.01V48.0099V48.0098V48.0097V48.0097V48.0096V48.0095V48.0094V48.0093V48.0092V48.0091V48.0091V48.009V48.0089V48.0088V48.0087V48.0086V48.0086V48.0085V48.0084V48.0083V48.0082V48.0081V48.008V48.008V48.0079V48.0078V48.0077V48.0076V48.0075V48.0074V48.0074V48.0073V48.0072V48.0071V48.007V48.0069V48.0069V48.0068V48.0067V48.0066V48.0065V48.0064V48.0063V48.0063V48.0062V48.0061V48.006V48.0059V48.0058V48.0057V48.0057V48.0056V48.0055V48.0054V48.0053V48.0052V48.0051V48.0051V48.005V48.0049V48.0048V48.0047V48.0046V48.0045V48.0045V48.0044V48.0043V48.0042V48.0041V48.004V48.0039V48.0039V48.0038V48.0037V48.0036V48.0035V48.0034V48.0033V48.0033V48.0032V48.0031V48.003V48.0029V48.0028V48.0027V48.0027V48.0026V48.0025V48.0024V48.0023V48.0022V48.0021V48.0021V48.002V48.0019V48.0018V48.0017V48.0016V48.0015V48.0015V48.0014V48.0013V48.0012V48.0011V48.001V48.001V48.0009V48.0008V48.0007V48.0006V48.0005V48.0004V48.0004V48.0003V48.0002V48.0001V48V47.9999V47.9999V47.9998V47.9997V47.9996V47.9995V47.9994V47.9994V47.9993V47.9992V47.9991V47.999V47.9989V47.9989V47.9988V47.9987V47.9986V47.9985V47.9984V47.9984V47.9983V47.9982V47.9981V47.998V47.9979V47.9979V47.9978V47.9977V47.9976V47.9975V47.9974V47.9974V47.9973V47.9972V47.9971V47.997V47.9969V47.9969V47.9968V47.9967V47.9966V47.9965V47.9965V47.9964V47.9963V47.9962V47.9961V47.9961V47.996V47.9959V47.9958V47.9957V47.9957V47.9956V47.9955V47.9954V47.9953V47.9952V47.9952V47.9951V47.995V47.9949V47.9949V47.9948V47.9947V47.9946V47.9945V47.9945V47.9944V47.9943V47.9942V47.9941V47.9941V47.994V47.9939V47.9938V47.9938V47.9937V47.9936V47.9935V47.9934V47.9934V47.9933V47.9932V47.9931V47.9931V47.993V47.9929V47.9928V47.9927V47.9927V47.9926V47.9925V47.9924V47.9924V47.9923V47.9922V47.9921V47.9921V47.992V47.9919V47.9918V47.9918V47.9917V47.9916V47.9915V47.9915V47.9914V47.9913V47.9912V47.9912V47.9911V47.991V47.991V47.9909V47.9908V47.9907V47.9907V47.9906V47.9905V47.9904V47.9904V47.9903V47.9902V47.9902V47.9901V47.99V47.9899V47.9899V47.9898V47.9897V47.9897V47.9896V47.9895V47.9895V47.9894V47.9893V47.9892V47.9892V47.9891V47.989V47.989V47.9889V47.9888V47.9888V47.9887V47.9886V47.9886V47.9885V47.9884V47.9884V47.9883V47.9882V47.9882V47.9881V47.988V47.988V47.9879V47.9878V47.9878V47.9877V47.9876V47.9876V47.9875V47.9874V47.9874V47.9873V47.9873V47.9872V47.9871V47.9871V47.987V47.9869V47.9869V47.9868V47.9868V47.9867V47.9866V47.9866V47.9865V47.9864V47.9864V47.9863V47.9863V47.9862V47.9861V47.9861V47.986V47.986V47.9859V47.9858V47.9858V47.9857V47.9857V47.9856V47.9856V47.9855V47.9854V47.9854C50.5 47.7359 50.7061 47.5074 51.0043 47.5C51.2877 47.5023 51.5 47.728 51.5 47.9756V47.9757V47.9757V47.9758V47.9758V47.9759V47.976V47.976V47.9761V47.9761V47.9762V47.9762V47.9763V47.9764V47.9764V47.9765V47.9765V47.9766V47.9766V47.9767V47.9768V47.9768V47.9769V47.9769V47.977V47.977V47.9771V47.9772V47.9772V47.9773V47.9773V47.9774V47.9774V47.9775V47.9776V47.9776V47.9777V47.9777V47.9778V47.9778V47.9779V47.978V47.978V47.9781V47.9781V47.9782V47.9782V47.9783V47.9784V47.9784V47.9785V47.9785V47.9786V47.9786V47.9787V47.9788V47.9788V47.9789V47.9789V47.979V47.979V47.9791V47.9792V47.9792V47.9793V47.9793V47.9794V47.9794V47.9795V47.9796V47.9796V47.9797V47.9797V47.9798V47.9798V47.9799V47.98V47.98V47.9801V47.9801V47.9802V47.9802V47.9803V47.9804V47.9804V47.9805V47.9805V47.9806V47.9806V47.9807V47.9808V47.9808V47.9809V47.9809V47.981V47.981V47.9811V47.9812V47.9812V47.9813V47.9813V47.9814V47.9814V47.9815V47.9816V47.9816V47.9817V47.9817V47.9818V47.9818V47.9819V47.982V47.982V47.9821V47.9821V47.9822V47.9822V47.9823V47.9824V47.9824V47.9825V47.9825V47.9826V47.9826V47.9827V47.9828V47.9828V47.9829V47.9829V47.983V47.983V47.9831V47.9832V47.9832V47.9833V47.9833V47.9834V47.9834V47.9835V47.9836V47.9836V47.9837V47.9837V47.9838V47.9838V47.9839V47.984V47.984V47.9841V47.9841V47.9842V47.9842V47.9843V47.9844V47.9844V47.9845V47.9845V47.9846V47.9846V47.9847V47.9848V47.9848V47.9849V47.9849V47.985V47.985V47.9851V47.9852V47.9852V47.9853V47.9853V47.9854V47.9854V47.9855V47.9856V47.9856V47.9857V47.9857V47.9858V47.9858V47.9859V47.986V47.986V47.9861V47.9861V47.9862V47.9862V47.9863V47.9864V47.9864V47.9865V47.9865V47.9866V47.9866V47.9867V47.9868V47.9868V47.9869V47.9869V47.987V47.987V47.9871V47.9872V47.9872V47.9873V47.9873V47.9874V47.9874V47.9875V47.9876V47.9876V47.9877V47.9877V47.9878V47.9878V47.9879V47.988V47.988V47.9881V47.9881V47.9882V47.9882V47.9883V47.9884V47.9884V47.9885V47.9885V47.9886V47.9886V47.9887V47.9888V47.9888V47.9889V47.9889V47.989V47.989V47.9891V47.9892V47.9892V47.9893V47.9893V47.9894V47.9894V47.9895V47.9896V47.9896V47.9897V47.9897V47.9898V47.9898V47.9899V47.99V47.99V47.9901V47.9901V47.9902V47.9902V47.9903V47.9904V47.9904V47.9905V47.9905V47.9906V47.9906V47.9907V47.9908V47.9908V47.9909V47.9909V47.991V47.991V47.9911V47.9912V47.9912V47.9913V47.9913V47.9914V47.9914V47.9915V47.9916V47.9916V47.9917V47.9917V47.9918V47.9918V47.9919V47.992V47.992V47.9921V47.9921V47.9922V47.9922V47.9923V47.9924V47.9924V47.9925V47.9925V47.9926V47.9926V47.9927V47.9928V47.9928V47.9929V47.9929V47.993V47.9931V47.9931V47.9932V47.9932V47.9933V47.9933V47.9934V47.9935V47.9935V47.9936V47.9936V47.9937V47.9937V47.9938V47.9939V47.9939V47.994V47.994V47.9941V47.9941V47.9942V47.9943V47.9943V47.9944V47.9944V47.9945V47.9945V47.9946V47.9947V47.9947V47.9948V47.9948V47.9949V47.9949V47.995V47.9951V47.9951V47.9952V47.9952V47.9953V47.9953V47.9954V47.9955V47.9955V47.9956V47.9956V47.9957V47.9957V47.9958V47.9959V47.9959V47.996V47.996V47.9961V47.9961V47.9962V47.9963V47.9963V47.9964V47.9964V47.9965V47.9965V47.9966V47.9967V47.9967V47.9968V47.9968V47.9969V47.9969V47.997V47.9971V47.9971V47.9972V47.9972V47.9973V47.9973V47.9974V47.9975V47.9975V47.9976V47.9976V47.9977V47.9977V47.9978V47.9979V47.9979V47.998V47.998V47.9981V47.9981V47.9982V47.9983V47.9983V47.9984V47.9984V47.9985V47.9985V47.9986V47.9987V47.9987V47.9988V47.9988V47.9989V47.9989V47.999V47.9991V47.9991V47.9992V47.9992V47.9993V47.9993V47.9994V47.9995V47.9995V47.9996V47.9996V47.9997V47.9997V47.9998V47.9999V47.9999V48V48V48.0001V48.0001V48.0002V48.0003V48.0003V48.0004V48.0004V48.0005V48.0005V48.0006V48.0007V48.0007V48.0008V48.0008V48.0009V48.0009V48.001V48.0011V48.0011V48.0012V48.0012V48.0013V48.0013V48.0014V48.0015V48.0015V48.0016V48.0016V48.0017V48.0017V48.0018V48.0019V48.0019V48.002V48.002V48.0021V48.0021V48.0022V48.0023V48.0023V48.0024V48.0024V48.0025V48.0025V48.0026V48.0027V48.0027V48.0028V48.0028V48.0029V48.0029V48.003V48.0031V48.0031V48.0032V48.0032V48.0033V48.0033V48.0034V48.0035V48.0035V48.0036V48.0036V48.0037V48.0037V48.0038V48.0039V48.0039V48.004V48.004V48.0041V48.0041V48.0042V48.0043V48.0043V48.0044V48.0044V48.0045V48.0045V48.0046V48.0047V48.0047V48.0048V48.0048V48.0049V48.0049V48.0049V48.0049V48.0049V48.0049V48.0049V48.0049V48.0049V48.0049V48.0049V48.0049V48.0049V48.0049V48.0049V48.0049V48.0049V48.0049V48.0049V48.0049V48.0049V48.0049V48.005V48.005V48.005V48.005V48.005V48.005V48.005V48.005V48.005V48.005V48.005V48.005V48.005V48.005V48.005V48.0051V48.0051V48.0051V48.0051V48.0051V48.0051V48.0051V48.0051V48.0051V48.0051V48.0052V48.0052V48.0052V48.0052V48.0052V48.0052V48.0052V48.0052V48.0052V48.0053V48.0053V48.0053V48.0053V48.0053V48.0053V48.0053V48.0053V48.0054V48.0054V48.0054V48.0054V48.0054V48.0054V48.0054V48.0055V48.0055V48.0055V48.0055V48.0055V48.0055V48.0056V48.0056V48.0056V48.0056V48.0056V48.0056V48.0057V48.0057V48.0057V48.0057V48.0057V48.0058V48.0058V48.0058V48.0058V48.0058V48.0058V48.0059V48.0059V48.0059V48.0059V48.0059V48.006V48.006V48.006V48.006V48.006V48.0061V48.0061V48.0061V48.0061V48.0062V48.0062V48.0062V48.0062V48.0062V48.0063V48.0063V48.0063V48.0063V48.0064V48.0064V48.0064V48.0064V48.0065V48.0065V48.0065V48.0065V48.0066V48.0066V48.0066V48.0066V48.0067V48.0067V48.0067V48.0067V48.0068V48.0068V48.0068V48.0068V48.0069V48.0069V48.0069V48.007V48.007V48.007V48.007V48.0071V48.0071V48.0071V48.0071V48.0072V48.0072V48.0072V48.0073V48.0073V48.0073V48.0074V48.0074V48.0074V48.0074V48.0075V48.0075V48.0075V48.0076V48.0076V48.0076V48.0077V48.0077V48.0077V48.0077V48.0078V48.0078V48.0078V48.0079V48.0079V48.0079V48.008V48.008V48.008V48.0081V48.0081V48.0081V48.0082V48.0082V48.0082V48.0083V48.0083V48.0083V48.0084V48.0084V48.0084V48.0085V48.0085V48.0086V48.0086V48.0086V48.0087V48.0087V48.0087V48.0088V48.0088V48.0088V48.0089V48.0089V48.0089V48.009V48.009V48.0091V48.0091V48.0091V48.0092V48.0092V48.0092V48.0093V48.0093V48.0094V48.0094V48.0094V48.0095V48.0095V48.0095V48.0096V48.0096V48.0097V48.0097V48.0097V48.0098V48.0098V48.0099V48.0099V48.0099V48.01V48.01V48.0101V48.0101V48.0101V48.0102V48.0102V48.0103V48.0103V48.0103V48.0104V48.0104V48.0105V48.0105V48.0106V48.0106V48.0106V48.0107V48.0107V48.0108V48.0108V48.0108V48.0109V48.0109V48.011V48.011V48.0111V48.0111V48.0111V48.0112V48.0112V48.0113V48.0113V48.0114V48.0114V48.0115V48.0115V48.0115V48.0116V48.0116V48.0117V48.0117V48.0118V48.0118V48.0119V48.0119V48.0119V48.012V48.012V48.0121V48.0121V48.0122V48.0122V48.0123V48.0123V48.0124V48.0124V48.0124V48.0125V48.0125V48.0126V48.0126V48.0127V48.0127V48.0128V48.0128V48.0129V48.0129V48.013V48.013V48.0131V48.0131V48.0132V48.0132V48.0132V48.0133V48.0133V48.0134V48.0134V48.0135V48.0135V48.0136V48.0136V48.0137V48.0137V48.0138V48.0138V48.0139V48.0139V48.014V48.014V48.0141V48.0141V48.0142V48.0142V48.0143V48.0143V48.0144V48.0144V48.0145V48.0145V48.0146V48.0146V48.0147V48.0147V48.0148V48.0148V48.0149V48.0149V48.015V48.015V48.0151V48.0151V48.0152V48.0152V48.0153V48.0153V48.0154V48.0154V48.0155V48.0155V48.0156V48.0156V48.0157V48.0157V48.0158V48.0158V48.0159V48.016V48.016V48.0161V48.0161V48.0162V48.0162V48.0163V48.0163V48.0164V48.0164V48.0165V48.0165V48.0166V48.0166V48.0167V48.0167V48.0168V48.0168V48.0169V48.017V48.017V48.0171V48.0171V48.0172V48.0172V48.0173V48.0173V48.0174V48.0174V48.0175V48.0175V48.0176V48.0177V48.0177V48.0178V48.0178V48.0179V48.0179V48.018V48.018V48.0181V48.0181V48.0182V48.0182V48.0183V48.0184V48.0184V48.0185V48.0185V48.0186V48.0186V48.0187V48.0187V48.0188V48.0189V48.0189V48.019V48.019V48.0191V48.0191V48.0192V48.0192V48.0193V48.0193V48.0194V48.0195V48.0195V48.0196V48.0196V48.0197V48.0197V48.0198V48.0198V48.0199V48.02V48.02V48.0201V48.0201V48.0202V48.0202V48.0203V48.0204V48.0204V48.0205V48.0205V48.0206V48.0206V48.0207V48.0207V48.0208V48.0209V48.0209V48.021V48.021V48.0211V48.0211V48.0212V48.0213V48.0213V48.0214V48.0214V48.0215V48.0215V48.0216V48.0216V48.0217V48.0218V48.0218V48.0219V48.0219V48.022V48.022V48.0221V48.0222V48.0222V48.0223V48.0223V48.0224V48.0224V48.0225V48.0226V48.0226V48.0227V48.0227V48.0228V48.0228V48.0229V48.023V48.023V48.0231V48.0231V48.0232V48.0232V48.0233V48.0234V48.0234V48.0235V48.0235V48.0236V48.0236V48.0237V48.0238V48.0238V48.0239V48.0239V48.024V48.024V48.0241V48.0242V48.0242V48.0243V48.0243V48.0244C51.5 48.2733 51.2856 48.5 51 48.5C50.7144 48.5 50.5 48.2733 50.5 48.0244Z" fill="url(#paint21_linear)" fill-opacity="0.8"/>
<path d="M50.5 48.0244V48.0243V48.0243V48.0242V48.0242V48.0241V48.024V48.024V48.0239V48.0239V48.0238V48.0237V48.0237V48.0236V48.0236V48.0235V48.0234V48.0234V48.0233V48.0233V48.0232V48.0231V48.0231V48.023V48.023V48.0229V48.0228V48.0228V48.0227V48.0226V48.0226V48.0225V48.0224V48.0224V48.0223V48.0223V48.0222V48.0221V48.0221V48.022V48.0219V48.0219V48.0218V48.0217V48.0217V48.0216V48.0215V48.0215V48.0214V48.0213V48.0213V48.0212V48.0211V48.0211V48.021V48.0209V48.0209V48.0208V48.0207V48.0207V48.0206V48.0205V48.0204V48.0204V48.0203V48.0202V48.0202V48.0201V48.02V48.02V48.0199V48.0198V48.0197V48.0197V48.0196V48.0195V48.0195V48.0194V48.0193V48.0192V48.0192V48.0191V48.019V48.019V48.0189V48.0188V48.0187V48.0187V48.0186V48.0185V48.0184V48.0184V48.0183V48.0182V48.0181V48.0181V48.018V48.0179V48.0178V48.0178V48.0177V48.0176V48.0175V48.0175V48.0174V48.0173V48.0172V48.0172V48.0171V48.017V48.0169V48.0169V48.0168V48.0167V48.0166V48.0166V48.0165V48.0164V48.0163V48.0162V48.0162V48.0161V48.016V48.0159V48.0159V48.0158V48.0157V48.0156V48.0155V48.0155V48.0154V48.0153V48.0152V48.0152V48.0151V48.015V48.0149V48.0148V48.0148V48.0147V48.0146V48.0145V48.0144V48.0144V48.0143V48.0142V48.0141V48.014V48.014V48.0139V48.0138V48.0137V48.0136V48.0135V48.0135V48.0134V48.0133V48.0132V48.0131V48.0131V48.013V48.0129V48.0128V48.0127V48.0127V48.0126V48.0125V48.0124V48.0123V48.0122V48.0122V48.0121V48.012V48.0119V48.0118V48.0117V48.0117V48.0116V48.0115V48.0114V48.0113V48.0112V48.0112V48.0111V48.011V48.0109V48.0108V48.0107V48.0107V48.0106V48.0105V48.0104V48.0103V48.0102V48.0102V48.0101V48.01V48.0099V48.0098V48.0097V48.0097V48.0096V48.0095V48.0094V48.0093V48.0092V48.0091V48.0091V48.009V48.0089V48.0088V48.0087V48.0086V48.0086V48.0085V48.0084V48.0083V48.0082V48.0081V48.008V48.008V48.0079V48.0078V48.0077V48.0076V48.0075V48.0074V48.0074V48.0073V48.0072V48.0071V48.007V48.0069V48.0069V48.0068V48.0067V48.0066V48.0065V48.0064V48.0063V48.0063V48.0062V48.0061V48.006V48.0059V48.0058V48.0057V48.0057V48.0056V48.0055V48.0054V48.0053V48.0052V48.0051V48.0051V48.005V48.0049V48.0048V48.0047V48.0046V48.0045V48.0045V48.0044V48.0043V48.0042V48.0041V48.004V48.0039V48.0039V48.0038V48.0037V48.0036V48.0035V48.0034V48.0033V48.0033V48.0032V48.0031V48.003V48.0029V48.0028V48.0027V48.0027V48.0026V48.0025V48.0024V48.0023V48.0022V48.0021V48.0021V48.002V48.0019V48.0018V48.0017V48.0016V48.0015V48.0015V48.0014V48.0013V48.0012V48.0011V48.001V48.001V48.0009V48.0008V48.0007V48.0006V48.0005V48.0004V48.0004V48.0003V48.0002V48.0001V48V47.9999V47.9999V47.9998V47.9997V47.9996V47.9995V47.9994V47.9994V47.9993V47.9992V47.9991V47.999V47.9989V47.9989V47.9988V47.9987V47.9986V47.9985V47.9984V47.9984V47.9983V47.9982V47.9981V47.998V47.9979V47.9979V47.9978V47.9977V47.9976V47.9975V47.9974V47.9974V47.9973V47.9972V47.9971V47.997V47.9969V47.9969V47.9968V47.9967V47.9966V47.9965V47.9965V47.9964V47.9963V47.9962V47.9961V47.9961V47.996V47.9959V47.9958V47.9957V47.9957V47.9956V47.9955V47.9954V47.9953V47.9952V47.9952V47.9951V47.995V47.9949V47.9949V47.9948V47.9947V47.9946V47.9945V47.9945V47.9944V47.9943V47.9942V47.9941V47.9941V47.994V47.9939V47.9938V47.9938V47.9937V47.9936V47.9935V47.9934V47.9934V47.9933V47.9932V47.9931V47.9931V47.993V47.9929V47.9928V47.9927V47.9927V47.9926V47.9925V47.9924V47.9924V47.9923V47.9922V47.9921V47.9921V47.992V47.9919V47.9918V47.9918V47.9917V47.9916V47.9915V47.9915V47.9914V47.9913V47.9912V47.9912V47.9911V47.991V47.991V47.9909V47.9908V47.9907V47.9907V47.9906V47.9905V47.9904V47.9904V47.9903V47.9902V47.9902V47.9901V47.99V47.9899V47.9899V47.9898V47.9897V47.9897V47.9896V47.9895V47.9895V47.9894V47.9893V47.9892V47.9892V47.9891V47.989V47.989V47.9889V47.9888V47.9888V47.9887V47.9886V47.9886V47.9885V47.9884V47.9884V47.9883V47.9882V47.9882V47.9881V47.988V47.988V47.9879V47.9878V47.9878V47.9877V47.9876V47.9876V47.9875V47.9874V47.9874V47.9873V47.9873V47.9872V47.9871V47.9871V47.987V47.9869V47.9869V47.9868V47.9868V47.9867V47.9866V47.9866V47.9865V47.9864V47.9864V47.9863V47.9863V47.9862V47.9861V47.9861V47.986V47.986V47.9859V47.9858V47.9858V47.9857V47.9857V47.9856V47.9856V47.9855V47.9854V47.9854C50.5 47.7359 50.7061 47.5074 51.0043 47.5C51.2877 47.5023 51.5 47.728 51.5 47.9756V47.9757V47.9757V47.9758V47.9758V47.9759V47.976V47.976V47.9761V47.9761V47.9762V47.9762V47.9763V47.9764V47.9764V47.9765V47.9765V47.9766V47.9766V47.9767V47.9768V47.9768V47.9769V47.9769V47.977V47.977V47.9771V47.9772V47.9772V47.9773V47.9773V47.9774V47.9774V47.9775V47.9776V47.9776V47.9777V47.9777V47.9778V47.9778V47.9779V47.978V47.978V47.9781V47.9781V47.9782V47.9782V47.9783V47.9784V47.9784V47.9785V47.9785V47.9786V47.9786V47.9787V47.9788V47.9788V47.9789V47.9789V47.979V47.979V47.9791V47.9792V47.9792V47.9793V47.9793V47.9794V47.9794V47.9795V47.9796V47.9796V47.9797V47.9797V47.9798V47.9798V47.9799V47.98V47.98V47.9801V47.9801V47.9802V47.9802V47.9803V47.9804V47.9804V47.9805V47.9805V47.9806V47.9806V47.9807V47.9808V47.9808V47.9809V47.9809V47.981V47.981V47.9811V47.9812V47.9812V47.9813V47.9813V47.9814V47.9814V47.9815V47.9816V47.9816V47.9817V47.9817V47.9818V47.9818V47.9819V47.982V47.982V47.9821V47.9821V47.9822V47.9822V47.9823V47.9824V47.9824V47.9825V47.9825V47.9826V47.9826V47.9827V47.9828V47.9828V47.9829V47.9829V47.983V47.983V47.9831V47.9832V47.9832V47.9833V47.9833V47.9834V47.9834V47.9835V47.9836V47.9836V47.9837V47.9837V47.9838V47.9838V47.9839V47.984V47.984V47.9841V47.9841V47.9842V47.9842V47.9843V47.9844V47.9844V47.9845V47.9845V47.9846V47.9846V47.9847V47.9848V47.9848V47.9849V47.9849V47.985V47.985V47.9851V47.9852V47.9852V47.9853V47.9853V47.9854V47.9854V47.9855V47.9856V47.9856V47.9857V47.9857V47.9858V47.9858V47.9859V47.986V47.986V47.9861V47.9861V47.9862V47.9862V47.9863V47.9864V47.9864V47.9865V47.9865V47.9866V47.9866V47.9867V47.9868V47.9868V47.9869V47.9869V47.987V47.987V47.9871V47.9872V47.9872V47.9873V47.9873V47.9874V47.9874V47.9875V47.9876V47.9876V47.9877V47.9877V47.9878V47.9878V47.9879V47.988V47.988V47.9881V47.9881V47.9882V47.9882V47.9883V47.9884V47.9884V47.9885V47.9885V47.9886V47.9886V47.9887V47.9888V47.9888V47.9889V47.9889V47.989V47.989V47.9891V47.9892V47.9892V47.9893V47.9893V47.9894V47.9894V47.9895V47.9896V47.9896V47.9897V47.9897V47.9898V47.9898V47.9899V47.99V47.99V47.9901V47.9901V47.9902V47.9902V47.9903V47.9904V47.9904V47.9905V47.9905V47.9906V47.9906V47.9907V47.9908V47.9908V47.9909V47.9909V47.991V47.991V47.9911V47.9912V47.9912V47.9913V47.9913V47.9914V47.9914V47.9915V47.9916V47.9916V47.9917V47.9917V47.9918V47.9918V47.9919V47.992V47.992V47.9921V47.9921V47.9922V47.9922V47.9923V47.9924V47.9924V47.9925V47.9925V47.9926V47.9926V47.9927V47.9928V47.9928V47.9929V47.9929V47.993V47.9931V47.9931V47.9932V47.9932V47.9933V47.9933V47.9934V47.9935V47.9935V47.9936V47.9936V47.9937V47.9937V47.9938V47.9939V47.9939V47.994V47.994V47.9941V47.9941V47.9942V47.9943V47.9943V47.9944V47.9944V47.9945V47.9945V47.9946V47.9947V47.9947V47.9948V47.9948V47.9949V47.9949V47.995V47.9951V47.9951V47.9952V47.9952V47.9953V47.9953V47.9954V47.9955V47.9955V47.9956V47.9956V47.9957V47.9957V47.9958V47.9959V47.9959V47.996V47.996V47.9961V47.9961V47.9962V47.9963V47.9963V47.9964V47.9964V47.9965V47.9965V47.9966V47.9967V47.9967V47.9968V47.9968V47.9969V47.9969V47.997V47.9971V47.9971V47.9972V47.9972V47.9973V47.9973V47.9974V47.9975V47.9975V47.9976V47.9976V47.9977V47.9977V47.9978V47.9979V47.9979V47.998V47.998V47.9981V47.9981V47.9982V47.9983V47.9983V47.9984V47.9984V47.9985V47.9985V47.9986V47.9987V47.9987V47.9988V47.9988V47.9989V47.9989V47.999V47.9991V47.9991V47.9992V47.9992V47.9993V47.9993V47.9994V47.9995V47.9995V47.9996V47.9996V47.9997V47.9997V47.9998V47.9999V47.9999V48V48V48.0001V48.0001V48.0002V48.0003V48.0003V48.0004V48.0004V48.0005V48.0005V48.0006V48.0007V48.0007V48.0008V48.0008V48.0009V48.0009V48.001V48.0011V48.0011V48.0012V48.0012V48.0013V48.0013V48.0014V48.0015V48.0015V48.0016V48.0016V48.0017V48.0017V48.0018V48.0019V48.0019V48.002V48.002V48.0021V48.0021V48.0022V48.0023V48.0023V48.0024V48.0024V48.0025V48.0025V48.0026V48.0027V48.0027V48.0028V48.0028V48.0029V48.0029V48.003V48.0031V48.0031V48.0032V48.0032V48.0033V48.0033V48.0034V48.0035V48.0035V48.0036V48.0036V48.0037V48.0037V48.0038V48.0039V48.0039V48.004V48.004V48.0041V48.0041V48.0042V48.0043V48.0043V48.0044V48.0044V48.0045V48.0045V48.0046V48.0047V48.0047V48.0048V48.0048V48.0049V48.0049V48.0049V48.0049V48.0049V48.0049V48.0049V48.0049V48.0049V48.0049V48.0049V48.0049V48.0049V48.0049V48.0049V48.0049V48.0049V48.0049V48.0049V48.0049V48.0049V48.0049V48.005V48.005V48.005V48.005V48.005V48.005V48.005V48.005V48.005V48.005V48.005V48.005V48.005V48.005V48.005V48.0051V48.0051V48.0051V48.0051V48.0051V48.0051V48.0051V48.0051V48.0051V48.0051V48.0052V48.0052V48.0052V48.0052V48.0052V48.0052V48.0052V48.0052V48.0052V48.0053V48.0053V48.0053V48.0053V48.0053V48.0053V48.0053V48.0053V48.0054V48.0054V48.0054V48.0054V48.0054V48.0054V48.0054V48.0055V48.0055V48.0055V48.0055V48.0055V48.0055V48.0056V48.0056V48.0056V48.0056V48.0056V48.0056V48.0057V48.0057V48.0057V48.0057V48.0057V48.0058V48.0058V48.0058V48.0058V48.0058V48.0058V48.0059V48.0059V48.0059V48.0059V48.0059V48.006V48.006V48.006V48.006V48.006V48.0061V48.0061V48.0061V48.0061V48.0062V48.0062V48.0062V48.0062V48.0062V48.0063V48.0063V48.0063V48.0063V48.0064V48.0064V48.0064V48.0064V48.0065V48.0065V48.0065V48.0065V48.0066V48.0066V48.0066V48.0066V48.0067V48.0067V48.0067V48.0067V48.0068V48.0068V48.0068V48.0068V48.0069V48.0069V48.0069V48.007V48.007V48.007V48.007V48.0071V48.0071V48.0071V48.0071V48.0072V48.0072V48.0072V48.0073V48.0073V48.0073V48.0074V48.0074V48.0074V48.0074V48.0075V48.0075V48.0075V48.0076V48.0076V48.0076V48.0077V48.0077V48.0077V48.0077V48.0078V48.0078V48.0078V48.0079V48.0079V48.0079V48.008V48.008V48.008V48.0081V48.0081V48.0081V48.0082V48.0082V48.0082V48.0083V48.0083V48.0083V48.0084V48.0084V48.0084V48.0085V48.0085V48.0086V48.0086V48.0086V48.0087V48.0087V48.0087V48.0088V48.0088V48.0088V48.0089V48.0089V48.0089V48.009V48.009V48.0091V48.0091V48.0091V48.0092V48.0092V48.0092V48.0093V48.0093V48.0094V48.0094V48.0094V48.0095V48.0095V48.0095V48.0096V48.0096V48.0097V48.0097V48.0097V48.0098V48.0098V48.0099V48.0099V48.0099V48.01V48.01V48.0101V48.0101V48.0101V48.0102V48.0102V48.0103V48.0103V48.0103V48.0104V48.0104V48.0105V48.0105V48.0106V48.0106V48.0106V48.0107V48.0107V48.0108V48.0108V48.0108V48.0109V48.0109V48.011V48.011V48.0111V48.0111V48.0111V48.0112V48.0112V48.0113V48.0113V48.0114V48.0114V48.0115V48.0115V48.0115V48.0116V48.0116V48.0117V48.0117V48.0118V48.0118V48.0119V48.0119V48.0119V48.012V48.012V48.0121V48.0121V48.0122V48.0122V48.0123V48.0123V48.0124V48.0124V48.0124V48.0125V48.0125V48.0126V48.0126V48.0127V48.0127V48.0128V48.0128V48.0129V48.0129V48.013V48.013V48.0131V48.0131V48.0132V48.0132V48.0132V48.0133V48.0133V48.0134V48.0134V48.0135V48.0135V48.0136V48.0136V48.0137V48.0137V48.0138V48.0138V48.0139V48.0139V48.014V48.014V48.0141V48.0141V48.0142V48.0142V48.0143V48.0143V48.0144V48.0144V48.0145V48.0145V48.0146V48.0146V48.0147V48.0147V48.0148V48.0148V48.0149V48.0149V48.015V48.015V48.0151V48.0151V48.0152V48.0152V48.0153V48.0153V48.0154V48.0154V48.0155V48.0155V48.0156V48.0156V48.0157V48.0157V48.0158V48.0158V48.0159V48.016V48.016V48.0161V48.0161V48.0162V48.0162V48.0163V48.0163V48.0164V48.0164V48.0165V48.0165V48.0166V48.0166V48.0167V48.0167V48.0168V48.0168V48.0169V48.017V48.017V48.0171V48.0171V48.0172V48.0172V48.0173V48.0173V48.0174V48.0174V48.0175V48.0175V48.0176V48.0177V48.0177V48.0178V48.0178V48.0179V48.0179V48.018V48.018V48.0181V48.0181V48.0182V48.0182V48.0183V48.0184V48.0184V48.0185V48.0185V48.0186V48.0186V48.0187V48.0187V48.0188V48.0189V48.0189V48.019V48.019V48.0191V48.0191V48.0192V48.0192V48.0193V48.0193V48.0194V48.0195V48.0195V48.0196V48.0196V48.0197V48.0197V48.0198V48.0198V48.0199V48.02V48.02V48.0201V48.0201V48.0202V48.0202V48.0203V48.0204V48.0204V48.0205V48.0205V48.0206V48.0206V48.0207V48.0207V48.0208V48.0209V48.0209V48.021V48.021V48.0211V48.0211V48.0212V48.0213V48.0213V48.0214V48.0214V48.0215V48.0215V48.0216V48.0216V48.0217V48.0218V48.0218V48.0219V48.0219V48.022V48.022V48.0221V48.0222V48.0222V48.0223V48.0223V48.0224V48.0224V48.0225V48.0226V48.0226V48.0227V48.0227V48.0228V48.0228V48.0229V48.023V48.023V48.0231V48.0231V48.0232V48.0232V48.0233V48.0234V48.0234V48.0235V48.0235V48.0236V48.0236V48.0237V48.0238V48.0238V48.0239V48.0239V48.024V48.024V48.0241V48.0242V48.0242V48.0243V48.0243V48.0244C51.5 48.2733 51.2856 48.5 51 48.5C50.7144 48.5 50.5 48.2733 50.5 48.0244Z" stroke="#FAED00"/>
<path d="M50.5 48.0244V48.0243V48.0243V48.0242V48.0242V48.0241V48.024V48.024V48.0239V48.0239V48.0238V48.0237V48.0237V48.0236V48.0236V48.0235V48.0234V48.0234V48.0233V48.0233V48.0232V48.0231V48.0231V48.023V48.023V48.0229V48.0228V48.0228V48.0227V48.0226V48.0226V48.0225V48.0224V48.0224V48.0223V48.0223V48.0222V48.0221V48.0221V48.022V48.0219V48.0219V48.0218V48.0217V48.0217V48.0216V48.0215V48.0215V48.0214V48.0213V48.0213V48.0212V48.0211V48.0211V48.021V48.0209V48.0209V48.0208V48.0207V48.0207V48.0206V48.0205V48.0204V48.0204V48.0203V48.0202V48.0202V48.0201V48.02V48.02V48.0199V48.0198V48.0197V48.0197V48.0196V48.0195V48.0195V48.0194V48.0193V48.0192V48.0192V48.0191V48.019V48.019V48.0189V48.0188V48.0187V48.0187V48.0186V48.0185V48.0184V48.0184V48.0183V48.0182V48.0181V48.0181V48.018V48.0179V48.0178V48.0178V48.0177V48.0176V48.0175V48.0175V48.0174V48.0173V48.0172V48.0172V48.0171V48.017V48.0169V48.0169V48.0168V48.0167V48.0166V48.0166V48.0165V48.0164V48.0163V48.0162V48.0162V48.0161V48.016V48.0159V48.0159V48.0158V48.0157V48.0156V48.0155V48.0155V48.0154V48.0153V48.0152V48.0152V48.0151V48.015V48.0149V48.0148V48.0148V48.0147V48.0146V48.0145V48.0144V48.0144V48.0143V48.0142V48.0141V48.014V48.014V48.0139V48.0138V48.0137V48.0136V48.0135V48.0135V48.0134V48.0133V48.0132V48.0131V48.0131V48.013V48.0129V48.0128V48.0127V48.0127V48.0126V48.0125V48.0124V48.0123V48.0122V48.0122V48.0121V48.012V48.0119V48.0118V48.0117V48.0117V48.0116V48.0115V48.0114V48.0113V48.0112V48.0112V48.0111V48.011V48.0109V48.0108V48.0107V48.0107V48.0106V48.0105V48.0104V48.0103V48.0102V48.0102V48.0101V48.01V48.0099V48.0098V48.0097V48.0097V48.0096V48.0095V48.0094V48.0093V48.0092V48.0091V48.0091V48.009V48.0089V48.0088V48.0087V48.0086V48.0086V48.0085V48.0084V48.0083V48.0082V48.0081V48.008V48.008V48.0079V48.0078V48.0077V48.0076V48.0075V48.0074V48.0074V48.0073V48.0072V48.0071V48.007V48.0069V48.0069V48.0068V48.0067V48.0066V48.0065V48.0064V48.0063V48.0063V48.0062V48.0061V48.006V48.0059V48.0058V48.0057V48.0057V48.0056V48.0055V48.0054V48.0053V48.0052V48.0051V48.0051V48.005V48.0049V48.0048V48.0047V48.0046V48.0045V48.0045V48.0044V48.0043V48.0042V48.0041V48.004V48.0039V48.0039V48.0038V48.0037V48.0036V48.0035V48.0034V48.0033V48.0033V48.0032V48.0031V48.003V48.0029V48.0028V48.0027V48.0027V48.0026V48.0025V48.0024V48.0023V48.0022V48.0021V48.0021V48.002V48.0019V48.0018V48.0017V48.0016V48.0015V48.0015V48.0014V48.0013V48.0012V48.0011V48.001V48.001V48.0009V48.0008V48.0007V48.0006V48.0005V48.0004V48.0004V48.0003V48.0002V48.0001V48V47.9999V47.9999V47.9998V47.9997V47.9996V47.9995V47.9994V47.9994V47.9993V47.9992V47.9991V47.999V47.9989V47.9989V47.9988V47.9987V47.9986V47.9985V47.9984V47.9984V47.9983V47.9982V47.9981V47.998V47.9979V47.9979V47.9978V47.9977V47.9976V47.9975V47.9974V47.9974V47.9973V47.9972V47.9971V47.997V47.9969V47.9969V47.9968V47.9967V47.9966V47.9965V47.9965V47.9964V47.9963V47.9962V47.9961V47.9961V47.996V47.9959V47.9958V47.9957V47.9957V47.9956V47.9955V47.9954V47.9953V47.9952V47.9952V47.9951V47.995V47.9949V47.9949V47.9948V47.9947V47.9946V47.9945V47.9945V47.9944V47.9943V47.9942V47.9941V47.9941V47.994V47.9939V47.9938V47.9938V47.9937V47.9936V47.9935V47.9934V47.9934V47.9933V47.9932V47.9931V47.9931V47.993V47.9929V47.9928V47.9927V47.9927V47.9926V47.9925V47.9924V47.9924V47.9923V47.9922V47.9921V47.9921V47.992V47.9919V47.9918V47.9918V47.9917V47.9916V47.9915V47.9915V47.9914V47.9913V47.9912V47.9912V47.9911V47.991V47.991V47.9909V47.9908V47.9907V47.9907V47.9906V47.9905V47.9904V47.9904V47.9903V47.9902V47.9902V47.9901V47.99V47.9899V47.9899V47.9898V47.9897V47.9897V47.9896V47.9895V47.9895V47.9894V47.9893V47.9892V47.9892V47.9891V47.989V47.989V47.9889V47.9888V47.9888V47.9887V47.9886V47.9886V47.9885V47.9884V47.9884V47.9883V47.9882V47.9882V47.9881V47.988V47.988V47.9879V47.9878V47.9878V47.9877V47.9876V47.9876V47.9875V47.9874V47.9874V47.9873V47.9873V47.9872V47.9871V47.9871V47.987V47.9869V47.9869V47.9868V47.9868V47.9867V47.9866V47.9866V47.9865V47.9864V47.9864V47.9863V47.9863V47.9862V47.9861V47.9861V47.986V47.986V47.9859V47.9858V47.9858V47.9857V47.9857V47.9856V47.9856V47.9855V47.9854V47.9854C50.5 47.7359 50.7061 47.5074 51.0043 47.5C51.2877 47.5023 51.5 47.728 51.5 47.9756V47.9757V47.9757V47.9758V47.9758V47.9759V47.976V47.976V47.9761V47.9761V47.9762V47.9762V47.9763V47.9764V47.9764V47.9765V47.9765V47.9766V47.9766V47.9767V47.9768V47.9768V47.9769V47.9769V47.977V47.977V47.9771V47.9772V47.9772V47.9773V47.9773V47.9774V47.9774V47.9775V47.9776V47.9776V47.9777V47.9777V47.9778V47.9778V47.9779V47.978V47.978V47.9781V47.9781V47.9782V47.9782V47.9783V47.9784V47.9784V47.9785V47.9785V47.9786V47.9786V47.9787V47.9788V47.9788V47.9789V47.9789V47.979V47.979V47.9791V47.9792V47.9792V47.9793V47.9793V47.9794V47.9794V47.9795V47.9796V47.9796V47.9797V47.9797V47.9798V47.9798V47.9799V47.98V47.98V47.9801V47.9801V47.9802V47.9802V47.9803V47.9804V47.9804V47.9805V47.9805V47.9806V47.9806V47.9807V47.9808V47.9808V47.9809V47.9809V47.981V47.981V47.9811V47.9812V47.9812V47.9813V47.9813V47.9814V47.9814V47.9815V47.9816V47.9816V47.9817V47.9817V47.9818V47.9818V47.9819V47.982V47.982V47.9821V47.9821V47.9822V47.9822V47.9823V47.9824V47.9824V47.9825V47.9825V47.9826V47.9826V47.9827V47.9828V47.9828V47.9829V47.9829V47.983V47.983V47.9831V47.9832V47.9832V47.9833V47.9833V47.9834V47.9834V47.9835V47.9836V47.9836V47.9837V47.9837V47.9838V47.9838V47.9839V47.984V47.984V47.9841V47.9841V47.9842V47.9842V47.9843V47.9844V47.9844V47.9845V47.9845V47.9846V47.9846V47.9847V47.9848V47.9848V47.9849V47.9849V47.985V47.985V47.9851V47.9852V47.9852V47.9853V47.9853V47.9854V47.9854V47.9855V47.9856V47.9856V47.9857V47.9857V47.9858V47.9858V47.9859V47.986V47.986V47.9861V47.9861V47.9862V47.9862V47.9863V47.9864V47.9864V47.9865V47.9865V47.9866V47.9866V47.9867V47.9868V47.9868V47.9869V47.9869V47.987V47.987V47.9871V47.9872V47.9872V47.9873V47.9873V47.9874V47.9874V47.9875V47.9876V47.9876V47.9877V47.9877V47.9878V47.9878V47.9879V47.988V47.988V47.9881V47.9881V47.9882V47.9882V47.9883V47.9884V47.9884V47.9885V47.9885V47.9886V47.9886V47.9887V47.9888V47.9888V47.9889V47.9889V47.989V47.989V47.9891V47.9892V47.9892V47.9893V47.9893V47.9894V47.9894V47.9895V47.9896V47.9896V47.9897V47.9897V47.9898V47.9898V47.9899V47.99V47.99V47.9901V47.9901V47.9902V47.9902V47.9903V47.9904V47.9904V47.9905V47.9905V47.9906V47.9906V47.9907V47.9908V47.9908V47.9909V47.9909V47.991V47.991V47.9911V47.9912V47.9912V47.9913V47.9913V47.9914V47.9914V47.9915V47.9916V47.9916V47.9917V47.9917V47.9918V47.9918V47.9919V47.992V47.992V47.9921V47.9921V47.9922V47.9922V47.9923V47.9924V47.9924V47.9925V47.9925V47.9926V47.9926V47.9927V47.9928V47.9928V47.9929V47.9929V47.993V47.9931V47.9931V47.9932V47.9932V47.9933V47.9933V47.9934V47.9935V47.9935V47.9936V47.9936V47.9937V47.9937V47.9938V47.9939V47.9939V47.994V47.994V47.9941V47.9941V47.9942V47.9943V47.9943V47.9944V47.9944V47.9945V47.9945V47.9946V47.9947V47.9947V47.9948V47.9948V47.9949V47.9949V47.995V47.9951V47.9951V47.9952V47.9952V47.9953V47.9953V47.9954V47.9955V47.9955V47.9956V47.9956V47.9957V47.9957V47.9958V47.9959V47.9959V47.996V47.996V47.9961V47.9961V47.9962V47.9963V47.9963V47.9964V47.9964V47.9965V47.9965V47.9966V47.9967V47.9967V47.9968V47.9968V47.9969V47.9969V47.997V47.9971V47.9971V47.9972V47.9972V47.9973V47.9973V47.9974V47.9975V47.9975V47.9976V47.9976V47.9977V47.9977V47.9978V47.9979V47.9979V47.998V47.998V47.9981V47.9981V47.9982V47.9983V47.9983V47.9984V47.9984V47.9985V47.9985V47.9986V47.9987V47.9987V47.9988V47.9988V47.9989V47.9989V47.999V47.9991V47.9991V47.9992V47.9992V47.9993V47.9993V47.9994V47.9995V47.9995V47.9996V47.9996V47.9997V47.9997V47.9998V47.9999V47.9999V48V48V48.0001V48.0001V48.0002V48.0003V48.0003V48.0004V48.0004V48.0005V48.0005V48.0006V48.0007V48.0007V48.0008V48.0008V48.0009V48.0009V48.001V48.0011V48.0011V48.0012V48.0012V48.0013V48.0013V48.0014V48.0015V48.0015V48.0016V48.0016V48.0017V48.0017V48.0018V48.0019V48.0019V48.002V48.002V48.0021V48.0021V48.0022V48.0023V48.0023V48.0024V48.0024V48.0025V48.0025V48.0026V48.0027V48.0027V48.0028V48.0028V48.0029V48.0029V48.003V48.0031V48.0031V48.0032V48.0032V48.0033V48.0033V48.0034V48.0035V48.0035V48.0036V48.0036V48.0037V48.0037V48.0038V48.0039V48.0039V48.004V48.004V48.0041V48.0041V48.0042V48.0043V48.0043V48.0044V48.0044V48.0045V48.0045V48.0046V48.0047V48.0047V48.0048V48.0048V48.0049V48.0049V48.0049V48.0049V48.0049V48.0049V48.0049V48.0049V48.0049V48.0049V48.0049V48.0049V48.0049V48.0049V48.0049V48.0049V48.0049V48.0049V48.0049V48.0049V48.0049V48.0049V48.005V48.005V48.005V48.005V48.005V48.005V48.005V48.005V48.005V48.005V48.005V48.005V48.005V48.005V48.005V48.0051V48.0051V48.0051V48.0051V48.0051V48.0051V48.0051V48.0051V48.0051V48.0051V48.0052V48.0052V48.0052V48.0052V48.0052V48.0052V48.0052V48.0052V48.0052V48.0053V48.0053V48.0053V48.0053V48.0053V48.0053V48.0053V48.0053V48.0054V48.0054V48.0054V48.0054V48.0054V48.0054V48.0054V48.0055V48.0055V48.0055V48.0055V48.0055V48.0055V48.0056V48.0056V48.0056V48.0056V48.0056V48.0056V48.0057V48.0057V48.0057V48.0057V48.0057V48.0058V48.0058V48.0058V48.0058V48.0058V48.0058V48.0059V48.0059V48.0059V48.0059V48.0059V48.006V48.006V48.006V48.006V48.006V48.0061V48.0061V48.0061V48.0061V48.0062V48.0062V48.0062V48.0062V48.0062V48.0063V48.0063V48.0063V48.0063V48.0064V48.0064V48.0064V48.0064V48.0065V48.0065V48.0065V48.0065V48.0066V48.0066V48.0066V48.0066V48.0067V48.0067V48.0067V48.0067V48.0068V48.0068V48.0068V48.0068V48.0069V48.0069V48.0069V48.007V48.007V48.007V48.007V48.0071V48.0071V48.0071V48.0071V48.0072V48.0072V48.0072V48.0073V48.0073V48.0073V48.0074V48.0074V48.0074V48.0074V48.0075V48.0075V48.0075V48.0076V48.0076V48.0076V48.0077V48.0077V48.0077V48.0077V48.0078V48.0078V48.0078V48.0079V48.0079V48.0079V48.008V48.008V48.008V48.0081V48.0081V48.0081V48.0082V48.0082V48.0082V48.0083V48.0083V48.0083V48.0084V48.0084V48.0084V48.0085V48.0085V48.0086V48.0086V48.0086V48.0087V48.0087V48.0087V48.0088V48.0088V48.0088V48.0089V48.0089V48.0089V48.009V48.009V48.0091V48.0091V48.0091V48.0092V48.0092V48.0092V48.0093V48.0093V48.0094V48.0094V48.0094V48.0095V48.0095V48.0095V48.0096V48.0096V48.0097V48.0097V48.0097V48.0098V48.0098V48.0099V48.0099V48.0099V48.01V48.01V48.0101V48.0101V48.0101V48.0102V48.0102V48.0103V48.0103V48.0103V48.0104V48.0104V48.0105V48.0105V48.0106V48.0106V48.0106V48.0107V48.0107V48.0108V48.0108V48.0108V48.0109V48.0109V48.011V48.011V48.0111V48.0111V48.0111V48.0112V48.0112V48.0113V48.0113V48.0114V48.0114V48.0115V48.0115V48.0115V48.0116V48.0116V48.0117V48.0117V48.0118V48.0118V48.0119V48.0119V48.0119V48.012V48.012V48.0121V48.0121V48.0122V48.0122V48.0123V48.0123V48.0124V48.0124V48.0124V48.0125V48.0125V48.0126V48.0126V48.0127V48.0127V48.0128V48.0128V48.0129V48.0129V48.013V48.013V48.0131V48.0131V48.0132V48.0132V48.0132V48.0133V48.0133V48.0134V48.0134V48.0135V48.0135V48.0136V48.0136V48.0137V48.0137V48.0138V48.0138V48.0139V48.0139V48.014V48.014V48.0141V48.0141V48.0142V48.0142V48.0143V48.0143V48.0144V48.0144V48.0145V48.0145V48.0146V48.0146V48.0147V48.0147V48.0148V48.0148V48.0149V48.0149V48.015V48.015V48.0151V48.0151V48.0152V48.0152V48.0153V48.0153V48.0154V48.0154V48.0155V48.0155V48.0156V48.0156V48.0157V48.0157V48.0158V48.0158V48.0159V48.016V48.016V48.0161V48.0161V48.0162V48.0162V48.0163V48.0163V48.0164V48.0164V48.0165V48.0165V48.0166V48.0166V48.0167V48.0167V48.0168V48.0168V48.0169V48.017V48.017V48.0171V48.0171V48.0172V48.0172V48.0173V48.0173V48.0174V48.0174V48.0175V48.0175V48.0176V48.0177V48.0177V48.0178V48.0178V48.0179V48.0179V48.018V48.018V48.0181V48.0181V48.0182V48.0182V48.0183V48.0184V48.0184V48.0185V48.0185V48.0186V48.0186V48.0187V48.0187V48.0188V48.0189V48.0189V48.019V48.019V48.0191V48.0191V48.0192V48.0192V48.0193V48.0193V48.0194V48.0195V48.0195V48.0196V48.0196V48.0197V48.0197V48.0198V48.0198V48.0199V48.02V48.02V48.0201V48.0201V48.0202V48.0202V48.0203V48.0204V48.0204V48.0205V48.0205V48.0206V48.0206V48.0207V48.0207V48.0208V48.0209V48.0209V48.021V48.021V48.0211V48.0211V48.0212V48.0213V48.0213V48.0214V48.0214V48.0215V48.0215V48.0216V48.0216V48.0217V48.0218V48.0218V48.0219V48.0219V48.022V48.022V48.0221V48.0222V48.0222V48.0223V48.0223V48.0224V48.0224V48.0225V48.0226V48.0226V48.0227V48.0227V48.0228V48.0228V48.0229V48.023V48.023V48.0231V48.0231V48.0232V48.0232V48.0233V48.0234V48.0234V48.0235V48.0235V48.0236V48.0236V48.0237V48.0238V48.0238V48.0239V48.0239V48.024V48.024V48.0241V48.0242V48.0242V48.0243V48.0243V48.0244C51.5 48.2733 51.2856 48.5 51 48.5C50.7144 48.5 50.5 48.2733 50.5 48.0244Z" stroke="url(#paint22_linear)"/>
<path d="M50.1779 51.5331L50.1809 51.5343C50.4411 51.6344 50.5652 51.9228 50.4656 52.1767L50.4656 52.1767L50.463 52.1837C50.3901 52.3781 50.204 52.5 50 52.5C49.9374 52.5 49.8837 52.49 49.8319 52.4684L49.8216 52.4641L49.8112 52.4603C49.5654 52.3705 49.4315 52.0907 49.535 51.8194C49.637 51.5615 49.9301 51.436 50.1779 51.5331Z" fill="url(#paint23_linear)" fill-opacity="0.8"/>
<path d="M50.1779 51.5331L50.1809 51.5343C50.4411 51.6344 50.5652 51.9228 50.4656 52.1767L50.4656 52.1767L50.463 52.1837C50.3901 52.3781 50.204 52.5 50 52.5C49.9374 52.5 49.8837 52.49 49.8319 52.4684L49.8216 52.4641L49.8112 52.4603C49.5654 52.3705 49.4315 52.0907 49.535 51.8194C49.637 51.5615 49.9301 51.436 50.1779 51.5331Z" stroke="#FAED00"/>
<path d="M50.1779 51.5331L50.1809 51.5343C50.4411 51.6344 50.5652 51.9228 50.4656 52.1767L50.4656 52.1767L50.463 52.1837C50.3901 52.3781 50.204 52.5 50 52.5C49.9374 52.5 49.8837 52.49 49.8319 52.4684L49.8216 52.4641L49.8112 52.4603C49.5654 52.3705 49.4315 52.0907 49.535 51.8194C49.637 51.5615 49.9301 51.436 50.1779 51.5331Z" stroke="url(#paint24_linear)"/>
<path d="M50.4681 43.8202C50.5631 44.0756 50.4372 44.358 50.1927 44.4604C50.1028 44.4895 50.0451 44.5 49.9956 44.5C49.8016 44.5 49.6172 44.3857 49.5334 44.1782C49.4373 43.9308 49.5554 43.6408 49.8215 43.5319C50.0632 43.4387 50.3568 43.5582 50.4681 43.8202Z" fill="url(#paint25_linear)" fill-opacity="0.8"/>
<path d="M50.4681 43.8202C50.5631 44.0756 50.4372 44.358 50.1927 44.4604C50.1028 44.4895 50.0451 44.5 49.9956 44.5C49.8016 44.5 49.6172 44.3857 49.5334 44.1782C49.4373 43.9308 49.5554 43.6408 49.8215 43.5319C50.0632 43.4387 50.3568 43.5582 50.4681 43.8202Z" stroke="#FAED00"/>
<path d="M50.4681 43.8202C50.5631 44.0756 50.4372 44.358 50.1927 44.4604C50.1028 44.4895 50.0451 44.5 49.9956 44.5C49.8016 44.5 49.6172 44.3857 49.5334 44.1782C49.4373 43.9308 49.5554 43.6408 49.8215 43.5319C50.0632 43.4387 50.3568 43.5582 50.4681 43.8202Z" stroke="url(#paint26_linear)"/>
<path d="M30.005 54.5C29.8587 54.5 29.721 54.4388 29.6235 54.3261L29.5762 54.2522C29.434 54.0303 29.4941 53.7301 29.7401 53.5714C29.9714 53.4316 30.2734 53.503 30.4198 53.7393L30.4196 53.7394L30.4265 53.7499C30.5655 53.9622 30.5034 54.2669 30.2631 54.4147L30.2525 54.4211L30.2424 54.4281C30.1712 54.4769 30.0911 54.5 30.005 54.5Z" fill="url(#paint27_linear)" fill-opacity="0.8"/>
<path d="M30.005 54.5C29.8587 54.5 29.721 54.4388 29.6235 54.3261L29.5762 54.2522C29.434 54.0303 29.4941 53.7301 29.7401 53.5714C29.9714 53.4316 30.2734 53.503 30.4198 53.7393L30.4196 53.7394L30.4265 53.7499C30.5655 53.9622 30.5034 54.2669 30.2631 54.4147L30.2525 54.4211L30.2424 54.4281C30.1712 54.4769 30.0911 54.5 30.005 54.5Z" stroke="#FAED00"/>
<path d="M30.005 54.5C29.8587 54.5 29.721 54.4388 29.6235 54.3261L29.5762 54.2522C29.434 54.0303 29.4941 53.7301 29.7401 53.5714C29.9714 53.4316 30.2734 53.503 30.4198 53.7393L30.4196 53.7394L30.4265 53.7499C30.5655 53.9622 30.5034 54.2669 30.2631 54.4147L30.2525 54.4211L30.2424 54.4281C30.1712 54.4769 30.0911 54.5 30.005 54.5Z" stroke="url(#paint28_linear)"/>
<path d="M28 46.5C27.9884 46.5 27.9699 46.4981 27.9066 46.4876C27.6359 46.4355 27.4591 46.1747 27.5084 45.9092C27.5586 45.6386 27.8205 45.4586 28.0897 45.5084C28.3623 45.5588 28.5409 45.8204 28.4917 46.0869C28.4453 46.3327 28.2391 46.5 28 46.5Z" fill="url(#paint29_linear)" fill-opacity="0.8"/>
<path d="M28 46.5C27.9884 46.5 27.9699 46.4981 27.9066 46.4876C27.6359 46.4355 27.4591 46.1747 27.5084 45.9092C27.5586 45.6386 27.8205 45.4586 28.0897 45.5084C28.3623 45.5588 28.5409 45.8204 28.4917 46.0869C28.4453 46.3327 28.2391 46.5 28 46.5Z" stroke="#FAED00"/>
<path d="M28 46.5C27.9884 46.5 27.9699 46.4981 27.9066 46.4876C27.6359 46.4355 27.4591 46.1747 27.5084 45.9092C27.5586 45.6386 27.8205 45.4586 28.0897 45.5084C28.3623 45.5588 28.5409 45.8204 28.4917 46.0869C28.4453 46.3327 28.2391 46.5 28 46.5Z" stroke="url(#paint30_linear)"/>
<path d="M29.7431 42.4259L29.7431 42.4259L29.7407 42.4244C29.4997 42.2759 29.4338 41.9644 29.5709 41.7471L29.571 41.7471L29.5759 41.739C29.7191 41.5021 30.0274 41.4285 30.2665 41.5759C30.4958 41.7173 30.5714 42.0253 30.4252 42.2649C30.3278 42.4169 30.1687 42.5 29.9986 42.5C29.9114 42.5 29.8232 42.4759 29.7431 42.4259Z" fill="url(#paint31_linear)" fill-opacity="0.8"/>
<path d="M29.7431 42.4259L29.7431 42.4259L29.7407 42.4244C29.4997 42.2759 29.4338 41.9644 29.5709 41.7471L29.571 41.7471L29.5759 41.739C29.7191 41.5021 30.0274 41.4285 30.2665 41.5759C30.4958 41.7173 30.5714 42.0253 30.4252 42.2649C30.3278 42.4169 30.1687 42.5 29.9986 42.5C29.9114 42.5 29.8232 42.4759 29.7431 42.4259Z" stroke="#FAED00"/>
<path d="M29.7431 42.4259L29.7431 42.4259L29.7407 42.4244C29.4997 42.2759 29.4338 41.9644 29.5709 41.7471L29.571 41.7471L29.5759 41.739C29.7191 41.5021 30.0274 41.4285 30.2665 41.5759C30.4958 41.7173 30.5714 42.0253 30.4252 42.2649C30.3278 42.4169 30.1687 42.5 29.9986 42.5C29.9114 42.5 29.8232 42.4759 29.7431 42.4259Z" stroke="url(#paint32_linear)"/>
<path d="M32.599 56.7119L32.6046 56.7048L32.61 56.6975C32.7706 56.4788 33.0734 56.4337 33.2982 56.6019L33.2981 56.602L33.3025 56.6051C33.5204 56.7647 33.5668 57.0756 33.3982 57.3001L33.3982 57.3001L33.3945 57.3051C33.3045 57.428 33.1587 57.5 32.9975 57.5C32.9229 57.5 32.8428 57.4812 32.7651 57.4411L32.6968 57.39C32.475 57.2239 32.4387 56.9143 32.599 56.7119Z" fill="url(#paint33_linear)" fill-opacity="0.8"/>
<path d="M32.599 56.7119L32.6046 56.7048L32.61 56.6975C32.7706 56.4788 33.0734 56.4337 33.2982 56.6019L33.2981 56.602L33.3025 56.6051C33.5204 56.7647 33.5668 57.0756 33.3982 57.3001L33.3982 57.3001L33.3945 57.3051C33.3045 57.428 33.1587 57.5 32.9975 57.5C32.9229 57.5 32.8428 57.4812 32.7651 57.4411L32.6968 57.39C32.475 57.2239 32.4387 56.9143 32.599 56.7119Z" stroke="#FAED00"/>
<path d="M32.599 56.7119L32.6046 56.7048L32.61 56.6975C32.7706 56.4788 33.0734 56.4337 33.2982 56.6019L33.2981 56.602L33.3025 56.6051C33.5204 56.7647 33.5668 57.0756 33.3982 57.3001L33.3982 57.3001L33.3945 57.3051C33.3045 57.428 33.1587 57.5 32.9975 57.5C32.9229 57.5 32.8428 57.4812 32.7651 57.4411L32.6968 57.39C32.475 57.2239 32.4387 56.9143 32.599 56.7119Z" stroke="url(#paint34_linear)"/>
<path d="M33.3033 39.39L33.2351 39.4411C33.1574 39.4812 33.0773 39.5 33.0029 39.5C32.8577 39.5 32.7053 39.4321 32.6006 39.2978C32.4333 39.0724 32.4814 38.7605 32.6924 38.6026C32.9192 38.4327 33.2344 38.4809 33.3933 38.6924L33.3933 38.6924L33.3977 38.6981C33.5653 38.9148 33.5219 39.2264 33.3033 39.39Z" fill="url(#paint35_linear)" fill-opacity="0.8"/>
<path d="M33.3033 39.39L33.2351 39.4411C33.1574 39.4812 33.0773 39.5 33.0029 39.5C32.8577 39.5 32.7053 39.4321 32.6006 39.2978C32.4333 39.0724 32.4814 38.7605 32.6924 38.6026C32.9192 38.4327 33.2344 38.4809 33.3933 38.6924L33.3933 38.6924L33.3977 38.6981C33.5653 38.9148 33.5219 39.2264 33.3033 39.39Z" stroke="#FAED00"/>
<path d="M33.3033 39.39L33.2351 39.4411C33.1574 39.4812 33.0773 39.5 33.0029 39.5C32.8577 39.5 32.7053 39.4321 32.6006 39.2978C32.4333 39.0724 32.4814 38.7605 32.6924 38.6026C32.9192 38.4327 33.2344 38.4809 33.3933 38.6924L33.3933 38.6924L33.3977 38.6981C33.5653 38.9148 33.5219 39.2264 33.3033 39.39Z" stroke="url(#paint36_linear)"/>
<path d="M38.875 53.99V53.49H38.375H37.7225C36.4454 53.49 35.5112 52.5801 35.5112 51.58V50.99C35.5112 50.7699 35.7366 50.49 36.1362 50.49C36.5358 50.49 36.7612 50.7699 36.7612 50.99V51.58C36.7612 52.1225 37.2364 52.49 37.7225 52.49H41.2887C41.747 52.49 42.25 52.1473 42.25 51.58C42.25 51.3198 42.1382 51.0861 41.9472 50.9163L36.1309 45.7463L35.7988 46.12L36.1309 45.7463C35.7226 45.3833 35.5 44.8957 35.5 44.41C35.5 43.4071 36.4367 42.4915 37.7079 42.5V42.5H37.7113H38.375H38.875V42V41C38.875 40.7799 39.1004 40.5 39.5 40.5C39.8996 40.5 40.125 40.7799 40.125 41V42V42.5H40.625H41.2775C42.5546 42.5 43.4888 43.4099 43.4888 44.41V45C43.4888 45.2201 43.2634 45.5 42.8638 45.5C42.4642 45.5 42.2388 45.2201 42.2388 45V44.41C42.2388 43.8676 41.7637 43.5 41.2775 43.5H37.7113C37.2529 43.5 36.75 43.8428 36.75 44.41C36.75 44.6703 36.8618 44.9039 37.0528 45.0737L37.385 44.7L37.0528 45.0737L42.8691 50.2437C43.2774 50.6067 43.5 51.0943 43.5 51.58C43.5 52.5801 42.5659 53.49 41.2887 53.49H40.625H40.125V53.99V55C40.125 55.2201 39.8996 55.5 39.5 55.5C39.1004 55.5 38.875 55.2201 38.875 55V53.99Z" fill="url(#paint37_linear)" fill-opacity="0.8"/>
<path d="M38.875 53.99V53.49H38.375H37.7225C36.4454 53.49 35.5112 52.5801 35.5112 51.58V50.99C35.5112 50.7699 35.7366 50.49 36.1362 50.49C36.5358 50.49 36.7612 50.7699 36.7612 50.99V51.58C36.7612 52.1225 37.2364 52.49 37.7225 52.49H41.2887C41.747 52.49 42.25 52.1473 42.25 51.58C42.25 51.3198 42.1382 51.0861 41.9472 50.9163L36.1309 45.7463L35.7988 46.12L36.1309 45.7463C35.7226 45.3833 35.5 44.8957 35.5 44.41C35.5 43.4071 36.4367 42.4915 37.7079 42.5V42.5H37.7113H38.375H38.875V42V41C38.875 40.7799 39.1004 40.5 39.5 40.5C39.8996 40.5 40.125 40.7799 40.125 41V42V42.5H40.625H41.2775C42.5546 42.5 43.4888 43.4099 43.4888 44.41V45C43.4888 45.2201 43.2634 45.5 42.8638 45.5C42.4642 45.5 42.2388 45.2201 42.2388 45V44.41C42.2388 43.8676 41.7637 43.5 41.2775 43.5H37.7113C37.2529 43.5 36.75 43.8428 36.75 44.41C36.75 44.6703 36.8618 44.9039 37.0528 45.0737L37.385 44.7L37.0528 45.0737L42.8691 50.2437C43.2774 50.6067 43.5 51.0943 43.5 51.58C43.5 52.5801 42.5659 53.49 41.2887 53.49H40.625H40.125V53.99V55C40.125 55.2201 39.8996 55.5 39.5 55.5C39.1004 55.5 38.875 55.2201 38.875 55V53.99Z" stroke="#FAED00"/>
<path d="M38.875 53.99V53.49H38.375H37.7225C36.4454 53.49 35.5112 52.5801 35.5112 51.58V50.99C35.5112 50.7699 35.7366 50.49 36.1362 50.49C36.5358 50.49 36.7612 50.7699 36.7612 50.99V51.58C36.7612 52.1225 37.2364 52.49 37.7225 52.49H41.2887C41.747 52.49 42.25 52.1473 42.25 51.58C42.25 51.3198 42.1382 51.0861 41.9472 50.9163L36.1309 45.7463L35.7988 46.12L36.1309 45.7463C35.7226 45.3833 35.5 44.8957 35.5 44.41C35.5 43.4071 36.4367 42.4915 37.7079 42.5V42.5H37.7113H38.375H38.875V42V41C38.875 40.7799 39.1004 40.5 39.5 40.5C39.8996 40.5 40.125 40.7799 40.125 41V42V42.5H40.625H41.2775C42.5546 42.5 43.4888 43.4099 43.4888 44.41V45C43.4888 45.2201 43.2634 45.5 42.8638 45.5C42.4642 45.5 42.2388 45.2201 42.2388 45V44.41C42.2388 43.8676 41.7637 43.5 41.2775 43.5H37.7113C37.2529 43.5 36.75 43.8428 36.75 44.41C36.75 44.6703 36.8618 44.9039 37.0528 45.0737L37.385 44.7L37.0528 45.0737L42.8691 50.2437C43.2774 50.6067 43.5 51.0943 43.5 51.58C43.5 52.5801 42.5659 53.49 41.2887 53.49H40.625H40.125V53.99V55C40.125 55.2201 39.8996 55.5 39.5 55.5C39.1004 55.5 38.875 55.2201 38.875 55V53.99Z" stroke="url(#paint38_linear)"/>
<defs>
<linearGradient id="paint0_linear" x1="19.6072" y1="1" x2="19.6072" y2="48.2377" gradientUnits="userSpaceOnUse">
<stop stop-color="#00C86A"/>
<stop offset="1" stop-color="white" stop-opacity="0"/>
</linearGradient>
<linearGradient id="paint1_linear" x1="39.5" y1="32" x2="39.5" y2="64" gradientUnits="userSpaceOnUse">
<stop stop-color="#0066FF"/>
<stop offset="0.0666667" stop-color="#0167FE"/>
<stop offset="0.133333" stop-color="#026AFC"/>
<stop offset="0.2" stop-color="#0570F9"/>
<stop offset="0.266667" stop-color="#0A78F4"/>
<stop offset="0.333333" stop-color="#0F83EE"/>
<stop offset="0.4" stop-color="#168FE6"/>
<stop offset="0.466667" stop-color="#1D9DDE"/>
<stop offset="0.533333" stop-color="#25ACD5"/>
<stop offset="0.6" stop-color="#2CBACD"/>
<stop offset="0.666667" stop-color="#33C6C5"/>
<stop offset="0.733333" stop-color="#38D1BF"/>
<stop offset="0.8" stop-color="#3DD9BA"/>
<stop offset="0.866667" stop-color="#40DFB7"/>
<stop offset="0.933333" stop-color="#41E2B5"/>
<stop offset="1" stop-color="#42E3B4"/>
</linearGradient>
<linearGradient id="paint2_linear" x1="39.5" y1="32" x2="39.5" y2="64" gradientUnits="userSpaceOnUse">
<stop stop-color="#00C86A"/>
<stop offset="1" stop-color="white" stop-opacity="0"/>
</linearGradient>
<linearGradient id="paint3_linear" x1="41" y1="36" x2="41" y2="38" gradientUnits="userSpaceOnUse">
<stop stop-color="#0066FF"/>
<stop offset="0.0666667" stop-color="#0167FE"/>
<stop offset="0.133333" stop-color="#026AFC"/>
<stop offset="0.2" stop-color="#0570F9"/>
<stop offset="0.266667" stop-color="#0A78F4"/>
<stop offset="0.333333" stop-color="#0F83EE"/>
<stop offset="0.4" stop-color="#168FE6"/>
<stop offset="0.466667" stop-color="#1D9DDE"/>
<stop offset="0.533333" stop-color="#25ACD5"/>
<stop offset="0.6" stop-color="#2CBACD"/>
<stop offset="0.666667" stop-color="#33C6C5"/>
<stop offset="0.733333" stop-color="#38D1BF"/>
<stop offset="0.8" stop-color="#3DD9BA"/>
<stop offset="0.866667" stop-color="#40DFB7"/>
<stop offset="0.933333" stop-color="#41E2B5"/>
<stop offset="1" stop-color="#42E3B4"/>
</linearGradient>
<linearGradient id="paint4_linear" x1="41" y1="36" x2="41" y2="38" gradientUnits="userSpaceOnUse">
<stop stop-color="#00C86A"/>
<stop offset="1" stop-color="white" stop-opacity="0"/>
</linearGradient>
<linearGradient id="paint5_linear" x1="48" y1="39" x2="48" y2="41" gradientUnits="userSpaceOnUse">
<stop stop-color="#0066FF"/>
<stop offset="0.0666667" stop-color="#0167FE"/>
<stop offset="0.133333" stop-color="#026AFC"/>
<stop offset="0.2" stop-color="#0570F9"/>
<stop offset="0.266667" stop-color="#0A78F4"/>
<stop offset="0.333333" stop-color="#0F83EE"/>
<stop offset="0.4" stop-color="#168FE6"/>
<stop offset="0.466667" stop-color="#1D9DDE"/>
<stop offset="0.533333" stop-color="#25ACD5"/>
<stop offset="0.6" stop-color="#2CBACD"/>
<stop offset="0.666667" stop-color="#33C6C5"/>
<stop offset="0.733333" stop-color="#38D1BF"/>
<stop offset="0.8" stop-color="#3DD9BA"/>
<stop offset="0.866667" stop-color="#40DFB7"/>
<stop offset="0.933333" stop-color="#41E2B5"/>
<stop offset="1" stop-color="#42E3B4"/>
</linearGradient>
<linearGradient id="paint6_linear" x1="48" y1="39" x2="48" y2="41" gradientUnits="userSpaceOnUse">
<stop stop-color="#00C86A"/>
<stop offset="1" stop-color="white" stop-opacity="0"/>
</linearGradient>
<linearGradient id="paint7_linear" x1="48" y1="55" x2="48" y2="57" gradientUnits="userSpaceOnUse">
<stop stop-color="#0066FF"/>
<stop offset="0.0666667" stop-color="#0167FE"/>
<stop offset="0.133333" stop-color="#026AFC"/>
<stop offset="0.2" stop-color="#0570F9"/>
<stop offset="0.266667" stop-color="#0A78F4"/>
<stop offset="0.333333" stop-color="#0F83EE"/>
<stop offset="0.4" stop-color="#168FE6"/>
<stop offset="0.466667" stop-color="#1D9DDE"/>
<stop offset="0.533333" stop-color="#25ACD5"/>
<stop offset="0.6" stop-color="#2CBACD"/>
<stop offset="0.666667" stop-color="#33C6C5"/>
<stop offset="0.733333" stop-color="#38D1BF"/>
<stop offset="0.8" stop-color="#3DD9BA"/>
<stop offset="0.866667" stop-color="#40DFB7"/>
<stop offset="0.933333" stop-color="#41E2B5"/>
<stop offset="1" stop-color="#42E3B4"/>
</linearGradient>
<linearGradient id="paint8_linear" x1="48" y1="55" x2="48" y2="57" gradientUnits="userSpaceOnUse">
<stop stop-color="#00C86A"/>
<stop offset="1" stop-color="white" stop-opacity="0"/>
</linearGradient>
<linearGradient id="paint9_linear" x1="45" y1="37" x2="45" y2="39" gradientUnits="userSpaceOnUse">
<stop stop-color="#0066FF"/>
<stop offset="0.0666667" stop-color="#0167FE"/>
<stop offset="0.133333" stop-color="#026AFC"/>
<stop offset="0.2" stop-color="#0570F9"/>
<stop offset="0.266667" stop-color="#0A78F4"/>
<stop offset="0.333333" stop-color="#0F83EE"/>
<stop offset="0.4" stop-color="#168FE6"/>
<stop offset="0.466667" stop-color="#1D9DDE"/>
<stop offset="0.533333" stop-color="#25ACD5"/>
<stop offset="0.6" stop-color="#2CBACD"/>
<stop offset="0.666667" stop-color="#33C6C5"/>
<stop offset="0.733333" stop-color="#38D1BF"/>
<stop offset="0.8" stop-color="#3DD9BA"/>
<stop offset="0.866667" stop-color="#40DFB7"/>
<stop offset="0.933333" stop-color="#41E2B5"/>
<stop offset="1" stop-color="#42E3B4"/>
</linearGradient>
<linearGradient id="paint10_linear" x1="45" y1="37" x2="45" y2="39" gradientUnits="userSpaceOnUse">
<stop stop-color="#00C86A"/>
<stop offset="1" stop-color="white" stop-opacity="0"/>
</linearGradient>
<linearGradient id="paint11_linear" x1="28" y1="49" x2="28" y2="51" gradientUnits="userSpaceOnUse">
<stop stop-color="#0066FF"/>
<stop offset="0.0666667" stop-color="#0167FE"/>
<stop offset="0.133333" stop-color="#026AFC"/>
<stop offset="0.2" stop-color="#0570F9"/>
<stop offset="0.266667" stop-color="#0A78F4"/>
<stop offset="0.333333" stop-color="#0F83EE"/>
<stop offset="0.4" stop-color="#168FE6"/>
<stop offset="0.466667" stop-color="#1D9DDE"/>
<stop offset="0.533333" stop-color="#25ACD5"/>
<stop offset="0.6" stop-color="#2CBACD"/>
<stop offset="0.666667" stop-color="#33C6C5"/>
<stop offset="0.733333" stop-color="#38D1BF"/>
<stop offset="0.8" stop-color="#3DD9BA"/>
<stop offset="0.866667" stop-color="#40DFB7"/>
<stop offset="0.933333" stop-color="#41E2B5"/>
<stop offset="1" stop-color="#42E3B4"/>
</linearGradient>
<linearGradient id="paint12_linear" x1="28" y1="49" x2="28" y2="51" gradientUnits="userSpaceOnUse">
<stop stop-color="#00C86A"/>
<stop offset="1" stop-color="white" stop-opacity="0"/>
</linearGradient>
<linearGradient id="paint13_linear" x1="45" y1="57" x2="45" y2="59" gradientUnits="userSpaceOnUse">
<stop stop-color="#0066FF"/>
<stop offset="0.0666667" stop-color="#0167FE"/>
<stop offset="0.133333" stop-color="#026AFC"/>
<stop offset="0.2" stop-color="#0570F9"/>
<stop offset="0.266667" stop-color="#0A78F4"/>
<stop offset="0.333333" stop-color="#0F83EE"/>
<stop offset="0.4" stop-color="#168FE6"/>
<stop offset="0.466667" stop-color="#1D9DDE"/>
<stop offset="0.533333" stop-color="#25ACD5"/>
<stop offset="0.6" stop-color="#2CBACD"/>
<stop offset="0.666667" stop-color="#33C6C5"/>
<stop offset="0.733333" stop-color="#38D1BF"/>
<stop offset="0.8" stop-color="#3DD9BA"/>
<stop offset="0.866667" stop-color="#40DFB7"/>
<stop offset="0.933333" stop-color="#41E2B5"/>
<stop offset="1" stop-color="#42E3B4"/>
</linearGradient>
<linearGradient id="paint14_linear" x1="45" y1="57" x2="45" y2="59" gradientUnits="userSpaceOnUse">
<stop stop-color="#00C86A"/>
<stop offset="1" stop-color="white" stop-opacity="0"/>
</linearGradient>
<linearGradient id="paint15_linear" x1="36.5" y1="58" x2="36.5" y2="60" gradientUnits="userSpaceOnUse">
<stop stop-color="#0066FF"/>
<stop offset="0.0666667" stop-color="#0167FE"/>
<stop offset="0.133333" stop-color="#026AFC"/>
<stop offset="0.2" stop-color="#0570F9"/>
<stop offset="0.266667" stop-color="#0A78F4"/>
<stop offset="0.333333" stop-color="#0F83EE"/>
<stop offset="0.4" stop-color="#168FE6"/>
<stop offset="0.466667" stop-color="#1D9DDE"/>
<stop offset="0.533333" stop-color="#25ACD5"/>
<stop offset="0.6" stop-color="#2CBACD"/>
<stop offset="0.666667" stop-color="#33C6C5"/>
<stop offset="0.733333" stop-color="#38D1BF"/>
<stop offset="0.8" stop-color="#3DD9BA"/>
<stop offset="0.866667" stop-color="#40DFB7"/>
<stop offset="0.933333" stop-color="#41E2B5"/>
<stop offset="1" stop-color="#42E3B4"/>
</linearGradient>
<linearGradient id="paint16_linear" x1="36.5" y1="58" x2="36.5" y2="60" gradientUnits="userSpaceOnUse">
<stop stop-color="#00C86A"/>
<stop offset="1" stop-color="white" stop-opacity="0"/>
</linearGradient>
<linearGradient id="paint17_linear" x1="36" y1="36" x2="36" y2="38" gradientUnits="userSpaceOnUse">
<stop stop-color="#0066FF"/>
<stop offset="0.0666667" stop-color="#0167FE"/>
<stop offset="0.133333" stop-color="#026AFC"/>
<stop offset="0.2" stop-color="#0570F9"/>
<stop offset="0.266667" stop-color="#0A78F4"/>
<stop offset="0.333333" stop-color="#0F83EE"/>
<stop offset="0.4" stop-color="#168FE6"/>
<stop offset="0.466667" stop-color="#1D9DDE"/>
<stop offset="0.533333" stop-color="#25ACD5"/>
<stop offset="0.6" stop-color="#2CBACD"/>
<stop offset="0.666667" stop-color="#33C6C5"/>
<stop offset="0.733333" stop-color="#38D1BF"/>
<stop offset="0.8" stop-color="#3DD9BA"/>
<stop offset="0.866667" stop-color="#40DFB7"/>
<stop offset="0.933333" stop-color="#41E2B5"/>
<stop offset="1" stop-color="#42E3B4"/>
</linearGradient>
<linearGradient id="paint18_linear" x1="36" y1="36" x2="36" y2="38" gradientUnits="userSpaceOnUse">
<stop stop-color="#00C86A"/>
<stop offset="1" stop-color="white" stop-opacity="0"/>
</linearGradient>
<linearGradient id="paint19_linear" x1="41" y1="58" x2="41" y2="60" gradientUnits="userSpaceOnUse">
<stop stop-color="#0066FF"/>
<stop offset="0.0666667" stop-color="#0167FE"/>
<stop offset="0.133333" stop-color="#026AFC"/>
<stop offset="0.2" stop-color="#0570F9"/>
<stop offset="0.266667" stop-color="#0A78F4"/>
<stop offset="0.333333" stop-color="#0F83EE"/>
<stop offset="0.4" stop-color="#168FE6"/>
<stop offset="0.466667" stop-color="#1D9DDE"/>
<stop offset="0.533333" stop-color="#25ACD5"/>
<stop offset="0.6" stop-color="#2CBACD"/>
<stop offset="0.666667" stop-color="#33C6C5"/>
<stop offset="0.733333" stop-color="#38D1BF"/>
<stop offset="0.8" stop-color="#3DD9BA"/>
<stop offset="0.866667" stop-color="#40DFB7"/>
<stop offset="0.933333" stop-color="#41E2B5"/>
<stop offset="1" stop-color="#42E3B4"/>
</linearGradient>
<linearGradient id="paint20_linear" x1="41" y1="58" x2="41" y2="60" gradientUnits="userSpaceOnUse">
<stop stop-color="#00C86A"/>
<stop offset="1" stop-color="white" stop-opacity="0"/>
</linearGradient>
<linearGradient id="paint21_linear" x1="51" y1="47" x2="51" y2="49" gradientUnits="userSpaceOnUse">
<stop stop-color="#0066FF"/>
<stop offset="0.0666667" stop-color="#0167FE"/>
<stop offset="0.133333" stop-color="#026AFC"/>
<stop offset="0.2" stop-color="#0570F9"/>
<stop offset="0.266667" stop-color="#0A78F4"/>
<stop offset="0.333333" stop-color="#0F83EE"/>
<stop offset="0.4" stop-color="#168FE6"/>
<stop offset="0.466667" stop-color="#1D9DDE"/>
<stop offset="0.533333" stop-color="#25ACD5"/>
<stop offset="0.6" stop-color="#2CBACD"/>
<stop offset="0.666667" stop-color="#33C6C5"/>
<stop offset="0.733333" stop-color="#38D1BF"/>
<stop offset="0.8" stop-color="#3DD9BA"/>
<stop offset="0.866667" stop-color="#40DFB7"/>
<stop offset="0.933333" stop-color="#41E2B5"/>
<stop offset="1" stop-color="#42E3B4"/>
</linearGradient>
<linearGradient id="paint22_linear" x1="51" y1="47" x2="51" y2="49" gradientUnits="userSpaceOnUse">
<stop stop-color="#00C86A"/>
<stop offset="1" stop-color="white" stop-opacity="0"/>
</linearGradient>
<linearGradient id="paint23_linear" x1="50" y1="51" x2="50" y2="53" gradientUnits="userSpaceOnUse">
<stop stop-color="#0066FF"/>
<stop offset="0.0666667" stop-color="#0167FE"/>
<stop offset="0.133333" stop-color="#026AFC"/>
<stop offset="0.2" stop-color="#0570F9"/>
<stop offset="0.266667" stop-color="#0A78F4"/>
<stop offset="0.333333" stop-color="#0F83EE"/>
<stop offset="0.4" stop-color="#168FE6"/>
<stop offset="0.466667" stop-color="#1D9DDE"/>
<stop offset="0.533333" stop-color="#25ACD5"/>
<stop offset="0.6" stop-color="#2CBACD"/>
<stop offset="0.666667" stop-color="#33C6C5"/>
<stop offset="0.733333" stop-color="#38D1BF"/>
<stop offset="0.8" stop-color="#3DD9BA"/>
<stop offset="0.866667" stop-color="#40DFB7"/>
<stop offset="0.933333" stop-color="#41E2B5"/>
<stop offset="1" stop-color="#42E3B4"/>
</linearGradient>
<linearGradient id="paint24_linear" x1="50" y1="51" x2="50" y2="53" gradientUnits="userSpaceOnUse">
<stop stop-color="#00C86A"/>
<stop offset="1" stop-color="white" stop-opacity="0"/>
</linearGradient>
<linearGradient id="paint25_linear" x1="50" y1="43" x2="50" y2="45" gradientUnits="userSpaceOnUse">
<stop stop-color="#0066FF"/>
<stop offset="0.0666667" stop-color="#0167FE"/>
<stop offset="0.133333" stop-color="#026AFC"/>
<stop offset="0.2" stop-color="#0570F9"/>
<stop offset="0.266667" stop-color="#0A78F4"/>
<stop offset="0.333333" stop-color="#0F83EE"/>
<stop offset="0.4" stop-color="#168FE6"/>
<stop offset="0.466667" stop-color="#1D9DDE"/>
<stop offset="0.533333" stop-color="#25ACD5"/>
<stop offset="0.6" stop-color="#2CBACD"/>
<stop offset="0.666667" stop-color="#33C6C5"/>
<stop offset="0.733333" stop-color="#38D1BF"/>
<stop offset="0.8" stop-color="#3DD9BA"/>
<stop offset="0.866667" stop-color="#40DFB7"/>
<stop offset="0.933333" stop-color="#41E2B5"/>
<stop offset="1" stop-color="#42E3B4"/>
</linearGradient>
<linearGradient id="paint26_linear" x1="50" y1="43" x2="50" y2="45" gradientUnits="userSpaceOnUse">
<stop stop-color="#00C86A"/>
<stop offset="1" stop-color="white" stop-opacity="0"/>
</linearGradient>
<linearGradient id="paint27_linear" x1="30" y1="53" x2="30" y2="55" gradientUnits="userSpaceOnUse">
<stop stop-color="#0066FF"/>
<stop offset="0.0666667" stop-color="#0167FE"/>
<stop offset="0.133333" stop-color="#026AFC"/>
<stop offset="0.2" stop-color="#0570F9"/>
<stop offset="0.266667" stop-color="#0A78F4"/>
<stop offset="0.333333" stop-color="#0F83EE"/>
<stop offset="0.4" stop-color="#168FE6"/>
<stop offset="0.466667" stop-color="#1D9DDE"/>
<stop offset="0.533333" stop-color="#25ACD5"/>
<stop offset="0.6" stop-color="#2CBACD"/>
<stop offset="0.666667" stop-color="#33C6C5"/>
<stop offset="0.733333" stop-color="#38D1BF"/>
<stop offset="0.8" stop-color="#3DD9BA"/>
<stop offset="0.866667" stop-color="#40DFB7"/>
<stop offset="0.933333" stop-color="#41E2B5"/>
<stop offset="1" stop-color="#42E3B4"/>
</linearGradient>
<linearGradient id="paint28_linear" x1="30" y1="53" x2="30" y2="55" gradientUnits="userSpaceOnUse">
<stop stop-color="#00C86A"/>
<stop offset="1" stop-color="white" stop-opacity="0"/>
</linearGradient>
<linearGradient id="paint29_linear" x1="28" y1="45" x2="28" y2="47" gradientUnits="userSpaceOnUse">
<stop stop-color="#0066FF"/>
<stop offset="0.0666667" stop-color="#0167FE"/>
<stop offset="0.133333" stop-color="#026AFC"/>
<stop offset="0.2" stop-color="#0570F9"/>
<stop offset="0.266667" stop-color="#0A78F4"/>
<stop offset="0.333333" stop-color="#0F83EE"/>
<stop offset="0.4" stop-color="#168FE6"/>
<stop offset="0.466667" stop-color="#1D9DDE"/>
<stop offset="0.533333" stop-color="#25ACD5"/>
<stop offset="0.6" stop-color="#2CBACD"/>
<stop offset="0.666667" stop-color="#33C6C5"/>
<stop offset="0.733333" stop-color="#38D1BF"/>
<stop offset="0.8" stop-color="#3DD9BA"/>
<stop offset="0.866667" stop-color="#40DFB7"/>
<stop offset="0.933333" stop-color="#41E2B5"/>
<stop offset="1" stop-color="#42E3B4"/>
</linearGradient>
<linearGradient id="paint30_linear" x1="28" y1="45" x2="28" y2="47" gradientUnits="userSpaceOnUse">
<stop stop-color="#00C86A"/>
<stop offset="1" stop-color="white" stop-opacity="0"/>
</linearGradient>
<linearGradient id="paint31_linear" x1="30" y1="41" x2="30" y2="43" gradientUnits="userSpaceOnUse">
<stop stop-color="#0066FF"/>
<stop offset="0.0666667" stop-color="#0167FE"/>
<stop offset="0.133333" stop-color="#026AFC"/>
<stop offset="0.2" stop-color="#0570F9"/>
<stop offset="0.266667" stop-color="#0A78F4"/>
<stop offset="0.333333" stop-color="#0F83EE"/>
<stop offset="0.4" stop-color="#168FE6"/>
<stop offset="0.466667" stop-color="#1D9DDE"/>
<stop offset="0.533333" stop-color="#25ACD5"/>
<stop offset="0.6" stop-color="#2CBACD"/>
<stop offset="0.666667" stop-color="#33C6C5"/>
<stop offset="0.733333" stop-color="#38D1BF"/>
<stop offset="0.8" stop-color="#3DD9BA"/>
<stop offset="0.866667" stop-color="#40DFB7"/>
<stop offset="0.933333" stop-color="#41E2B5"/>
<stop offset="1" stop-color="#42E3B4"/>
</linearGradient>
<linearGradient id="paint32_linear" x1="30" y1="41" x2="30" y2="43" gradientUnits="userSpaceOnUse">
<stop stop-color="#00C86A"/>
<stop offset="1" stop-color="white" stop-opacity="0"/>
</linearGradient>
<linearGradient id="paint33_linear" x1="33" y1="56" x2="33" y2="58" gradientUnits="userSpaceOnUse">
<stop stop-color="#0066FF"/>
<stop offset="0.0666667" stop-color="#0167FE"/>
<stop offset="0.133333" stop-color="#026AFC"/>
<stop offset="0.2" stop-color="#0570F9"/>
<stop offset="0.266667" stop-color="#0A78F4"/>
<stop offset="0.333333" stop-color="#0F83EE"/>
<stop offset="0.4" stop-color="#168FE6"/>
<stop offset="0.466667" stop-color="#1D9DDE"/>
<stop offset="0.533333" stop-color="#25ACD5"/>
<stop offset="0.6" stop-color="#2CBACD"/>
<stop offset="0.666667" stop-color="#33C6C5"/>
<stop offset="0.733333" stop-color="#38D1BF"/>
<stop offset="0.8" stop-color="#3DD9BA"/>
<stop offset="0.866667" stop-color="#40DFB7"/>
<stop offset="0.933333" stop-color="#41E2B5"/>
<stop offset="1" stop-color="#42E3B4"/>
</linearGradient>
<linearGradient id="paint34_linear" x1="33" y1="56" x2="33" y2="58" gradientUnits="userSpaceOnUse">
<stop stop-color="#00C86A"/>
<stop offset="1" stop-color="white" stop-opacity="0"/>
</linearGradient>
<linearGradient id="paint35_linear" x1="33" y1="38" x2="33" y2="40" gradientUnits="userSpaceOnUse">
<stop stop-color="#0066FF"/>
<stop offset="0.0666667" stop-color="#0167FE"/>
<stop offset="0.133333" stop-color="#026AFC"/>
<stop offset="0.2" stop-color="#0570F9"/>
<stop offset="0.266667" stop-color="#0A78F4"/>
<stop offset="0.333333" stop-color="#0F83EE"/>
<stop offset="0.4" stop-color="#168FE6"/>
<stop offset="0.466667" stop-color="#1D9DDE"/>
<stop offset="0.533333" stop-color="#25ACD5"/>
<stop offset="0.6" stop-color="#2CBACD"/>
<stop offset="0.666667" stop-color="#33C6C5"/>
<stop offset="0.733333" stop-color="#38D1BF"/>
<stop offset="0.8" stop-color="#3DD9BA"/>
<stop offset="0.866667" stop-color="#40DFB7"/>
<stop offset="0.933333" stop-color="#41E2B5"/>
<stop offset="1" stop-color="#42E3B4"/>
</linearGradient>
<linearGradient id="paint36_linear" x1="33" y1="38" x2="33" y2="40" gradientUnits="userSpaceOnUse">
<stop stop-color="#00C86A"/>
<stop offset="1" stop-color="white" stop-opacity="0"/>
</linearGradient>
<linearGradient id="paint37_linear" x1="39.5" y1="40" x2="39.5" y2="56" gradientUnits="userSpaceOnUse">
<stop stop-color="#0066FF"/>
<stop offset="0.0666667" stop-color="#0167FE"/>
<stop offset="0.133333" stop-color="#026AFC"/>
<stop offset="0.2" stop-color="#0570F9"/>
<stop offset="0.266667" stop-color="#0A78F4"/>
<stop offset="0.333333" stop-color="#0F83EE"/>
<stop offset="0.4" stop-color="#168FE6"/>
<stop offset="0.466667" stop-color="#1D9DDE"/>
<stop offset="0.533333" stop-color="#25ACD5"/>
<stop offset="0.6" stop-color="#2CBACD"/>
<stop offset="0.666667" stop-color="#33C6C5"/>
<stop offset="0.733333" stop-color="#38D1BF"/>
<stop offset="0.8" stop-color="#3DD9BA"/>
<stop offset="0.866667" stop-color="#40DFB7"/>
<stop offset="0.933333" stop-color="#41E2B5"/>
<stop offset="1" stop-color="#42E3B4"/>
</linearGradient>
<linearGradient id="paint38_linear" x1="39.5" y1="40" x2="39.5" y2="56" gradientUnits="userSpaceOnUse">
<stop stop-color="#00C86A"/>
<stop offset="1" stop-color="white" stop-opacity="0"/>
</linearGradient>
</defs>
</svg>
