<svg width="57" height="56" viewBox="0 0 57 56" fill="none" xmlns="http://www.w3.org/2000/svg">
  <path
      d="M52.6168 10.5002H42.165V52.3078H38.681V24.4361H28.2291V52.3078H24.7451V17.4681H14.2933V52.3078H10.8093V31.404H3.84138V0.0483398H0.357422V31.404V55.7917H10.8093H14.2933H24.7451H28.2291H38.681H42.165H52.6168H56.1008V52.3078H52.6168V10.5002ZM3.84138 52.2903V34.8705H7.32534V52.2903H3.84138ZM17.7772 52.2903V20.9347H21.2612V52.2903H17.7772ZM31.7131 52.2903V27.9026H35.197V52.2903H31.7131ZM45.6489 52.2903V13.9668H49.1329V52.2903H45.6489Z"
      fill="url(#paint0_linear)"/>
  <defs>
    <linearGradient id="paint0_linear" x1="28.2291" y1="0.0483398" x2="28.2291" y2="55.7917"
                    gradientUnits="userSpaceOnUse">
      <stop offset="0.0847458" stop-color="#42E3B4"/>
      <stop offset="0.966102" stop-color="#FAED00"/>
    </linearGradient>
  </defs>
</svg>
