<svg width="46" height="46" viewBox="0 0 46 46" fill="none" xmlns="http://www.w3.org/2000/svg">
  <path d="M0 34.7914V38.2753H10.4519V34.7914H6.96792V24.3394H10.4519V20.8555H0V24.3394H3.48396V34.7914H0Z"
        fill="url(#paint0_linear)"/>
  <path
      d="M17.437 34.7914V38.2753H27.8889V34.7914H24.3875V24.3394H27.8889V20.8555H17.437V24.3394H20.9035V34.7914H17.437Z"
      fill="url(#paint1_linear)"/>
  <path
      d="M45.3088 24.3394V20.8555H34.8569V24.3394H38.3409V34.7914H34.8569V38.2753H45.3088V34.7914H41.8249V24.3394H45.3088Z"
      fill="url(#paint2_linear)"/>
  <path d="M45.2915 41.7593H0V45.2432H45.2915V41.7593Z" fill="url(#paint3_linear)"/>
  <path
      d="M20.9038 0.944824H20.6076L0.923248 11.4316L0 11.9367V17.633H45.2915V11.8496L24.6316 0.944824H24.3877H20.9038ZM41.8075 13.9574V14.1491H3.48396V14.0097L21.4786 4.42879H23.778L41.8075 13.9574Z"
      fill="url(#paint4_linear)"/>
  <defs>
    <linearGradient id="paint0_linear" x1="5.22594" y1="20.8555" x2="5.22594" y2="38.2753"
                    gradientUnits="userSpaceOnUse">
      <stop offset="0.0847458" stop-color="#42E3B4"/>
      <stop offset="0.966102" stop-color="#FAED00"/>
    </linearGradient>
    <linearGradient id="paint1_linear" x1="22.663" y1="20.8555" x2="22.663" y2="38.2753" gradientUnits="userSpaceOnUse">
      <stop offset="0.0847458" stop-color="#42E3B4"/>
      <stop offset="0.966102" stop-color="#FAED00"/>
    </linearGradient>
    <linearGradient id="paint2_linear" x1="40.0829" y1="20.8555" x2="40.0829" y2="38.2753"
                    gradientUnits="userSpaceOnUse">
      <stop offset="0.0847458" stop-color="#42E3B4"/>
      <stop offset="0.966102" stop-color="#FAED00"/>
    </linearGradient>
    <linearGradient id="paint3_linear" x1="22.6457" y1="41.7593" x2="22.6457" y2="45.2432"
                    gradientUnits="userSpaceOnUse">
      <stop offset="0.0847458" stop-color="#42E3B4"/>
      <stop offset="0.966102" stop-color="#FAED00"/>
    </linearGradient>
    <linearGradient id="paint4_linear" x1="22.6457" y1="0.944824" x2="22.6457" y2="17.633"
                    gradientUnits="userSpaceOnUse">
      <stop offset="0.0847458" stop-color="#42E3B4"/>
      <stop offset="0.966102" stop-color="#FAED00"/>
    </linearGradient>
  </defs>
</svg>
