<svg width="69" height="69" viewBox="0 0 69 69" fill="none" xmlns="http://www.w3.org/2000/svg">
  <path
      d="M10.9493 52.1544H12.4957C18.3213 52.1544 23.0452 47.4093 23.0452 41.5838V40.6093L11.7119 8.91846L0.357422 40.6093V41.5838C0.357422 44.4012 1.45896 47.0704 3.45023 49.0617C5.46269 51.0741 8.11067 52.1544 10.9493 52.1544C10.9281 52.1544 10.9493 52.1544 10.9493 52.1544ZM17.9188 38.8511H5.48392L11.6907 21.4804L17.9188 38.8511ZM4.78482 43.0878H18.5966C17.9187 45.8417 15.4403 47.9177 12.4745 47.9177H10.9281C10.9281 47.9177 10.9281 47.9177 10.907 47.9177C9.21225 47.9177 7.62344 47.261 6.43715 46.0747C5.61098 45.2485 5.06021 44.2106 4.78482 43.0878Z"
      fill="url(#paint0_linear)"/>
  <path
      d="M30.7985 8.79171H27.0701V13.0285H41.4327V8.79171H37.895L41.4751 4.74554H68.1454V0.508789H39.5686L34.3362 6.39793L29.1038 0.508789H0.357422V4.74554H27.2184L30.7985 8.79171Z"
      fill="url(#paint1_linear)"/>
  <path
      d="M46.8336 68.5089V63.5306L40.4785 57.1755V21.2267H41.4317V16.99H27.0691V21.2267H28.0436V57.1755L21.6885 63.5306V68.5089H25.9252V65.2889L31.0517 60.1625H37.4915L42.5968 65.2677V68.4877H46.8336V68.5089ZM36.2417 21.2267V55.9469H32.2804V21.2267H36.2417Z"
      fill="url(#paint2_linear)"/>
  <path
      d="M45.458 40.6311V40.9913C45.458 43.8087 46.5595 46.4778 48.5508 48.4691C50.5421 50.4603 53.1901 51.5619 56.0287 51.5619H56.0499H57.5963C63.4218 51.5619 68.1458 46.8168 68.1458 40.9913V40.6311L56.8125 7.85986L45.458 40.6311ZM63.0617 38.8517H50.5633L56.8125 20.7819L63.0617 38.8517ZM57.5751 47.304H56.0287C54.334 47.304 52.7452 46.6473 51.5589 45.461C50.8811 44.7831 50.3938 43.9782 50.0973 43.0884H63.5277C62.638 45.5458 60.329 47.304 57.5751 47.304Z"
      fill="url(#paint3_linear)"/>
  <defs>
    <linearGradient id="paint0_linear" x1="11.7013" y1="8.91846" x2="11.7013" y2="52.1544"
                    gradientUnits="userSpaceOnUse">
      <stop offset="0.0847458" stop-color="#42E3B4"/>
      <stop offset="0.966102" stop-color="#FAED00"/>
    </linearGradient>
    <linearGradient id="paint1_linear" x1="34.2514" y1="0.508789" x2="34.2514" y2="13.0285"
                    gradientUnits="userSpaceOnUse">
      <stop offset="0.0847458" stop-color="#42E3B4"/>
      <stop offset="0.966102" stop-color="#FAED00"/>
    </linearGradient>
    <linearGradient id="paint2_linear" x1="34.261" y1="16.99" x2="34.261" y2="68.5089" gradientUnits="userSpaceOnUse">
      <stop offset="0.0847458" stop-color="#42E3B4"/>
      <stop offset="0.966102" stop-color="#FAED00"/>
    </linearGradient>
    <linearGradient id="paint3_linear" x1="56.8019" y1="7.85986" x2="56.8019" y2="51.5619"
                    gradientUnits="userSpaceOnUse">
      <stop offset="0.0847458" stop-color="#42E3B4"/>
      <stop offset="0.966102" stop-color="#FAED00"/>
    </linearGradient>
  </defs>
</svg>
