<svg width="864" height="371" viewBox="0 0 864 371" fill="none" xmlns="http://www.w3.org/2000/svg">
  <g filter="url(#filter0_d)">
    <circle cx="134.782" cy="89.0088" r="64" fill="#0066FF"/>
  </g>
  <path
      d="M134.568 226.641C134.959 227.032 135.592 227.032 135.983 226.641L142.346 220.277C142.737 219.887 142.737 219.253 142.346 218.863C141.956 218.472 141.323 218.472 140.932 218.863L135.275 224.52L129.618 218.863C129.228 218.473 128.595 218.473 128.204 218.863C127.814 219.254 127.814 219.887 128.204 220.277L134.568 226.641ZM134.275 183.934L134.275 225.934L136.275 225.934L136.275 183.934L134.275 183.934Z"
      fill="black"/>
  <path
      d="M103.264 98.4424H104.524V95.2924C104.93 95.3344 105.406 95.3484 105.784 95.3484C108.696 95.3484 109.886 94.2284 109.886 91.7504C109.886 89.5944 108.78 88.5584 105.784 88.5584C104.846 88.5584 103.866 88.6564 103.264 88.7264V98.4424ZM104.524 94.1864V89.7344C104.93 89.6924 105.406 89.6784 105.84 89.6784C107.856 89.6784 108.57 90.2244 108.57 91.8764C108.57 93.6544 107.842 94.2424 105.784 94.2424C105.35 94.2424 104.93 94.2284 104.524 94.1864ZM116.086 98.4424H117.15V93.4024C117.15 91.4844 116.268 90.8824 114.308 90.8824C113.594 90.8824 112.544 91.0644 111.928 91.4004V92.7444C112.432 92.3244 113.342 91.9464 114.182 91.9464C115.428 91.9464 115.988 92.2264 115.988 93.4164V94.1164H114.322C112.194 94.1164 111.368 94.7464 111.368 96.3844C111.368 97.8124 112.292 98.5964 113.776 98.5964C114.84 98.5964 115.638 98.0504 116.016 97.3784L116.086 98.4424ZM112.558 96.2024C112.558 95.3064 112.95 94.9704 114.364 94.9704H115.988V95.6004C115.988 96.6784 115.372 97.4764 114 97.4764C112.978 97.4764 112.558 97.0004 112.558 96.2024ZM125.655 87.6484C125.081 87.9424 123.401 88.0264 122.673 88.1244C120.237 88.4604 119.327 90.0704 119.327 93.9344C119.327 97.1684 120.475 98.5824 122.855 98.5824C125.067 98.5824 126.299 97.4064 126.299 94.5644C126.299 91.8764 125.137 91.1204 123.303 91.1204C122.197 91.1204 121.147 91.5824 120.503 92.5344L120.461 92.5204C120.657 90.2664 121.105 89.4544 123.135 89.3284C124.689 89.2304 125.375 89.1604 125.655 89.0064V87.6484ZM122.883 97.4764C121.385 97.4764 120.531 96.6504 120.531 94.4384C120.531 92.9964 121.511 92.1844 122.939 92.1844C124.297 92.1844 125.067 92.7304 125.067 94.7044C125.067 96.6504 124.353 97.4764 122.883 97.4764ZM127.98 94.7044C127.98 97.1544 129.226 98.5964 131.438 98.5964C133.37 98.5964 134.91 97.5324 134.91 94.7464C134.91 92.0584 133.608 90.8824 131.592 90.8824C129.464 90.8824 127.98 92.1424 127.98 94.7044ZM129.142 94.7044C129.142 92.8844 129.968 91.9184 131.438 91.9184C132.922 91.9184 133.748 92.8284 133.748 94.7044V94.7464C133.748 96.7064 132.922 97.5464 131.536 97.5464C129.982 97.5464 129.142 96.5104 129.142 94.7464V94.7044ZM138.413 98.4424H139.575V92.1144H141.969V91.0224H136.005V92.1144H138.413V98.4424ZM143.564 98.4424H144.726V95.2364H148.422V98.4424H149.584V91.0224H148.422V94.1304H144.726V91.0224H143.564V98.4424ZM152.273 98.4424H153.309L156.193 94.3264C156.613 93.7664 157.047 93.0524 157.285 92.6184L157.327 92.6324C157.285 93.1504 157.243 94.3684 157.243 95.4464V98.4424H158.405V91.0224H157.383L154.569 95.0964C154.163 95.6564 153.757 96.2164 153.407 96.8184L153.351 96.7904C153.393 96.4264 153.435 95.5024 153.435 94.6344V91.0224H152.273V98.4424ZM166.173 98.4424H167.587L164.465 94.5504L167.293 91.0224H165.963L163.485 94.1724H162.253V91.0224H161.091V98.4424H162.253V95.0824H163.471L166.173 98.4424ZM110.37 116.372C110.622 116.484 110.916 116.554 111.266 116.554C112.162 116.554 112.834 116.19 113.534 114.608L117.034 106.642H115.718L113.016 112.928L109.852 106.642H108.368L112.344 114.468C112.036 115.182 111.56 115.364 111.182 115.364C110.832 115.364 110.58 115.252 110.37 115.112V116.372ZM125.354 106.964C124.864 106.81 123.996 106.53 122.736 106.53C119.754 106.53 118.228 108 118.228 111.542C118.228 115.098 119.698 116.554 122.792 116.554C124.122 116.554 125.172 116.19 125.62 115.938V114.664C125.2 114.902 124.122 115.42 122.806 115.42C120.776 115.42 119.544 114.482 119.544 111.416C119.544 108.616 120.622 107.65 122.694 107.65C123.856 107.65 124.85 108.014 125.354 108.364V106.964ZM126.814 111.542C126.814 115.238 128.746 116.582 131.336 116.582C134.164 116.582 135.886 115.182 135.886 111.542C135.886 108.112 134.472 106.502 131.504 106.502C128.34 106.502 126.814 108.112 126.814 111.542ZM128.13 111.584C128.13 108.938 129.152 107.636 131.336 107.636C133.366 107.636 134.57 108.588 134.57 111.584C134.57 114.482 133.38 115.448 131.406 115.448C129.474 115.448 128.13 114.482 128.13 111.584ZM146.303 106.502C143.517 106.502 142.033 107.93 141.851 110.912H139.695V106.642H138.435V116.442H139.695V112.032H141.837C141.963 115.112 143.321 116.582 146.149 116.582C148.599 116.582 150.615 115.588 150.615 111.542C150.615 107.692 148.893 106.502 146.303 106.502ZM143.097 111.584C143.097 108.504 144.357 107.622 146.149 107.622C148.221 107.622 149.299 108.616 149.299 111.584C149.299 114.16 148.529 115.462 146.219 115.462C144.147 115.462 143.097 114.37 143.097 111.584ZM151.805 116.47C152.015 116.54 152.155 116.554 152.393 116.554C153.695 116.554 154.759 115.826 155.067 108.714L155.109 107.762H158.651V116.442H159.911V106.642H153.919L153.835 108.672C153.569 114.664 152.869 115.182 152.183 115.182C152.071 115.182 151.945 115.168 151.805 115.112V116.47ZM116.382 134.442H123.928V136.262H125.104V133.322H123.844V124.642H122.584V133.322H117.642V124.642H116.382V134.442ZM133.694 124.964C133.204 124.81 132.336 124.53 131.076 124.53C128.094 124.53 126.568 126 126.568 129.542C126.568 133.098 128.038 134.554 131.132 134.554C132.462 134.554 133.512 134.19 133.96 133.938V132.664C133.54 132.902 132.462 133.42 131.146 133.42C129.116 133.42 127.884 132.482 127.884 129.416C127.884 126.616 128.962 125.65 131.034 125.65C132.196 125.65 133.19 126.014 133.694 126.364V124.964ZM136.371 134.442H137.631V129.934H138.373L142.643 134.442H144.267L139.451 129.388L143.749 124.642H142.125L138.359 128.954H137.631V124.642H136.371V134.442ZM144.697 129.542C144.697 133.238 146.629 134.582 149.219 134.582C152.047 134.582 153.769 133.182 153.769 129.542C153.769 126.112 152.355 124.502 149.387 124.502C146.223 124.502 144.697 126.112 144.697 129.542ZM146.013 129.584C146.013 126.938 147.035 125.636 149.219 125.636C151.249 125.636 152.453 126.588 152.453 129.584C152.453 132.482 151.263 133.448 149.289 133.448C147.357 133.448 146.013 132.482 146.013 129.584Z"
      fill="white"/>
  <path
      d="M148.694 61.903V58.1765C148.694 50.512 142.452 44.27 134.788 44.27C127.123 44.27 120.881 50.512 120.881 58.1765V61.903C119.459 61.9853 118.318 63.1725 118.318 64.6185L119.611 68.9091L122.491 70.5666L124.96 75.786C125.477 77.1614 127.182 78.5602 128.698 79.7828C129.027 80.0531 129.345 80.3118 129.615 80.5469C130.603 81.3933 131.872 81.8635 133.189 81.8752H136.163C136.186 81.8752 136.21 81.8752 136.233 81.8752C137.574 81.8752 138.843 81.4167 139.831 80.5939L140.395 80.1237C142.017 78.7718 143.851 77.2437 144.368 75.8683L146.954 70.6019L150.328 68.9091L151.221 64.8536L151.245 64.6302C151.268 63.9014 150.998 63.2196 150.493 62.6906C149.999 62.2204 149.376 61.9382 148.694 61.903ZM148.247 67.3339L145.168 68.8739L142.193 74.9513C141.852 75.8447 140.066 77.3377 138.878 78.3251L138.302 78.8071C137.726 79.2891 137.009 79.5594 136.175 79.5359H133.201C132.448 79.5242 131.719 79.2538 131.143 78.76C130.849 78.5132 130.52 78.2428 130.179 77.9607C129.098 77.079 127.452 75.7389 127.123 74.869L124.302 68.8973L121.586 67.3222L120.705 64.4891C120.752 64.348 120.893 64.2423 121.057 64.2423L123.256 64.2305V58.1648C123.256 51.7934 128.44 46.6093 134.811 46.6093C141.182 46.6093 146.367 51.7934 146.367 58.1648V64.2423H148.588C148.694 64.2423 148.776 64.2893 148.812 64.3363C148.847 64.3716 148.882 64.4186 148.894 64.5009L148.247 67.3339Z"
      fill="#F6F6F6"/>
  <g filter="url(#filter1_d)">
    <rect x="20" y="262.009" width="241" height="88" rx="5" fill="white"/>
  </g>
  <path
      d="M47.2822 277.699V283.343L53.2223 289.283H55.1037V292.262C55.1037 296.286 53.536 300.084 50.6791 302.923L47.4042 306.198L48.6409 307.435C53.1352 311.929 56.8456 317.085 59.6328 322.625L63.8136 333.112L67.9247 322.764C70.7641 317.085 74.4745 311.929 78.9689 307.435L80.2056 306.198L76.9308 302.923C74.0913 300.066 72.5061 296.286 72.5061 292.262V289.283H74.37L80.3101 283.343V277.699H76.8261V281.897L72.9241 285.799H54.6508L50.7488 281.897V277.699H47.2822ZM74.4745 305.414L75.2933 306.233C71.4609 310.292 68.2208 314.856 65.5556 319.89V304.038H62.0716V319.873C59.4412 314.908 56.1838 310.327 52.3166 306.233L53.1353 305.414C56.6366 301.913 58.5702 297.244 58.5702 292.28V289.301H69.0221V292.28C69.0395 297.244 70.9557 301.895 74.4745 305.414Z"
      fill="url(#paint0_linear)"/>
  <path d="M74.2662 329.958H70.7822V333.442H74.2662V329.958Z" fill="url(#paint1_linear)"/>
  <path d="M81.234 329.958H77.75V333.442H81.234V329.958Z" fill="url(#paint2_linear)"/>
  <path d="M88.2012 329.958H84.7173V333.442H88.2012V329.958Z" fill="url(#paint3_linear)"/>
  <path d="M95.1695 329.958H91.6855V333.442H95.1695V329.958Z" fill="url(#paint4_linear)"/>
  <path d="M102.138 329.958H98.6538V333.442H102.138V329.958Z" fill="url(#paint5_linear)"/>
  <path
      d="M101.376 308.109C101.376 311.805 103.308 313.149 105.898 313.149C108.726 313.149 110.448 311.749 110.448 308.109C110.448 304.679 109.034 303.069 106.066 303.069C102.902 303.069 101.376 304.679 101.376 308.109ZM102.692 308.151C102.692 305.505 103.714 304.203 105.898 304.203C107.928 304.203 109.132 305.155 109.132 308.151C109.132 311.049 107.942 312.015 105.968 312.015C104.036 312.015 102.692 311.049 102.692 308.151ZM112.759 315.529H113.921V312.015C114.285 312.631 115.027 313.163 116.287 313.163C118.303 313.163 119.353 312.029 119.353 309.145C119.353 306.513 118.401 305.449 116.483 305.449C115.125 305.449 114.285 305.925 113.893 306.891L113.823 305.589H112.759V315.529ZM113.921 310.027V308.543C113.921 307.381 114.593 306.499 116.063 306.499C117.449 306.499 118.191 307.185 118.191 309.215C118.191 311.329 117.603 312.113 116.049 312.113C114.691 312.113 113.921 311.301 113.921 310.027ZM120.336 314.829H121.428V313.009H126.93V314.829H128.022V311.903H126.902V305.589H121.96V306.387C121.96 309.005 121.652 310.867 121.176 311.903H120.336V314.829ZM125.74 311.903H122.324C122.828 310.699 123.01 308.991 123.052 307.199L123.066 306.681H125.74V311.903ZM135.772 309.719V308.963C135.772 306.863 134.946 305.449 132.65 305.449C130.48 305.449 129.304 306.765 129.304 309.187C129.304 312.043 130.536 313.163 132.93 313.163C134.036 313.163 134.862 312.771 135.226 312.505V311.301C134.68 311.735 133.896 312.113 132.958 312.113C131.334 312.113 130.48 311.315 130.48 309.719H135.772ZM132.636 306.499C134.008 306.499 134.61 307.199 134.61 308.711H130.48C130.48 307.199 131.278 306.499 132.636 306.499ZM137.943 315.529H139.105V312.015C139.469 312.631 140.211 313.163 141.471 313.163C143.487 313.163 144.537 312.029 144.537 309.145C144.537 306.513 143.585 305.449 141.667 305.449C140.309 305.449 139.469 305.925 139.077 306.891L139.007 305.589H137.943V315.529ZM139.105 310.027V308.543C139.105 307.381 139.777 306.499 141.247 306.499C142.633 306.499 143.375 307.185 143.375 309.215C143.375 311.329 142.787 312.113 141.233 312.113C139.875 312.113 139.105 311.301 139.105 310.027Z"
      fill="black"/>
  <g filter="url(#filter2_d)">
    <rect x="313.5" y="262.009" width="241" height="88" rx="5" fill="white"/>
  </g>
  <path
      d="M365.893 322.101H390.054V318.617L386.936 295.327C386.605 292.714 384.375 290.745 381.745 290.745V294.229C382.615 294.229 383.365 294.891 383.469 295.762L386.535 318.617H365.44L362.531 295.327C362.478 294.943 362.391 294.577 362.252 294.229H370.648V290.745H357.339H354.326H342.602C339.972 290.745 337.742 292.714 337.411 295.309L334.31 318.39L334.293 322.101H353.246H365.893ZM337.812 318.617L340.878 295.762C340.982 294.891 341.731 294.229 342.602 294.229H354.326H357.339C358.21 294.229 358.959 294.891 359.064 295.762L361.921 318.617H353.228H337.812Z"
      fill="url(#paint6_linear)"/>
  <path d="M377.842 276.809H374.358V282.035H377.842V276.809Z" fill="url(#paint7_linear)"/>
  <path d="M377.842 289.003H374.358V294.229H377.842V289.003Z" fill="url(#paint8_linear)"/>
  <path d="M384.81 283.777H379.584V287.261H384.81V283.777Z" fill="url(#paint9_linear)"/>
  <path d="M372.616 283.777H367.39V287.261H372.616V283.777Z" fill="url(#paint10_linear)"/>
  <path
      d="M408.885 302.54C407.555 302.54 406.645 302.036 406.239 301.756V303.17C406.715 303.352 407.485 303.674 408.885 303.674C412.147 303.674 413.799 302.078 413.799 298.438C413.799 295.078 412.091 293.65 409.137 293.65C407.849 293.65 406.561 293.93 406.113 294.112V295.554C406.533 295.26 407.541 294.77 408.997 294.77C411.209 294.77 412.329 295.694 412.469 298.032H407.527V299.152H412.483C412.315 301.644 411.027 302.54 408.885 302.54ZM415.195 303.646C415.405 303.716 415.531 303.716 415.755 303.716C416.861 303.716 417.841 302.974 418.009 297.71L418.023 297.262H420.739V303.562H421.901V296.142H416.973L416.945 297.108C416.805 302.106 416.147 302.316 415.559 302.316C415.419 302.316 415.321 302.302 415.195 302.26V303.646ZM430.574 300.272V299.516C430.574 297.416 429.748 296.002 427.452 296.002C425.282 296.002 424.106 297.318 424.106 299.74C424.106 302.596 425.338 303.716 427.732 303.716C428.838 303.716 429.664 303.324 430.028 303.058V301.854C429.482 302.288 428.698 302.666 427.76 302.666C426.136 302.666 425.282 301.868 425.282 300.272H430.574ZM427.438 297.052C428.81 297.052 429.412 297.752 429.412 299.264H425.282C425.282 297.752 426.08 297.052 427.438 297.052ZM437.84 303.562H439.254L436.132 299.67L438.96 296.142H437.63L435.152 299.292H433.92V296.142H432.758V303.562H433.92V300.202H435.138L437.84 303.562ZM442.332 303.562H443.494V297.234H445.888V296.142H439.924V297.234H442.332V303.562ZM447.469 306.082H448.631V302.568C448.995 303.184 449.737 303.716 450.997 303.716C453.013 303.716 454.063 302.582 454.063 299.698C454.063 297.066 453.111 296.002 451.193 296.002C449.835 296.002 448.995 296.478 448.603 297.444L448.533 296.142H447.469V306.082ZM448.631 300.58V299.096C448.631 297.934 449.303 297.052 450.773 297.052C452.159 297.052 452.901 297.738 452.901 299.768C452.901 301.882 452.313 302.666 450.759 302.666C449.401 302.666 448.631 301.854 448.631 300.58ZM455.742 299.824C455.742 302.274 456.988 303.716 459.2 303.716C461.132 303.716 462.672 302.652 462.672 299.866C462.672 297.178 461.37 296.002 459.354 296.002C457.226 296.002 455.742 297.262 455.742 299.824ZM456.904 299.824C456.904 298.004 457.73 297.038 459.2 297.038C460.684 297.038 461.51 297.948 461.51 299.824V299.866C461.51 301.826 460.684 302.666 459.298 302.666C457.744 302.666 456.904 301.63 456.904 299.866V299.824ZM464.86 303.562H466.022V300.356H469.718V303.562H470.88V296.142H469.718V299.25H466.022V296.142H464.86V303.562ZM473.569 303.562H474.731V300.356H478.427V303.562H479.589V296.142H478.427V299.25H474.731V296.142H473.569V303.562ZM483.44 298.592V296.142H482.278V303.562C482.922 303.632 483.594 303.66 484.238 303.66C486.856 303.66 487.668 302.456 487.668 300.972C487.668 299.306 486.828 298.536 484.462 298.536C484.112 298.536 483.804 298.55 483.44 298.592ZM483.44 302.568V299.558C483.734 299.516 483.944 299.488 484.238 299.488C486.17 299.488 486.506 300.132 486.506 301.014C486.506 301.966 486.03 302.61 484.364 302.61C483.944 302.61 483.776 302.596 483.44 302.568ZM488.718 303.562H489.88V296.142H488.718V303.562ZM492.573 303.562H493.609L496.493 299.446C496.913 298.886 497.347 298.172 497.585 297.738L497.627 297.752C497.585 298.27 497.543 299.488 497.543 300.566V303.562H498.705V296.142H497.683L494.869 300.216C494.463 300.776 494.057 301.336 493.707 301.938L493.651 301.91C493.693 301.546 493.735 300.622 493.735 299.754V296.142H492.573V303.562ZM493.469 292.922C493.609 294.294 494.449 294.882 495.639 294.882C496.829 294.882 497.669 294.294 497.809 292.922H496.773C496.703 293.622 496.409 294.07 495.639 294.07C494.869 294.07 494.603 293.622 494.533 292.922H493.469ZM405.553 323.382H406.645V321.562H412.147V323.382H413.239V320.456H412.119V314.142H407.177V314.94C407.177 317.558 406.869 319.42 406.393 320.456H405.553V323.382ZM410.957 320.456H407.541C408.045 319.252 408.227 317.544 408.269 315.752L408.283 315.234H410.957V320.456ZM414.522 317.824C414.522 320.274 415.768 321.716 417.98 321.716C419.912 321.716 421.452 320.652 421.452 317.866C421.452 315.178 420.15 314.002 418.134 314.002C416.006 314.002 414.522 315.262 414.522 317.824ZM415.684 317.824C415.684 316.004 416.51 315.038 417.98 315.038C419.464 315.038 420.29 315.948 420.29 317.824V317.866C420.29 319.826 419.464 320.666 418.078 320.666C416.524 320.666 415.684 319.63 415.684 317.866V317.824ZM428.721 321.562H430.135L427.013 317.67L429.841 314.142H428.511L426.033 317.292H424.801V314.142H423.639V321.562H424.801V318.202H426.019L428.721 321.562ZM432.572 323.074C432.348 323.074 432.124 323.018 431.928 322.906V324.068C432.082 324.152 432.292 324.18 432.586 324.18C433.3 324.18 434.042 324.068 435.022 321.31L437.584 314.142H436.338L434.448 320.064L432.18 314.142H430.836L433.846 321.59C433.398 322.906 433.104 323.074 432.572 323.074ZM439.211 321.562H440.373V317.712C440.373 316.858 440.289 316.004 440.219 315.164C440.667 316.088 441.087 316.956 441.409 317.544L442.627 319.77H443.425L444.713 317.53C445.035 316.97 445.399 316.088 445.833 315.15C445.763 315.99 445.665 316.83 445.665 317.656V321.562H446.827V314.142H445.357L443.103 318.552L440.751 314.142H439.211V321.562ZM455.484 318.272V317.516C455.484 315.416 454.658 314.002 452.362 314.002C450.192 314.002 449.016 315.318 449.016 317.74C449.016 320.596 450.248 321.716 452.642 321.716C453.748 321.716 454.574 321.324 454.938 321.058V319.854C454.392 320.288 453.608 320.666 452.67 320.666C451.046 320.666 450.192 319.868 450.192 318.272H455.484ZM452.348 315.052C453.72 315.052 454.322 315.752 454.322 317.264H450.192C450.192 315.752 450.99 315.052 452.348 315.052ZM457.668 321.562H458.83V318.356H462.526V321.562H463.688V314.142H462.526V317.25H458.83V314.142H457.668V321.562ZM467.693 321.562H468.855V315.234H471.249V314.142H465.285V315.234H467.693V321.562Z"
      fill="black"/>
  <g filter="url(#filter3_d)">
    <rect x="602.049" y="262.009" width="241" height="88" rx="5" fill="white"/>
  </g>
  <path
      d="M693.505 295.185H694.891L691.097 285.385H689.823L686.085 295.185H687.373L688.339 292.567H692.525L693.505 295.185ZM690.425 286.953L692.105 291.447H688.759L690.425 286.953ZM696.581 295.199C697.127 295.241 698.233 295.297 699.213 295.297C701.691 295.297 702.433 294.359 702.433 292.973C702.433 291.741 701.887 291.321 700.641 291.209C701.691 290.915 702.083 290.369 702.083 289.417C702.083 288.353 701.481 287.667 699.101 287.667C697.953 287.667 697.113 287.723 696.581 287.751V295.199ZM697.743 294.219V291.867H699.465C700.725 291.867 701.271 292.147 701.271 292.987C701.271 293.967 700.781 294.289 699.255 294.289C698.723 294.289 698.219 294.261 697.743 294.219ZM697.743 290.873V288.689C698.065 288.675 698.471 288.675 699.185 288.675C700.445 288.675 700.907 288.913 700.907 289.753C700.907 290.523 700.333 290.873 699.465 290.873H697.743ZM705.936 295.185H707.098V288.857H709.492V287.765H703.528V288.857H705.936V295.185ZM710.583 291.447C710.583 293.897 711.829 295.339 714.041 295.339C715.973 295.339 717.513 294.275 717.513 291.489C717.513 288.801 716.211 287.625 714.195 287.625C712.067 287.625 710.583 288.885 710.583 291.447ZM711.745 291.447C711.745 289.627 712.571 288.661 714.041 288.661C715.525 288.661 716.351 289.571 716.351 291.447V291.489C716.351 293.449 715.525 294.289 714.139 294.289C712.585 294.289 711.745 293.253 711.745 291.489V291.447ZM719.7 295.185H720.862V291.335C720.862 290.481 720.778 289.627 720.708 288.787C721.156 289.711 721.576 290.579 721.898 291.167L723.116 293.393H723.914L725.202 291.153C725.524 290.593 725.888 289.711 726.322 288.773C726.252 289.613 726.154 290.453 726.154 291.279V295.185H727.316V287.765H725.846L723.592 292.175L721.24 287.765H719.7V295.185ZM734.223 295.185H735.287V290.145C735.287 288.227 734.405 287.625 732.445 287.625C731.731 287.625 730.681 287.807 730.065 288.143V289.487C730.569 289.067 731.479 288.689 732.319 288.689C733.565 288.689 734.125 288.969 734.125 290.159V290.859H732.459C730.331 290.859 729.505 291.489 729.505 293.127C729.505 294.555 730.429 295.339 731.913 295.339C732.977 295.339 733.775 294.793 734.153 294.121L734.223 295.185ZM730.695 292.945C730.695 292.049 731.087 291.713 732.501 291.713H734.125V292.343C734.125 293.421 733.509 294.219 732.137 294.219C731.115 294.219 730.695 293.743 730.695 292.945ZM739.214 295.185H740.376V288.857H742.77V287.765H736.806V288.857H739.214V295.185ZM744.365 295.185H745.401L748.285 291.069C748.705 290.509 749.139 289.795 749.377 289.361L749.419 289.375C749.377 289.893 749.335 291.111 749.335 292.189V295.185H750.497V287.765H749.475L746.661 291.839C746.255 292.399 745.849 292.959 745.499 293.561L745.443 293.533C745.485 293.169 745.527 292.245 745.527 291.377V287.765H744.365V295.185ZM752.679 294.891C753.239 295.171 754.261 295.339 754.933 295.339C757.243 295.339 758.139 294.597 758.139 292.917C758.139 291.909 757.523 291.377 756.613 291.321C757.537 291.055 757.789 290.467 757.789 289.431C757.789 288.311 757.145 287.625 755.311 287.625C753.967 287.625 753.337 287.849 752.819 288.073V289.431C753.393 288.983 754.009 288.661 755.101 288.661C756.291 288.661 756.613 289.011 756.613 289.767C756.613 290.579 756.165 290.985 755.101 290.985H753.981V291.909H754.947C756.501 291.909 756.977 292.161 756.977 292.987C756.977 293.925 756.403 294.289 755.269 294.289C754.079 294.289 753.169 293.855 752.679 293.463V294.891ZM760.32 295.185H761.356L764.24 291.069C764.66 290.509 765.094 289.795 765.332 289.361L765.374 289.375C765.332 289.893 765.29 291.111 765.29 292.189V295.185H766.452V287.765H765.43L762.616 291.839C762.21 292.399 761.804 292.959 761.454 293.561L761.398 293.533C761.44 293.169 761.482 292.245 761.482 291.377V287.765H760.32V295.185ZM769.124 297.705H770.286V294.191C770.65 294.807 771.392 295.339 772.652 295.339C774.668 295.339 775.718 294.205 775.718 291.321C775.718 288.689 774.766 287.625 772.848 287.625C771.49 287.625 770.65 288.101 770.258 289.067L770.188 287.765H769.124V297.705ZM770.286 292.203V290.719C770.286 289.557 770.958 288.675 772.428 288.675C773.814 288.675 774.556 289.361 774.556 291.391C774.556 293.505 773.968 294.289 772.414 294.289C771.056 294.289 770.286 293.477 770.286 292.203ZM777.398 291.447C777.398 293.897 778.644 295.339 780.856 295.339C782.788 295.339 784.328 294.275 784.328 291.489C784.328 288.801 783.026 287.625 781.01 287.625C778.882 287.625 777.398 288.885 777.398 291.447ZM778.56 291.447C778.56 289.627 779.386 288.661 780.856 288.661C782.34 288.661 783.166 289.571 783.166 291.447V291.489C783.166 293.449 782.34 294.289 780.954 294.289C779.4 294.289 778.56 293.253 778.56 291.489V291.447ZM786.515 295.199C787.061 295.241 788.167 295.297 789.147 295.297C791.625 295.297 792.367 294.359 792.367 292.973C792.367 291.741 791.821 291.321 790.575 291.209C791.625 290.915 792.017 290.369 792.017 289.417C792.017 288.353 791.415 287.667 789.035 287.667C787.887 287.667 787.047 287.723 786.515 287.751V295.199ZM787.677 294.219V291.867H789.399C790.659 291.867 791.205 292.147 791.205 292.987C791.205 293.967 790.715 294.289 789.189 294.289C788.657 294.289 788.153 294.261 787.677 294.219ZM787.677 290.873V288.689C787.999 288.675 788.405 288.675 789.119 288.675C790.379 288.675 790.841 288.913 790.841 289.753C790.841 290.523 790.267 290.873 789.399 290.873H787.677ZM798.768 295.185H799.832V290.145C799.832 288.227 798.95 287.625 796.99 287.625C796.276 287.625 795.226 287.807 794.61 288.143V289.487C795.114 289.067 796.024 288.689 796.864 288.689C798.11 288.689 798.67 288.969 798.67 290.159V290.859H797.004C794.876 290.859 794.05 291.489 794.05 293.127C794.05 294.555 794.974 295.339 796.458 295.339C797.522 295.339 798.32 294.793 798.698 294.121L798.768 295.185ZM795.24 292.945C795.24 292.049 795.632 291.713 797.046 291.713H798.67V292.343C798.67 293.421 798.054 294.219 796.682 294.219C795.66 294.219 795.24 293.743 795.24 292.945ZM802.443 295.185H803.605V291.979H807.301V295.185H808.463V287.765H807.301V290.873H803.605V287.765H802.443V295.185ZM811.152 295.185H812.314V291.979H816.01V295.185H817.172V287.765H816.01V290.873H812.314V287.765H811.152V295.185ZM824.075 295.185H825.139V290.145C825.139 288.227 824.257 287.625 822.297 287.625C821.583 287.625 820.533 287.807 819.917 288.143V289.487C820.421 289.067 821.331 288.689 822.171 288.689C823.417 288.689 823.977 288.969 823.977 290.159V290.859H822.311C820.183 290.859 819.357 291.489 819.357 293.127C819.357 294.555 820.281 295.339 821.765 295.339C822.829 295.339 823.627 294.793 824.005 294.121L824.075 295.185ZM820.547 292.945C820.547 292.049 820.939 291.713 822.353 291.713H823.977V292.343C823.977 293.421 823.361 294.219 821.989 294.219C820.967 294.219 820.547 293.743 820.547 292.945ZM826.965 295.185H828.309L830.213 292.525H832.033V295.185H833.195V287.793C832.663 287.723 831.669 287.695 830.857 287.695C828.309 287.695 827.511 288.549 827.511 290.131C827.511 291.223 827.833 292.133 829.023 292.329L826.965 295.185ZM832.033 291.615H830.479C829.177 291.615 828.673 291.279 828.673 290.159C828.673 289.081 829.065 288.717 830.759 288.717C831.389 288.717 831.683 288.731 832.033 288.773V291.615ZM692.077 306.003C691.643 305.779 691.111 305.625 690.201 305.625C687.793 305.625 686.575 306.801 686.575 309.335C686.575 312.317 687.919 313.339 690.159 313.339C691.153 313.339 691.923 313.143 692.315 312.835V311.575C691.825 311.981 691.083 312.219 690.327 312.219C688.703 312.219 687.779 311.519 687.779 309.433C687.779 307.361 688.689 306.731 690.047 306.731C690.873 306.731 691.629 306.997 692.077 307.319V306.003ZM694.421 313.185H695.457L698.341 309.069C698.761 308.509 699.195 307.795 699.433 307.361L699.475 307.375C699.433 307.893 699.391 309.111 699.391 310.189V313.185H700.553V305.765H699.531L696.717 309.839C696.311 310.399 695.905 310.959 695.555 311.561L695.499 311.533C695.541 311.169 695.583 310.245 695.583 309.377V305.765H694.421V313.185ZM708.238 306.003C707.804 305.779 707.272 305.625 706.362 305.625C703.954 305.625 702.736 306.801 702.736 309.335C702.736 312.317 704.08 313.339 706.32 313.339C707.314 313.339 708.084 313.143 708.476 312.835V311.575C707.986 311.981 707.244 312.219 706.488 312.219C704.864 312.219 703.94 311.519 703.94 309.433C703.94 307.361 704.85 306.731 706.208 306.731C707.034 306.731 707.79 306.997 708.238 307.319V306.003ZM712.102 313.185H713.264V306.857H715.658V305.765H709.694V306.857H712.102V313.185ZM723.217 309.895V309.139C723.217 307.039 722.391 305.625 720.095 305.625C717.925 305.625 716.749 306.941 716.749 309.363C716.749 312.219 717.981 313.339 720.375 313.339C721.481 313.339 722.307 312.947 722.671 312.681V311.477C722.125 311.911 721.341 312.289 720.403 312.289C718.779 312.289 717.925 311.491 717.925 309.895H723.217ZM720.081 306.675C721.453 306.675 722.055 307.375 722.055 308.887H717.925C717.925 307.375 718.723 306.675 720.081 306.675ZM725.402 313.185H726.564V309.335C726.564 308.481 726.48 307.627 726.41 306.787C726.858 307.711 727.278 308.579 727.6 309.167L728.818 311.393H729.616L730.904 309.153C731.226 308.593 731.59 307.711 732.024 306.773C731.954 307.613 731.856 308.453 731.856 309.279V313.185H733.018V305.765H731.548L729.294 310.175L726.942 305.765H725.402V313.185ZM739.924 313.185H740.988V308.145C740.988 306.227 740.106 305.625 738.146 305.625C737.432 305.625 736.382 305.807 735.766 306.143V307.487C736.27 307.067 737.18 306.689 738.02 306.689C739.266 306.689 739.826 306.969 739.826 308.159V308.859H738.16C736.032 308.859 735.206 309.489 735.206 311.127C735.206 312.555 736.13 313.339 737.614 313.339C738.678 313.339 739.476 312.793 739.854 312.121L739.924 313.185ZM736.396 310.945C736.396 310.049 736.788 309.713 738.202 309.713H739.826V310.343C739.826 311.421 739.21 312.219 737.838 312.219C736.816 312.219 736.396 311.743 736.396 310.945ZM747.796 313.199C748.342 313.241 749.448 313.297 750.428 313.297C752.906 313.297 753.648 312.359 753.648 310.973C753.648 309.741 753.102 309.321 751.856 309.209C752.906 308.915 753.298 308.369 753.298 307.417C753.298 306.353 752.696 305.667 750.316 305.667C749.168 305.667 748.328 305.723 747.796 305.751V313.199ZM748.958 312.219V309.867H750.68C751.94 309.867 752.486 310.147 752.486 310.987C752.486 311.967 751.996 312.289 750.47 312.289C749.938 312.289 749.434 312.261 748.958 312.219ZM748.958 308.873V306.689C749.28 306.675 749.686 306.675 750.4 306.675C751.66 306.675 752.122 306.913 752.122 307.753C752.122 308.523 751.548 308.873 750.68 308.873H748.958ZM761.799 309.895V309.139C761.799 307.039 760.973 305.625 758.677 305.625C756.507 305.625 755.331 306.941 755.331 309.363C755.331 312.219 756.563 313.339 758.957 313.339C760.063 313.339 760.889 312.947 761.253 312.681V311.477C760.707 311.911 759.923 312.289 758.985 312.289C757.361 312.289 756.507 311.491 756.507 309.895H761.799ZM758.663 306.675C760.035 306.675 760.637 307.375 760.637 308.887H756.507C756.507 307.375 757.305 306.675 758.663 306.675ZM762.783 315.005H763.875V313.185H769.377V315.005H770.469V312.079H769.349V305.765H764.407V306.563C764.407 309.181 764.099 311.043 763.623 312.079H762.783V315.005ZM768.187 312.079H764.771C765.275 310.875 765.457 309.167 765.499 307.375L765.513 306.857H768.187V312.079ZM778.219 309.895V309.139C778.219 307.039 777.393 305.625 775.097 305.625C772.927 305.625 771.751 306.941 771.751 309.363C771.751 312.219 772.983 313.339 775.377 313.339C776.483 313.339 777.309 312.947 777.673 312.681V311.477C777.127 311.911 776.343 312.289 775.405 312.289C773.781 312.289 772.927 311.491 772.927 309.895H778.219ZM775.083 306.675C776.455 306.675 777.057 307.375 777.057 308.887H772.927C772.927 307.375 773.725 306.675 775.083 306.675ZM780.404 313.185H781.566V309.979H785.262V313.185H786.424V305.765H785.262V308.873H781.566V305.765H780.404V313.185ZM789.113 313.185H790.149L793.033 309.069C793.453 308.509 793.887 307.795 794.125 307.361L794.167 307.375C794.125 307.893 794.083 309.111 794.083 310.189V313.185H795.245V305.765H794.223L791.409 309.839C791.003 310.399 790.597 310.959 790.247 311.561L790.191 311.533C790.233 311.169 790.275 310.245 790.275 309.377V305.765H789.113V313.185ZM797.147 313.185H798.491L800.395 310.525H802.215V313.185H803.377V305.793C802.845 305.723 801.851 305.695 801.039 305.695C798.491 305.695 797.693 306.549 797.693 308.131C797.693 309.223 798.015 310.133 799.205 310.329L797.147 313.185ZM802.215 309.615H800.661C799.359 309.615 798.855 309.279 798.855 308.159C798.855 307.081 799.247 306.717 800.941 306.717C801.571 306.717 801.865 306.731 802.215 306.773V309.615ZM691.293 331.185H692.357V326.145C692.357 324.227 691.475 323.625 689.515 323.625C688.801 323.625 687.751 323.807 687.135 324.143V325.487C687.639 325.067 688.549 324.689 689.389 324.689C690.635 324.689 691.195 324.969 691.195 326.159V326.859H689.529C687.401 326.859 686.575 327.489 686.575 329.127C686.575 330.555 687.499 331.339 688.983 331.339C690.047 331.339 690.845 330.793 691.223 330.121L691.293 331.185ZM687.765 328.945C687.765 328.049 688.157 327.713 689.571 327.713H691.195V328.343C691.195 329.421 690.579 330.219 689.207 330.219C688.185 330.219 687.765 329.743 687.765 328.945ZM694.954 333.705H696.116V330.191C696.48 330.807 697.222 331.339 698.482 331.339C700.498 331.339 701.548 330.205 701.548 327.321C701.548 324.689 700.596 323.625 698.678 323.625C697.32 323.625 696.48 324.101 696.088 325.067L696.018 323.765H694.954V333.705ZM696.116 328.203V326.719C696.116 325.557 696.788 324.675 698.258 324.675C699.644 324.675 700.386 325.361 700.386 327.391C700.386 329.505 699.798 330.289 698.244 330.289C696.886 330.289 696.116 329.477 696.116 328.203ZM702.601 331.185H703.959L705.905 328.175L707.851 331.185H709.279L706.647 327.293L709.111 323.765H707.753L705.975 326.495L704.197 323.765H702.769L705.205 327.391L702.601 331.185ZM710.978 331.185H712.014L714.898 327.069C715.318 326.509 715.752 325.795 715.99 325.361L716.032 325.375C715.99 325.893 715.948 327.111 715.948 328.189V331.185H717.11V323.765H716.088L713.274 327.839C712.868 328.399 712.462 328.959 712.112 329.561L712.056 329.533C712.098 329.169 712.14 328.245 712.14 327.377V323.765H710.978V331.185ZM719.796 331.199C720.342 331.241 721.448 331.297 722.428 331.297C724.906 331.297 725.648 330.359 725.648 328.973C725.648 327.741 725.102 327.321 723.856 327.209C724.906 326.915 725.298 326.369 725.298 325.417C725.298 324.353 724.696 323.667 722.316 323.667C721.168 323.667 720.328 323.723 719.796 323.751V331.199ZM720.958 330.219V327.867H722.68C723.94 327.867 724.486 328.147 724.486 328.987C724.486 329.967 723.996 330.289 722.47 330.289C721.938 330.289 721.434 330.261 720.958 330.219ZM720.958 326.873V324.689C721.28 324.675 721.686 324.675 722.4 324.675C723.66 324.675 724.122 324.913 724.122 325.753C724.122 326.523 723.548 326.873 722.68 326.873H720.958ZM732.049 331.185H733.113V326.145C733.113 324.227 732.231 323.625 730.271 323.625C729.557 323.625 728.507 323.807 727.891 324.143V325.487C728.395 325.067 729.305 324.689 730.145 324.689C731.391 324.689 731.951 324.969 731.951 326.159V326.859H730.285C728.157 326.859 727.331 327.489 727.331 329.127C727.331 330.555 728.255 331.339 729.739 331.339C730.803 331.339 731.601 330.793 731.979 330.121L732.049 331.185ZM728.521 328.945C728.521 328.049 728.913 327.713 730.327 327.713H731.951V328.343C731.951 329.421 731.335 330.219 729.963 330.219C728.941 330.219 728.521 329.743 728.521 328.945Z"
      fill="black"/>
  <path
      d="M655.227 287.082V286.629C655.227 281.944 651.412 278.146 646.744 278.146C642.058 278.146 638.26 281.961 638.26 286.629V287.082C638.26 291.768 642.075 295.566 646.744 295.566C651.412 295.583 655.227 291.768 655.227 287.082ZM641.744 287.082V286.629C641.744 283.877 643.991 281.63 646.744 281.63C649.496 281.63 651.743 283.877 651.743 286.629V287.082C651.743 289.835 649.496 292.082 646.744 292.082C643.974 292.099 641.744 289.852 641.744 287.082Z"
      fill="url(#paint11_linear)"/>
  <path
      d="M656.412 333.872L646.761 315.999L637.023 333.872H656.412ZM650.559 330.388H642.876L646.744 323.298L650.559 330.388Z"
      fill="url(#paint12_linear)"/>
  <path
      d="M658.067 306L666.481 314.414L674.894 306L666.481 297.586L658.067 306ZM666.481 309.502L662.979 306L666.481 302.516L669.982 306.018L666.481 309.502Z"
      fill="url(#paint13_linear)"/>
  <path d="M633.052 299.032H619.116V312.968H633.052V299.032ZM629.568 309.484H622.6V302.516H629.568V309.484Z"
        fill="url(#paint14_linear)"/>
  <path d="M667.927 293.806V285.096H659.217V288.58H664.443V293.806H667.927Z" fill="url(#paint15_linear)"/>
  <path d="M624.377 295.548H627.861V288.58H634.829V285.096H624.377V295.548Z" fill="url(#paint16_linear)"/>
  <path d="M664.443 318.194V323.437H659.217V326.921H667.927V318.194H664.443Z" fill="url(#paint17_linear)"/>
  <path d="M624.377 316.469V326.921H634.829V323.437H627.861V316.469H624.377Z" fill="url(#paint18_linear)"/>
  <path
      d="M591.332 310.701C591.723 311.092 591.723 311.725 591.332 312.115L584.968 318.479C584.577 318.87 583.944 318.87 583.554 318.479C583.163 318.089 583.163 317.456 583.554 317.065L589.211 311.408L583.554 305.751C583.163 305.361 583.163 304.728 583.554 304.337C583.944 303.947 584.577 303.947 584.968 304.337L591.332 310.701ZM563.391 310.408L590.625 310.408L590.625 312.408L563.391 312.408V310.408Z"
      fill="black"/>
  <path
      d="M301.574 310.701C301.965 311.092 301.965 311.725 301.574 312.115L295.21 318.479C294.82 318.87 294.187 318.87 293.796 318.479C293.405 318.089 293.405 317.456 293.796 317.065L299.453 311.408L293.796 305.751C293.405 305.361 293.405 304.728 293.796 304.337C294.187 303.947 294.82 303.947 295.21 304.337L301.574 310.701ZM273.633 310.408L300.867 310.408L300.867 312.408L273.633 312.408V310.408Z"
      fill="black"/>
  <defs>
    <filter id="filter0_d" x="45.7822" y="0.00878906" width="178" height="178" filterUnits="userSpaceOnUse"
            color-interpolation-filters="sRGB">
      <feFlood flood-opacity="0" result="BackgroundImageFix"/>
      <feColorMatrix in="SourceAlpha" type="matrix" values="0 0 0 0 0 0 0 0 0 0 0 0 0 0 0 0 0 0 127 0"/>
      <feOffset/>
      <feGaussianBlur stdDeviation="12.5"/>
      <feColorMatrix type="matrix" values="0 0 0 0 0 0 0 0 0 0 0 0 0 0 0 0 0 0 0.25 0"/>
      <feBlend mode="normal" in2="BackgroundImageFix" result="effect1_dropShadow"/>
      <feBlend mode="normal" in="SourceGraphic" in2="effect1_dropShadow" result="shape"/>
    </filter>
    <filter id="filter1_d" x="0" y="242.009" width="281" height="128" filterUnits="userSpaceOnUse"
            color-interpolation-filters="sRGB">
      <feFlood flood-opacity="0" result="BackgroundImageFix"/>
      <feColorMatrix in="SourceAlpha" type="matrix" values="0 0 0 0 0 0 0 0 0 0 0 0 0 0 0 0 0 0 127 0"/>
      <feOffset/>
      <feGaussianBlur stdDeviation="10"/>
      <feColorMatrix type="matrix" values="0 0 0 0 0 0 0 0 0 0 0 0 0 0 0 0 0 0 0.15 0"/>
      <feBlend mode="normal" in2="BackgroundImageFix" result="effect1_dropShadow"/>
      <feBlend mode="normal" in="SourceGraphic" in2="effect1_dropShadow" result="shape"/>
    </filter>
    <filter id="filter2_d" x="293.5" y="242.009" width="281" height="128" filterUnits="userSpaceOnUse"
            color-interpolation-filters="sRGB">
      <feFlood flood-opacity="0" result="BackgroundImageFix"/>
      <feColorMatrix in="SourceAlpha" type="matrix" values="0 0 0 0 0 0 0 0 0 0 0 0 0 0 0 0 0 0 127 0"/>
      <feOffset/>
      <feGaussianBlur stdDeviation="10"/>
      <feColorMatrix type="matrix" values="0 0 0 0 0 0 0 0 0 0 0 0 0 0 0 0 0 0 0.15 0"/>
      <feBlend mode="normal" in2="BackgroundImageFix" result="effect1_dropShadow"/>
      <feBlend mode="normal" in="SourceGraphic" in2="effect1_dropShadow" result="shape"/>
    </filter>
    <filter id="filter3_d" x="582.049" y="242.009" width="281" height="128" filterUnits="userSpaceOnUse"
            color-interpolation-filters="sRGB">
      <feFlood flood-opacity="0" result="BackgroundImageFix"/>
      <feColorMatrix in="SourceAlpha" type="matrix" values="0 0 0 0 0 0 0 0 0 0 0 0 0 0 0 0 0 0 127 0"/>
      <feOffset/>
      <feGaussianBlur stdDeviation="10"/>
      <feColorMatrix type="matrix" values="0 0 0 0 0 0 0 0 0 0 0 0 0 0 0 0 0 0 0.15 0"/>
      <feBlend mode="normal" in2="BackgroundImageFix" result="effect1_dropShadow"/>
      <feBlend mode="normal" in="SourceGraphic" in2="effect1_dropShadow" result="shape"/>
    </filter>
    <linearGradient id="paint0_linear" x1="63.7962" y1="277.699" x2="63.7962" y2="333.112"
                    gradientUnits="userSpaceOnUse">
      <stop offset="0.0847458" stop-color="#42E3B4"/>
      <stop offset="0.966102" stop-color="#FAED00"/>
    </linearGradient>
    <linearGradient id="paint1_linear" x1="72.5242" y1="329.958" x2="72.5242" y2="333.442"
                    gradientUnits="userSpaceOnUse">
      <stop offset="0.0847458" stop-color="#42E3B4"/>
      <stop offset="0.966102" stop-color="#FAED00"/>
    </linearGradient>
    <linearGradient id="paint2_linear" x1="79.492" y1="329.958" x2="79.492" y2="333.442" gradientUnits="userSpaceOnUse">
      <stop offset="0.0847458" stop-color="#42E3B4"/>
      <stop offset="0.966102" stop-color="#FAED00"/>
    </linearGradient>
    <linearGradient id="paint3_linear" x1="86.4593" y1="329.958" x2="86.4593" y2="333.442"
                    gradientUnits="userSpaceOnUse">
      <stop offset="0.0847458" stop-color="#42E3B4"/>
      <stop offset="0.966102" stop-color="#FAED00"/>
    </linearGradient>
    <linearGradient id="paint4_linear" x1="93.4275" y1="329.958" x2="93.4275" y2="333.442"
                    gradientUnits="userSpaceOnUse">
      <stop offset="0.0847458" stop-color="#42E3B4"/>
      <stop offset="0.966102" stop-color="#FAED00"/>
    </linearGradient>
    <linearGradient id="paint5_linear" x1="100.396" y1="329.958" x2="100.396" y2="333.442"
                    gradientUnits="userSpaceOnUse">
      <stop offset="0.0847458" stop-color="#42E3B4"/>
      <stop offset="0.966102" stop-color="#FAED00"/>
    </linearGradient>
    <linearGradient id="paint6_linear" x1="362.173" y1="290.745" x2="362.173" y2="322.101"
                    gradientUnits="userSpaceOnUse">
      <stop offset="0.0847458" stop-color="#42E3B4"/>
      <stop offset="0.966102" stop-color="#FAED00"/>
    </linearGradient>
    <linearGradient id="paint7_linear" x1="376.1" y1="276.809" x2="376.1" y2="282.035" gradientUnits="userSpaceOnUse">
      <stop offset="0.0847458" stop-color="#42E3B4"/>
      <stop offset="0.966102" stop-color="#FAED00"/>
    </linearGradient>
    <linearGradient id="paint8_linear" x1="376.1" y1="289.003" x2="376.1" y2="294.229" gradientUnits="userSpaceOnUse">
      <stop offset="0.0847458" stop-color="#42E3B4"/>
      <stop offset="0.966102" stop-color="#FAED00"/>
    </linearGradient>
    <linearGradient id="paint9_linear" x1="382.197" y1="283.777" x2="382.197" y2="287.261"
                    gradientUnits="userSpaceOnUse">
      <stop offset="0.0847458" stop-color="#42E3B4"/>
      <stop offset="0.966102" stop-color="#FAED00"/>
    </linearGradient>
    <linearGradient id="paint10_linear" x1="370.003" y1="283.777" x2="370.003" y2="287.261"
                    gradientUnits="userSpaceOnUse">
      <stop offset="0.0847458" stop-color="#42E3B4"/>
      <stop offset="0.966102" stop-color="#FAED00"/>
    </linearGradient>
    <linearGradient id="paint11_linear" x1="646.744" y1="278.146" x2="646.744" y2="295.566"
                    gradientUnits="userSpaceOnUse">
      <stop offset="0.0847458" stop-color="#42E3B4"/>
      <stop offset="0.966102" stop-color="#FAED00"/>
    </linearGradient>
    <linearGradient id="paint12_linear" x1="646.718" y1="315.999" x2="646.718" y2="333.872"
                    gradientUnits="userSpaceOnUse">
      <stop offset="0.0847458" stop-color="#42E3B4"/>
      <stop offset="0.966102" stop-color="#FAED00"/>
    </linearGradient>
    <linearGradient id="paint13_linear" x1="666.481" y1="297.586" x2="666.481" y2="314.414"
                    gradientUnits="userSpaceOnUse">
      <stop offset="0.0847458" stop-color="#42E3B4"/>
      <stop offset="0.966102" stop-color="#FAED00"/>
    </linearGradient>
    <linearGradient id="paint14_linear" x1="626.084" y1="299.032" x2="626.084" y2="312.968"
                    gradientUnits="userSpaceOnUse">
      <stop offset="0.0847458" stop-color="#42E3B4"/>
      <stop offset="0.966102" stop-color="#FAED00"/>
    </linearGradient>
    <linearGradient id="paint15_linear" x1="663.572" y1="285.096" x2="663.572" y2="293.806"
                    gradientUnits="userSpaceOnUse">
      <stop offset="0.0847458" stop-color="#42E3B4"/>
      <stop offset="0.966102" stop-color="#FAED00"/>
    </linearGradient>
    <linearGradient id="paint16_linear" x1="629.603" y1="285.096" x2="629.603" y2="295.548"
                    gradientUnits="userSpaceOnUse">
      <stop offset="0.0847458" stop-color="#42E3B4"/>
      <stop offset="0.966102" stop-color="#FAED00"/>
    </linearGradient>
    <linearGradient id="paint17_linear" x1="663.572" y1="318.194" x2="663.572" y2="326.921"
                    gradientUnits="userSpaceOnUse">
      <stop offset="0.0847458" stop-color="#42E3B4"/>
      <stop offset="0.966102" stop-color="#FAED00"/>
    </linearGradient>
    <linearGradient id="paint18_linear" x1="629.603" y1="316.469" x2="629.603" y2="326.921"
                    gradientUnits="userSpaceOnUse">
      <stop offset="0.0847458" stop-color="#42E3B4"/>
      <stop offset="0.966102" stop-color="#FAED00"/>
    </linearGradient>
  </defs>
</svg>
