<svg width="859" height="427" viewBox="0 0 859 427" fill="none" xmlns="http://www.w3.org/2000/svg">
  <path
      d="M93.297 33.853C93.801 34.063 94.41 34.189 95.04 34.189C96.846 34.189 97.875 33.475 98.967 30.913L103.944 19.3H101.025L97.686 27.553L93.612 19.3H90.336L96.153 30.514C95.796 31.375 95.166 31.564 94.62 31.564C94.095 31.564 93.591 31.354 93.297 31.123V33.853ZM105.197 34H107.885V25.054H112.547V34H115.214V22.66H105.197V34ZM118.752 37.78H121.44V32.551C121.986 33.391 123.036 34.252 125.031 34.252C128.391 34.252 129.903 32.383 129.903 28.162C129.903 24.109 128.496 22.408 125.325 22.408C123.225 22.408 122.007 23.227 121.377 24.529L121.272 22.66H118.752V37.78ZM121.44 29.065V27.616C121.44 25.873 122.301 24.634 124.296 24.634C126.228 24.634 127.152 25.642 127.152 28.225C127.152 30.934 126.417 32.026 124.296 32.026C122.364 32.026 121.44 30.892 121.44 29.065ZM139.458 34H141.894V26.524C141.894 23.479 140.571 22.408 137.085 22.408C135.573 22.408 133.914 22.786 132.969 23.269V25.978C133.767 25.327 135.237 24.676 136.665 24.676C138.513 24.676 139.206 25.18 139.206 26.608V27.406H136.812C133.431 27.406 132.003 28.33 132.003 30.808C132.003 32.887 133.221 34.252 135.72 34.252C137.631 34.252 138.849 33.307 139.353 32.383L139.458 34ZM134.733 30.472C134.733 29.359 135.279 28.981 137.106 28.981H139.206V29.737C139.206 31.081 138.408 32.047 136.581 32.047C135.216 32.047 134.733 31.417 134.733 30.472ZM145.289 34.021C146.507 34.084 148.271 34.126 149.804 34.126C153.878 34.126 155.18 32.908 155.18 30.619C155.18 28.813 154.298 28.141 152.618 27.994C153.878 27.658 154.655 26.818 154.655 25.306C154.655 23.542 153.689 22.534 149.825 22.534C148.229 22.534 146.507 22.597 145.289 22.66V34.021ZM147.977 31.963V29.086H150.287C151.82 29.086 152.429 29.401 152.429 30.472C152.429 31.648 151.841 32.047 149.93 32.047C149.237 32.047 148.67 32.026 147.977 31.963ZM147.977 27.364V24.634C148.397 24.613 148.943 24.592 149.804 24.592C151.484 24.592 152.009 24.928 152.009 25.936C152.009 26.965 151.316 27.364 150.077 27.364H147.977ZM156.869 34.105C157.184 34.231 157.52 34.252 157.94 34.252C160.187 34.252 161.489 32.635 161.72 25.747L161.741 25.075H165.227V34H167.894V22.66H159.305L159.263 24.319C159.095 30.85 158.381 31.375 157.394 31.375C157.205 31.375 157.058 31.354 156.869 31.291V34.105ZM181.559 29.086V27.826C181.559 24.571 180.215 22.408 176.33 22.408C172.76 22.408 170.765 24.382 170.765 28.162C170.765 32.383 172.529 34.252 176.624 34.252C178.682 34.252 180.194 33.685 180.761 33.244V30.829C179.921 31.501 178.472 32.068 176.918 32.068C174.65 32.068 173.516 31.123 173.474 29.086H181.559ZM176.288 24.529C178.157 24.529 178.892 25.516 178.892 27.343H173.474C173.516 25.474 174.482 24.529 176.288 24.529ZM184.377 34H187.065V29.464H191.937V34H194.604V22.66H191.937V27.133H187.065V22.66H184.377V34ZM198.138 34H200.637L204.543 28.204C205.068 27.469 205.551 26.671 205.887 26.062L205.929 26.083C205.887 26.797 205.824 28.057 205.824 29.296V34H208.512V22.66H206.013L202.149 28.435C201.645 29.17 201.225 29.8 200.784 30.556L200.7 30.535C200.763 29.968 200.826 28.96 200.826 27.91V22.66H198.138V34ZM222.164 29.086V27.826C222.164 24.571 220.82 22.408 216.935 22.408C213.365 22.408 211.37 24.382 211.37 28.162C211.37 32.383 213.134 34.252 217.229 34.252C219.287 34.252 220.799 33.685 221.366 33.244V30.829C220.526 31.501 219.077 32.068 217.523 32.068C215.255 32.068 214.121 31.123 214.079 29.086H222.164ZM216.893 24.529C218.762 24.529 219.497 25.516 219.497 27.343H214.079C214.121 25.474 215.087 24.529 216.893 24.529ZM223.303 37.78H225.592L231.073 18.04H228.784L223.303 37.78ZM232.247 28.309C232.247 32.215 234.095 34.252 237.959 34.252C241.571 34.252 243.713 32.467 243.713 28.351C243.713 24.277 241.823 22.408 238.106 22.408C234.431 22.408 232.247 24.382 232.247 28.309ZM234.998 28.309C234.998 25.852 235.901 24.613 237.959 24.613C240.08 24.613 240.962 25.789 240.962 28.309V28.393C240.962 30.955 240.017 32.047 238.064 32.047C235.943 32.047 234.998 30.745 234.998 28.393V28.309ZM248.95 34H251.617V25.054H255.25V22.66H245.296V25.054H248.95V34ZM255.468 36.73H257.967V34H265.59V36.73H268.068V31.669H266.388V22.66H257.904L257.883 23.899C257.862 27.385 257.526 30.115 256.77 31.669H255.468V36.73ZM263.7 31.669H259.395C259.983 30.199 260.256 27.952 260.319 25.768L260.34 24.991H263.7V31.669ZM280.612 29.086V27.826C280.612 24.571 279.268 22.408 275.383 22.408C271.813 22.408 269.818 24.382 269.818 28.162C269.818 32.383 271.582 34.252 275.677 34.252C277.735 34.252 279.247 33.685 279.814 33.244V30.829C278.974 31.501 277.525 32.068 275.971 32.068C273.703 32.068 272.569 31.123 272.527 29.086H280.612ZM275.341 24.529C277.21 24.529 277.945 25.516 277.945 27.343H272.527C272.569 25.474 273.535 24.529 275.341 24.529ZM282.049 34.105C282.364 34.231 282.7 34.252 283.12 34.252C285.367 34.252 286.669 32.635 286.9 25.747L286.921 25.075H290.407V34H293.074V22.66H284.485L284.443 24.319C284.275 30.85 283.561 31.375 282.574 31.375C282.385 31.375 282.238 31.354 282.049 31.291V34.105ZM302.441 34H305.129V25.054H309.791V34H312.458V22.66H302.441V34ZM315.345 28.309C315.345 32.215 317.193 34.252 321.057 34.252C324.669 34.252 326.811 32.467 326.811 28.351C326.811 24.277 324.921 22.408 321.204 22.408C317.529 22.408 315.345 24.382 315.345 28.309ZM318.096 28.309C318.096 25.852 318.999 24.613 321.057 24.613C323.178 24.613 324.06 25.789 324.06 28.309V28.393C324.06 30.955 323.115 32.047 321.162 32.047C319.041 32.047 318.096 30.745 318.096 28.393V28.309ZM335.478 37.78H338.166V32.551C338.712 33.391 339.762 34.252 341.757 34.252C345.117 34.252 346.629 32.383 346.629 28.162C346.629 24.109 345.222 22.408 342.051 22.408C339.951 22.408 338.733 23.227 338.103 24.529L337.998 22.66H335.478V37.78ZM338.166 29.065V27.616C338.166 25.873 339.027 24.634 341.022 24.634C342.954 24.634 343.878 25.642 343.878 28.225C343.878 30.934 343.143 32.026 341.022 32.026C339.09 32.026 338.166 30.892 338.166 29.065ZM356.184 34H358.62V26.524C358.62 23.479 357.297 22.408 353.811 22.408C352.299 22.408 350.64 22.786 349.695 23.269V25.978C350.493 25.327 351.963 24.676 353.391 24.676C355.239 24.676 355.932 25.18 355.932 26.608V27.406H353.538C350.157 27.406 348.729 28.33 348.729 30.808C348.729 32.887 349.947 34.252 352.446 34.252C354.357 34.252 355.575 33.307 356.079 32.383L356.184 34ZM351.459 30.472C351.459 29.359 352.005 28.981 353.832 28.981H355.932V29.737C355.932 31.081 355.134 32.047 353.307 32.047C351.942 32.047 351.459 31.417 351.459 30.472ZM372.012 17.599C371.109 17.998 369.24 18.145 367.539 18.334C363.57 18.775 361.449 20.686 361.449 27.091C361.449 32.488 363.549 34.252 367.35 34.252C370.983 34.252 373.083 32.593 373.083 28.393C373.083 24.529 371.55 23.08 368.253 23.08C366.258 23.08 364.746 23.815 363.696 25.18L363.654 25.012C363.843 21.883 365.208 21.106 368.253 20.875C370.395 20.728 371.487 20.56 372.012 20.287V17.599ZM367.392 31.984C365.313 31.984 364.284 30.871 364.284 28.267C364.284 26.377 365.418 25.327 367.413 25.327C369.345 25.327 370.29 26.104 370.29 28.519C370.29 30.913 369.387 31.984 367.392 31.984ZM375.269 28.309C375.269 32.215 377.117 34.252 380.981 34.252C384.593 34.252 386.735 32.467 386.735 28.351C386.735 24.277 384.845 22.408 381.128 22.408C377.453 22.408 375.269 24.382 375.269 28.309ZM378.02 28.309C378.02 25.852 378.923 24.613 380.981 24.613C383.102 24.613 383.984 25.789 383.984 28.309V28.393C383.984 30.955 383.039 32.047 381.086 32.047C378.965 32.047 378.02 30.745 378.02 28.393V28.309ZM391.972 34H394.639V25.054H398.272V22.66H388.318V25.054H391.972V34ZM410.631 29.086V27.826C410.631 24.571 409.287 22.408 405.402 22.408C401.832 22.408 399.837 24.382 399.837 28.162C399.837 32.383 401.601 34.252 405.696 34.252C407.754 34.252 409.266 33.685 409.833 33.244V30.829C408.993 31.501 407.544 32.068 405.99 32.068C403.722 32.068 402.588 31.123 402.546 29.086H410.631ZM405.36 24.529C407.229 24.529 407.964 25.516 407.964 27.343H402.546C402.588 25.474 403.554 24.529 405.36 24.529ZM427.821 23.038C427.149 22.723 426.204 22.408 424.503 22.408C420.492 22.408 418.602 24.319 418.602 28.183C418.602 32.593 420.534 34.252 424.524 34.252C426.267 34.252 427.464 33.874 428.094 33.475V30.955C427.401 31.522 426.204 31.9 424.986 31.9C422.508 31.9 421.374 30.892 421.374 28.267C421.374 25.642 422.55 24.76 424.629 24.76C426.036 24.76 427.086 25.18 427.821 25.705V23.038ZM436.787 34H439.475V25.054H444.137V34H446.804V22.66H436.787V34ZM457.042 34H459.478V26.524C459.478 23.479 458.155 22.408 454.669 22.408C453.157 22.408 451.498 22.786 450.553 23.269V25.978C451.351 25.327 452.821 24.676 454.249 24.676C456.097 24.676 456.79 25.18 456.79 26.608V27.406H454.396C451.015 27.406 449.587 28.33 449.587 30.808C449.587 32.887 450.805 34.252 453.304 34.252C455.215 34.252 456.433 33.307 456.937 32.383L457.042 34ZM452.317 30.472C452.317 29.359 452.863 28.981 454.69 28.981H456.79V29.737C456.79 31.081 455.992 32.047 454.165 32.047C452.8 32.047 452.317 31.417 452.317 30.472ZM462.852 37.78H465.54V32.551C466.086 33.391 467.136 34.252 469.131 34.252C472.491 34.252 474.003 32.383 474.003 28.162C474.003 24.109 472.596 22.408 469.425 22.408C467.325 22.408 466.107 23.227 465.477 24.529L465.372 22.66H462.852V37.78ZM465.54 29.065V27.616C465.54 25.873 466.401 24.634 468.396 24.634C470.328 24.634 471.252 25.642 471.252 28.225C471.252 30.934 470.517 32.026 468.396 32.026C466.464 32.026 465.54 30.892 465.54 29.065ZM479.253 34H481.92V25.054H485.553V22.66H475.599V25.054H479.253V34ZM487.79 34H490.478V29.464H495.35V34H498.017V22.66H495.35V27.133H490.478V22.66H487.79V34ZM511.673 29.086V27.826C511.673 24.571 510.329 22.408 506.444 22.408C502.874 22.408 500.879 24.382 500.879 28.162C500.879 32.383 502.643 34.252 506.738 34.252C508.796 34.252 510.308 33.685 510.875 33.244V30.829C510.035 31.501 508.586 32.068 507.032 32.068C504.764 32.068 503.63 31.123 503.588 29.086H511.673ZM506.402 24.529C508.271 24.529 509.006 25.516 509.006 27.343H503.588C503.63 25.474 504.596 24.529 506.402 24.529ZM514.471 37.78H517.159V32.551C517.705 33.391 518.755 34.252 520.75 34.252C524.11 34.252 525.622 32.383 525.622 28.162C525.622 24.109 524.215 22.408 521.044 22.408C518.944 22.408 517.726 23.227 517.096 24.529L516.991 22.66H514.471V37.78ZM517.159 29.065V27.616C517.159 25.873 518.02 24.634 520.015 24.634C521.947 24.634 522.871 25.642 522.871 28.225C522.871 30.934 522.136 32.026 520.015 32.026C518.083 32.026 517.159 30.892 517.159 29.065ZM535.176 34H537.612V26.524C537.612 23.479 536.289 22.408 532.803 22.408C531.291 22.408 529.632 22.786 528.687 23.269V25.978C529.485 25.327 530.955 24.676 532.383 24.676C534.231 24.676 534.924 25.18 534.924 26.608V27.406H532.53C529.149 27.406 527.721 28.33 527.721 30.808C527.721 32.887 528.939 34.252 531.438 34.252C533.349 34.252 534.567 33.307 535.071 32.383L535.176 34ZM530.451 30.472C530.451 29.359 530.997 28.981 532.824 28.981H534.924V29.737C534.924 31.081 534.126 32.047 532.299 32.047C530.934 32.047 530.451 31.417 530.451 30.472ZM541.008 34H543.591V27.973C543.591 26.986 543.507 26.041 543.423 25.075C543.906 26.062 544.347 27.028 544.704 27.721L546.531 31.606H548.232L550.143 27.7C550.5 27.028 550.878 26.041 551.34 25.033C551.256 26.02 551.172 26.902 551.172 27.868V34H553.755V22.66H550.332L547.455 28.792L544.494 22.66H541.008V34ZM557.291 34H559.79L563.696 28.204C564.221 27.469 564.704 26.671 565.04 26.062L565.082 26.083C565.04 26.797 564.977 28.057 564.977 29.296V34H567.665V22.66H565.166L561.302 28.435C560.798 29.17 560.378 29.8 559.937 30.556L559.853 30.535C559.916 29.968 559.979 28.96 559.979 27.91V22.66H557.291V34Z"
      fill="#363636"/>
  <path
      d="M93.297 112.853C93.801 113.063 94.41 113.189 95.04 113.189C96.846 113.189 97.875 112.475 98.967 109.913L103.944 98.3H101.025L97.686 106.553L93.612 98.3H90.336L96.153 109.514C95.796 110.375 95.166 110.564 94.62 110.564C94.095 110.564 93.591 110.354 93.297 110.123V112.853ZM105.197 113H107.885V104.054H112.547V113H115.214V101.66H105.197V113ZM118.752 116.78H121.44V111.551C121.986 112.391 123.036 113.252 125.031 113.252C128.391 113.252 129.903 111.383 129.903 107.162C129.903 103.109 128.496 101.408 125.325 101.408C123.225 101.408 122.007 102.227 121.377 103.529L121.272 101.66H118.752V116.78ZM121.44 108.065V106.616C121.44 104.873 122.301 103.634 124.296 103.634C126.228 103.634 127.152 104.642 127.152 107.225C127.152 109.934 126.417 111.026 124.296 111.026C122.364 111.026 121.44 109.892 121.44 108.065ZM139.458 113H141.894V105.524C141.894 102.479 140.571 101.408 137.085 101.408C135.573 101.408 133.914 101.786 132.969 102.269V104.978C133.767 104.327 135.237 103.676 136.665 103.676C138.513 103.676 139.206 104.18 139.206 105.608V106.406H136.812C133.431 106.406 132.003 107.33 132.003 109.808C132.003 111.887 133.221 113.252 135.72 113.252C137.631 113.252 138.849 112.307 139.353 111.383L139.458 113ZM134.733 109.472C134.733 108.359 135.279 107.981 137.106 107.981H139.206V108.737C139.206 110.081 138.408 111.047 136.581 111.047C135.216 111.047 134.733 110.417 134.733 109.472ZM145.289 113.021C146.507 113.084 148.271 113.126 149.804 113.126C153.878 113.126 155.18 111.908 155.18 109.619C155.18 107.813 154.298 107.141 152.618 106.994C153.878 106.658 154.655 105.818 154.655 104.306C154.655 102.542 153.689 101.534 149.825 101.534C148.229 101.534 146.507 101.597 145.289 101.66V113.021ZM147.977 110.963V108.086H150.287C151.82 108.086 152.429 108.401 152.429 109.472C152.429 110.648 151.841 111.047 149.93 111.047C149.237 111.047 148.67 111.026 147.977 110.963ZM147.977 106.364V103.634C148.397 103.613 148.943 103.592 149.804 103.592C151.484 103.592 152.009 103.928 152.009 104.936C152.009 105.965 151.316 106.364 150.077 106.364H147.977ZM156.869 113.105C157.184 113.231 157.52 113.252 157.94 113.252C160.187 113.252 161.489 111.635 161.72 104.747L161.741 104.075H165.227V113H167.894V101.66H159.305L159.263 103.319C159.095 109.85 158.381 110.375 157.394 110.375C157.205 110.375 157.058 110.354 156.869 110.291V113.105ZM181.559 108.086V106.826C181.559 103.571 180.215 101.408 176.33 101.408C172.76 101.408 170.765 103.382 170.765 107.162C170.765 111.383 172.529 113.252 176.624 113.252C178.682 113.252 180.194 112.685 180.761 112.244V109.829C179.921 110.501 178.472 111.068 176.918 111.068C174.65 111.068 173.516 110.123 173.474 108.086H181.559ZM176.288 103.529C178.157 103.529 178.892 104.516 178.892 106.343H173.474C173.516 104.474 174.482 103.529 176.288 103.529ZM184.377 113H187.065V108.464H191.937V113H194.604V101.66H191.937V106.133H187.065V101.66H184.377V113ZM198.138 113H200.637L204.543 107.204C205.068 106.469 205.551 105.671 205.887 105.062L205.929 105.083C205.887 105.797 205.824 107.057 205.824 108.296V113H208.512V101.66H206.013L202.149 107.435C201.645 108.17 201.225 108.8 200.784 109.556L200.7 109.535C200.763 108.968 200.826 107.96 200.826 106.91V101.66H198.138V113ZM222.164 108.086V106.826C222.164 103.571 220.82 101.408 216.935 101.408C213.365 101.408 211.37 103.382 211.37 107.162C211.37 111.383 213.134 113.252 217.229 113.252C219.287 113.252 220.799 112.685 221.366 112.244V109.829C220.526 110.501 219.077 111.068 217.523 111.068C215.255 111.068 214.121 110.123 214.079 108.086H222.164ZM216.893 103.529C218.762 103.529 219.497 104.516 219.497 106.343H214.079C214.121 104.474 215.087 103.529 216.893 103.529ZM239.354 102.038C238.682 101.723 237.737 101.408 236.036 101.408C232.025 101.408 230.135 103.319 230.135 107.183C230.135 111.593 232.067 113.252 236.057 113.252C237.8 113.252 238.997 112.874 239.627 112.475V109.955C238.934 110.522 237.737 110.9 236.519 110.9C234.041 110.9 232.907 109.892 232.907 107.267C232.907 104.642 234.083 103.76 236.162 103.76C237.569 103.76 238.619 104.18 239.354 104.705V102.038ZM241.558 107.309C241.558 111.215 243.406 113.252 247.27 113.252C250.882 113.252 253.024 111.467 253.024 107.351C253.024 103.277 251.134 101.408 247.417 101.408C243.742 101.408 241.558 103.382 241.558 107.309ZM244.309 107.309C244.309 104.852 245.212 103.613 247.27 103.613C249.391 103.613 250.273 104.789 250.273 107.309V107.393C250.273 109.955 249.328 111.047 247.375 111.047C245.254 111.047 244.309 109.745 244.309 107.393V107.309ZM255.888 113H258.576V104.054H263.238V113H265.905V101.66H255.888V113ZM269.443 116.78H272.131V111.551C272.677 112.391 273.727 113.252 275.722 113.252C279.082 113.252 280.594 111.383 280.594 107.162C280.594 103.109 279.187 101.408 276.016 101.408C273.916 101.408 272.698 102.227 272.068 103.529L271.963 101.66H269.443V116.78ZM272.131 108.065V106.616C272.131 104.873 272.992 103.634 274.987 103.634C276.919 103.634 277.843 104.642 277.843 107.225C277.843 109.934 277.108 111.026 274.987 111.026C273.055 111.026 272.131 109.892 272.131 108.065ZM282.799 107.309C282.799 111.215 284.647 113.252 288.511 113.252C292.123 113.252 294.265 111.467 294.265 107.351C294.265 103.277 292.375 101.408 288.658 101.408C284.983 101.408 282.799 103.382 282.799 107.309ZM285.55 107.309C285.55 104.852 286.453 103.613 288.511 103.613C290.632 103.613 291.514 104.789 291.514 107.309V107.393C291.514 109.955 290.569 111.047 288.616 111.047C286.495 111.047 285.55 109.745 285.55 107.393V107.309ZM297.129 113.021C298.347 113.084 300.111 113.126 301.644 113.126C305.718 113.126 307.02 111.908 307.02 109.619C307.02 107.813 306.138 107.141 304.458 106.994C305.718 106.658 306.495 105.818 306.495 104.306C306.495 102.542 305.529 101.534 301.665 101.534C300.069 101.534 298.347 101.597 297.129 101.66V113.021ZM299.817 110.963V108.086H302.127C303.66 108.086 304.269 108.401 304.269 109.472C304.269 110.648 303.681 111.047 301.77 111.047C301.077 111.047 300.51 111.026 299.817 110.963ZM299.817 106.364V103.634C300.237 103.613 300.783 103.592 301.644 103.592C303.324 103.592 303.849 103.928 303.849 104.936C303.849 105.965 303.156 106.364 301.917 106.364H299.817ZM309.213 107.309C309.213 111.215 311.061 113.252 314.925 113.252C318.537 113.252 320.679 111.467 320.679 107.351C320.679 103.277 318.789 101.408 315.072 101.408C311.397 101.408 309.213 103.382 309.213 107.309ZM311.964 107.309C311.964 104.852 312.867 103.613 314.925 103.613C317.046 103.613 317.928 104.789 317.928 107.309V107.393C317.928 109.955 316.983 111.047 315.03 111.047C312.909 111.047 311.964 109.745 311.964 107.393V107.309ZM324.98 113L327.731 108.254H328.991V113H331.679V108.254H333.002L335.69 113H338.756L335.207 107.141L338.42 101.66H335.522L332.981 106.196H331.679V101.66H328.991V106.196H327.689L325.232 101.66H322.271L325.484 107.183L321.935 113H324.98ZM340.186 115.73H342.685V113H350.308V115.73H352.786V110.669H351.106V101.66H342.622L342.601 102.899C342.58 106.385 342.244 109.115 341.488 110.669H340.186V115.73ZM348.418 110.669H344.113C344.701 109.199 344.974 106.952 345.037 104.768L345.058 103.991H348.418V110.669ZM365.329 108.086V106.826C365.329 103.571 363.985 101.408 360.1 101.408C356.53 101.408 354.535 103.382 354.535 107.162C354.535 111.383 356.299 113.252 360.394 113.252C362.452 113.252 363.964 112.685 364.531 112.244V109.829C363.691 110.501 362.242 111.068 360.688 111.068C358.42 111.068 357.286 110.123 357.244 108.086H365.329ZM360.058 103.529C361.927 103.529 362.662 104.516 362.662 106.343H357.244C357.286 104.474 358.252 103.529 360.058 103.529ZM368.148 113H370.836V108.464H375.708V113H378.375V101.66H375.708V106.133H370.836V101.66H368.148V113ZM381.909 113H384.408L388.314 107.204C388.839 106.469 389.322 105.671 389.658 105.062L389.7 105.083C389.658 105.797 389.595 107.057 389.595 108.296V113H392.283V101.66H389.784L385.92 107.435C385.416 108.17 384.996 108.8 384.555 109.556L384.471 109.535C384.534 108.968 384.597 107.96 384.597 106.91V101.66H381.909V113ZM394.847 113H397.829L400.244 109.346H402.533V113H405.2V101.681C404.024 101.576 402.512 101.534 401.168 101.534C396.821 101.534 395.498 102.878 395.498 105.524C395.498 107.309 396.107 108.506 397.682 108.947L394.847 113ZM402.554 107.393H400.475C398.9 107.393 398.27 106.952 398.27 105.566C398.27 104.264 398.795 103.718 400.895 103.718C401.63 103.718 402.113 103.739 402.554 103.802V107.393ZM413.905 107.309C413.905 111.215 415.753 113.252 419.617 113.252C423.229 113.252 425.371 111.467 425.371 107.351C425.371 103.277 423.481 101.408 419.764 101.408C416.089 101.408 413.905 103.382 413.905 107.309ZM416.656 107.309C416.656 104.852 417.559 103.613 419.617 103.613C421.738 103.613 422.62 104.789 422.62 107.309V107.393C422.62 109.955 421.675 111.047 419.722 111.047C417.601 111.047 416.656 109.745 416.656 107.393V107.309ZM428.236 113H430.924V104.054H435.586V113H438.253V101.66H428.236V113ZM451.934 108.086V106.826C451.934 103.571 450.59 101.408 446.705 101.408C443.135 101.408 441.14 103.382 441.14 107.162C441.14 111.383 442.904 113.252 446.999 113.252C449.057 113.252 450.569 112.685 451.136 112.244V109.829C450.296 110.501 448.847 111.068 447.293 111.068C445.025 111.068 443.891 110.123 443.849 108.086H451.934ZM446.663 103.529C448.532 103.529 449.267 104.516 449.267 106.343H443.849C443.891 104.474 444.857 103.529 446.663 103.529ZM454.731 116.78H457.419V111.551C457.965 112.391 459.015 113.252 461.01 113.252C464.37 113.252 465.882 111.383 465.882 107.162C465.882 103.109 464.475 101.408 461.304 101.408C459.204 101.408 457.986 102.227 457.356 103.529L457.251 101.66H454.731V116.78ZM457.419 108.065V106.616C457.419 104.873 458.28 103.634 460.275 103.634C462.207 103.634 463.131 104.642 463.131 107.225C463.131 109.934 462.396 111.026 460.275 111.026C458.343 111.026 457.419 109.892 457.419 108.065ZM475.437 113H477.873V105.524C477.873 102.479 476.55 101.408 473.064 101.408C471.552 101.408 469.893 101.786 468.948 102.269V104.978C469.746 104.327 471.216 103.676 472.644 103.676C474.492 103.676 475.185 104.18 475.185 105.608V106.406H472.791C469.41 106.406 467.982 107.33 467.982 109.808C467.982 111.887 469.2 113.252 471.699 113.252C473.61 113.252 474.828 112.307 475.332 111.383L475.437 113ZM470.712 109.472C470.712 108.359 471.258 107.981 473.085 107.981H475.185V108.737C475.185 110.081 474.387 111.047 472.56 111.047C471.195 111.047 470.712 110.417 470.712 109.472ZM481.269 113H490.362V115.73H492.84V110.669H491.181V101.66H488.493V110.669H483.957V101.66H481.269V113ZM495.255 113H497.754L501.66 107.204C502.185 106.469 502.668 105.671 503.004 105.062L503.046 105.083C503.004 105.797 502.941 107.057 502.941 108.296V113H505.629V101.66H503.13L499.266 107.435C498.762 108.17 498.342 108.8 497.901 109.556L497.817 109.535C497.88 108.968 497.943 107.96 497.943 106.91V101.66H495.255V113ZM509.16 113H511.659L515.565 107.204C516.09 106.469 516.573 105.671 516.909 105.062L516.951 105.083C516.909 105.797 516.846 107.057 516.846 108.296V113H519.534V101.66H517.035L513.171 107.435C512.667 108.17 512.247 108.8 511.806 109.556L511.722 109.535C511.785 108.968 511.848 107.96 511.848 106.91V101.66H509.16V113ZM510.777 96.62C510.777 98.993 512.394 99.98 514.347 99.98C516.384 99.98 517.917 98.993 517.917 96.62H515.859C515.859 97.88 515.334 98.3 514.347 98.3C513.444 98.3 512.919 97.88 512.919 96.62H510.777ZM538.968 101.408C535.524 101.408 533.823 102.941 533.466 106.091H531.576V101.66H528.888V113H531.576V108.38H533.424C533.697 111.614 535.377 113.252 538.905 113.252C542.601 113.252 544.533 111.572 544.533 107.33C544.533 103.088 542.727 101.408 538.968 101.408ZM535.965 107.33C535.965 104.558 536.742 103.634 538.842 103.634C540.9 103.634 541.761 104.432 541.761 107.372C541.761 110.186 540.753 111.026 538.905 111.026C536.931 111.026 535.965 109.976 535.965 107.33ZM547.386 116.78H550.074V111.551C550.62 112.391 551.67 113.252 553.665 113.252C557.025 113.252 558.537 111.383 558.537 107.162C558.537 103.109 557.13 101.408 553.959 101.408C551.859 101.408 550.641 102.227 550.011 103.529L549.906 101.66H547.386V116.78ZM550.074 108.065V106.616C550.074 104.873 550.935 103.634 552.93 103.634C554.862 103.634 555.786 104.642 555.786 107.225C555.786 109.934 555.051 111.026 552.93 111.026C550.998 111.026 550.074 109.892 550.074 108.065ZM561.413 113H563.912L567.818 107.204C568.343 106.469 568.826 105.671 569.162 105.062L569.204 105.083C569.162 105.797 569.099 107.057 569.099 108.296V113H571.787V101.66H569.288L565.424 107.435C564.92 108.17 564.5 108.8 564.059 109.556L563.975 109.535C564.038 108.968 564.101 107.96 564.101 106.91V101.66H561.413V113ZM574.016 115.73H576.515V113H584.138V115.73H586.616V110.669H584.936V101.66H576.452L576.431 102.899C576.41 106.385 576.074 109.115 575.318 110.669H574.016V115.73ZM582.248 110.669H577.943C578.531 109.199 578.804 106.952 578.867 104.768L578.888 103.991H582.248V110.669ZM589.037 113H591.536L595.442 107.204C595.967 106.469 596.45 105.671 596.786 105.062L596.828 105.083C596.786 105.797 596.723 107.057 596.723 108.296V113H599.411V101.66H596.912L593.048 107.435C592.544 108.17 592.124 108.8 591.683 109.556L591.599 109.535C591.662 108.968 591.725 107.96 591.725 106.91V101.66H589.037V113ZM602.375 105.797C602.375 108.422 604.034 109.43 606.68 109.43C607.583 109.43 608.696 109.241 609.41 108.926V113H612.077V101.66H609.41V106.763C608.822 106.994 608.108 107.141 607.268 107.141C605.756 107.141 605.063 106.511 605.063 105.146V101.66H602.375V105.797ZM625.738 108.086V106.826C625.738 103.571 624.394 101.408 620.509 101.408C616.939 101.408 614.944 103.382 614.944 107.162C614.944 111.383 616.708 113.252 620.803 113.252C622.861 113.252 624.373 112.685 624.94 112.244V109.829C624.1 110.501 622.651 111.068 621.097 111.068C618.829 111.068 617.695 110.123 617.653 108.086H625.738ZM620.467 103.529C622.336 103.529 623.071 104.516 623.071 106.343H617.653C617.695 104.474 618.661 103.529 620.467 103.529ZM637.103 102.038C636.431 101.723 635.486 101.408 633.785 101.408C629.774 101.408 627.884 103.319 627.884 107.183C627.884 111.593 629.816 113.252 633.806 113.252C635.549 113.252 636.746 112.874 637.376 112.475V109.955C636.683 110.522 635.486 110.9 634.268 110.9C631.79 110.9 630.656 109.892 630.656 107.267C630.656 104.642 631.832 103.76 633.911 103.76C635.318 103.76 636.368 104.18 637.103 104.705V102.038ZM647.847 113H651.102L646.776 107.057L650.619 101.66H647.532L644.487 106.196H642.933V101.66H640.245V113H642.933V108.317H644.529L647.847 113ZM653.227 113H655.726L659.632 107.204C660.157 106.469 660.64 105.671 660.976 105.062L661.018 105.083C660.976 105.797 660.913 107.057 660.913 108.296V113H663.601V101.66H661.102L657.238 107.435C656.734 108.17 656.314 108.8 655.873 109.556L655.789 109.535C655.852 108.968 655.915 107.96 655.915 106.91V101.66H653.227V113ZM665.766 113H668.769L671.331 108.926L673.935 113H677.022L673.2 107.099L676.812 101.66H673.83L671.457 105.398L669.126 101.66H666.039L669.588 107.183L665.766 113ZM683.859 113.105C684.174 113.231 684.51 113.252 684.93 113.252C687.177 113.252 688.479 111.635 688.71 104.747L688.731 104.075H692.217V113H694.884V101.66H686.295L686.253 103.319C686.085 109.85 685.371 110.375 684.384 110.375C684.195 110.375 684.048 110.354 683.859 110.291V113.105ZM698.426 113H700.925L704.831 107.204C705.356 106.469 705.839 105.671 706.175 105.062L706.217 105.083C706.175 105.797 706.112 107.057 706.112 108.296V113H708.8V101.66H706.301L702.437 107.435C701.933 108.17 701.513 108.8 701.072 109.556L700.988 109.535C701.051 108.968 701.114 107.96 701.114 106.91V101.66H698.426V113ZM712.33 113H721.423V115.73H723.901V110.669H722.242V101.66H719.554V110.669H715.018V101.66H712.33V113ZM92.1 139H94.893V126.778H101.466V139H104.259V124.3H92.1V139ZM108.465 139H119.7V141.73H122.22V136.564H120.351V124.3H117.558V136.564H111.258V124.3H108.465V139ZM125.015 139H127.808V126.778H134.381V139H137.174V124.3H125.015V139ZM148.989 138.013H151.593L148.863 133.456L151.572 128.899H149.031L146.196 133.498L148.989 138.013ZM153.945 138.013H156.549L153.819 133.456L156.528 128.899H153.987L151.152 133.498L153.945 138.013ZM160.001 139H171.236V141.73H173.756V136.564H171.887V124.3H169.094V136.564H162.794V124.3H160.001V139ZM186.337 134.086V132.826C186.337 129.571 184.993 127.408 181.108 127.408C177.538 127.408 175.543 129.382 175.543 133.162C175.543 137.383 177.307 139.252 181.402 139.252C183.46 139.252 184.972 138.685 185.539 138.244V135.829C184.699 136.501 183.25 137.068 181.696 137.068C179.428 137.068 178.294 136.123 178.252 134.086H186.337ZM181.066 129.529C182.935 129.529 183.67 130.516 183.67 132.343H178.252C178.294 130.474 179.26 129.529 181.066 129.529ZM189.156 139H191.844V134.464H196.716V139H199.383V127.66H196.716V132.133H191.844V127.66H189.156V139ZM205.289 139H207.956V130.054H211.589V127.66H201.635V130.054H205.289V139ZM213.806 142.78H216.494V137.551C217.04 138.391 218.09 139.252 220.085 139.252C223.445 139.252 224.957 137.383 224.957 133.162C224.957 129.109 223.55 127.408 220.379 127.408C218.279 127.408 217.061 128.227 216.431 129.529L216.326 127.66H213.806V142.78ZM216.494 134.065V132.616C216.494 130.873 217.355 129.634 219.35 129.634C221.282 129.634 222.206 130.642 222.206 133.225C222.206 135.934 221.471 137.026 219.35 137.026C217.418 137.026 216.494 135.892 216.494 134.065ZM242.205 128.038C241.533 127.723 240.588 127.408 238.887 127.408C234.876 127.408 232.986 129.319 232.986 133.183C232.986 137.593 234.918 139.252 238.908 139.252C240.651 139.252 241.848 138.874 242.478 138.475V135.955C241.785 136.522 240.588 136.9 239.37 136.9C236.892 136.9 235.758 135.892 235.758 133.267C235.758 130.642 236.934 129.76 239.013 129.76C240.42 129.76 241.47 130.18 242.205 130.705V128.038ZM244.408 133.309C244.408 137.215 246.256 139.252 250.12 139.252C253.732 139.252 255.874 137.467 255.874 133.351C255.874 129.277 253.984 127.408 250.267 127.408C246.592 127.408 244.408 129.382 244.408 133.309ZM247.159 133.309C247.159 130.852 248.062 129.613 250.12 129.613C252.241 129.613 253.123 130.789 253.123 133.309V133.393C253.123 135.955 252.178 137.047 250.225 137.047C248.104 137.047 247.159 135.745 247.159 133.393V133.309ZM258.739 139H261.427V130.054H266.089V139H268.756V127.66H258.739V139ZM272.294 142.78H274.982V137.551C275.528 138.391 276.578 139.252 278.573 139.252C281.933 139.252 283.445 137.383 283.445 133.162C283.445 129.109 282.038 127.408 278.867 127.408C276.767 127.408 275.549 128.227 274.919 129.529L274.814 127.66H272.294V142.78ZM274.982 134.065V132.616C274.982 130.873 275.843 129.634 277.838 129.634C279.77 129.634 280.694 130.642 280.694 133.225C280.694 135.934 279.959 137.026 277.838 137.026C275.906 137.026 274.982 135.892 274.982 134.065ZM285.65 133.309C285.65 137.215 287.498 139.252 291.362 139.252C294.974 139.252 297.116 137.467 297.116 133.351C297.116 129.277 295.226 127.408 291.509 127.408C287.834 127.408 285.65 129.382 285.65 133.309ZM288.401 133.309C288.401 130.852 289.304 129.613 291.362 129.613C293.483 129.613 294.365 130.789 294.365 133.309V133.393C294.365 135.955 293.42 137.047 291.467 137.047C289.346 137.047 288.401 135.745 288.401 133.393V133.309ZM299.98 139.021C301.198 139.084 302.962 139.126 304.495 139.126C308.569 139.126 309.871 137.908 309.871 135.619C309.871 133.813 308.989 133.141 307.309 132.994C308.569 132.658 309.346 131.818 309.346 130.306C309.346 128.542 308.38 127.534 304.516 127.534C302.92 127.534 301.198 127.597 299.98 127.66V139.021ZM302.668 136.963V134.086H304.978C306.511 134.086 307.12 134.401 307.12 135.472C307.12 136.648 306.532 137.047 304.621 137.047C303.928 137.047 303.361 137.026 302.668 136.963ZM302.668 132.364V129.634C303.088 129.613 303.634 129.592 304.495 129.592C306.175 129.592 306.7 129.928 306.7 130.936C306.7 131.965 306.007 132.364 304.768 132.364H302.668ZM312.064 133.309C312.064 137.215 313.912 139.252 317.776 139.252C321.388 139.252 323.53 137.467 323.53 133.351C323.53 129.277 321.64 127.408 317.923 127.408C314.248 127.408 312.064 129.382 312.064 133.309ZM314.815 133.309C314.815 130.852 315.718 129.613 317.776 129.613C319.897 129.613 320.779 130.789 320.779 133.309V133.393C320.779 135.955 319.834 137.047 317.881 137.047C315.76 137.047 314.815 135.745 314.815 133.393V133.309ZM327.83 139L330.581 134.254H331.841V139H334.529V134.254H335.852L338.54 139H341.606L338.057 133.141L341.27 127.66H338.372L335.831 132.196H334.529V127.66H331.841V132.196H330.539L328.082 127.66H325.121L328.334 133.183L324.785 139H327.83ZM343.036 141.73H345.535V139H353.158V141.73H355.636V136.669H353.956V127.66H345.472L345.451 128.899C345.43 132.385 345.094 135.115 344.338 136.669H343.036V141.73ZM351.268 136.669H346.963C347.551 135.199 347.824 132.952 347.887 130.768L347.908 129.991H351.268V136.669ZM368.18 134.086V132.826C368.18 129.571 366.836 127.408 362.951 127.408C359.381 127.408 357.386 129.382 357.386 133.162C357.386 137.383 359.15 139.252 363.245 139.252C365.303 139.252 366.815 138.685 367.382 138.244V135.829C366.542 136.501 365.093 137.068 363.539 137.068C361.271 137.068 360.137 136.123 360.095 134.086H368.18ZM362.909 129.529C364.778 129.529 365.513 130.516 365.513 132.343H360.095C360.137 130.474 361.103 129.529 362.909 129.529ZM370.998 139H373.686V134.464H378.558V139H381.225V127.66H378.558V132.133H373.686V127.66H370.998V139ZM384.759 139H387.258L391.164 133.204C391.689 132.469 392.172 131.671 392.508 131.062L392.55 131.083C392.508 131.797 392.445 133.057 392.445 134.296V139H395.133V127.66H392.634L388.77 133.435C388.266 134.17 387.846 134.8 387.405 135.556L387.321 135.535C387.384 134.968 387.447 133.96 387.447 132.91V127.66H384.759V139ZM397.697 139H400.679L403.094 135.346H405.383V139H408.05V127.681C406.874 127.576 405.362 127.534 404.018 127.534C399.671 127.534 398.348 128.878 398.348 131.524C398.348 133.309 398.957 134.506 400.532 134.947L397.697 139ZM405.404 133.393H403.325C401.75 133.393 401.12 132.952 401.12 131.566C401.12 130.264 401.645 129.718 403.745 129.718C404.48 129.718 404.963 129.739 405.404 129.802V133.393ZM425.03 139H428.285L423.959 133.057L427.802 127.66H424.715L421.67 132.196H420.116V127.66H417.428V139H420.116V134.317H421.712L425.03 139ZM429.541 139.105C429.856 139.231 430.192 139.252 430.612 139.252C432.859 139.252 434.161 137.635 434.392 130.747L434.413 130.075H437.899V139H440.566V127.66H431.977L431.935 129.319C431.767 135.85 431.053 136.375 430.066 136.375C429.877 136.375 429.73 136.354 429.541 136.291V139.105ZM444.109 139H446.608L450.514 133.204C451.039 132.469 451.522 131.671 451.858 131.062L451.9 131.083C451.858 131.797 451.795 133.057 451.795 134.296V139H454.483V127.66H451.984L448.12 133.435C447.616 134.17 447.196 134.8 446.755 135.556L446.671 135.535C446.734 134.968 446.797 133.96 446.797 132.91V127.66H444.109V139ZM468.135 134.086V132.826C468.135 129.571 466.791 127.408 462.906 127.408C459.336 127.408 457.341 129.382 457.341 133.162C457.341 137.383 459.105 139.252 463.2 139.252C465.258 139.252 466.77 138.685 467.337 138.244V135.829C466.497 136.501 465.048 137.068 463.494 137.068C461.226 137.068 460.092 136.123 460.05 134.086H468.135ZM462.864 129.529C464.733 129.529 465.468 130.516 465.468 132.343H460.05C460.092 130.474 461.058 129.529 462.864 129.529ZM470.953 139H473.641V134.464H478.513V139H481.18V127.66H478.513V132.133H473.641V127.66H470.953V139ZM487.087 139H489.754V130.054H493.387V127.66H483.433V130.054H487.087V139ZM504.171 128.038C503.499 127.723 502.554 127.408 500.853 127.408C496.842 127.408 494.952 129.319 494.952 133.183C494.952 137.593 496.884 139.252 500.874 139.252C502.617 139.252 503.814 138.874 504.444 138.475V135.955C503.751 136.522 502.554 136.9 501.336 136.9C498.858 136.9 497.724 135.892 497.724 133.267C497.724 130.642 498.9 129.76 500.979 129.76C502.386 129.76 503.436 130.18 504.171 130.705V128.038ZM514.916 139H518.171L513.845 133.057L517.688 127.66H514.601L511.556 132.196H510.002V127.66H507.314V139H510.002V134.317H511.598L514.916 139ZM520.295 139H522.794L526.7 133.204C527.225 132.469 527.708 131.671 528.044 131.062L528.086 131.083C528.044 131.797 527.981 133.057 527.981 134.296V139H530.669V127.66H528.17L524.306 133.435C523.802 134.17 523.382 134.8 522.941 135.556L522.857 135.535C522.92 134.968 522.983 133.96 522.983 132.91V127.66H520.295V139ZM532.835 139H535.838L538.4 134.926L541.004 139H544.091L540.269 133.099L543.881 127.66H540.899L538.526 131.398L536.195 127.66H533.108L536.657 133.183L532.835 139ZM551.431 133.309C551.431 137.215 553.279 139.252 557.143 139.252C560.755 139.252 562.897 137.467 562.897 133.351C562.897 129.277 561.007 127.408 557.29 127.408C553.615 127.408 551.431 129.382 551.431 133.309ZM554.182 133.309C554.182 130.852 555.085 129.613 557.143 129.613C559.264 129.613 560.146 130.789 560.146 133.309V133.393C560.146 135.955 559.201 137.047 557.248 137.047C555.127 137.047 554.182 135.745 554.182 133.393V133.309ZM565.761 139H568.449V130.054H573.111V139H575.778V127.66H565.761V139ZM589.459 134.086V132.826C589.459 129.571 588.115 127.408 584.23 127.408C580.66 127.408 578.665 129.382 578.665 133.162C578.665 137.383 580.429 139.252 584.524 139.252C586.582 139.252 588.094 138.685 588.661 138.244V135.829C587.821 136.501 586.372 137.068 584.818 137.068C582.55 137.068 581.416 136.123 581.374 134.086H589.459ZM584.188 129.529C586.057 129.529 586.792 130.516 586.792 132.343H581.374C581.416 130.474 582.382 129.529 584.188 129.529ZM592.257 142.78H594.945V137.551C595.491 138.391 596.541 139.252 598.536 139.252C601.896 139.252 603.408 137.383 603.408 133.162C603.408 129.109 602.001 127.408 598.83 127.408C596.73 127.408 595.512 128.227 594.882 129.529L594.777 127.66H592.257V142.78ZM594.945 134.065V132.616C594.945 130.873 595.806 129.634 597.801 129.634C599.733 129.634 600.657 130.642 600.657 133.225C600.657 135.934 599.922 137.026 597.801 137.026C595.869 137.026 594.945 135.892 594.945 134.065ZM612.963 139H615.399V131.524C615.399 128.479 614.076 127.408 610.59 127.408C609.078 127.408 607.419 127.786 606.474 128.269V130.978C607.272 130.327 608.742 129.676 610.17 129.676C612.018 129.676 612.711 130.18 612.711 131.608V132.406H610.317C606.936 132.406 605.508 133.33 605.508 135.808C605.508 137.887 606.726 139.252 609.225 139.252C611.136 139.252 612.354 138.307 612.858 137.383L612.963 139ZM608.238 135.472C608.238 134.359 608.784 133.981 610.611 133.981H612.711V134.737C612.711 136.081 611.913 137.047 610.086 137.047C608.721 137.047 608.238 136.417 608.238 135.472ZM618.794 139H627.887V141.73H630.365V136.669H628.706V127.66H626.018V136.669H621.482V127.66H618.794V139ZM632.781 139H635.28L639.186 133.204C639.711 132.469 640.194 131.671 640.53 131.062L640.572 131.083C640.53 131.797 640.467 133.057 640.467 134.296V139H643.155V127.66H640.656L636.792 133.435C636.288 134.17 635.868 134.8 635.427 135.556L635.343 135.535C635.406 134.968 635.469 133.96 635.469 132.91V127.66H632.781V139ZM646.685 139H649.184L653.09 133.204C653.615 132.469 654.098 131.671 654.434 131.062L654.476 131.083C654.434 131.797 654.371 133.057 654.371 134.296V139H657.059V127.66H654.56L650.696 133.435C650.192 134.17 649.772 134.8 649.331 135.556L649.247 135.535C649.31 134.968 649.373 133.96 649.373 132.91V127.66H646.685V139ZM648.302 122.62C648.302 124.993 649.919 125.98 651.872 125.98C653.909 125.98 655.442 124.993 655.442 122.62H653.384C653.384 123.88 652.859 124.3 651.872 124.3C650.969 124.3 650.444 123.88 650.444 122.62H648.302ZM670.522 133.498L667.708 128.899H665.167L667.876 133.477L665.146 138.013H667.75L670.522 133.498ZM665.566 133.498L662.731 128.899H660.19L662.899 133.477L660.169 138.013H662.773L665.566 133.498Z"
      fill="#363636"/>
  <path
      d="M93.297 410.853C93.801 411.063 94.41 411.189 95.04 411.189C96.846 411.189 97.875 410.475 98.967 407.913L103.944 396.3H101.025L97.686 404.553L93.612 396.3H90.336L96.153 407.514C95.796 408.375 95.166 408.564 94.62 408.564C94.095 408.564 93.591 408.354 93.297 408.123V410.853ZM105.197 411H107.885V402.054H112.547V411H115.214V399.66H105.197V411ZM118.752 414.78H121.44V409.551C121.986 410.391 123.036 411.252 125.031 411.252C128.391 411.252 129.903 409.383 129.903 405.162C129.903 401.109 128.496 399.408 125.325 399.408C123.225 399.408 122.007 400.227 121.377 401.529L121.272 399.66H118.752V414.78ZM121.44 406.065V404.616C121.44 402.873 122.301 401.634 124.296 401.634C126.228 401.634 127.152 402.642 127.152 405.225C127.152 407.934 126.417 409.026 124.296 409.026C122.364 409.026 121.44 407.892 121.44 406.065ZM139.458 411H141.894V403.524C141.894 400.479 140.571 399.408 137.085 399.408C135.573 399.408 133.914 399.786 132.969 400.269V402.978C133.767 402.327 135.237 401.676 136.665 401.676C138.513 401.676 139.206 402.18 139.206 403.608V404.406H136.812C133.431 404.406 132.003 405.33 132.003 407.808C132.003 409.887 133.221 411.252 135.72 411.252C137.631 411.252 138.849 410.307 139.353 409.383L139.458 411ZM134.733 407.472C134.733 406.359 135.279 405.981 137.106 405.981H139.206V406.737C139.206 408.081 138.408 409.047 136.581 409.047C135.216 409.047 134.733 408.417 134.733 407.472ZM145.289 411.021C146.507 411.084 148.271 411.126 149.804 411.126C153.878 411.126 155.18 409.908 155.18 407.619C155.18 405.813 154.298 405.141 152.618 404.994C153.878 404.658 154.655 403.818 154.655 402.306C154.655 400.542 153.689 399.534 149.825 399.534C148.229 399.534 146.507 399.597 145.289 399.66V411.021ZM147.977 408.963V406.086H150.287C151.82 406.086 152.429 406.401 152.429 407.472C152.429 408.648 151.841 409.047 149.93 409.047C149.237 409.047 148.67 409.026 147.977 408.963ZM147.977 404.364V401.634C148.397 401.613 148.943 401.592 149.804 401.592C151.484 401.592 152.009 401.928 152.009 402.936C152.009 403.965 151.316 404.364 150.077 404.364H147.977ZM156.869 411.105C157.184 411.231 157.52 411.252 157.94 411.252C160.187 411.252 161.489 409.635 161.72 402.747L161.741 402.075H165.227V411H167.894V399.66H159.305L159.263 401.319C159.095 407.85 158.381 408.375 157.394 408.375C157.205 408.375 157.058 408.354 156.869 408.291V411.105ZM181.559 406.086V404.826C181.559 401.571 180.215 399.408 176.33 399.408C172.76 399.408 170.765 401.382 170.765 405.162C170.765 409.383 172.529 411.252 176.624 411.252C178.682 411.252 180.194 410.685 180.761 410.244V407.829C179.921 408.501 178.472 409.068 176.918 409.068C174.65 409.068 173.516 408.123 173.474 406.086H181.559ZM176.288 401.529C178.157 401.529 178.892 402.516 178.892 404.343H173.474C173.516 402.474 174.482 401.529 176.288 401.529ZM184.377 411H187.065V406.464H191.937V411H194.604V399.66H191.937V404.133H187.065V399.66H184.377V411ZM198.138 411H200.637L204.543 405.204C205.068 404.469 205.551 403.671 205.887 403.062L205.929 403.083C205.887 403.797 205.824 405.057 205.824 406.296V411H208.512V399.66H206.013L202.149 405.435C201.645 406.17 201.225 406.8 200.784 407.556L200.7 407.535C200.763 406.968 200.826 405.96 200.826 404.91V399.66H198.138V411ZM222.164 406.086V404.826C222.164 401.571 220.82 399.408 216.935 399.408C213.365 399.408 211.37 401.382 211.37 405.162C211.37 409.383 213.134 411.252 217.229 411.252C219.287 411.252 220.799 410.685 221.366 410.244V407.829C220.526 408.501 219.077 409.068 217.523 409.068C215.255 409.068 214.121 408.123 214.079 406.086H222.164ZM216.893 401.529C218.762 401.529 219.497 402.516 219.497 404.343H214.079C214.121 402.474 215.087 401.529 216.893 401.529ZM234.167 409.047C232.571 409.047 231.038 408.354 230.324 407.892V410.538C231.038 410.853 232.277 411.252 234.23 411.252C238.535 411.252 240.215 409.215 240.215 405.12C240.215 401.151 238.409 399.408 234.146 399.408C232.529 399.408 231.143 399.765 230.387 400.122V402.747C231.374 402.159 232.424 401.613 234.104 401.613C236.288 401.613 237.317 402.39 237.527 404.364H232.445V406.17H237.548C237.359 408.27 236.33 409.047 234.167 409.047ZM243.071 411H245.654V404.973C245.654 403.986 245.57 403.041 245.486 402.075C245.969 403.062 246.41 404.028 246.767 404.721L248.594 408.606H250.295L252.206 404.7C252.563 404.028 252.941 403.041 253.403 402.033C253.319 403.02 253.235 403.902 253.235 404.868V411H255.818V399.66H252.395L249.518 405.792L246.557 399.66H243.071V411ZM259.354 411H261.853L265.759 405.204C266.284 404.469 266.767 403.671 267.103 403.062L267.145 403.083C267.103 403.797 267.04 405.057 267.04 406.296V411H269.728V399.66H267.229L263.365 405.435C262.861 406.17 262.441 406.8 262 407.556L261.916 407.535C261.979 406.968 262.042 405.96 262.042 404.91V399.66H259.354V411ZM281.805 400.038C281.133 399.723 280.188 399.408 278.487 399.408C274.476 399.408 272.586 401.319 272.586 405.183C272.586 409.593 274.518 411.252 278.508 411.252C280.251 411.252 281.448 410.874 282.078 410.475V407.955C281.385 408.522 280.188 408.9 278.97 408.9C276.492 408.9 275.358 407.892 275.358 405.267C275.358 402.642 276.534 401.76 278.613 401.76C280.02 401.76 281.07 402.18 281.805 402.705V400.038ZM293.228 400.038C292.556 399.723 291.611 399.408 289.91 399.408C285.899 399.408 284.009 401.319 284.009 405.183C284.009 409.593 285.941 411.252 289.931 411.252C291.674 411.252 292.871 410.874 293.501 410.475V407.955C292.808 408.522 291.611 408.9 290.393 408.9C287.915 408.9 286.781 407.892 286.781 405.267C286.781 402.642 287.957 401.76 290.036 401.76C291.443 401.76 292.493 402.18 293.228 402.705V400.038ZM296.37 411H298.869L302.775 405.204C303.3 404.469 303.783 403.671 304.119 403.062L304.161 403.083C304.119 403.797 304.056 405.057 304.056 406.296V411H306.744V399.66H304.245L300.381 405.435C299.877 406.17 299.457 406.8 299.016 407.556L298.932 407.535C298.995 406.968 299.058 405.96 299.058 404.91V399.66H296.37V411ZM310.275 411H312.774L316.68 405.204C317.205 404.469 317.688 403.671 318.024 403.062L318.066 403.083C318.024 403.797 317.961 405.057 317.961 406.296V411H320.649V399.66H318.15L314.286 405.435C313.782 406.17 313.362 406.8 312.921 407.556L312.837 407.535C312.9 406.968 312.963 405.96 312.963 404.91V399.66H310.275V411ZM330.003 411H332.502L336.408 405.204C336.933 404.469 337.416 403.671 337.752 403.062L337.794 403.083C337.752 403.797 337.689 405.057 337.689 406.296V411H340.377V399.66H337.878L334.014 405.435C333.51 406.17 333.09 406.8 332.649 407.556L332.565 407.535C332.628 406.968 332.691 405.96 332.691 404.91V399.66H330.003V411ZM358.279 400.038C357.607 399.723 356.662 399.408 354.961 399.408C350.95 399.408 349.06 401.319 349.06 405.183C349.06 409.593 350.992 411.252 354.982 411.252C356.725 411.252 357.922 410.874 358.552 410.475V407.955C357.859 408.522 356.662 408.9 355.444 408.9C352.966 408.9 351.832 407.892 351.832 405.267C351.832 402.642 353.008 401.76 355.087 401.76C356.494 401.76 357.544 402.18 358.279 402.705V400.038ZM360.483 405.309C360.483 409.215 362.331 411.252 366.195 411.252C369.807 411.252 371.949 409.467 371.949 405.351C371.949 401.277 370.059 399.408 366.342 399.408C362.667 399.408 360.483 401.382 360.483 405.309ZM363.234 405.309C363.234 402.852 364.137 401.613 366.195 401.613C368.316 401.613 369.198 402.789 369.198 405.309V405.393C369.198 407.955 368.253 409.047 366.3 409.047C364.179 409.047 363.234 407.745 363.234 405.393V405.309ZM374.813 411H377.501V402.054H382.163V411H384.83V399.66H374.813V411ZM388.368 414.78H391.056V409.551C391.602 410.391 392.652 411.252 394.647 411.252C398.007 411.252 399.519 409.383 399.519 405.162C399.519 401.109 398.112 399.408 394.941 399.408C392.841 399.408 391.623 400.227 390.993 401.529L390.888 399.66H388.368V414.78ZM391.056 406.065V404.616C391.056 402.873 391.917 401.634 393.912 401.634C395.844 401.634 396.768 402.642 396.768 405.225C396.768 407.934 396.033 409.026 393.912 409.026C391.98 409.026 391.056 407.892 391.056 406.065ZM401.724 405.309C401.724 409.215 403.572 411.252 407.436 411.252C411.048 411.252 413.19 409.467 413.19 405.351C413.19 401.277 411.3 399.408 407.583 399.408C403.908 399.408 401.724 401.382 401.724 405.309ZM404.475 405.309C404.475 402.852 405.378 401.613 407.436 401.613C409.557 401.613 410.439 402.789 410.439 405.309V405.393C410.439 407.955 409.494 409.047 407.541 409.047C405.42 409.047 404.475 407.745 404.475 405.393V405.309ZM416.054 411.021C417.272 411.084 419.036 411.126 420.569 411.126C424.643 411.126 425.945 409.908 425.945 407.619C425.945 405.813 425.063 405.141 423.383 404.994C424.643 404.658 425.42 403.818 425.42 402.306C425.42 400.542 424.454 399.534 420.59 399.534C418.994 399.534 417.272 399.597 416.054 399.66V411.021ZM418.742 408.963V406.086H421.052C422.585 406.086 423.194 406.401 423.194 407.472C423.194 408.648 422.606 409.047 420.695 409.047C420.002 409.047 419.435 409.026 418.742 408.963ZM418.742 404.364V401.634C419.162 401.613 419.708 401.592 420.569 401.592C422.249 401.592 422.774 401.928 422.774 402.936C422.774 403.965 422.081 404.364 420.842 404.364H418.742ZM428.138 405.309C428.138 409.215 429.986 411.252 433.85 411.252C437.462 411.252 439.604 409.467 439.604 405.351C439.604 401.277 437.714 399.408 433.997 399.408C430.322 399.408 428.138 401.382 428.138 405.309ZM430.889 405.309C430.889 402.852 431.792 401.613 433.85 401.613C435.971 401.613 436.853 402.789 436.853 405.309V405.393C436.853 407.955 435.908 409.047 433.955 409.047C431.834 409.047 430.889 407.745 430.889 405.393V405.309ZM443.904 411L446.655 406.254H447.915V411H450.603V406.254H451.926L454.614 411H457.68L454.131 405.141L457.344 399.66H454.446L451.905 404.196H450.603V399.66H447.915V404.196H446.613L444.156 399.66H441.195L444.408 405.183L440.859 411H443.904ZM459.11 413.73H461.609V411H469.232V413.73H471.71V408.669H470.03V399.66H461.546L461.525 400.899C461.504 404.385 461.168 407.115 460.412 408.669H459.11V413.73ZM467.342 408.669H463.037C463.625 407.199 463.898 404.952 463.961 402.768L463.982 401.991H467.342V408.669ZM484.254 406.086V404.826C484.254 401.571 482.91 399.408 479.025 399.408C475.455 399.408 473.46 401.382 473.46 405.162C473.46 409.383 475.224 411.252 479.319 411.252C481.377 411.252 482.889 410.685 483.456 410.244V407.829C482.616 408.501 481.167 409.068 479.613 409.068C477.345 409.068 476.211 408.123 476.169 406.086H484.254ZM478.983 401.529C480.852 401.529 481.587 402.516 481.587 404.343H476.169C476.211 402.474 477.177 401.529 478.983 401.529ZM487.073 411H489.761V406.464H494.633V411H497.3V399.66H494.633V404.133H489.761V399.66H487.073V411ZM500.833 411H503.332L507.238 405.204C507.763 404.469 508.246 403.671 508.582 403.062L508.624 403.083C508.582 403.797 508.519 405.057 508.519 406.296V411H511.207V399.66H508.708L504.844 405.435C504.34 406.17 503.92 406.8 503.479 407.556L503.395 407.535C503.458 406.968 503.521 405.96 503.521 404.91V399.66H500.833V411ZM513.772 411H516.754L519.169 407.346H521.458V411H524.125V399.681C522.949 399.576 521.437 399.534 520.093 399.534C515.746 399.534 514.423 400.878 514.423 403.524C514.423 405.309 515.032 406.506 516.607 406.947L513.772 411ZM521.479 405.393H519.4C517.825 405.393 517.195 404.952 517.195 403.566C517.195 402.264 517.72 401.718 519.82 401.718C520.555 401.718 521.038 401.739 521.479 401.802V405.393ZM543.498 394.599C542.595 394.998 540.726 395.145 539.025 395.334C535.056 395.775 532.935 397.686 532.935 404.091C532.935 409.488 535.035 411.252 538.836 411.252C542.469 411.252 544.569 409.593 544.569 405.393C544.569 401.529 543.036 400.08 539.739 400.08C537.744 400.08 536.232 400.815 535.182 402.18L535.14 402.012C535.329 398.883 536.694 398.106 539.739 397.875C541.881 397.728 542.973 397.56 543.498 397.287V394.599ZM538.878 408.984C536.799 408.984 535.77 407.871 535.77 405.267C535.77 403.377 536.904 402.327 538.899 402.327C540.831 402.327 541.776 403.104 541.776 405.519C541.776 407.913 540.873 408.984 538.878 408.984ZM554.105 411H556.541V403.524C556.541 400.479 555.218 399.408 551.732 399.408C550.22 399.408 548.561 399.786 547.616 400.269V402.978C548.414 402.327 549.884 401.676 551.312 401.676C553.16 401.676 553.853 402.18 553.853 403.608V404.406H551.459C548.078 404.406 546.65 405.33 546.65 407.808C546.65 409.887 547.868 411.252 550.367 411.252C552.278 411.252 553.496 410.307 554 409.383L554.105 411ZM549.38 407.472C549.38 406.359 549.926 405.981 551.753 405.981H553.853V406.737C553.853 408.081 553.055 409.047 551.228 409.047C549.863 409.047 549.38 408.417 549.38 407.472ZM559.937 411H562.625V406.464H567.497V411H570.164V399.66H567.497V404.133H562.625V399.66H559.937V411ZM581.3 411H584.555L580.229 405.057L584.072 399.66H580.985L577.94 404.196H576.386V399.66H573.698V411H576.386V406.317H577.982L581.3 411ZM585.597 405.309C585.597 409.215 587.445 411.252 591.309 411.252C594.921 411.252 597.063 409.467 597.063 405.351C597.063 401.277 595.173 399.408 591.456 399.408C587.781 399.408 585.597 401.382 585.597 405.309ZM588.348 405.309C588.348 402.852 589.251 401.613 591.309 401.613C593.43 401.613 594.312 402.789 594.312 405.309V405.393C594.312 407.955 593.367 409.047 591.414 409.047C589.293 409.047 588.348 407.745 588.348 405.393V405.309ZM599.927 411.021C601.145 411.084 602.909 411.126 604.442 411.126C608.516 411.126 609.818 409.908 609.818 407.619C609.818 405.813 608.936 405.141 607.256 404.994C608.516 404.658 609.293 403.818 609.293 402.306C609.293 400.542 608.327 399.534 604.463 399.534C602.867 399.534 601.145 399.597 599.927 399.66V411.021ZM602.615 408.963V406.086H604.925C606.458 406.086 607.067 406.401 607.067 407.472C607.067 408.648 606.479 409.047 604.568 409.047C603.875 409.047 603.308 409.026 602.615 408.963ZM602.615 404.364V401.634C603.035 401.613 603.581 401.592 604.442 401.592C606.122 401.592 606.647 401.928 606.647 402.936C606.647 403.965 605.954 404.364 604.715 404.364H602.615ZM621.23 400.038C620.558 399.723 619.613 399.408 617.912 399.408C613.901 399.408 612.011 401.319 612.011 405.183C612.011 409.593 613.943 411.252 617.933 411.252C619.676 411.252 620.873 410.874 621.503 410.475V407.955C620.81 408.522 619.613 408.9 618.395 408.9C615.917 408.9 614.783 407.892 614.783 405.267C614.783 402.642 615.959 401.76 618.038 401.76C619.445 401.76 620.495 402.18 621.23 402.705V400.038ZM631.974 411H635.229L630.903 405.057L634.746 399.66H631.659L628.614 404.196H627.06V399.66H624.372V411H627.06V406.317H628.656L631.974 411ZM637.354 411H639.853L643.759 405.204C644.284 404.469 644.767 403.671 645.103 403.062L645.145 403.083C645.103 403.797 645.04 405.057 645.04 406.296V411H647.728V399.66H645.229L641.365 405.435C640.861 406.17 640.441 406.8 640 407.556L639.916 407.535C639.979 406.968 640.042 405.96 640.042 404.91V399.66H637.354V411ZM649.893 411H652.896L655.458 406.926L658.062 411H661.149L657.327 405.099L660.939 399.66H657.957L655.584 403.398L653.253 399.66H650.166L653.715 405.183L649.893 411ZM676.763 411H680.018L675.692 405.057L679.535 399.66H676.448L673.403 404.196H671.849V399.66H669.161V411H671.849V406.317H673.445L676.763 411ZM688.739 411H691.175V403.524C691.175 400.479 689.852 399.408 686.366 399.408C684.854 399.408 683.195 399.786 682.25 400.269V402.978C683.048 402.327 684.518 401.676 685.946 401.676C687.794 401.676 688.487 402.18 688.487 403.608V404.406H686.093C682.712 404.406 681.284 405.33 681.284 407.808C681.284 409.887 682.502 411.252 685.001 411.252C686.912 411.252 688.13 410.307 688.634 409.383L688.739 411ZM684.014 407.472C684.014 406.359 684.56 405.981 686.387 405.981H688.487V406.737C688.487 408.081 687.689 409.047 685.862 409.047C684.497 409.047 684.014 408.417 684.014 407.472ZM694.55 414.78H697.238V409.551C697.784 410.391 698.834 411.252 700.829 411.252C704.189 411.252 705.701 409.383 705.701 405.162C705.701 401.109 704.294 399.408 701.123 399.408C699.023 399.408 697.805 400.227 697.175 401.529L697.07 399.66H694.55V414.78ZM697.238 406.065V404.616C697.238 402.873 698.099 401.634 700.094 401.634C702.026 401.634 702.95 402.642 702.95 405.225C702.95 407.934 702.215 409.026 700.094 409.026C698.162 409.026 697.238 407.892 697.238 406.065ZM710.95 411H713.617V402.054H717.25V399.66H707.296V402.054H710.95V411Z"
      fill="#363636"/>
  <path
      d="M93.297 217.853C93.801 218.063 94.41 218.189 95.04 218.189C96.846 218.189 97.875 217.475 98.967 214.913L103.944 203.3H101.025L97.686 211.553L93.612 203.3H90.336L96.153 214.514C95.796 215.375 95.166 215.564 94.62 215.564C94.095 215.564 93.591 215.354 93.297 215.123V217.853ZM105.197 218H107.885V209.054H112.547V218H115.214V206.66H105.197V218ZM118.752 221.78H121.44V216.551C121.986 217.391 123.036 218.252 125.031 218.252C128.391 218.252 129.903 216.383 129.903 212.162C129.903 208.109 128.496 206.408 125.325 206.408C123.225 206.408 122.007 207.227 121.377 208.529L121.272 206.66H118.752V221.78ZM121.44 213.065V211.616C121.44 209.873 122.301 208.634 124.296 208.634C126.228 208.634 127.152 209.642 127.152 212.225C127.152 214.934 126.417 216.026 124.296 216.026C122.364 216.026 121.44 214.892 121.44 213.065ZM139.458 218H141.894V210.524C141.894 207.479 140.571 206.408 137.085 206.408C135.573 206.408 133.914 206.786 132.969 207.269V209.978C133.767 209.327 135.237 208.676 136.665 208.676C138.513 208.676 139.206 209.18 139.206 210.608V211.406H136.812C133.431 211.406 132.003 212.33 132.003 214.808C132.003 216.887 133.221 218.252 135.72 218.252C137.631 218.252 138.849 217.307 139.353 216.383L139.458 218ZM134.733 214.472C134.733 213.359 135.279 212.981 137.106 212.981H139.206V213.737C139.206 215.081 138.408 216.047 136.581 216.047C135.216 216.047 134.733 215.417 134.733 214.472ZM145.289 218.021C146.507 218.084 148.271 218.126 149.804 218.126C153.878 218.126 155.18 216.908 155.18 214.619C155.18 212.813 154.298 212.141 152.618 211.994C153.878 211.658 154.655 210.818 154.655 209.306C154.655 207.542 153.689 206.534 149.825 206.534C148.229 206.534 146.507 206.597 145.289 206.66V218.021ZM147.977 215.963V213.086H150.287C151.82 213.086 152.429 213.401 152.429 214.472C152.429 215.648 151.841 216.047 149.93 216.047C149.237 216.047 148.67 216.026 147.977 215.963ZM147.977 211.364V208.634C148.397 208.613 148.943 208.592 149.804 208.592C151.484 208.592 152.009 208.928 152.009 209.936C152.009 210.965 151.316 211.364 150.077 211.364H147.977ZM156.869 218.105C157.184 218.231 157.52 218.252 157.94 218.252C160.187 218.252 161.489 216.635 161.72 209.747L161.741 209.075H165.227V218H167.894V206.66H159.305L159.263 208.319C159.095 214.85 158.381 215.375 157.394 215.375C157.205 215.375 157.058 215.354 156.869 215.291V218.105ZM181.559 213.086V211.826C181.559 208.571 180.215 206.408 176.33 206.408C172.76 206.408 170.765 208.382 170.765 212.162C170.765 216.383 172.529 218.252 176.624 218.252C178.682 218.252 180.194 217.685 180.761 217.244V214.829C179.921 215.501 178.472 216.068 176.918 216.068C174.65 216.068 173.516 215.123 173.474 213.086H181.559ZM176.288 208.529C178.157 208.529 178.892 209.516 178.892 211.343H173.474C173.516 209.474 174.482 208.529 176.288 208.529ZM184.377 218H187.065V213.464H191.937V218H194.604V206.66H191.937V211.133H187.065V206.66H184.377V218ZM198.138 218H200.637L204.543 212.204C205.068 211.469 205.551 210.671 205.887 210.062L205.929 210.083C205.887 210.797 205.824 212.057 205.824 213.296V218H208.512V206.66H206.013L202.149 212.435C201.645 213.17 201.225 213.8 200.784 214.556L200.7 214.535C200.763 213.968 200.826 212.96 200.826 211.91V206.66H198.138V218ZM222.164 213.086V211.826C222.164 208.571 220.82 206.408 216.935 206.408C213.365 206.408 211.37 208.382 211.37 212.162C211.37 216.383 213.134 218.252 217.229 218.252C219.287 218.252 220.799 217.685 221.366 217.244V214.829C220.526 215.501 219.077 216.068 217.523 216.068C215.255 216.068 214.121 215.123 214.079 213.086H222.164ZM216.893 208.529C218.762 208.529 219.497 209.516 219.497 211.343H214.079C214.121 209.474 215.087 208.529 216.893 208.529ZM233.18 218H235.847V209.054H239.48V206.66H229.526V209.054H233.18V218ZM251.839 213.086V211.826C251.839 208.571 250.495 206.408 246.61 206.408C243.04 206.408 241.045 208.382 241.045 212.162C241.045 216.383 242.809 218.252 246.904 218.252C248.962 218.252 250.474 217.685 251.041 217.244V214.829C250.201 215.501 248.752 216.068 247.198 216.068C244.93 216.068 243.796 215.123 243.754 213.086H251.839ZM246.568 208.529C248.437 208.529 249.172 209.516 249.172 211.343H243.754C243.796 209.474 244.762 208.529 246.568 208.529ZM253.087 218H256.09L258.652 213.926L261.256 218H264.343L260.521 212.099L264.133 206.66H261.151L258.778 210.398L256.447 206.66H253.36L256.909 212.183L253.087 218ZM266.532 218H269.22V213.464H274.092V218H276.759V206.66H274.092V211.133H269.22V206.66H266.532V218ZM280.292 218H282.791L286.697 212.204C287.222 211.469 287.705 210.671 288.041 210.062L288.083 210.083C288.041 210.797 287.978 212.057 287.978 213.296V218H290.666V206.66H288.167L284.303 212.435C283.799 213.17 283.379 213.8 282.938 214.556L282.854 214.535C282.917 213.968 282.98 212.96 282.98 211.91V206.66H280.292V218ZM293.63 210.797C293.63 213.422 295.289 214.43 297.935 214.43C298.838 214.43 299.951 214.241 300.665 213.926V218H303.332V206.66H300.665V211.763C300.077 211.994 299.363 212.141 298.523 212.141C297.011 212.141 296.318 211.511 296.318 210.146V206.66H293.63V210.797ZM316.992 213.086V211.826C316.992 208.571 315.648 206.408 311.763 206.408C308.193 206.408 306.198 208.382 306.198 212.162C306.198 216.383 307.962 218.252 312.057 218.252C314.115 218.252 315.627 217.685 316.194 217.244V214.829C315.354 215.501 313.905 216.068 312.351 216.068C310.083 216.068 308.949 215.123 308.907 213.086H316.992ZM311.721 208.529C313.59 208.529 314.325 209.516 314.325 211.343H308.907C308.949 209.474 309.915 208.529 311.721 208.529ZM328.358 207.038C327.686 206.723 326.741 206.408 325.04 206.408C321.029 206.408 319.139 208.319 319.139 212.183C319.139 216.593 321.071 218.252 325.061 218.252C326.804 218.252 328.001 217.874 328.631 217.475V214.955C327.938 215.522 326.741 215.9 325.523 215.9C323.045 215.9 321.911 214.892 321.911 212.267C321.911 209.642 323.087 208.76 325.166 208.76C326.573 208.76 327.623 209.18 328.358 209.705V207.038ZM339.102 218H342.357L338.031 212.057L341.874 206.66H338.787L335.742 211.196H334.188V206.66H331.5V218H334.188V213.317H335.784L339.102 218ZM343.4 212.309C343.4 216.215 345.248 218.252 349.112 218.252C352.724 218.252 354.866 216.467 354.866 212.351C354.866 208.277 352.976 206.408 349.259 206.408C345.584 206.408 343.4 208.382 343.4 212.309ZM346.151 212.309C346.151 209.852 347.054 208.613 349.112 208.613C351.233 208.613 352.115 209.789 352.115 212.309V212.393C352.115 214.955 351.17 216.047 349.217 216.047C347.096 216.047 346.151 214.745 346.151 212.393V212.309ZM357.73 218H360.229L364.135 212.204C364.66 211.469 365.143 210.671 365.479 210.062L365.521 210.083C365.479 210.797 365.416 212.057 365.416 213.296V218H368.104V206.66H365.605L361.741 212.435C361.237 213.17 360.817 213.8 360.376 214.556L360.292 214.535C360.355 213.968 360.418 212.96 360.418 211.91V206.66H357.73V218ZM359.347 201.62C359.347 203.993 360.964 204.98 362.917 204.98C364.954 204.98 366.487 203.993 366.487 201.62H364.429C364.429 202.88 363.904 203.3 362.917 203.3C362.014 203.3 361.489 202.88 361.489 201.62H359.347ZM377.458 218H380.146V209.054H384.808V218H387.475V206.66H377.458V218ZM390.363 212.309C390.363 216.215 392.211 218.252 396.075 218.252C399.687 218.252 401.829 216.467 401.829 212.351C401.829 208.277 399.939 206.408 396.222 206.408C392.547 206.408 390.363 208.382 390.363 212.309ZM393.114 212.309C393.114 209.852 394.017 208.613 396.075 208.613C398.196 208.613 399.078 209.789 399.078 212.309V212.393C399.078 214.955 398.133 216.047 396.18 216.047C394.059 216.047 393.114 214.745 393.114 212.393V212.309ZM403.186 220.73H405.685V218H413.308V220.73H415.786V215.669H414.106V206.66H405.622L405.601 207.899C405.58 211.385 405.244 214.115 404.488 215.669H403.186V220.73ZM411.418 215.669H407.113C407.701 214.199 407.974 211.952 408.037 209.768L408.058 208.991H411.418V215.669ZM417.521 220.73H420.02V218H427.643V220.73H430.121V215.669H428.441V206.66H419.957L419.936 207.899C419.915 211.385 419.579 214.115 418.823 215.669H417.521V220.73ZM425.753 215.669H421.448C422.036 214.199 422.309 211.952 422.372 209.768L422.393 208.991H425.753V215.669ZM442.664 213.086V211.826C442.664 208.571 441.32 206.408 437.435 206.408C433.865 206.408 431.87 208.382 431.87 212.162C431.87 216.383 433.634 218.252 437.729 218.252C439.787 218.252 441.299 217.685 441.866 217.244V214.829C441.026 215.501 439.577 216.068 438.023 216.068C435.755 216.068 434.621 215.123 434.579 213.086H442.664ZM437.393 208.529C439.262 208.529 439.997 209.516 439.997 211.343H434.579C434.621 209.474 435.587 208.529 437.393 208.529ZM445.462 221.78H448.15V216.551C448.696 217.391 449.746 218.252 451.741 218.252C455.101 218.252 456.613 216.383 456.613 212.162C456.613 208.109 455.206 206.408 452.035 206.408C449.935 206.408 448.717 207.227 448.087 208.529L447.982 206.66H445.462V221.78ZM448.15 213.065V211.616C448.15 209.873 449.011 208.634 451.006 208.634C452.938 208.634 453.862 209.642 453.862 212.225C453.862 214.934 453.127 216.026 451.006 216.026C449.074 216.026 448.15 214.892 448.15 213.065ZM460.926 218L463.677 213.254H464.937V218H467.625V213.254H468.948L471.636 218H474.702L471.153 212.141L474.366 206.66H471.468L468.927 211.196H467.625V206.66H464.937V211.196H463.635L461.178 206.66H458.217L461.43 212.183L457.881 218H460.926ZM484.564 218H487.819L483.493 212.057L487.336 206.66H484.249L481.204 211.196H479.65V206.66H476.962V218H479.65V213.317H481.246L484.564 218ZM489.944 218H492.443L496.349 212.204C496.874 211.469 497.357 210.671 497.693 210.062L497.735 210.083C497.693 210.797 497.63 212.057 497.63 213.296V218H500.318V206.66H497.819L493.955 212.435C493.451 213.17 493.031 213.8 492.59 214.556L492.506 214.535C492.569 213.968 492.632 212.96 492.632 211.91V206.66H489.944V218Z"
      fill="#363636"/>
  <path
      d="M101.319 311H104.259L98.883 296.3H95.712L90.357 311H93.15L94.347 307.556H100.101L101.319 311ZM97.224 299.345L99.282 305.204H95.166L97.224 299.345ZM107.764 312.617C107.323 312.617 106.882 312.47 106.546 312.281L106.525 314.717C106.861 314.885 107.449 314.948 107.995 314.948C109.528 314.948 110.599 314.444 111.922 310.664L115.765 299.66H112.993L110.578 307.724L107.596 299.66H104.551L109.297 311.042C108.856 312.407 108.457 312.617 107.764 312.617ZM120.982 311H123.649V302.054H127.282V299.66H117.328V302.054H120.982V311ZM138.066 300.038C137.394 299.723 136.449 299.408 134.748 299.408C130.737 299.408 128.847 301.319 128.847 305.183C128.847 309.593 130.779 311.252 134.769 311.252C136.512 311.252 137.709 310.874 138.339 310.475V307.955C137.646 308.522 136.449 308.9 135.231 308.9C132.753 308.9 131.619 307.892 131.619 305.267C131.619 302.642 132.795 301.76 134.874 301.76C136.281 301.76 137.331 302.18 138.066 302.705V300.038ZM140.27 305.309C140.27 309.215 142.118 311.252 145.982 311.252C149.594 311.252 151.736 309.467 151.736 305.351C151.736 301.277 149.846 299.408 146.129 299.408C142.454 299.408 140.27 301.382 140.27 305.309ZM143.021 305.309C143.021 302.852 143.924 301.613 145.982 301.613C148.103 301.613 148.985 302.789 148.985 305.309V305.393C148.985 307.955 148.04 309.047 146.087 309.047C143.966 309.047 143.021 307.745 143.021 305.393V305.309ZM154.579 314.78H157.267V309.551C157.813 310.391 158.863 311.252 160.858 311.252C164.218 311.252 165.73 309.383 165.73 305.162C165.73 301.109 164.323 299.408 161.152 299.408C159.052 299.408 157.834 300.227 157.204 301.529L157.099 299.66H154.579V314.78ZM157.267 306.065V304.616C157.267 302.873 158.128 301.634 160.123 301.634C162.055 301.634 162.979 302.642 162.979 305.225C162.979 307.934 162.244 309.026 160.123 309.026C158.191 309.026 157.267 307.892 157.267 306.065ZM177.154 300.038C176.482 299.723 175.537 299.408 173.836 299.408C169.825 299.408 167.935 301.319 167.935 305.183C167.935 309.593 169.867 311.252 173.857 311.252C175.6 311.252 176.797 310.874 177.427 310.475V307.955C176.734 308.522 175.537 308.9 174.319 308.9C171.841 308.9 170.707 307.892 170.707 305.267C170.707 302.642 171.883 301.76 173.962 301.76C175.369 301.76 176.419 302.18 177.154 302.705V300.038ZM180.296 311H182.795L186.701 305.204C187.226 304.469 187.709 303.671 188.045 303.062L188.087 303.083C188.045 303.797 187.982 305.057 187.982 306.296V311H190.67V299.66H188.171L184.307 305.435C183.803 306.17 183.383 306.8 182.942 307.556L182.858 307.535C182.921 306.968 182.984 305.96 182.984 304.91V299.66H180.296V311ZM194.201 311H196.889V306.464H201.761V311H204.428V299.66H201.761V304.133H196.889V299.66H194.201V311ZM207.961 311H210.649V302.054H215.794V299.66H207.961V311ZM217.42 305.309C217.42 309.215 219.268 311.252 223.132 311.252C226.744 311.252 228.886 309.467 228.886 305.351C228.886 301.277 226.996 299.408 223.279 299.408C219.604 299.408 217.42 301.382 217.42 305.309ZM220.171 305.309C220.171 302.852 221.074 301.613 223.132 301.613C225.253 301.613 226.135 302.789 226.135 305.309V305.393C226.135 307.955 225.19 309.047 223.237 309.047C221.116 309.047 220.171 307.745 220.171 305.393V305.309ZM231.75 311.021C232.968 311.084 234.732 311.126 236.265 311.126C240.339 311.126 241.641 309.908 241.641 307.619C241.641 305.813 240.759 305.141 239.079 304.994C240.339 304.658 241.116 303.818 241.116 302.306C241.116 300.542 240.15 299.534 236.286 299.534C234.69 299.534 232.968 299.597 231.75 299.66V311.021ZM234.438 308.963V306.086H236.748C238.281 306.086 238.89 306.401 238.89 307.472C238.89 308.648 238.302 309.047 236.391 309.047C235.698 309.047 235.131 309.026 234.438 308.963ZM234.438 304.364V301.634C234.858 301.613 235.404 301.592 236.265 301.592C237.945 301.592 238.47 301.928 238.47 302.936C238.47 303.965 237.777 304.364 236.538 304.364H234.438ZM251.184 311H253.62V303.524C253.62 300.479 252.297 299.408 248.811 299.408C247.299 299.408 245.64 299.786 244.695 300.269V302.978C245.493 302.327 246.963 301.676 248.391 301.676C250.239 301.676 250.932 302.18 250.932 303.608V304.406H248.538C245.157 304.406 243.729 305.33 243.729 307.808C243.729 309.887 244.947 311.252 247.446 311.252C249.357 311.252 250.575 310.307 251.079 309.383L251.184 311ZM246.459 307.472C246.459 306.359 247.005 305.981 248.832 305.981H250.932V306.737C250.932 308.081 250.134 309.047 248.307 309.047C246.942 309.047 246.459 308.417 246.459 307.472ZM256.05 311H259.032L261.447 307.346H263.736V311H266.403V299.681C265.227 299.576 263.715 299.534 262.371 299.534C258.024 299.534 256.701 300.878 256.701 303.524C256.701 305.309 257.31 306.506 258.885 306.947L256.05 311ZM263.757 305.393H261.678C260.103 305.393 259.473 304.952 259.473 303.566C259.473 302.264 259.998 301.718 262.098 301.718C262.833 301.718 263.316 301.739 263.757 301.802V305.393ZM283.383 311H286.638L282.312 305.057L286.155 299.66H283.068L280.023 304.196H278.469V299.66H275.781V311H278.469V306.317H280.065L283.383 311ZM287.68 305.309C287.68 309.215 289.528 311.252 293.392 311.252C297.004 311.252 299.146 309.467 299.146 305.351C299.146 301.277 297.256 299.408 293.539 299.408C289.864 299.408 287.68 301.382 287.68 305.309ZM290.431 305.309C290.431 302.852 291.334 301.613 293.392 301.613C295.513 301.613 296.395 302.789 296.395 305.309V305.393C296.395 307.955 295.45 309.047 293.497 309.047C291.376 309.047 290.431 307.745 290.431 305.393V305.309ZM302.01 311H304.593V304.973C304.593 303.986 304.509 303.041 304.425 302.075C304.908 303.062 305.349 304.028 305.706 304.721L307.533 308.606H309.234L311.145 304.7C311.502 304.028 311.88 303.041 312.342 302.033C312.258 303.02 312.174 303.902 312.174 304.868V311H314.757V299.66H311.334L308.457 305.792L305.496 299.66H302.01V311ZM318.293 311H320.981V302.054H325.643V311H328.31V299.66H318.293V311ZM338.547 311H340.983V303.524C340.983 300.479 339.66 299.408 336.174 299.408C334.662 299.408 333.003 299.786 332.058 300.269V302.978C332.856 302.327 334.326 301.676 335.754 301.676C337.602 301.676 338.295 302.18 338.295 303.608V304.406H335.901C332.52 304.406 331.092 305.33 331.092 307.808C331.092 309.887 332.31 311.252 334.809 311.252C336.72 311.252 337.938 310.307 338.442 309.383L338.547 311ZM333.822 307.472C333.822 306.359 334.368 305.981 336.195 305.981H338.295V306.737C338.295 308.081 337.497 309.047 335.67 309.047C334.305 309.047 333.822 308.417 333.822 307.472ZM344.379 311H347.067V306.464H351.939V311H354.606V299.66H351.939V304.133H347.067V299.66H344.379V311ZM358.14 311H360.639L364.545 305.204C365.07 304.469 365.553 303.671 365.889 303.062L365.931 303.083C365.889 303.797 365.826 305.057 365.826 306.296V311H368.514V299.66H366.015L362.151 305.435C361.647 306.17 361.227 306.8 360.786 307.556L360.702 307.535C360.765 306.968 360.828 305.96 360.828 304.91V299.66H358.14V311ZM371.078 311H374.06L376.475 307.346H378.764V311H381.431V299.681C380.255 299.576 378.743 299.534 377.399 299.534C373.052 299.534 371.729 300.878 371.729 303.524C371.729 305.309 372.338 306.506 373.913 306.947L371.078 311ZM378.785 305.393H376.706C375.131 305.393 374.501 304.952 374.501 303.566C374.501 302.264 375.026 301.718 377.126 301.718C377.861 301.718 378.344 301.739 378.785 301.802V305.393Z"
      fill="#363636"/>
  <circle cx="25.1565" cy="24.9563" r="24.9563" fill="#F9CA9F"/>
  <circle cx="25.1565" cy="116.096" r="24.9563" fill="#FBF6C9"/>
  <circle cx="25.1565" cy="208.674" r="24.9563" fill="#48F2E8"/>
  <circle cx="25.1565" cy="302.092" r="24.9563" fill="#FCCFCF"/>
  <circle cx="24.9563" cy="401.956" r="24.9563" fill="#CCF5D5"/>
</svg>
