<svg width="60" height="69" viewBox="0 0 60 69" fill="none" xmlns="http://www.w3.org/2000/svg">
  <path
      d="M5.46123 37.1656C1.93373 40.6931 0 45.3893 0 50.4043V50.6593C0 55.5681 1.9125 60.158 5.37624 63.6217C8.83999 67.0855 13.4512 68.998 18.3387 68.998H40.8637C51.1487 68.998 59.5212 60.6255 59.5212 50.3405C59.5212 45.368 57.5874 40.6718 54.0599 37.1443L40.6512 23.7356C40.2049 23.2893 39.8225 22.7793 39.5037 22.248H44.5824V17.998H38.2712C38.2712 17.2118 38.59 16.4255 39.1425 15.873L43.1374 11.8781C45.4749 9.54059 46.7712 6.43804 46.7712 3.12304V0.998047H12.75V3.12304C12.75 6.43804 14.0462 9.54059 16.3837 11.8781L20.3787 15.873C20.9312 16.4255 21.25 17.2118 21.25 17.998H14.8325V22.248H20.0387C19.72 22.7793 19.3375 23.2893 18.8912 23.7356L5.46123 37.1656ZM23.375 12.8768L19.38 8.88184C18.36 7.86184 17.6375 6.60804 17.2762 5.24804H42.2237C41.8624 6.60804 41.1399 7.86184 40.1199 8.88184L36.125 12.8768C34.765 14.2581 34 16.0643 34 17.998H25.4787C25.5 16.0643 24.7562 14.2368 23.375 12.8768ZM27.3275 22.248L21.2075 34.488V39.248H25.4575V35.5081L29.7075 27.0081L33.9575 35.5081V39.248H38.2075V34.488L32.0874 22.248H34.8074C35.4237 23.9268 36.38 25.4781 37.655 26.7531L51.0637 40.1618C53.7837 42.8818 55.2924 46.4943 55.2924 50.3405C55.2924 58.288 48.8324 64.7481 40.8849 64.7481H18.36C14.5987 64.7481 11.0712 63.2818 8.39373 60.6256C5.73749 57.9693 4.27123 54.4206 4.27123 50.6593V50.4043C4.27123 46.5155 5.75872 42.8818 8.47872 40.1618L21.9087 26.7318C23.205 25.4356 24.14 23.9056 24.735 22.2268H27.3275V22.248Z"
      fill="url(#paint0_linear)"/>
  <defs>
    <linearGradient id="paint0_linear" x1="29.7606" y1="0.998047" x2="29.7606" y2="68.998"
                    gradientUnits="userSpaceOnUse">
      <stop offset="0.0847458" stop-color="#42E3B4"/>
      <stop offset="0.966102" stop-color="#FAED00"/>
    </linearGradient>
  </defs>
</svg>
