<svg width="70" height="82" viewBox="0 0 70 82" fill="none" xmlns="http://www.w3.org/2000/svg">
<path d="M17.0966 21.8695H1L20.3159 1V18.3913C20.3159 20.3043 18.8672 21.8695 17.0966 21.8695Z" stroke="black" stroke-width="1.5" stroke-miterlimit="10" stroke-linecap="round" stroke-linejoin="round"/>
<path d="M62.167 49.9042V77.5214C62.167 79.4345 60.7183 80.9997 58.9477 80.9997H4.21931C2.44869 80.9997 1 79.4345 1 77.5214V29.0347" stroke="black" stroke-width="1.5" stroke-miterlimit="10" stroke-linecap="round" stroke-linejoin="round"/>
<path d="M26.7549 1H58.948C60.7187 1 62.1674 2.56521 62.1674 4.47825V21.8695" stroke="black" stroke-width="1.5" stroke-miterlimit="10" stroke-linecap="round" stroke-linejoin="round"/>
<path d="M41.3376 64.443L28.8145 70.5995L34.4804 57.0692L61.8125 27.5737L68.6374 34.9476L41.3376 64.443Z" stroke="black" stroke-width="1.5" stroke-miterlimit="10" stroke-linecap="round" stroke-linejoin="round"/>
<path d="M63.2946 40.7214L56.4375 33.3477" stroke="black" stroke-width="1.5" stroke-miterlimit="10" stroke-linejoin="round"/>
<path d="M41.3055 64.4779L34.4805 57.0693" stroke="black" stroke-width="1.5" stroke-miterlimit="10" stroke-linejoin="round"/>
</svg>
