<svg width="67" height="50" viewBox="0 0 67 50" fill="none" xmlns="http://www.w3.org/2000/svg">
<path fill-rule="evenodd" clip-rule="evenodd" d="M23.9062 10.2237C23.9062 5.0362 28.0102 0.830078 33.0718 0.830078C38.1334 0.830078 42.2374 5.0362 42.2374 10.2237C42.2374 12.7971 41.2275 15.129 39.5917 16.8257L52.2377 32.328C53.6209 31.4695 55.2434 30.9753 56.9784 30.9753C62.04 30.9753 66.144 35.1815 66.144 40.3691C66.144 45.5568 62.04 49.763 56.9784 49.763C51.9168 49.763 47.8128 45.5568 47.8128 40.3691C47.8128 37.8106 48.811 35.4909 50.43 33.7967L37.7978 18.2737C36.7229 18.9381 35.504 19.3827 34.2006 19.5468V31.0458C38.7299 31.6159 42.2377 35.5731 42.2377 40.3691C42.2377 45.5568 38.1337 49.763 33.0721 49.763C28.0104 49.763 23.9064 45.5568 23.9064 40.3691C23.9064 35.5852 27.3965 31.6359 31.9092 31.0502V19.5349C30.6185 19.3596 29.4115 18.9116 28.3458 18.2501L15.6952 33.7772C17.3253 35.4731 18.3312 37.8008 18.3312 40.3691C18.3312 45.5568 14.2272 49.763 9.16559 49.763C4.0698 49.763 0 45.5568 0 40.3691C0 35.1815 4.104 30.9753 9.16559 30.9753C10.8904 30.9753 12.504 31.4637 13.8818 32.3129L26.5354 16.7821C24.9094 15.0871 23.9062 12.7711 23.9062 10.2237ZM26.1976 10.2237C26.1976 14.0793 29.2756 17.2339 33.0376 17.2339C36.7996 17.2339 39.8776 14.0793 39.8776 10.2237C39.8776 6.33308 36.7996 3.21356 33.0376 3.21356C29.2756 3.21356 26.2318 6.33308 26.1976 10.2237ZM2.2914 40.3691C2.2914 44.2598 5.36939 47.3794 9.13139 47.3794C12.9276 47.3794 15.9714 44.2248 15.9714 40.3691C15.9714 36.4784 12.8934 33.3588 9.13139 33.3588C5.36939 33.3588 2.2914 36.5134 2.2914 40.3691ZM33.0378 47.3794C29.2758 47.3794 26.1978 44.2598 26.1978 40.3691C26.232 36.5134 29.2758 33.3588 33.0378 33.3588C36.7999 33.3588 39.8779 36.4784 39.8779 40.3691C39.8779 44.2248 36.7999 47.3794 33.0378 47.3794ZM50.1384 40.3691C50.1384 44.2598 53.2164 47.3794 56.9784 47.3794C60.7404 47.3794 63.8184 44.2248 63.8184 40.3691C63.8184 36.4784 60.7404 33.3588 56.9784 33.3588C53.1822 33.3588 50.1384 36.5134 50.1384 40.3691Z" fill="#0066FF"/>
<path fill-rule="evenodd" clip-rule="evenodd" d="M23.9062 10.2237C23.9062 5.0362 28.0102 0.830078 33.0718 0.830078C38.1334 0.830078 42.2374 5.0362 42.2374 10.2237C42.2374 12.7971 41.2275 15.129 39.5917 16.8257L52.2377 32.328C53.6209 31.4695 55.2434 30.9753 56.9784 30.9753C62.04 30.9753 66.144 35.1815 66.144 40.3691C66.144 45.5568 62.04 49.763 56.9784 49.763C51.9168 49.763 47.8128 45.5568 47.8128 40.3691C47.8128 37.8106 48.811 35.4909 50.43 33.7967L37.7978 18.2737C36.7229 18.9381 35.504 19.3827 34.2006 19.5468V31.0458C38.7299 31.6159 42.2377 35.5731 42.2377 40.3691C42.2377 45.5568 38.1337 49.763 33.0721 49.763C28.0104 49.763 23.9064 45.5568 23.9064 40.3691C23.9064 35.5852 27.3965 31.6359 31.9092 31.0502V19.5349C30.6185 19.3596 29.4115 18.9116 28.3458 18.2501L15.6952 33.7772C17.3253 35.4731 18.3312 37.8008 18.3312 40.3691C18.3312 45.5568 14.2272 49.763 9.16559 49.763C4.0698 49.763 0 45.5568 0 40.3691C0 35.1815 4.104 30.9753 9.16559 30.9753C10.8904 30.9753 12.504 31.4637 13.8818 32.3129L26.5354 16.7821C24.9094 15.0871 23.9062 12.7711 23.9062 10.2237ZM26.1976 10.2237C26.1976 14.0793 29.2756 17.2339 33.0376 17.2339C36.7996 17.2339 39.8776 14.0793 39.8776 10.2237C39.8776 6.33308 36.7996 3.21356 33.0376 3.21356C29.2756 3.21356 26.2318 6.33308 26.1976 10.2237ZM2.2914 40.3691C2.2914 44.2598 5.36939 47.3794 9.13139 47.3794C12.9276 47.3794 15.9714 44.2248 15.9714 40.3691C15.9714 36.4784 12.8934 33.3588 9.13139 33.3588C5.36939 33.3588 2.2914 36.5134 2.2914 40.3691ZM33.0378 47.3794C29.2758 47.3794 26.1978 44.2598 26.1978 40.3691C26.232 36.5134 29.2758 33.3588 33.0378 33.3588C36.7999 33.3588 39.8779 36.4784 39.8779 40.3691C39.8779 44.2248 36.7999 47.3794 33.0378 47.3794ZM50.1384 40.3691C50.1384 44.2598 53.2164 47.3794 56.9784 47.3794C60.7404 47.3794 63.8184 44.2248 63.8184 40.3691C63.8184 36.4784 60.7404 33.3588 56.9784 33.3588C53.1822 33.3588 50.1384 36.5134 50.1384 40.3691Z" fill="url(#paint0_linear)"/>
<defs>
<linearGradient id="paint0_linear" x1="26.8779" y1="0.830078" x2="26.8779" y2="49.763" gradientUnits="userSpaceOnUse">
<stop stop-color="#42E3CB"/>
<stop offset="0.0666667" stop-color="#44E3B5" stop-opacity="0.991353"/>
<stop offset="0.133333" stop-color="#49E4B7" stop-opacity="0.96449"/>
<stop offset="0.2" stop-color="#51E5BA" stop-opacity="0.91834"/>
<stop offset="0.266667" stop-color="#5EE7BF" stop-opacity="0.852589"/>
<stop offset="0.333333" stop-color="#6EE9C5" stop-opacity="0.768225"/>
<stop offset="0.4" stop-color="#81ECCD" stop-opacity="0.668116"/>
<stop offset="0.466667" stop-color="#96EFD5" stop-opacity="0.557309"/>
<stop offset="0.533333" stop-color="#ABF3DE" stop-opacity="0.442691"/>
<stop offset="0.6" stop-color="#C0F6E6" stop-opacity="0.331884"/>
<stop offset="0.666667" stop-color="#D3F9EE" stop-opacity="0.231775"/>
<stop offset="0.733333" stop-color="#E3FBF4" stop-opacity="0.147411"/>
<stop offset="0.8" stop-color="#F0FDF9" stop-opacity="0.0816599"/>
<stop offset="0.866667" stop-color="#F8FEFC" stop-opacity="0.03551"/>
<stop offset="0.933333" stop-color="#FDFFFE" stop-opacity="0.01"/>
<stop offset="1" stop-color="white" stop-opacity="0"/>
</linearGradient>
</defs>
</svg>
