<svg width="85" height="84" viewBox="0 0 85 84" fill="none" xmlns="http://www.w3.org/2000/svg">
<path d="M8.21777 82.877H15.4351H80.3906C82.3754 82.877 83.9993 81.1225 83.9993 78.9781V36.0903C83.9993 31.8015 80.7515 28.2925 76.782 28.2925H22.6523C18.6828 28.2925 15.4351 31.8015 15.4351 36.0903V71.1803" stroke="black" stroke-width="1.5" stroke-miterlimit="10" stroke-linecap="round" stroke-linejoin="round"/>
<path d="M15.4346 36.0901V75.079C15.4346 79.3678 12.1868 82.8768 8.21729 82.8768C4.24778 82.8768 1 79.3678 1 75.079V4.8989C1 2.7545 2.62389 1 4.60864 1H19.6927C21.2084 1 22.5436 2.01372 23.0849 3.53429L25.3944 10.1624C25.9357 11.683 27.2709 12.6967 28.7865 12.6967H69.6003C73.5698 12.6967 76.8176 16.2057 76.8176 20.4945V28.2923H22.6879C18.6823 28.2923 15.4346 31.8013 15.4346 36.0901Z" stroke="black" stroke-width="1.5" stroke-miterlimit="10" stroke-linecap="round" stroke-linejoin="round"/>
</svg>
