<svg width="63" height="58" viewBox="0 0 63 58" fill="none" xmlns="http://www.w3.org/2000/svg">
<path d="M8.06095 15.5437C8.06095 15.5437 5.70726 17.5561 5.31497 22.7885C4.92269 28.0208 5.31497 31.6432 5.31497 31.6432" stroke="#0066FF" stroke-width="2" stroke-miterlimit="10" stroke-linecap="round" stroke-linejoin="round"/>
<path d="M8.06095 15.5437C8.06095 15.5437 5.70726 17.5561 5.31497 22.7885C4.92269 28.0208 5.31497 31.6432 5.31497 31.6432" stroke="url(#paint0_linear)" stroke-width="2" stroke-miterlimit="10" stroke-linecap="round" stroke-linejoin="round"/>
<path d="M11.1994 18.7637C11.1994 18.7637 9.23796 23.996 9.63024 28.4234" stroke="#0066FF" stroke-width="2" stroke-miterlimit="10" stroke-linecap="round" stroke-linejoin="round"/>
<path d="M11.1994 18.7637C11.1994 18.7637 9.23796 23.996 9.63024 28.4234" stroke="url(#paint1_linear)" stroke-width="2" stroke-miterlimit="10" stroke-linecap="round" stroke-linejoin="round"/>
<path d="M14.7286 20.7761C14.7286 20.7761 13.1594 22.3861 13.5517 26.411" stroke="#0066FF" stroke-width="2" stroke-miterlimit="10" stroke-linecap="round" stroke-linejoin="round"/>
<path d="M14.7286 20.7761C14.7286 20.7761 13.1594 22.3861 13.5517 26.411" stroke="url(#paint2_linear)" stroke-width="2" stroke-miterlimit="10" stroke-linecap="round" stroke-linejoin="round"/>
<path d="M8.8457 42.5107L14.7299 44.1206L11.5917 39.2908" stroke="#0066FF" stroke-width="2" stroke-miterlimit="10" stroke-linecap="round" stroke-linejoin="round"/>
<path d="M8.8457 42.5107L14.7299 44.1206L11.5917 39.2908" stroke="url(#paint3_linear)" stroke-width="2" stroke-miterlimit="10" stroke-linecap="round" stroke-linejoin="round"/>
<path d="M18.2613 47.3406L14.7307 44.1207L19.8304 38.0834" stroke="#0066FF" stroke-width="2" stroke-miterlimit="10" stroke-linecap="round" stroke-linejoin="round"/>
<path d="M18.2613 47.3406L14.7307 44.1207L19.8304 38.0834" stroke="url(#paint4_linear)" stroke-width="2" stroke-miterlimit="10" stroke-linecap="round" stroke-linejoin="round"/>
<path d="M31.5981 16.55C31.5981 16.55 31.5981 12.5251 32.7749 9.70771C33.9518 6.89029 34.9325 5.88407 34.9325 5.88407L33.3633 3.46915L41.0992 1.15082C42.7232 0.639662 44.461 1.46476 45.1318 3.06666L48.6624 4.27412C48.6624 4.27412 40.8167 6.28656 40.0322 7.49403C39.2476 8.70149 37.2862 13.1289 39.6399 16.3488C41.9936 19.5687 43.5627 19.1662 44.7396 18.7637C45.9164 18.3612 46.3087 17.5562 46.3087 17.5562C46.3087 17.5562 43.955 11.5189 48.2701 9.50646C52.5852 7.49403 57.6849 9.90895 59.6463 13.9338C61.6077 17.9587 62 21.1786 62 25.606C62 30.0333 61.6077 42.9129 61.6077 42.9129C61.6077 42.9129 55.3312 39.693 52.9775 36.4731C50.6238 33.2532 48.2701 29.2284 48.2701 29.2284L39.6399 31.2408C39.6399 31.2408 45.1318 35.2657 43.1704 38.0831C41.209 40.9005 36.8939 38.4856 36.8939 38.4856L42.7781 52.1701C42.7781 52.1701 40.0322 57 32.5788 57H30.4212C22.9678 57 20.2219 52.1701 20.2219 52.1701L26.1061 38.4856C26.1061 38.4856 21.791 40.9005 19.8296 38.0831C17.8682 35.2657 23.3601 31.2408 23.3601 31.2408L14.7299 29.2284C14.7299 29.2284 12.3762 33.2532 10.0225 36.4731C7.66881 39.693 1.39228 42.9129 1.39228 42.9129C1.39228 42.9129 1 30.0333 1 25.606C1 21.1786 1.39228 17.9587 3.3537 13.9338C5.31511 9.90895 10.4148 7.49403 14.7299 9.50646C19.045 11.5189 16.6913 17.5562 16.6913 17.5562C16.6913 17.5562 17.0836 18.3612 18.2605 18.7637C19.4373 19.1662 21.0064 19.5687 23.3601 16.3488C25.7138 13.1289 23.7524 8.70149 22.9678 7.49403C22.1833 6.28656 14.3376 4.27412 14.3376 4.27412L17.8682 3.06666C18.539 1.46476 20.2768 0.639662 21.9008 1.15082L29.6367 3.46915L28.0675 5.88407C28.0675 5.88407 29.0482 6.89029 30.2251 9.70771C31.4019 12.5251 31.4019 16.55 31.4019 16.55H31.5981Z" stroke="#0066FF" stroke-width="2" stroke-miterlimit="10" stroke-linecap="round" stroke-linejoin="round"/>
<path d="M31.5981 16.55C31.5981 16.55 31.5981 12.5251 32.7749 9.70771C33.9518 6.89029 34.9325 5.88407 34.9325 5.88407L33.3633 3.46915L41.0992 1.15082C42.7232 0.639662 44.461 1.46476 45.1318 3.06666L48.6624 4.27412C48.6624 4.27412 40.8167 6.28656 40.0322 7.49403C39.2476 8.70149 37.2862 13.1289 39.6399 16.3488C41.9936 19.5687 43.5627 19.1662 44.7396 18.7637C45.9164 18.3612 46.3087 17.5562 46.3087 17.5562C46.3087 17.5562 43.955 11.5189 48.2701 9.50646C52.5852 7.49403 57.6849 9.90895 59.6463 13.9338C61.6077 17.9587 62 21.1786 62 25.606C62 30.0333 61.6077 42.9129 61.6077 42.9129C61.6077 42.9129 55.3312 39.693 52.9775 36.4731C50.6238 33.2532 48.2701 29.2284 48.2701 29.2284L39.6399 31.2408C39.6399 31.2408 45.1318 35.2657 43.1704 38.0831C41.209 40.9005 36.8939 38.4856 36.8939 38.4856L42.7781 52.1701C42.7781 52.1701 40.0322 57 32.5788 57H30.4212C22.9678 57 20.2219 52.1701 20.2219 52.1701L26.1061 38.4856C26.1061 38.4856 21.791 40.9005 19.8296 38.0831C17.8682 35.2657 23.3601 31.2408 23.3601 31.2408L14.7299 29.2284C14.7299 29.2284 12.3762 33.2532 10.0225 36.4731C7.66881 39.693 1.39228 42.9129 1.39228 42.9129C1.39228 42.9129 1 30.0333 1 25.606C1 21.1786 1.39228 17.9587 3.3537 13.9338C5.31511 9.90895 10.4148 7.49403 14.7299 9.50646C19.045 11.5189 16.6913 17.5562 16.6913 17.5562C16.6913 17.5562 17.0836 18.3612 18.2605 18.7637C19.4373 19.1662 21.0064 19.5687 23.3601 16.3488C25.7138 13.1289 23.7524 8.70149 22.9678 7.49403C22.1833 6.28656 14.3376 4.27412 14.3376 4.27412L17.8682 3.06666C18.539 1.46476 20.2768 0.639662 21.9008 1.15082L29.6367 3.46915L28.0675 5.88407C28.0675 5.88407 29.0482 6.89029 30.2251 9.70771C31.4019 12.5251 31.4019 16.55 31.4019 16.55H31.5981Z" stroke="url(#paint5_linear)" stroke-width="2" stroke-miterlimit="10" stroke-linecap="round" stroke-linejoin="round"/>
<path d="M54.9385 15.5437C54.9385 15.5437 57.2922 17.5561 57.6845 22.7885C58.0767 28.0208 57.6845 31.6432 57.6845 31.6432" stroke="#0066FF" stroke-width="2" stroke-miterlimit="10" stroke-linecap="round" stroke-linejoin="round"/>
<path d="M54.9385 15.5437C54.9385 15.5437 57.2922 17.5561 57.6845 22.7885C58.0767 28.0208 57.6845 31.6432 57.6845 31.6432" stroke="url(#paint6_linear)" stroke-width="2" stroke-miterlimit="10" stroke-linecap="round" stroke-linejoin="round"/>
<path d="M51.801 18.7637C51.801 18.7637 53.7624 23.996 53.3702 28.4234" stroke="#0066FF" stroke-width="2" stroke-miterlimit="10" stroke-linecap="round" stroke-linejoin="round"/>
<path d="M51.801 18.7637C51.801 18.7637 53.7624 23.996 53.3702 28.4234" stroke="url(#paint7_linear)" stroke-width="2" stroke-miterlimit="10" stroke-linecap="round" stroke-linejoin="round"/>
<path d="M48.2693 20.7761C48.2693 20.7761 49.8384 22.3861 49.4461 26.411" stroke="#0066FF" stroke-width="2" stroke-miterlimit="10" stroke-linecap="round" stroke-linejoin="round"/>
<path d="M48.2693 20.7761C48.2693 20.7761 49.8384 22.3861 49.4461 26.411" stroke="url(#paint8_linear)" stroke-width="2" stroke-miterlimit="10" stroke-linecap="round" stroke-linejoin="round"/>
<path d="M54.1535 42.5107L48.2693 44.1206L51.4076 39.2908" stroke="#0066FF" stroke-width="2" stroke-miterlimit="10" stroke-linecap="round" stroke-linejoin="round"/>
<path d="M54.1535 42.5107L48.2693 44.1206L51.4076 39.2908" stroke="url(#paint9_linear)" stroke-width="2" stroke-miterlimit="10" stroke-linecap="round" stroke-linejoin="round"/>
<path d="M44.7395 47.3406L48.2701 44.1207L43.1704 38.0834" stroke="#0066FF" stroke-width="2" stroke-miterlimit="10" stroke-linecap="round" stroke-linejoin="round"/>
<path d="M44.7395 47.3406L48.2701 44.1207L43.1704 38.0834" stroke="url(#paint10_linear)" stroke-width="2" stroke-miterlimit="10" stroke-linecap="round" stroke-linejoin="round"/>
<path d="M31.5977 40.498V54.1826" stroke="#0066FF" stroke-width="2" stroke-miterlimit="10" stroke-linecap="round" stroke-linejoin="round"/>
<path d="M31.5977 40.498V54.1826" stroke="url(#paint11_linear)" stroke-width="2" stroke-miterlimit="10" stroke-linecap="round" stroke-linejoin="round"/>
<path d="M33.9509 40.0953L36.3046 51.365" stroke="#0066FF" stroke-width="2" stroke-miterlimit="10" stroke-linecap="round" stroke-linejoin="round"/>
<path d="M33.9509 40.0953L36.3046 51.365" stroke="url(#paint12_linear)" stroke-width="2" stroke-miterlimit="10" stroke-linecap="round" stroke-linejoin="round"/>
<path d="M28.8525 40.0953L26.4988 51.365" stroke="#0066FF" stroke-width="2" stroke-miterlimit="10" stroke-linecap="round" stroke-linejoin="round"/>
<path d="M28.8525 40.0953L26.4988 51.365" stroke="url(#paint13_linear)" stroke-width="2" stroke-miterlimit="10" stroke-linecap="round" stroke-linejoin="round"/>
<defs>
<linearGradient id="paint0_linear" x1="6.32731" y1="15.5437" x2="6.32731" y2="31.6432" gradientUnits="userSpaceOnUse">
<stop stop-color="#42E3CB"/>
<stop offset="0.0666667" stop-color="#44E3B5" stop-opacity="0.991353"/>
<stop offset="0.133333" stop-color="#49E4B7" stop-opacity="0.96449"/>
<stop offset="0.2" stop-color="#51E5BA" stop-opacity="0.91834"/>
<stop offset="0.266667" stop-color="#5EE7BF" stop-opacity="0.852589"/>
<stop offset="0.333333" stop-color="#6EE9C5" stop-opacity="0.768225"/>
<stop offset="0.4" stop-color="#81ECCD" stop-opacity="0.668116"/>
<stop offset="0.466667" stop-color="#96EFD5" stop-opacity="0.557309"/>
<stop offset="0.533333" stop-color="#ABF3DE" stop-opacity="0.442691"/>
<stop offset="0.6" stop-color="#C0F6E6" stop-opacity="0.331884"/>
<stop offset="0.666667" stop-color="#D3F9EE" stop-opacity="0.231775"/>
<stop offset="0.733333" stop-color="#E3FBF4" stop-opacity="0.147411"/>
<stop offset="0.8" stop-color="#F0FDF9" stop-opacity="0.0816599"/>
<stop offset="0.866667" stop-color="#F8FEFC" stop-opacity="0.03551"/>
<stop offset="0.933333" stop-color="#FDFFFE" stop-opacity="0.01"/>
<stop offset="1" stop-color="white" stop-opacity="0"/>
</linearGradient>
<linearGradient id="paint1_linear" x1="10.2371" y1="18.7637" x2="10.2371" y2="28.4234" gradientUnits="userSpaceOnUse">
<stop stop-color="#42E3CB"/>
<stop offset="0.0666667" stop-color="#44E3B5" stop-opacity="0.991353"/>
<stop offset="0.133333" stop-color="#49E4B7" stop-opacity="0.96449"/>
<stop offset="0.2" stop-color="#51E5BA" stop-opacity="0.91834"/>
<stop offset="0.266667" stop-color="#5EE7BF" stop-opacity="0.852589"/>
<stop offset="0.333333" stop-color="#6EE9C5" stop-opacity="0.768225"/>
<stop offset="0.4" stop-color="#81ECCD" stop-opacity="0.668116"/>
<stop offset="0.466667" stop-color="#96EFD5" stop-opacity="0.557309"/>
<stop offset="0.533333" stop-color="#ABF3DE" stop-opacity="0.442691"/>
<stop offset="0.6" stop-color="#C0F6E6" stop-opacity="0.331884"/>
<stop offset="0.666667" stop-color="#D3F9EE" stop-opacity="0.231775"/>
<stop offset="0.733333" stop-color="#E3FBF4" stop-opacity="0.147411"/>
<stop offset="0.8" stop-color="#F0FDF9" stop-opacity="0.0816599"/>
<stop offset="0.866667" stop-color="#F8FEFC" stop-opacity="0.03551"/>
<stop offset="0.933333" stop-color="#FDFFFE" stop-opacity="0.01"/>
<stop offset="1" stop-color="white" stop-opacity="0"/>
</linearGradient>
<linearGradient id="paint2_linear" x1="13.9926" y1="20.7761" x2="13.9926" y2="26.411" gradientUnits="userSpaceOnUse">
<stop stop-color="#42E3CB"/>
<stop offset="0.0666667" stop-color="#44E3B5" stop-opacity="0.991353"/>
<stop offset="0.133333" stop-color="#49E4B7" stop-opacity="0.96449"/>
<stop offset="0.2" stop-color="#51E5BA" stop-opacity="0.91834"/>
<stop offset="0.266667" stop-color="#5EE7BF" stop-opacity="0.852589"/>
<stop offset="0.333333" stop-color="#6EE9C5" stop-opacity="0.768225"/>
<stop offset="0.4" stop-color="#81ECCD" stop-opacity="0.668116"/>
<stop offset="0.466667" stop-color="#96EFD5" stop-opacity="0.557309"/>
<stop offset="0.533333" stop-color="#ABF3DE" stop-opacity="0.442691"/>
<stop offset="0.6" stop-color="#C0F6E6" stop-opacity="0.331884"/>
<stop offset="0.666667" stop-color="#D3F9EE" stop-opacity="0.231775"/>
<stop offset="0.733333" stop-color="#E3FBF4" stop-opacity="0.147411"/>
<stop offset="0.8" stop-color="#F0FDF9" stop-opacity="0.0816599"/>
<stop offset="0.866667" stop-color="#F8FEFC" stop-opacity="0.03551"/>
<stop offset="0.933333" stop-color="#FDFFFE" stop-opacity="0.01"/>
<stop offset="1" stop-color="white" stop-opacity="0"/>
</linearGradient>
<linearGradient id="paint3_linear" x1="11.2368" y1="39.2908" x2="11.2368" y2="44.1206" gradientUnits="userSpaceOnUse">
<stop stop-color="#42E3CB"/>
<stop offset="0.0666667" stop-color="#44E3B5" stop-opacity="0.991353"/>
<stop offset="0.133333" stop-color="#49E4B7" stop-opacity="0.96449"/>
<stop offset="0.2" stop-color="#51E5BA" stop-opacity="0.91834"/>
<stop offset="0.266667" stop-color="#5EE7BF" stop-opacity="0.852589"/>
<stop offset="0.333333" stop-color="#6EE9C5" stop-opacity="0.768225"/>
<stop offset="0.4" stop-color="#81ECCD" stop-opacity="0.668116"/>
<stop offset="0.466667" stop-color="#96EFD5" stop-opacity="0.557309"/>
<stop offset="0.533333" stop-color="#ABF3DE" stop-opacity="0.442691"/>
<stop offset="0.6" stop-color="#C0F6E6" stop-opacity="0.331884"/>
<stop offset="0.666667" stop-color="#D3F9EE" stop-opacity="0.231775"/>
<stop offset="0.733333" stop-color="#E3FBF4" stop-opacity="0.147411"/>
<stop offset="0.8" stop-color="#F0FDF9" stop-opacity="0.0816599"/>
<stop offset="0.866667" stop-color="#F8FEFC" stop-opacity="0.03551"/>
<stop offset="0.933333" stop-color="#FDFFFE" stop-opacity="0.01"/>
<stop offset="1" stop-color="white" stop-opacity="0"/>
</linearGradient>
<linearGradient id="paint4_linear" x1="16.803" y1="38.0834" x2="16.803" y2="47.3406" gradientUnits="userSpaceOnUse">
<stop stop-color="#42E3CB"/>
<stop offset="0.0666667" stop-color="#44E3B5" stop-opacity="0.991353"/>
<stop offset="0.133333" stop-color="#49E4B7" stop-opacity="0.96449"/>
<stop offset="0.2" stop-color="#51E5BA" stop-opacity="0.91834"/>
<stop offset="0.266667" stop-color="#5EE7BF" stop-opacity="0.852589"/>
<stop offset="0.333333" stop-color="#6EE9C5" stop-opacity="0.768225"/>
<stop offset="0.4" stop-color="#81ECCD" stop-opacity="0.668116"/>
<stop offset="0.466667" stop-color="#96EFD5" stop-opacity="0.557309"/>
<stop offset="0.533333" stop-color="#ABF3DE" stop-opacity="0.442691"/>
<stop offset="0.6" stop-color="#C0F6E6" stop-opacity="0.331884"/>
<stop offset="0.666667" stop-color="#D3F9EE" stop-opacity="0.231775"/>
<stop offset="0.733333" stop-color="#E3FBF4" stop-opacity="0.147411"/>
<stop offset="0.8" stop-color="#F0FDF9" stop-opacity="0.0816599"/>
<stop offset="0.866667" stop-color="#F8FEFC" stop-opacity="0.03551"/>
<stop offset="0.933333" stop-color="#FDFFFE" stop-opacity="0.01"/>
<stop offset="1" stop-color="white" stop-opacity="0"/>
</linearGradient>
<linearGradient id="paint5_linear" x1="25.7876" y1="1" x2="25.7876" y2="57" gradientUnits="userSpaceOnUse">
<stop stop-color="#42E3CB"/>
<stop offset="0.0666667" stop-color="#44E3B5" stop-opacity="0.991353"/>
<stop offset="0.133333" stop-color="#49E4B7" stop-opacity="0.96449"/>
<stop offset="0.2" stop-color="#51E5BA" stop-opacity="0.91834"/>
<stop offset="0.266667" stop-color="#5EE7BF" stop-opacity="0.852589"/>
<stop offset="0.333333" stop-color="#6EE9C5" stop-opacity="0.768225"/>
<stop offset="0.4" stop-color="#81ECCD" stop-opacity="0.668116"/>
<stop offset="0.466667" stop-color="#96EFD5" stop-opacity="0.557309"/>
<stop offset="0.533333" stop-color="#ABF3DE" stop-opacity="0.442691"/>
<stop offset="0.6" stop-color="#C0F6E6" stop-opacity="0.331884"/>
<stop offset="0.666667" stop-color="#D3F9EE" stop-opacity="0.231775"/>
<stop offset="0.733333" stop-color="#E3FBF4" stop-opacity="0.147411"/>
<stop offset="0.8" stop-color="#F0FDF9" stop-opacity="0.0816599"/>
<stop offset="0.866667" stop-color="#F8FEFC" stop-opacity="0.03551"/>
<stop offset="0.933333" stop-color="#FDFFFE" stop-opacity="0.01"/>
<stop offset="1" stop-color="white" stop-opacity="0"/>
</linearGradient>
<linearGradient id="paint6_linear" x1="56.1252" y1="15.5437" x2="56.1252" y2="31.6432" gradientUnits="userSpaceOnUse">
<stop stop-color="#42E3CB"/>
<stop offset="0.0666667" stop-color="#44E3B5" stop-opacity="0.991353"/>
<stop offset="0.133333" stop-color="#49E4B7" stop-opacity="0.96449"/>
<stop offset="0.2" stop-color="#51E5BA" stop-opacity="0.91834"/>
<stop offset="0.266667" stop-color="#5EE7BF" stop-opacity="0.852589"/>
<stop offset="0.333333" stop-color="#6EE9C5" stop-opacity="0.768225"/>
<stop offset="0.4" stop-color="#81ECCD" stop-opacity="0.668116"/>
<stop offset="0.466667" stop-color="#96EFD5" stop-opacity="0.557309"/>
<stop offset="0.533333" stop-color="#ABF3DE" stop-opacity="0.442691"/>
<stop offset="0.6" stop-color="#C0F6E6" stop-opacity="0.331884"/>
<stop offset="0.666667" stop-color="#D3F9EE" stop-opacity="0.231775"/>
<stop offset="0.733333" stop-color="#E3FBF4" stop-opacity="0.147411"/>
<stop offset="0.8" stop-color="#F0FDF9" stop-opacity="0.0816599"/>
<stop offset="0.866667" stop-color="#F8FEFC" stop-opacity="0.03551"/>
<stop offset="0.933333" stop-color="#FDFFFE" stop-opacity="0.01"/>
<stop offset="1" stop-color="white" stop-opacity="0"/>
</linearGradient>
<linearGradient id="paint7_linear" x1="52.4597" y1="18.7637" x2="52.4597" y2="28.4234" gradientUnits="userSpaceOnUse">
<stop stop-color="#42E3CB"/>
<stop offset="0.0666667" stop-color="#44E3B5" stop-opacity="0.991353"/>
<stop offset="0.133333" stop-color="#49E4B7" stop-opacity="0.96449"/>
<stop offset="0.2" stop-color="#51E5BA" stop-opacity="0.91834"/>
<stop offset="0.266667" stop-color="#5EE7BF" stop-opacity="0.852589"/>
<stop offset="0.333333" stop-color="#6EE9C5" stop-opacity="0.768225"/>
<stop offset="0.4" stop-color="#81ECCD" stop-opacity="0.668116"/>
<stop offset="0.466667" stop-color="#96EFD5" stop-opacity="0.557309"/>
<stop offset="0.533333" stop-color="#ABF3DE" stop-opacity="0.442691"/>
<stop offset="0.6" stop-color="#C0F6E6" stop-opacity="0.331884"/>
<stop offset="0.666667" stop-color="#D3F9EE" stop-opacity="0.231775"/>
<stop offset="0.733333" stop-color="#E3FBF4" stop-opacity="0.147411"/>
<stop offset="0.8" stop-color="#F0FDF9" stop-opacity="0.0816599"/>
<stop offset="0.866667" stop-color="#F8FEFC" stop-opacity="0.03551"/>
<stop offset="0.933333" stop-color="#FDFFFE" stop-opacity="0.01"/>
<stop offset="1" stop-color="white" stop-opacity="0"/>
</linearGradient>
<linearGradient id="paint8_linear" x1="48.7731" y1="20.7761" x2="48.7731" y2="26.411" gradientUnits="userSpaceOnUse">
<stop stop-color="#42E3CB"/>
<stop offset="0.0666667" stop-color="#44E3B5" stop-opacity="0.991353"/>
<stop offset="0.133333" stop-color="#49E4B7" stop-opacity="0.96449"/>
<stop offset="0.2" stop-color="#51E5BA" stop-opacity="0.91834"/>
<stop offset="0.266667" stop-color="#5EE7BF" stop-opacity="0.852589"/>
<stop offset="0.333333" stop-color="#6EE9C5" stop-opacity="0.768225"/>
<stop offset="0.4" stop-color="#81ECCD" stop-opacity="0.668116"/>
<stop offset="0.466667" stop-color="#96EFD5" stop-opacity="0.557309"/>
<stop offset="0.533333" stop-color="#ABF3DE" stop-opacity="0.442691"/>
<stop offset="0.6" stop-color="#C0F6E6" stop-opacity="0.331884"/>
<stop offset="0.666667" stop-color="#D3F9EE" stop-opacity="0.231775"/>
<stop offset="0.733333" stop-color="#E3FBF4" stop-opacity="0.147411"/>
<stop offset="0.8" stop-color="#F0FDF9" stop-opacity="0.0816599"/>
<stop offset="0.866667" stop-color="#F8FEFC" stop-opacity="0.03551"/>
<stop offset="0.933333" stop-color="#FDFFFE" stop-opacity="0.01"/>
<stop offset="1" stop-color="white" stop-opacity="0"/>
</linearGradient>
<linearGradient id="paint9_linear" x1="50.6604" y1="39.2908" x2="50.6604" y2="44.1206" gradientUnits="userSpaceOnUse">
<stop stop-color="#42E3CB"/>
<stop offset="0.0666667" stop-color="#44E3B5" stop-opacity="0.991353"/>
<stop offset="0.133333" stop-color="#49E4B7" stop-opacity="0.96449"/>
<stop offset="0.2" stop-color="#51E5BA" stop-opacity="0.91834"/>
<stop offset="0.266667" stop-color="#5EE7BF" stop-opacity="0.852589"/>
<stop offset="0.333333" stop-color="#6EE9C5" stop-opacity="0.768225"/>
<stop offset="0.4" stop-color="#81ECCD" stop-opacity="0.668116"/>
<stop offset="0.466667" stop-color="#96EFD5" stop-opacity="0.557309"/>
<stop offset="0.533333" stop-color="#ABF3DE" stop-opacity="0.442691"/>
<stop offset="0.6" stop-color="#C0F6E6" stop-opacity="0.331884"/>
<stop offset="0.666667" stop-color="#D3F9EE" stop-opacity="0.231775"/>
<stop offset="0.733333" stop-color="#E3FBF4" stop-opacity="0.147411"/>
<stop offset="0.8" stop-color="#F0FDF9" stop-opacity="0.0816599"/>
<stop offset="0.866667" stop-color="#F8FEFC" stop-opacity="0.03551"/>
<stop offset="0.933333" stop-color="#FDFFFE" stop-opacity="0.01"/>
<stop offset="1" stop-color="white" stop-opacity="0"/>
</linearGradient>
<linearGradient id="paint10_linear" x1="45.2427" y1="38.0834" x2="45.2427" y2="47.3406" gradientUnits="userSpaceOnUse">
<stop stop-color="#42E3CB"/>
<stop offset="0.0666667" stop-color="#44E3B5" stop-opacity="0.991353"/>
<stop offset="0.133333" stop-color="#49E4B7" stop-opacity="0.96449"/>
<stop offset="0.2" stop-color="#51E5BA" stop-opacity="0.91834"/>
<stop offset="0.266667" stop-color="#5EE7BF" stop-opacity="0.852589"/>
<stop offset="0.333333" stop-color="#6EE9C5" stop-opacity="0.768225"/>
<stop offset="0.4" stop-color="#81ECCD" stop-opacity="0.668116"/>
<stop offset="0.466667" stop-color="#96EFD5" stop-opacity="0.557309"/>
<stop offset="0.533333" stop-color="#ABF3DE" stop-opacity="0.442691"/>
<stop offset="0.6" stop-color="#C0F6E6" stop-opacity="0.331884"/>
<stop offset="0.666667" stop-color="#D3F9EE" stop-opacity="0.231775"/>
<stop offset="0.733333" stop-color="#E3FBF4" stop-opacity="0.147411"/>
<stop offset="0.8" stop-color="#F0FDF9" stop-opacity="0.0816599"/>
<stop offset="0.866667" stop-color="#F8FEFC" stop-opacity="0.03551"/>
<stop offset="0.933333" stop-color="#FDFFFE" stop-opacity="0.01"/>
<stop offset="1" stop-color="white" stop-opacity="0"/>
</linearGradient>
<linearGradient id="paint11_linear" x1="32.004" y1="40.498" x2="32.004" y2="54.1826" gradientUnits="userSpaceOnUse">
<stop stop-color="#42E3CB"/>
<stop offset="0.0666667" stop-color="#44E3B5" stop-opacity="0.991353"/>
<stop offset="0.133333" stop-color="#49E4B7" stop-opacity="0.96449"/>
<stop offset="0.2" stop-color="#51E5BA" stop-opacity="0.91834"/>
<stop offset="0.266667" stop-color="#5EE7BF" stop-opacity="0.852589"/>
<stop offset="0.333333" stop-color="#6EE9C5" stop-opacity="0.768225"/>
<stop offset="0.4" stop-color="#81ECCD" stop-opacity="0.668116"/>
<stop offset="0.466667" stop-color="#96EFD5" stop-opacity="0.557309"/>
<stop offset="0.533333" stop-color="#ABF3DE" stop-opacity="0.442691"/>
<stop offset="0.6" stop-color="#C0F6E6" stop-opacity="0.331884"/>
<stop offset="0.666667" stop-color="#D3F9EE" stop-opacity="0.231775"/>
<stop offset="0.733333" stop-color="#E3FBF4" stop-opacity="0.147411"/>
<stop offset="0.8" stop-color="#F0FDF9" stop-opacity="0.0816599"/>
<stop offset="0.866667" stop-color="#F8FEFC" stop-opacity="0.03551"/>
<stop offset="0.933333" stop-color="#FDFFFE" stop-opacity="0.01"/>
<stop offset="1" stop-color="white" stop-opacity="0"/>
</linearGradient>
<linearGradient id="paint12_linear" x1="34.9074" y1="40.0953" x2="34.9074" y2="51.365" gradientUnits="userSpaceOnUse">
<stop stop-color="#42E3CB"/>
<stop offset="0.0666667" stop-color="#44E3B5" stop-opacity="0.991353"/>
<stop offset="0.133333" stop-color="#49E4B7" stop-opacity="0.96449"/>
<stop offset="0.2" stop-color="#51E5BA" stop-opacity="0.91834"/>
<stop offset="0.266667" stop-color="#5EE7BF" stop-opacity="0.852589"/>
<stop offset="0.333333" stop-color="#6EE9C5" stop-opacity="0.768225"/>
<stop offset="0.4" stop-color="#81ECCD" stop-opacity="0.668116"/>
<stop offset="0.466667" stop-color="#96EFD5" stop-opacity="0.557309"/>
<stop offset="0.533333" stop-color="#ABF3DE" stop-opacity="0.442691"/>
<stop offset="0.6" stop-color="#C0F6E6" stop-opacity="0.331884"/>
<stop offset="0.666667" stop-color="#D3F9EE" stop-opacity="0.231775"/>
<stop offset="0.733333" stop-color="#E3FBF4" stop-opacity="0.147411"/>
<stop offset="0.8" stop-color="#F0FDF9" stop-opacity="0.0816599"/>
<stop offset="0.866667" stop-color="#F8FEFC" stop-opacity="0.03551"/>
<stop offset="0.933333" stop-color="#FDFFFE" stop-opacity="0.01"/>
<stop offset="1" stop-color="white" stop-opacity="0"/>
</linearGradient>
<linearGradient id="paint13_linear" x1="27.4552" y1="40.0953" x2="27.4552" y2="51.365" gradientUnits="userSpaceOnUse">
<stop stop-color="#42E3CB"/>
<stop offset="0.0666667" stop-color="#44E3B5" stop-opacity="0.991353"/>
<stop offset="0.133333" stop-color="#49E4B7" stop-opacity="0.96449"/>
<stop offset="0.2" stop-color="#51E5BA" stop-opacity="0.91834"/>
<stop offset="0.266667" stop-color="#5EE7BF" stop-opacity="0.852589"/>
<stop offset="0.333333" stop-color="#6EE9C5" stop-opacity="0.768225"/>
<stop offset="0.4" stop-color="#81ECCD" stop-opacity="0.668116"/>
<stop offset="0.466667" stop-color="#96EFD5" stop-opacity="0.557309"/>
<stop offset="0.533333" stop-color="#ABF3DE" stop-opacity="0.442691"/>
<stop offset="0.6" stop-color="#C0F6E6" stop-opacity="0.331884"/>
<stop offset="0.666667" stop-color="#D3F9EE" stop-opacity="0.231775"/>
<stop offset="0.733333" stop-color="#E3FBF4" stop-opacity="0.147411"/>
<stop offset="0.8" stop-color="#F0FDF9" stop-opacity="0.0816599"/>
<stop offset="0.866667" stop-color="#F8FEFC" stop-opacity="0.03551"/>
<stop offset="0.933333" stop-color="#FDFFFE" stop-opacity="0.01"/>
<stop offset="1" stop-color="white" stop-opacity="0"/>
</linearGradient>
</defs>
</svg>
