<svg width="61" height="56" viewBox="0 0 61 56" fill="none" xmlns="http://www.w3.org/2000/svg">
<path d="M30.7585 32.4309C33.5648 32.4309 35.8172 30.1416 35.8172 27.2893C35.8172 24.437 33.5648 22.1476 30.7585 22.1476C27.9522 22.1476 25.6998 24.437 25.6998 27.2893C25.6998 30.1416 27.9522 32.4309 30.7585 32.4309ZM30.7585 24.6997C32.1616 24.6997 33.3063 25.8631 33.3063 27.2893C33.3063 28.7155 32.1616 29.8789 30.7585 29.8789C29.3554 29.8789 28.2107 28.7155 28.2107 27.2893C28.2107 25.8631 29.3184 24.6997 30.7585 24.6997ZM58.1567 23.0108C58.1198 22.9733 58.046 22.9358 58.0091 22.9358C58.0829 22.5605 58.1567 22.1852 58.1567 21.8099C58.1567 18.9576 55.9043 16.6682 53.098 16.6682C51.1041 16.6682 49.4056 17.8317 48.5563 19.5205C47.4117 19.2578 46.2301 19.0326 44.9746 18.845C46.9316 13.7409 48.0024 9.2372 48.0024 5.93453C48.0024 3.60765 47.4855 1.5435 45.75 0.492648C45.1592 0.154875 44.4946 -0.032795 43.793 0.00473529C40.7651 0.0797959 37.5157 2.63186 33.7494 6.57254C32.6786 7.73598 31.5708 9.01203 30.5 10.4007C29.8723 9.61251 29.2446 8.86189 28.6538 8.18635C29.2076 7.36068 29.5031 6.38491 29.5031 5.33406C29.5031 2.48176 27.2507 0.192398 24.4444 0.192398C23.2259 0.192398 22.0812 0.642761 21.195 1.39337C19.7918 0.5677 18.4994 0.079804 17.207 0.0422736C16.5424 0.0422736 15.8408 0.192385 15.25 0.530158C13.5145 1.58101 13.0346 3.64519 12.9976 5.97207C12.9976 9.31227 14.0685 13.7784 16.0255 18.8825C13.6254 19.2578 11.4098 19.7457 9.48973 20.2711C6.75728 21.0593 4.54187 21.96 2.88025 23.0484C1.25555 24.1367 0.0369249 25.5254 0 27.3268C0.0369249 29.1658 1.25555 30.5169 2.88025 31.6053C5.68654 33.4443 10.3021 34.9079 16.0624 35.8087C14.1053 40.9128 13.0346 45.3789 13.0346 48.7191C13.0346 51.046 13.5515 53.1101 15.287 54.161C15.8778 54.4988 16.5424 54.6489 17.207 54.6489C17.9455 54.6114 18.721 54.4613 19.4965 54.1235C20.4196 55.2494 21.8227 56 23.4105 56C26.2168 56 28.4692 53.7106 28.4692 50.8583C28.4692 49.7324 28.0999 48.6816 27.4721 47.8184C28.4691 46.73 29.4661 45.529 30.5 44.253C31.6077 45.6416 32.6786 46.9177 33.7494 48.0811C37.5157 52.0218 40.7651 54.5363 43.793 54.6489C44.4576 54.6489 45.1222 54.4988 45.713 54.161L45.0854 53.0726L45.713 54.161C47.4485 53.0726 47.9286 51.046 47.9655 48.7191C47.9655 45.3789 46.8947 40.9128 44.9376 35.8087C47.3378 35.4334 49.5533 34.9455 51.5103 34.4201C54.2427 33.6319 56.4582 32.7312 58.1199 31.6053C59.7446 30.5169 60.9631 29.1283 61 27.3268C61 25.4878 59.7814 24.0992 58.1567 23.0108ZM53.098 19.1827C54.5012 19.1827 55.6458 20.3462 55.6458 21.7723C55.6458 23.1985 54.5012 24.3619 53.098 24.3619C51.6949 24.3619 50.5502 23.1985 50.5502 21.7723C50.5502 20.3462 51.6949 19.1827 53.098 19.1827ZM35.6326 8.26142C39.0297 4.54592 42.2421 2.48175 43.756 2.48175C43.7929 2.48175 43.8299 2.48175 43.8668 2.48175C44.1622 2.48175 44.3838 2.55681 44.5684 2.63188L45.1961 1.54349L44.5684 2.63188C45.0115 2.85706 45.5654 3.83285 45.5654 5.85949C45.5654 8.78685 44.4945 13.253 42.4636 18.4321C40.3958 18.1694 38.2173 17.9818 35.928 17.8692C34.6725 15.9176 33.4171 14.0786 32.1617 12.3898C33.3063 10.8885 34.4879 9.46239 35.6326 8.26142ZM22.4134 32.0556C22.7827 32.7312 23.1889 33.3692 23.5581 34.0447C22.2288 33.9321 20.8995 33.8196 19.6441 33.707C20.161 32.506 20.7149 31.305 21.3057 30.0665C21.6381 30.7045 22.0073 31.3801 22.4134 32.0556ZM19.6441 20.9091C20.8995 20.759 22.2288 20.6464 23.5951 20.5338C23.1889 21.1718 22.8196 21.8474 22.4134 22.5229C22.0442 23.1985 21.675 23.874 21.3057 24.5496C20.678 23.3111 20.161 22.0726 19.6441 20.9091ZM22.6719 27.2893C23.2627 26.1259 23.9273 24.9624 24.592 23.799C25.2566 22.6355 25.9583 21.4721 26.6229 20.3837C27.9153 20.3462 29.2077 20.3087 30.537 20.3087C31.8663 20.3087 33.1955 20.3462 34.451 20.3837C35.1526 21.4721 35.8172 22.6355 36.4818 23.799C37.1465 24.9624 37.7743 26.1259 38.402 27.2893C37.8112 28.4527 37.1834 29.6162 36.4818 30.7796C35.8172 31.9431 35.1156 33.1065 34.451 34.1949C33.1586 34.2324 31.8663 34.2699 30.537 34.2699C29.2077 34.2699 27.8783 34.2324 26.586 34.1949C25.8844 33.069 25.2198 31.9431 24.5551 30.7796C23.8905 29.6162 23.2627 28.4527 22.6719 27.2893ZM38.6604 32.0556C39.0296 31.3801 39.3989 30.7045 39.7682 30.029C40.359 31.2675 40.9128 32.4685 41.4297 33.6694C40.1743 33.8196 38.845 33.9321 37.5157 34.0447C37.885 33.4067 38.2911 32.7312 38.6604 32.0556ZM39.8051 24.5496C39.4359 23.874 39.0666 23.1985 38.6973 22.5229C38.3281 21.8474 37.9219 21.2094 37.5527 20.5338C38.9189 20.6464 40.2113 20.759 41.4667 20.9091C40.9497 22.0726 40.3959 23.3111 39.8051 24.5496ZM32.8263 17.7941C32.0878 17.7941 31.3124 17.7566 30.537 17.7566C29.7615 17.7566 29.0231 17.7566 28.2476 17.7941C29.0231 16.6682 29.7615 15.5798 30.5 14.529C31.3123 15.5423 32.0509 16.6307 32.8263 17.7941ZM24.4812 2.63188C25.8844 2.63188 27.0291 3.7953 27.0291 5.22145C27.0291 6.6476 25.8844 7.81105 24.4812 7.81105C23.0781 7.81105 21.9334 6.6476 21.9334 5.22145C21.9334 3.7953 23.0781 2.63188 24.4812 2.63188ZM15.5455 5.897C15.5455 3.87036 16.0624 2.89457 16.5424 2.66938C16.727 2.55679 16.9117 2.51929 17.244 2.51929C17.2809 2.51929 17.3178 2.51929 17.3547 2.51929C17.9455 2.51929 18.7579 2.81952 19.7918 3.42001C19.5703 3.98296 19.4595 4.62097 19.4595 5.25899C19.4595 8.11129 21.7119 10.4007 24.5182 10.4007C25.3675 10.4007 26.1429 10.1755 26.8445 9.80015C27.546 10.6258 28.2476 11.489 28.9861 12.3898C27.7306 14.0786 26.4752 15.9176 25.2198 17.8692C22.9304 17.9818 20.7519 18.1694 18.6841 18.4321C16.6163 13.2905 15.5455 8.82436 15.5455 5.897ZM10.1913 31.9055C7.64349 31.1924 5.57567 30.3293 4.2833 29.4285C2.95401 28.5278 2.5109 27.7397 2.54783 27.2518C2.5109 26.8014 2.95401 25.9757 4.2833 25.075C6.60957 23.4612 11.2253 22.0726 17.0594 21.1718C17.8717 23.1234 18.8317 25.1501 19.8656 27.2142C18.8317 29.2784 17.8717 31.305 17.0594 33.2566C14.5116 32.9564 12.1853 32.4685 10.1913 31.9055ZM23.4473 53.4479C22.0442 53.4479 20.8995 52.2845 20.8995 50.8583C20.8995 49.4322 22.0442 48.2687 23.4473 48.2687C24.8505 48.2687 25.9952 49.4322 25.9952 50.8583C25.9952 52.2845 24.8505 53.4479 23.4473 53.4479ZM25.589 46.2046C24.9244 45.9043 24.2228 45.7167 23.4473 45.7167C20.641 45.7167 18.3886 48.006 18.3886 50.8583C18.3886 51.1961 18.4255 51.4964 18.4624 51.8341C17.9824 52.0218 17.5394 52.1344 17.244 52.0968C16.9486 52.0968 16.727 52.0218 16.5424 51.9467C16.0993 51.7215 15.5455 50.7082 15.5455 48.7191C15.5455 45.7917 16.6163 41.3256 18.6471 36.184C20.7149 36.4467 22.8935 36.6343 25.1828 36.7469C26.4383 38.6985 27.6938 40.5375 28.9492 42.2263C27.8045 43.6525 26.6599 45.0036 25.589 46.2046ZM30.537 40.0871C29.7615 39.0363 29.0231 37.9479 28.2476 36.822C28.9861 36.822 29.7615 36.8595 30.537 36.8595C31.3124 36.8595 32.0509 36.8595 32.8263 36.822C32.0509 37.9479 31.3124 39.0363 30.537 40.0871ZM45.5285 48.6816C45.5285 50.7082 45.0116 51.684 44.5315 51.9092C44.3469 52.0218 44.1623 52.0593 43.8299 52.0593C42.3899 52.1344 39.1035 50.1077 35.5957 46.2796C34.451 45.0787 33.2693 43.6525 32.0877 42.1513C33.3432 40.4624 34.5987 38.6235 35.8542 36.6719C38.1435 36.5593 40.322 36.3716 42.3898 36.1089C44.4576 41.2881 45.5285 45.7542 45.5285 48.6816ZM56.7905 29.466C54.4642 31.0798 49.8487 32.4685 44.0145 33.3692C43.2022 31.4176 42.2421 29.391 41.2082 27.3268C42.2421 25.2626 43.2022 23.236 44.0145 21.2845C45.4177 21.5096 46.7839 21.7348 48.0393 22.035C48.1501 24.7748 50.3656 26.989 53.098 26.989C54.6119 26.989 55.9413 26.3135 56.8644 25.2627C58.1199 26.1259 58.5629 26.914 58.526 27.3643C58.5629 27.7772 58.1198 28.5653 56.7905 29.466Z" fill="#0066FF"/>
<path d="M30.7585 32.4309C33.5648 32.4309 35.8172 30.1416 35.8172 27.2893C35.8172 24.437 33.5648 22.1476 30.7585 22.1476C27.9522 22.1476 25.6998 24.437 25.6998 27.2893C25.6998 30.1416 27.9522 32.4309 30.7585 32.4309ZM30.7585 24.6997C32.1616 24.6997 33.3063 25.8631 33.3063 27.2893C33.3063 28.7155 32.1616 29.8789 30.7585 29.8789C29.3554 29.8789 28.2107 28.7155 28.2107 27.2893C28.2107 25.8631 29.3184 24.6997 30.7585 24.6997ZM58.1567 23.0108C58.1198 22.9733 58.046 22.9358 58.0091 22.9358C58.0829 22.5605 58.1567 22.1852 58.1567 21.8099C58.1567 18.9576 55.9043 16.6682 53.098 16.6682C51.1041 16.6682 49.4056 17.8317 48.5563 19.5205C47.4117 19.2578 46.2301 19.0326 44.9746 18.845C46.9316 13.7409 48.0024 9.2372 48.0024 5.93453C48.0024 3.60765 47.4855 1.5435 45.75 0.492648C45.1592 0.154875 44.4946 -0.032795 43.793 0.00473529C40.7651 0.0797959 37.5157 2.63186 33.7494 6.57254C32.6786 7.73598 31.5708 9.01203 30.5 10.4007C29.8723 9.61251 29.2446 8.86189 28.6538 8.18635C29.2076 7.36068 29.5031 6.38491 29.5031 5.33406C29.5031 2.48176 27.2507 0.192398 24.4444 0.192398C23.2259 0.192398 22.0812 0.642761 21.195 1.39337C19.7918 0.5677 18.4994 0.079804 17.207 0.0422736C16.5424 0.0422736 15.8408 0.192385 15.25 0.530158C13.5145 1.58101 13.0346 3.64519 12.9976 5.97207C12.9976 9.31227 14.0685 13.7784 16.0255 18.8825C13.6254 19.2578 11.4098 19.7457 9.48973 20.2711C6.75728 21.0593 4.54187 21.96 2.88025 23.0484C1.25555 24.1367 0.0369249 25.5254 0 27.3268C0.0369249 29.1658 1.25555 30.5169 2.88025 31.6053C5.68654 33.4443 10.3021 34.9079 16.0624 35.8087C14.1053 40.9128 13.0346 45.3789 13.0346 48.7191C13.0346 51.046 13.5515 53.1101 15.287 54.161C15.8778 54.4988 16.5424 54.6489 17.207 54.6489C17.9455 54.6114 18.721 54.4613 19.4965 54.1235C20.4196 55.2494 21.8227 56 23.4105 56C26.2168 56 28.4692 53.7106 28.4692 50.8583C28.4692 49.7324 28.0999 48.6816 27.4721 47.8184C28.4691 46.73 29.4661 45.529 30.5 44.253C31.6077 45.6416 32.6786 46.9177 33.7494 48.0811C37.5157 52.0218 40.7651 54.5363 43.793 54.6489C44.4576 54.6489 45.1222 54.4988 45.713 54.161L45.0854 53.0726L45.713 54.161C47.4485 53.0726 47.9286 51.046 47.9655 48.7191C47.9655 45.3789 46.8947 40.9128 44.9376 35.8087C47.3378 35.4334 49.5533 34.9455 51.5103 34.4201C54.2427 33.6319 56.4582 32.7312 58.1199 31.6053C59.7446 30.5169 60.9631 29.1283 61 27.3268C61 25.4878 59.7814 24.0992 58.1567 23.0108ZM53.098 19.1827C54.5012 19.1827 55.6458 20.3462 55.6458 21.7723C55.6458 23.1985 54.5012 24.3619 53.098 24.3619C51.6949 24.3619 50.5502 23.1985 50.5502 21.7723C50.5502 20.3462 51.6949 19.1827 53.098 19.1827ZM35.6326 8.26142C39.0297 4.54592 42.2421 2.48175 43.756 2.48175C43.7929 2.48175 43.8299 2.48175 43.8668 2.48175C44.1622 2.48175 44.3838 2.55681 44.5684 2.63188L45.1961 1.54349L44.5684 2.63188C45.0115 2.85706 45.5654 3.83285 45.5654 5.85949C45.5654 8.78685 44.4945 13.253 42.4636 18.4321C40.3958 18.1694 38.2173 17.9818 35.928 17.8692C34.6725 15.9176 33.4171 14.0786 32.1617 12.3898C33.3063 10.8885 34.4879 9.46239 35.6326 8.26142ZM22.4134 32.0556C22.7827 32.7312 23.1889 33.3692 23.5581 34.0447C22.2288 33.9321 20.8995 33.8196 19.6441 33.707C20.161 32.506 20.7149 31.305 21.3057 30.0665C21.6381 30.7045 22.0073 31.3801 22.4134 32.0556ZM19.6441 20.9091C20.8995 20.759 22.2288 20.6464 23.5951 20.5338C23.1889 21.1718 22.8196 21.8474 22.4134 22.5229C22.0442 23.1985 21.675 23.874 21.3057 24.5496C20.678 23.3111 20.161 22.0726 19.6441 20.9091ZM22.6719 27.2893C23.2627 26.1259 23.9273 24.9624 24.592 23.799C25.2566 22.6355 25.9583 21.4721 26.6229 20.3837C27.9153 20.3462 29.2077 20.3087 30.537 20.3087C31.8663 20.3087 33.1955 20.3462 34.451 20.3837C35.1526 21.4721 35.8172 22.6355 36.4818 23.799C37.1465 24.9624 37.7743 26.1259 38.402 27.2893C37.8112 28.4527 37.1834 29.6162 36.4818 30.7796C35.8172 31.9431 35.1156 33.1065 34.451 34.1949C33.1586 34.2324 31.8663 34.2699 30.537 34.2699C29.2077 34.2699 27.8783 34.2324 26.586 34.1949C25.8844 33.069 25.2198 31.9431 24.5551 30.7796C23.8905 29.6162 23.2627 28.4527 22.6719 27.2893ZM38.6604 32.0556C39.0296 31.3801 39.3989 30.7045 39.7682 30.029C40.359 31.2675 40.9128 32.4685 41.4297 33.6694C40.1743 33.8196 38.845 33.9321 37.5157 34.0447C37.885 33.4067 38.2911 32.7312 38.6604 32.0556ZM39.8051 24.5496C39.4359 23.874 39.0666 23.1985 38.6973 22.5229C38.3281 21.8474 37.9219 21.2094 37.5527 20.5338C38.9189 20.6464 40.2113 20.759 41.4667 20.9091C40.9497 22.0726 40.3959 23.3111 39.8051 24.5496ZM32.8263 17.7941C32.0878 17.7941 31.3124 17.7566 30.537 17.7566C29.7615 17.7566 29.0231 17.7566 28.2476 17.7941C29.0231 16.6682 29.7615 15.5798 30.5 14.529C31.3123 15.5423 32.0509 16.6307 32.8263 17.7941ZM24.4812 2.63188C25.8844 2.63188 27.0291 3.7953 27.0291 5.22145C27.0291 6.6476 25.8844 7.81105 24.4812 7.81105C23.0781 7.81105 21.9334 6.6476 21.9334 5.22145C21.9334 3.7953 23.0781 2.63188 24.4812 2.63188ZM15.5455 5.897C15.5455 3.87036 16.0624 2.89457 16.5424 2.66938C16.727 2.55679 16.9117 2.51929 17.244 2.51929C17.2809 2.51929 17.3178 2.51929 17.3547 2.51929C17.9455 2.51929 18.7579 2.81952 19.7918 3.42001C19.5703 3.98296 19.4595 4.62097 19.4595 5.25899C19.4595 8.11129 21.7119 10.4007 24.5182 10.4007C25.3675 10.4007 26.1429 10.1755 26.8445 9.80015C27.546 10.6258 28.2476 11.489 28.9861 12.3898C27.7306 14.0786 26.4752 15.9176 25.2198 17.8692C22.9304 17.9818 20.7519 18.1694 18.6841 18.4321C16.6163 13.2905 15.5455 8.82436 15.5455 5.897ZM10.1913 31.9055C7.64349 31.1924 5.57567 30.3293 4.2833 29.4285C2.95401 28.5278 2.5109 27.7397 2.54783 27.2518C2.5109 26.8014 2.95401 25.9757 4.2833 25.075C6.60957 23.4612 11.2253 22.0726 17.0594 21.1718C17.8717 23.1234 18.8317 25.1501 19.8656 27.2142C18.8317 29.2784 17.8717 31.305 17.0594 33.2566C14.5116 32.9564 12.1853 32.4685 10.1913 31.9055ZM23.4473 53.4479C22.0442 53.4479 20.8995 52.2845 20.8995 50.8583C20.8995 49.4322 22.0442 48.2687 23.4473 48.2687C24.8505 48.2687 25.9952 49.4322 25.9952 50.8583C25.9952 52.2845 24.8505 53.4479 23.4473 53.4479ZM25.589 46.2046C24.9244 45.9043 24.2228 45.7167 23.4473 45.7167C20.641 45.7167 18.3886 48.006 18.3886 50.8583C18.3886 51.1961 18.4255 51.4964 18.4624 51.8341C17.9824 52.0218 17.5394 52.1344 17.244 52.0968C16.9486 52.0968 16.727 52.0218 16.5424 51.9467C16.0993 51.7215 15.5455 50.7082 15.5455 48.7191C15.5455 45.7917 16.6163 41.3256 18.6471 36.184C20.7149 36.4467 22.8935 36.6343 25.1828 36.7469C26.4383 38.6985 27.6938 40.5375 28.9492 42.2263C27.8045 43.6525 26.6599 45.0036 25.589 46.2046ZM30.537 40.0871C29.7615 39.0363 29.0231 37.9479 28.2476 36.822C28.9861 36.822 29.7615 36.8595 30.537 36.8595C31.3124 36.8595 32.0509 36.8595 32.8263 36.822C32.0509 37.9479 31.3124 39.0363 30.537 40.0871ZM45.5285 48.6816C45.5285 50.7082 45.0116 51.684 44.5315 51.9092C44.3469 52.0218 44.1623 52.0593 43.8299 52.0593C42.3899 52.1344 39.1035 50.1077 35.5957 46.2796C34.451 45.0787 33.2693 43.6525 32.0877 42.1513C33.3432 40.4624 34.5987 38.6235 35.8542 36.6719C38.1435 36.5593 40.322 36.3716 42.3898 36.1089C44.4576 41.2881 45.5285 45.7542 45.5285 48.6816ZM56.7905 29.466C54.4642 31.0798 49.8487 32.4685 44.0145 33.3692C43.2022 31.4176 42.2421 29.391 41.2082 27.3268C42.2421 25.2626 43.2022 23.236 44.0145 21.2845C45.4177 21.5096 46.7839 21.7348 48.0393 22.035C48.1501 24.7748 50.3656 26.989 53.098 26.989C54.6119 26.989 55.9413 26.3135 56.8644 25.2627C58.1199 26.1259 58.5629 26.914 58.526 27.3643C58.5629 27.7772 58.1198 28.5653 56.7905 29.466Z" fill="url(#paint0_linear)"/>
<defs>
<linearGradient id="paint0_linear" x1="24.7876" y1="4.67468e-08" x2="24.7876" y2="56" gradientUnits="userSpaceOnUse">
<stop stop-color="#42E3CB"/>
<stop offset="0.0666667" stop-color="#44E3B5" stop-opacity="0.991353"/>
<stop offset="0.133333" stop-color="#49E4B7" stop-opacity="0.96449"/>
<stop offset="0.2" stop-color="#51E5BA" stop-opacity="0.91834"/>
<stop offset="0.266667" stop-color="#5EE7BF" stop-opacity="0.852589"/>
<stop offset="0.333333" stop-color="#6EE9C5" stop-opacity="0.768225"/>
<stop offset="0.4" stop-color="#81ECCD" stop-opacity="0.668116"/>
<stop offset="0.466667" stop-color="#96EFD5" stop-opacity="0.557309"/>
<stop offset="0.533333" stop-color="#ABF3DE" stop-opacity="0.442691"/>
<stop offset="0.6" stop-color="#C0F6E6" stop-opacity="0.331884"/>
<stop offset="0.666667" stop-color="#D3F9EE" stop-opacity="0.231775"/>
<stop offset="0.733333" stop-color="#E3FBF4" stop-opacity="0.147411"/>
<stop offset="0.8" stop-color="#F0FDF9" stop-opacity="0.0816599"/>
<stop offset="0.866667" stop-color="#F8FEFC" stop-opacity="0.03551"/>
<stop offset="0.933333" stop-color="#FDFFFE" stop-opacity="0.01"/>
<stop offset="1" stop-color="white" stop-opacity="0"/>
</linearGradient>
</defs>
</svg>
