<svg width="93" height="91" viewBox="0 0 93 91" fill="none" xmlns="http://www.w3.org/2000/svg">
<path d="M17.1426 29.5046L10.1396 18.1337L18.5274 9.93425L30.1595 16.78C32.3752 15.5424 34.7491 14.5754 37.2813 13.8793L40.5652 1H52.4348L55.7187 13.8793C58.2509 14.5754 60.6248 15.5424 62.8405 16.78L74.4726 9.93425L82.8604 18.1337L75.8574 29.5046C77.1235 31.6704 78.1127 33.991 78.8248 36.4663L92 39.6764V51.2794L78.8248 54.4895C78.1127 56.9648 77.1235 59.2854 75.8574 61.4513L82.8604 72.8222L74.4726 81.0216L62.8405 74.1758C60.6248 75.4135 58.2509 76.3804 55.7187 77.0766L52.4348 89.9558H40.5652L37.2813 77.0766C34.7491 76.3804 32.3752 75.4135 30.1595 74.1758L18.5274 81.0216L10.1396 72.8222L17.1426 61.4513C15.8765 59.2854 14.8874 56.9648 14.1752 54.4895L1 51.2794V39.6764L14.1752 36.4663C14.8874 33.991 15.8765 31.6704 17.1426 29.5046Z" stroke="black" stroke-width="1.5" stroke-miterlimit="10" stroke-linecap="round" stroke-linejoin="round"/>
<path d="M46.5014 64.8166C57.427 64.8166 66.284 56.1586 66.284 45.4784C66.284 34.7982 57.427 26.1401 46.5014 26.1401C35.5757 26.1401 26.7188 34.7982 26.7188 45.4784C26.7188 56.1586 35.5757 64.8166 46.5014 64.8166Z" stroke="black" stroke-width="1.5" stroke-miterlimit="10" stroke-linecap="round" stroke-linejoin="round"/>
</svg>
