<svg width="91" height="92" viewBox="0 0 91 92" fill="none" xmlns="http://www.w3.org/2000/svg">
<path d="M76.4465 37.4887L53.9829 14.731C50.8872 11.5948 50.8872 6.48839 53.9829 3.35217C57.0786 0.215944 62.119 0.215944 65.2147 3.35217L87.6783 26.1099C90.774 29.2461 90.774 34.3525 87.6783 37.4887C84.5826 40.6652 79.5422 40.6652 76.4465 37.4887Z" stroke="black" stroke-width="1.5" stroke-miterlimit="10" stroke-linecap="round" stroke-linejoin="round"/>
<path d="M71.4236 32.3976L59.0195 19.8311L36.5686 42.5759L48.9728 55.1425L71.4236 32.3976Z" stroke="black" stroke-width="1.5" stroke-miterlimit="10" stroke-linecap="round" stroke-linejoin="round"/>
<path d="M48.3876 54.5773L37.1559 43.1985C30.9645 36.926 20.9234 36.926 14.6924 43.1985L48.3876 77.3351C54.579 71.0224 54.579 60.8498 48.3876 54.5773Z" stroke="black" stroke-width="1.5" stroke-miterlimit="10" stroke-linecap="round" stroke-linejoin="round"/>
<path d="M1 90.6832L25.9242 54.5767L37.156 65.9555L1 90.6832Z" stroke="black" stroke-width="1.5" stroke-miterlimit="10" stroke-linecap="round" stroke-linejoin="round"/>
</svg>
