<svg width="49" height="56" viewBox="0 0 49 56" fill="none" xmlns="http://www.w3.org/2000/svg">
<path d="M21.359 43.1502C33.1378 43.1502 42.718 33.5127 42.718 21.5751C42.718 9.67706 33.1771 0 21.359 0C9.58014 0 0 9.6374 0 21.5751C0.0392628 33.5127 9.58014 43.1502 21.359 43.1502ZM21.359 2.61758C31.7244 2.61758 40.1266 11.1048 40.1266 21.5751C40.0874 32.0453 31.7244 40.5326 21.359 40.5326C10.9936 40.5326 2.59136 32.0453 2.59136 21.5751C2.63062 11.1048 10.9936 2.65724 21.359 2.61758ZM40.9119 41.3258C46.3301 35.8527 49 28.7139 49 21.5751C49 14.4363 46.2909 7.29745 40.9119 1.82436L39.1057 3.64872C44.0136 8.60622 46.4479 15.0708 46.4479 21.5354C46.4479 28.0397 44.0136 34.5043 39.1057 39.4618C34.1979 44.4193 27.7981 46.8782 21.359 46.8782C14.9591 46.8782 8.52003 44.4193 3.61217 39.4618L1.80606 41.2861C6.87096 46.4419 13.4672 49.1388 20.1419 49.4164V53.3824H12.093V56H30.8213V53.3824H22.7332V49.4164C29.3686 49.1388 35.8862 46.4419 40.9119 41.3258Z" fill="#0066FF"/>
<path d="M21.359 43.1502C33.1378 43.1502 42.718 33.5127 42.718 21.5751C42.718 9.67706 33.1771 0 21.359 0C9.58014 0 0 9.6374 0 21.5751C0.0392628 33.5127 9.58014 43.1502 21.359 43.1502ZM21.359 2.61758C31.7244 2.61758 40.1266 11.1048 40.1266 21.5751C40.0874 32.0453 31.7244 40.5326 21.359 40.5326C10.9936 40.5326 2.59136 32.0453 2.59136 21.5751C2.63062 11.1048 10.9936 2.65724 21.359 2.61758ZM40.9119 41.3258C46.3301 35.8527 49 28.7139 49 21.5751C49 14.4363 46.2909 7.29745 40.9119 1.82436L39.1057 3.64872C44.0136 8.60622 46.4479 15.0708 46.4479 21.5354C46.4479 28.0397 44.0136 34.5043 39.1057 39.4618C34.1979 44.4193 27.7981 46.8782 21.359 46.8782C14.9591 46.8782 8.52003 44.4193 3.61217 39.4618L1.80606 41.2861C6.87096 46.4419 13.4672 49.1388 20.1419 49.4164V53.3824H12.093V56H30.8213V53.3824H22.7332V49.4164C29.3686 49.1388 35.8862 46.4419 40.9119 41.3258Z" fill="url(#paint0_linear)"/>
<defs>
<linearGradient id="paint0_linear" x1="19.9114" y1="4.67468e-08" x2="19.9114" y2="56" gradientUnits="userSpaceOnUse">
<stop stop-color="#42E3CB"/>
<stop offset="0.0666667" stop-color="#44E3B5" stop-opacity="0.991353"/>
<stop offset="0.133333" stop-color="#49E4B7" stop-opacity="0.96449"/>
<stop offset="0.2" stop-color="#51E5BA" stop-opacity="0.91834"/>
<stop offset="0.266667" stop-color="#5EE7BF" stop-opacity="0.852589"/>
<stop offset="0.333333" stop-color="#6EE9C5" stop-opacity="0.768225"/>
<stop offset="0.4" stop-color="#81ECCD" stop-opacity="0.668116"/>
<stop offset="0.466667" stop-color="#96EFD5" stop-opacity="0.557309"/>
<stop offset="0.533333" stop-color="#ABF3DE" stop-opacity="0.442691"/>
<stop offset="0.6" stop-color="#C0F6E6" stop-opacity="0.331884"/>
<stop offset="0.666667" stop-color="#D3F9EE" stop-opacity="0.231775"/>
<stop offset="0.733333" stop-color="#E3FBF4" stop-opacity="0.147411"/>
<stop offset="0.8" stop-color="#F0FDF9" stop-opacity="0.0816599"/>
<stop offset="0.866667" stop-color="#F8FEFC" stop-opacity="0.03551"/>
<stop offset="0.933333" stop-color="#FDFFFE" stop-opacity="0.01"/>
<stop offset="1" stop-color="white" stop-opacity="0"/>
</linearGradient>
</defs>
</svg>
